<svg width="349" height="338" viewBox="0 0 349 338" fill="none" xmlns="http://www.w3.org/2000/svg">
<path d="M174.507 336.918C270.379 337.113 348.189 292.4 348.302 237.048C348.415 181.696 270.787 136.666 174.915 136.471C79.0433 136.276 1.2326 180.989 1.11988 236.341C1.00716 291.693 78.6351 336.722 174.507 336.918Z" fill="#F0F0F0"/>
<path d="M282.53 280.693C298.79 280.726 311.987 273.143 312.006 263.756C312.025 254.368 298.859 246.732 282.599 246.699C266.339 246.665 253.142 254.249 253.123 263.636C253.104 273.023 266.27 280.66 282.53 280.693Z" fill="#E0E0E0"/>
<path d="M79.1917 285.518L19.208 250.723C17.3314 249.636 17.335 247.882 19.216 246.803L117.588 190.272C118.64 189.74 119.803 189.464 120.982 189.466C122.161 189.469 123.323 189.749 124.373 190.286L184.357 225.08C186.234 226.167 186.23 227.921 184.349 229L85.9774 285.531C84.925 286.063 83.762 286.339 82.5829 286.337C81.4038 286.334 80.2419 286.054 79.1917 285.518Z" fill="#E0E0E0"/>
<path d="M77.2342 241.027C77.2342 241.027 76.8359 226.74 70.7295 215.153C64.6232 203.566 55.547 195.892 46.5834 194.408C37.6199 192.923 29.625 200.606 38.7919 207.131C47.9588 213.655 64.6173 220.939 70.6877 242.937L77.2342 241.027Z" fill="#BA68C8"/>
<g opacity="0.15">
<path d="M77.2342 241.027C77.2342 241.027 76.8359 226.74 70.7295 215.153C64.6232 203.566 55.547 195.892 46.5834 194.408C37.6199 192.923 29.625 200.606 38.7919 207.131C47.9588 213.655 64.6173 220.939 70.6877 242.937L77.2342 241.027Z" fill="black"/>
</g>
<path d="M74.8991 237.125C74.9306 237.132 74.9634 237.132 74.9949 237.125C75.1179 237.088 75.2211 237.003 75.2821 236.89C75.3431 236.777 75.3568 236.645 75.3203 236.521C67.8031 212.237 50.5046 200.892 42.4127 198.289C42.3528 198.27 42.2896 198.262 42.2267 198.267C42.1638 198.272 42.1025 198.289 42.0463 198.318C41.9901 198.346 41.9401 198.386 41.8992 198.434C41.8583 198.482 41.8273 198.538 41.8079 198.598C41.7681 198.72 41.7781 198.853 41.8359 198.967C41.8936 199.082 41.9944 199.169 42.1161 199.21C50.046 201.76 66.9913 212.906 74.3841 236.763C74.4144 236.873 74.4824 236.97 74.5764 237.036C74.6704 237.102 74.7846 237.134 74.8991 237.125Z" fill="white"/>
<path d="M30.7092 228.952C31.3097 230.759 33.12 231.845 34.8128 232.726C36.5055 233.606 38.3456 234.553 39.1451 236.286C40.7442 239.781 37.1472 244.143 38.8937 247.573C39.3139 248.264 39.8703 248.863 40.5293 249.333C41.1882 249.803 41.9359 250.134 42.7268 250.306C44.0292 250.621 45.3468 250.87 46.6744 251.051C47.3089 251.105 47.9463 251.119 48.5825 251.092C50.432 251 52.4285 251.1 54.0103 252.201C56.5044 253.937 56.9911 257.364 58.3487 260.056C59.19 261.668 60.372 263.076 61.8125 264.185C63.2531 265.294 64.9176 266.075 66.6906 266.476C69.6363 267.16 74.1827 266.918 75.0841 265.675C75.7639 264.726 74.3042 261.526 74.3582 260.362C74.5499 257.366 74.4573 254.358 74.0818 251.38C73.8552 250.031 73.7936 248.661 73.8985 247.298C74.0539 245.775 74.2019 244.248 74.3425 242.716C74.4859 241.066 74.9969 239.77 74.5656 238.082C74.0634 236.452 73.3216 234.906 72.3647 233.495C71.4908 232.071 70.6095 230.662 69.7135 229.253C68.7211 227.552 67.5215 225.98 66.1423 224.574C64.8956 223.417 63.4261 222.526 61.8236 221.955C60.2211 221.384 58.5191 221.146 56.8215 221.255C53.9993 221.448 51.1305 222.753 48.2801 222.342C45.4296 221.931 42.8529 220.939 39.987 220.852C36.9958 220.772 33.8405 221.746 31.8758 224.136C31.3007 224.781 30.8934 225.558 30.6899 226.398C30.4864 227.238 30.4931 228.115 30.7092 228.952Z" fill="#BA68C8"/>
<path d="M73.3388 258.024C73.3944 258.015 73.4476 257.995 73.4954 257.966C73.5431 257.936 73.5844 257.897 73.6168 257.851C73.6492 257.805 73.672 257.753 73.6839 257.698C73.6958 257.643 73.6966 257.586 73.6861 257.531C69.2608 230.895 42.2636 224.518 35.8171 224.365C35.703 224.363 35.5927 224.406 35.5098 224.484C35.427 224.562 35.3782 224.67 35.3742 224.784C35.3721 224.841 35.3813 224.897 35.4015 224.95C35.4216 225.002 35.4521 225.05 35.4912 225.091C35.5303 225.132 35.5772 225.164 35.6291 225.186C35.681 225.208 35.7368 225.22 35.7932 225.22C42.0997 225.373 68.5078 231.615 72.8386 257.669C72.8599 257.782 72.9239 257.881 73.0172 257.947C73.1105 258.014 73.2258 258.041 73.3388 258.024Z" fill="white"/>
<path d="M44.2025 241.94C44.2893 241.934 44.3718 241.9 44.4385 241.844C44.5123 241.786 52.1506 235.575 63.5649 238.391C63.6704 238.403 63.7768 238.376 63.8639 238.315C63.951 238.254 64.0127 238.164 64.0374 238.06C64.0621 237.957 64.0481 237.848 63.998 237.754C63.9479 237.661 63.8652 237.588 63.7655 237.551C60.385 236.654 56.8479 236.516 53.4075 237.146C49.9671 237.775 46.7085 239.158 43.8651 241.195C43.8016 241.255 43.758 241.333 43.7402 241.419C43.7224 241.504 43.7313 241.593 43.7657 241.673C43.8 241.754 43.8582 241.822 43.9324 241.868C44.0066 241.914 44.0931 241.937 44.1804 241.932L44.2025 241.94Z" fill="white"/>
<path d="M179.024 7.38904L85.0558 61.3802C84.0652 62.0261 83.2396 62.895 82.6452 63.9173C82.0507 64.9397 81.7039 66.087 81.6326 67.2674L81.2015 278.942C81.1971 281.116 82.7278 282.01 84.6088 280.916L178.569 226.933C179.56 226.287 180.385 225.418 180.98 224.395C181.574 223.373 181.921 222.226 181.992 221.045L182.424 9.36316C182.421 7.18966 180.905 6.30244 179.024 7.38904ZM177.155 201.511C177.151 203.375 175.844 204.558 174.2 205.483L88.7589 254.578C87.1434 255.503 85.8114 254.749 85.8152 252.877L86.1528 87.1033C86.214 86.0855 86.5135 85.0963 87.0272 84.2156C87.5409 83.3348 88.2544 82.5872 89.1102 82.0329L174.544 32.9313C176.166 31.9915 177.491 32.7531 177.487 34.6171L177.155 201.511Z" fill="#37474F"/>
<path d="M84.1884 281.137C83.1684 281.564 82.0678 281.765 80.9625 281.726C79.8572 281.687 78.7736 281.408 77.7863 280.91L73.886 278.647C72.8929 278.002 72.0661 277.131 71.4729 276.105C70.8797 275.08 70.5368 273.929 70.472 272.746L70.9031 61.0787C70.925 60.1968 71.13 59.3292 71.505 58.5307C71.6228 58.2498 71.7587 57.9769 71.9119 57.7137L82.6341 63.9392C82.4047 64.3415 82.2044 64.7596 82.0347 65.1905C81.7753 65.8659 81.6342 66.5809 81.6178 67.3042L81.1868 278.95C81.2048 280.983 82.5071 281.863 84.1884 281.137Z" fill="#263238"/>
<path d="M132.445 235.326C135.395 233.616 137.831 235.013 137.824 238.446C137.721 240.316 137.177 242.135 136.238 243.755C135.299 245.376 133.991 246.751 132.42 247.77C129.469 249.481 127.033 248.084 127.04 244.65C127.145 242.781 127.689 240.962 128.628 239.342C129.567 237.722 130.875 236.346 132.445 235.326Z" fill="#BA68C8"/>
<path d="M132.034 38.9527C133.296 38.2185 134.318 38.8173 134.315 40.2761C134.271 41.0697 134.04 41.8416 133.642 42.5295C133.244 43.2173 132.689 43.8017 132.023 44.2353C130.755 44.9695 129.732 44.3706 129.735 42.9045C129.779 42.1111 130.011 41.3396 130.41 40.6528C130.81 39.966 131.366 39.3834 132.034 38.9527Z" fill="black"/>
<path d="M123.172 52.8522L140.875 42.684C141.93 42.0819 142.784 42.511 142.782 43.653C142.734 44.2939 142.536 44.9146 142.203 45.4644C141.871 46.0143 141.413 46.4778 140.867 46.8173L123.164 56.9855C122.109 57.5876 121.255 57.1585 121.257 56.0165C121.305 55.3756 121.503 54.7549 121.836 54.2051C122.168 53.6552 122.626 53.1917 123.172 52.8522Z" fill="black"/>
<path d="M177.125 201.511C177.122 203.375 175.815 204.558 174.17 205.483L88.7589 254.578C87.1435 255.503 85.8115 254.748 85.8153 252.877L86.1529 87.1032C86.214 86.0854 86.5135 85.0963 87.0273 84.2155C87.541 83.3348 88.2545 82.5871 89.1103 82.0328L174.544 32.9312C176.167 31.9915 177.491 32.7531 177.487 34.6171L177.125 201.511Z" fill="#BA68C8"/>
<path d="M182.417 8.82532C182.178 7.0492 180.757 6.40531 179.053 7.38912L85.0558 61.3802C84.0481 62.0096 83.2172 62.8852 82.6414 63.9245L71.9192 57.7211C72.498 56.6856 73.3316 55.8149 74.341 55.1916L168.294 1.18566C169.353 0.650085 170.524 0.372193 171.711 0.37461C172.898 0.377027 174.067 0.659685 175.124 1.19957L179.039 3.41787C179.958 4.02276 180.736 4.81908 181.319 5.75237C181.902 6.68566 182.277 7.73388 182.417 8.82532Z" fill="#455A64"/>
<path d="M189.338 40.1009C189.007 39.9458 188.64 39.8827 188.275 39.9182C187.911 39.9538 187.563 40.0867 187.268 40.303L101.834 89.3824C100.979 89.9367 100.265 90.6844 99.7514 91.5651C99.2376 92.4459 98.9381 93.435 98.877 94.4528L98.5394 260.227C98.507 260.576 98.5617 260.928 98.6986 261.251C98.8355 261.574 99.0504 261.858 99.324 262.078C99.8611 262.432 102.025 263.616 102.525 263.933C102.859 264.104 103.234 264.178 103.607 264.147C103.981 264.117 104.338 263.983 104.64 263.761L190.103 214.696C191.726 213.771 193.054 212.588 193.058 210.724L193.398 43.8299C193.436 43.468 193.377 43.1026 193.228 42.771C193.078 42.4393 192.843 42.1532 192.547 41.942L189.338 40.1009Z" fill="#E0E0E0"/>
<path d="M193.058 210.724C193.054 212.588 191.74 213.771 190.103 214.696L104.655 263.79C103.039 264.723 101.707 263.961 101.711 262.097L102.049 96.3233C102.108 95.3061 102.407 94.3174 102.921 93.4375C103.435 92.5577 104.149 91.8117 105.006 91.2603L190.454 42.1441C192.077 41.2043 193.402 41.9732 193.398 43.8299L193.058 210.724Z" fill="#FAFAFA"/>
<path d="M191.75 42.4929C192.546 42.4945 192.632 43.4378 192.632 43.843L192.292 210.722C192.289 212.019 191.499 213.049 189.721 214.062L104.288 263.156C104.005 263.331 103.683 263.431 103.351 263.449C102.556 263.447 102.469 262.504 102.47 262.099L102.808 96.3248C102.869 95.4417 103.133 94.5845 103.577 93.819C104.022 93.0536 104.636 92.4003 105.373 91.9094L190.814 42.7783C191.095 42.5988 191.417 42.4954 191.75 42.4782M191.752 41.7414C191.287 41.7595 190.835 41.8982 190.439 42.144L105.006 91.2308C104.149 91.7822 103.435 92.5282 102.921 93.408C102.407 94.2878 102.108 95.2766 102.049 96.2938L101.711 262.068C101.708 263.394 102.37 264.154 103.328 264.156C103.79 264.142 104.24 264.006 104.633 263.761L190.103 214.696C191.726 213.771 193.054 212.588 193.058 210.724L193.398 43.8298C193.401 42.511 192.746 41.7434 191.781 41.7415L191.752 41.7414Z" fill="#E0E0E0"/>
<path d="M149.825 94.6597C162.151 87.5823 172.115 93.3568 172.086 107.569C172.057 121.782 162.038 139.039 149.72 146.116C137.401 153.193 127.437 147.419 127.466 133.207C127.495 118.994 137.499 101.737 149.825 94.6597Z" fill="#BA68C8"/>
<path d="M151.64 103.866L154.773 110.547L161.807 107.865C162.78 107.499 163.161 108.862 162.458 110.172L157.355 119.74L158.538 128.385C158.698 129.571 157.685 131.139 156.816 131.026L150.533 130.277L144.225 138.302C143.36 139.406 142.344 139.035 142.517 137.628L143.738 127.596L138.655 123.902C137.956 123.392 138.342 121.58 139.316 120.838L146.356 115.43L149.523 105.121C149.961 103.663 151.215 102.944 151.64 103.866Z" fill="#FAFAFA"/>
<path d="M119.081 183.909C119.075 186.959 121.357 188.113 124.167 186.498L171.974 159.025C174.784 157.41 177.068 153.635 177.075 150.585C177.081 147.535 174.807 146.388 171.996 148.003L124.19 175.469C121.379 177.091 119.088 180.859 119.081 183.909Z" fill="#BA68C8"/>
<path opacity="0.6" d="M119.081 183.909C119.075 186.959 121.357 188.113 124.167 186.498L171.974 159.025C174.784 157.41 177.068 153.635 177.075 150.585C177.081 147.535 174.807 146.388 171.996 148.003L124.19 175.469C121.379 177.091 119.088 180.859 119.081 183.909Z" fill="white"/>
<path d="M123.976 179.27L172.195 151.555C173.132 151.019 173.89 151.404 173.888 152.42C173.845 152.989 173.668 153.54 173.373 154.029C173.078 154.517 172.672 154.929 172.188 155.231L123.968 182.946C123.031 183.482 122.266 183.098 122.268 182.081C122.31 181.511 122.487 180.959 122.784 180.47C123.081 179.982 123.489 179.57 123.976 179.27Z" fill="#455A64"/>
<path d="M119.044 202.284C119.038 205.334 121.319 206.488 124.13 204.873L171.936 177.4C174.747 175.785 177.031 172.01 177.037 168.96C177.043 165.91 174.769 164.763 171.959 166.378L124.152 193.844C121.342 195.466 119.05 199.278 119.044 202.284Z" fill="#BA68C8"/>
<path opacity="0.6" d="M119.044 202.284C119.038 205.334 121.319 206.488 124.13 204.873L171.936 177.4C174.747 175.785 177.031 172.01 177.037 168.96C177.043 165.91 174.769 164.763 171.959 166.378L124.152 193.844C121.342 195.466 119.05 199.278 119.044 202.284Z" fill="white"/>
<path d="M127.014 195.876C127.899 195.369 128.606 195.783 128.604 196.793C128.574 197.346 128.414 197.884 128.136 198.364C127.859 198.844 127.472 199.251 127.007 199.552C126.129 200.051 125.415 199.645 125.417 198.628C125.449 198.076 125.61 197.539 125.887 197.061C126.165 196.583 126.551 196.177 127.014 195.876Z" fill="#455A64"/>
<path d="M133.165 195.478C133.787 194.405 133.79 193.243 133.17 192.884C132.551 192.525 131.544 193.104 130.921 194.177C130.299 195.251 130.296 196.413 130.916 196.772C131.535 197.131 132.542 196.552 133.165 195.478Z" fill="#455A64"/>
<path d="M137.105 190.098C137.99 189.591 138.697 190.005 138.695 191.015C138.665 191.568 138.505 192.106 138.227 192.586C137.95 193.066 137.563 193.473 137.098 193.774C136.22 194.274 135.506 193.867 135.508 192.85C135.54 192.298 135.701 191.761 135.978 191.283C136.256 190.805 136.642 190.399 137.105 190.098Z" fill="#455A64"/>
<path d="M142.099 187.205C142.977 186.699 143.691 187.113 143.689 188.129C143.657 188.681 143.496 189.218 143.219 189.696C142.941 190.174 142.555 190.58 142.092 190.882C141.214 191.388 140.5 190.974 140.502 189.957C140.534 189.406 140.695 188.869 140.973 188.391C141.25 187.913 141.636 187.507 142.099 187.205Z" fill="#455A64"/>
<path d="M147.13 184.32C148.007 183.813 148.714 184.227 148.712 185.237C148.682 185.789 148.522 186.327 148.246 186.806C147.97 187.285 147.585 187.693 147.122 187.996C146.237 188.503 145.53 188.089 145.533 187.072C145.562 186.52 145.723 185.982 146 185.504C146.278 185.026 146.665 184.62 147.13 184.32Z" fill="#455A64"/>
<path d="M153.275 183.924C153.898 182.85 153.9 181.689 153.28 181.329C152.661 180.97 151.654 181.549 151.031 182.623C150.409 183.697 150.407 184.858 151.026 185.217C151.646 185.577 152.653 184.998 153.275 183.924Z" fill="#455A64"/>
<path d="M157.184 178.542C158.061 178.035 158.775 178.449 158.773 179.459C158.742 180.012 158.581 180.549 158.303 181.029C158.026 181.508 157.64 181.916 157.176 182.218C156.291 182.725 155.584 182.311 155.586 181.294C155.616 180.742 155.776 180.204 156.054 179.726C156.332 179.248 156.719 178.842 157.184 178.542Z" fill="#455A64"/>
<path d="M163.327 178.147C163.949 177.073 163.952 175.912 163.332 175.552C162.712 175.193 161.706 175.772 161.083 176.846C160.46 177.92 160.458 179.081 161.078 179.44C161.697 179.8 162.704 179.22 163.327 178.147Z" fill="#455A64"/>
<path d="M167.238 172.764C168.116 172.257 168.829 172.671 168.827 173.688C168.795 174.24 168.634 174.776 168.357 175.255C168.079 175.733 167.693 176.139 167.23 176.44C166.345 176.947 165.639 176.533 165.641 175.516C165.67 174.964 165.831 174.427 166.108 173.948C166.386 173.47 166.773 173.064 167.238 172.764Z" fill="#455A64"/>
<path d="M172.261 169.871C173.139 169.365 173.853 169.779 173.85 170.795C173.819 171.347 173.658 171.884 173.381 172.362C173.103 172.84 172.717 173.247 172.253 173.548C171.376 174.054 170.662 173.64 170.664 172.624C170.696 172.072 170.857 171.535 171.135 171.057C171.412 170.579 171.798 170.173 172.261 169.871Z" fill="#455A64"/>
<path d="M140.25 208.457L162.144 195.881C164.017 194.802 165.533 195.682 165.529 197.848L165.522 201.038C165.459 202.218 165.117 203.366 164.526 204.389C163.935 205.412 163.111 206.281 162.121 206.925L140.235 219.502C138.354 220.581 136.838 219.701 136.843 217.535L136.849 214.345C136.912 213.165 137.253 212.016 137.844 210.993C138.435 209.97 139.259 209.101 140.25 208.457Z" fill="#BA68C8"/>
<path d="M140.004 213.99L140.003 214.196C140.001 215.279 140.737 215.723 141.703 215.18L160.653 204.321C161.148 203.999 161.56 203.564 161.855 203.053C162.151 202.541 162.321 201.968 162.354 201.378L162.354 201.164C162.356 200.081 161.62 199.637 160.661 200.181L141.756 211.047C141.25 211.362 140.827 211.794 140.522 212.306C140.217 212.818 140.04 213.395 140.004 213.99Z" fill="#FAFAFA"/>
<path opacity="0.7" d="M135.523 142.131L224.534 90.988C225.47 90.452 226.228 90.8883 226.226 91.9713L226.082 162.702C226.051 163.291 225.88 163.866 225.585 164.377C225.289 164.889 224.877 165.323 224.382 165.645L135.371 216.773C134.434 217.316 133.676 216.873 133.678 215.79L133.822 145.059C133.856 144.472 134.028 143.901 134.323 143.392C134.618 142.883 135.029 142.451 135.523 142.131Z" fill="#37474F"/>
<path opacity="0.7" d="M134.319 143.395L129.999 140.882C129.691 141.386 129.517 141.962 129.495 142.553L129.351 213.283C129.332 213.491 129.366 213.701 129.451 213.892C129.536 214.083 129.668 214.249 129.835 214.375C130.151 214.559 133.846 216.681 134.14 216.874C133.978 216.746 133.851 216.58 133.77 216.391C133.689 216.201 133.658 215.995 133.678 215.79L133.822 145.059C133.845 144.472 134.016 143.899 134.319 143.395Z" fill="#263238"/>
<path opacity="0.5" d="M225.669 90.8355C225.065 90.4659 221.702 88.5287 221.43 88.366C221.237 88.2719 221.022 88.2316 220.808 88.2493C220.594 88.267 220.389 88.3421 220.214 88.4667L131.203 139.624C130.701 139.937 130.287 140.372 130 140.889L134.319 143.403C134.607 142.886 135.021 142.451 135.523 142.138L224.541 90.9879C224.703 90.8747 224.89 90.8019 225.087 90.7754C225.283 90.7489 225.482 90.7695 225.669 90.8355Z" fill="#455A64"/>
<path d="M147.516 142.847C147.535 142.833 147.558 142.825 147.582 142.825C147.606 142.826 147.629 142.833 147.649 142.848C147.669 142.872 147.685 142.9 147.695 142.93C147.706 142.961 147.709 142.993 147.707 143.025L147.705 144.174C147.703 144.258 147.682 144.341 147.645 144.417C147.617 144.483 147.571 144.539 147.512 144.579L146.273 145.313L146.262 150.883C146.26 150.967 146.239 151.05 146.202 151.126C146.174 151.192 146.128 151.248 146.069 151.288L145.14 151.817C145.121 151.832 145.098 151.841 145.074 151.841C145.049 151.841 145.026 151.832 145.007 151.816C144.969 151.769 144.951 151.708 144.956 151.647L144.968 146.069L143.721 146.804C143.702 146.819 143.679 146.828 143.654 146.828C143.63 146.828 143.607 146.819 143.588 146.803C143.567 146.781 143.55 146.754 143.54 146.725C143.53 146.696 143.527 146.665 143.53 146.634L143.532 145.484C143.534 145.4 143.554 145.317 143.591 145.241C143.618 145.175 143.664 145.118 143.724 145.08L147.516 142.847Z" fill="#FAFAFA"/>
<path d="M152.203 146.003C152.223 145.987 152.247 145.978 152.273 145.978C152.298 145.978 152.323 145.987 152.343 146.003C152.383 146.053 152.401 146.117 152.394 146.18L152.392 147.33C152.393 147.411 152.375 147.492 152.34 147.565C152.309 147.633 152.261 147.692 152.199 147.735L148.858 149.658C148.839 149.674 148.816 149.682 148.792 149.682C148.767 149.682 148.744 149.673 148.725 149.658C148.703 149.636 148.687 149.609 148.677 149.58C148.666 149.55 148.663 149.519 148.667 149.488L148.681 142.474C148.68 142.389 148.7 142.306 148.74 142.231C148.767 142.165 148.813 142.108 148.873 142.069L152.163 140.175C152.182 140.16 152.205 140.151 152.23 140.151C152.254 140.151 152.277 140.16 152.296 140.175C152.317 140.198 152.333 140.225 152.343 140.254C152.353 140.283 152.357 140.314 152.354 140.345L152.352 141.494C152.35 141.579 152.33 141.662 152.293 141.737C152.267 141.804 152.22 141.861 152.16 141.899L149.947 143.147L149.944 144.319L151.966 143.159C151.984 143.143 152.008 143.135 152.032 143.135C152.056 143.135 152.08 143.143 152.098 143.159C152.119 143.182 152.135 143.208 152.145 143.238C152.156 143.267 152.159 143.298 152.157 143.329L152.154 144.485C152.152 144.567 152.132 144.648 152.095 144.721C152.069 144.788 152.022 144.844 151.962 144.883L149.941 146.043L149.938 147.258L152.203 146.003Z" fill="#FAFAFA"/>
<path d="M155.674 138.149C155.93 137.992 156.213 137.883 156.508 137.826C156.721 137.779 156.944 137.814 157.134 137.923C157.325 138.054 157.465 138.247 157.53 138.469C157.627 138.802 157.671 139.148 157.661 139.494C157.664 139.993 157.591 140.49 157.444 140.967C157.308 141.393 157.097 141.791 156.823 142.144L157.688 144.231C157.696 144.265 157.696 144.301 157.688 144.334C157.687 144.403 157.672 144.471 157.643 144.533C157.619 144.586 157.58 144.632 157.532 144.666L156.574 145.216C156.478 145.268 156.411 145.275 156.375 145.216C156.332 145.177 156.3 145.129 156.279 145.076L155.495 143.203L154.845 143.577L154.841 145.898C154.841 145.982 154.824 146.065 154.789 146.141C154.76 146.208 154.711 146.265 154.648 146.303L153.726 146.839C153.708 146.854 153.684 146.863 153.66 146.863C153.636 146.863 153.612 146.854 153.594 146.839C153.553 146.792 153.531 146.731 153.535 146.669L153.549 139.67C153.551 139.585 153.572 139.502 153.609 139.427C153.635 139.36 153.681 139.303 153.742 139.265L155.674 138.149ZM154.886 141.883L155.682 141.427C155.879 141.314 156.048 141.158 156.177 140.972C156.314 140.751 156.382 140.495 156.37 140.235C156.371 139.933 156.312 139.756 156.179 139.719C156.094 139.701 156.006 139.702 155.921 139.72C155.836 139.739 155.755 139.776 155.686 139.829L154.889 140.284L154.886 141.883Z" fill="#FAFAFA"/>
<path d="M160.885 140.834C160.849 140.795 160.817 140.753 160.79 140.708L160.129 139.3L160.122 142.895C160.122 142.977 160.104 143.057 160.07 143.131C160.042 143.201 159.993 143.26 159.93 143.3L159.008 143.829C158.989 143.843 158.965 143.851 158.941 143.851C158.917 143.851 158.894 143.843 158.875 143.828C158.854 143.804 158.838 143.776 158.828 143.746C158.818 143.715 158.814 143.683 158.817 143.651L158.831 136.637C158.833 136.553 158.853 136.47 158.89 136.394C158.918 136.329 158.964 136.273 159.023 136.233L159.842 135.763C159.938 135.711 160.012 135.711 160.056 135.763C160.089 135.799 160.119 135.839 160.144 135.881L161.281 138.234L162.438 134.552C162.462 134.474 162.492 134.398 162.527 134.324C162.569 134.224 162.645 134.14 162.741 134.089L163.56 133.612C163.578 133.596 163.602 133.587 163.626 133.588C163.65 133.588 163.674 133.596 163.692 133.612C163.713 133.634 163.73 133.661 163.74 133.69C163.75 133.72 163.754 133.751 163.751 133.781L163.737 140.795C163.734 140.88 163.714 140.963 163.677 141.038C163.651 141.105 163.605 141.162 163.544 141.2L162.615 141.729C162.597 141.746 162.573 141.755 162.548 141.755C162.524 141.755 162.5 141.746 162.482 141.729C162.441 141.682 162.42 141.621 162.424 141.559L162.431 137.964L161.763 140.136C161.738 140.216 161.708 140.294 161.675 140.371C161.638 140.449 161.579 140.513 161.505 140.555L161.055 140.819C160.981 140.871 160.929 140.871 160.885 140.834Z" fill="#FAFAFA"/>
<path d="M166.924 131.592C167.176 131.435 167.461 131.34 167.757 131.314C167.982 131.3 168.206 131.349 168.405 131.455C168.589 131.561 168.74 131.717 168.839 131.906C168.941 132.101 168.996 132.319 168.999 132.54C169 132.606 168.984 132.671 168.955 132.731C168.932 132.783 168.896 132.828 168.851 132.863L167.922 133.392C167.877 133.425 167.823 133.443 167.767 133.443C167.722 133.433 167.679 133.413 167.642 133.384L167.576 133.31C167.538 133.274 167.493 133.246 167.443 133.229C167.374 133.209 167.3 133.209 167.23 133.228C167.119 133.245 167.014 133.285 166.92 133.346C166.829 133.398 166.743 133.457 166.662 133.522C166.582 133.584 166.51 133.655 166.448 133.735C166.381 133.811 166.328 133.898 166.292 133.993C166.249 134.088 166.226 134.191 166.226 134.295C166.221 134.337 166.225 134.38 166.238 134.42C166.25 134.461 166.271 134.498 166.299 134.531C166.361 134.581 166.44 134.605 166.52 134.597C166.662 134.596 166.803 134.576 166.94 134.539L167.588 134.371C167.809 134.31 168.037 134.281 168.266 134.284C168.444 134.292 168.614 134.357 168.752 134.469C168.891 134.602 168.99 134.771 169.039 134.956C169.11 135.225 169.142 135.503 169.133 135.782C169.133 136.149 169.078 136.514 168.968 136.864C168.858 137.218 168.704 137.557 168.51 137.873C168.314 138.189 168.081 138.481 167.815 138.741C167.557 139.001 167.264 139.223 166.945 139.402C166.678 139.568 166.379 139.673 166.067 139.71C165.834 139.737 165.599 139.696 165.39 139.59C165.197 139.484 165.041 139.322 164.941 139.125C164.826 138.897 164.769 138.644 164.773 138.388C164.773 138.319 164.791 138.25 164.825 138.189C164.843 138.139 164.877 138.095 164.921 138.064L165.851 137.528C165.897 137.499 165.95 137.481 166.005 137.477C166.046 137.485 166.084 137.503 166.116 137.529C166.147 137.557 166.177 137.586 166.204 137.618C166.247 137.664 166.296 137.704 166.351 137.736C166.431 137.756 166.514 137.756 166.594 137.736C166.721 137.726 166.843 137.683 166.948 137.612C167.179 137.48 167.39 137.317 167.575 137.127C167.73 136.966 167.82 136.754 167.827 136.53C167.833 136.488 167.828 136.445 167.811 136.406C167.794 136.367 167.767 136.334 167.732 136.309C167.648 136.267 167.552 136.253 167.459 136.272C167.3 136.285 167.142 136.315 166.988 136.359L166.317 136.527C166.14 136.6 165.947 136.62 165.76 136.587C165.572 136.554 165.397 136.469 165.256 136.341C164.994 135.962 164.875 135.502 164.92 135.044C164.926 134.715 164.974 134.388 165.062 134.071C165.161 133.732 165.295 133.404 165.462 133.092C165.636 132.775 165.85 132.481 166.097 132.217C166.339 131.968 166.618 131.757 166.924 131.592Z" fill="#FAFAFA"/>
<path d="M171.852 131.669C171.869 131.249 171.929 130.831 172.032 130.424C172.127 130.015 172.272 129.62 172.462 129.246C172.644 128.877 172.872 128.534 173.141 128.223C173.405 127.928 173.717 127.68 174.064 127.488C174.338 127.312 174.653 127.211 174.978 127.195C175.227 127.19 175.47 127.274 175.663 127.432C175.866 127.617 176.013 127.855 176.089 128.119C176.197 128.457 176.256 128.81 176.263 129.165C176.263 129.475 176.262 129.799 176.261 130.138C176.261 130.477 176.26 130.793 176.26 131.095C176.244 131.516 176.184 131.933 176.08 132.34C175.98 132.752 175.836 133.152 175.65 133.533C175.467 133.9 175.236 134.242 174.963 134.548C174.701 134.842 174.391 135.09 174.048 135.283C173.773 135.464 173.455 135.567 173.126 135.583C172.878 135.595 172.636 135.51 172.449 135.346C172.245 135.16 172.097 134.919 172.023 134.653C171.915 134.314 171.856 133.962 171.849 133.606C171.849 133.319 171.85 133.002 171.85 132.663C171.851 132.324 171.852 131.985 171.852 131.669ZM174.947 131.763C174.947 131.631 174.947 131.483 174.948 131.321C174.948 131.159 174.948 130.997 174.949 130.828C174.949 130.658 174.949 130.503 174.95 130.349C174.95 130.194 174.95 130.061 174.95 129.943C174.948 129.788 174.924 129.634 174.878 129.486C174.849 129.373 174.791 129.268 174.709 129.184C174.637 129.117 174.543 129.077 174.444 129.073C174.308 129.082 174.176 129.125 174.06 129.197C173.916 129.28 173.786 129.387 173.677 129.514C173.568 129.641 173.476 129.782 173.403 129.933C173.331 130.092 173.274 130.257 173.233 130.426C173.197 130.606 173.172 130.788 173.158 130.971C173.158 131.104 173.157 131.244 173.157 131.399C173.157 131.553 173.156 131.715 173.156 131.885C173.156 132.054 173.155 132.216 173.155 132.371C173.155 132.526 173.154 132.673 173.154 132.798C173.155 133.064 173.239 133.322 173.396 133.536C173.543 133.691 173.757 133.684 174.052 133.537C174.341 133.367 174.568 133.109 174.701 132.802C174.853 132.474 174.946 132.123 174.976 131.763L174.947 131.763Z" fill="#FAFAFA"/>
<path d="M180.894 123.664C180.913 123.648 180.936 123.639 180.961 123.64C180.985 123.64 181.008 123.648 181.027 123.664C181.067 123.714 181.085 123.777 181.078 123.841L181.076 124.99C181.076 125.072 181.058 125.152 181.024 125.226C180.996 125.293 180.95 125.352 180.891 125.395L178.774 126.606L178.771 128.08L180.748 126.942C180.766 126.926 180.79 126.918 180.814 126.918C180.838 126.918 180.862 126.927 180.88 126.942C180.919 126.99 180.937 127.051 180.931 127.112L180.929 128.268C180.929 128.35 180.911 128.43 180.877 128.504C180.851 128.571 180.804 128.627 180.744 128.666L178.767 129.797L178.762 132.147C178.763 132.228 178.745 132.309 178.71 132.383C178.684 132.449 178.638 132.506 178.577 132.544L177.648 133.08C177.629 133.095 177.606 133.102 177.582 133.102C177.558 133.102 177.535 133.094 177.515 133.08C177.495 133.056 177.479 133.028 177.468 132.997C177.458 132.967 177.454 132.935 177.457 132.903L177.471 125.889C177.472 125.807 177.493 125.726 177.531 125.653C177.557 125.585 177.603 125.526 177.664 125.484L180.894 123.664Z" fill="#FAFAFA"/>
<path d="M185.755 120.756C186.009 120.602 186.294 120.507 186.589 120.478C186.813 120.464 187.038 120.513 187.237 120.619C187.42 120.726 187.57 120.882 187.67 121.069C187.773 121.265 187.828 121.482 187.831 121.703C187.829 121.77 187.811 121.836 187.779 121.895C187.761 121.949 187.725 121.996 187.676 122.027L186.754 122.556C186.711 122.592 186.655 122.61 186.599 122.607C186.552 122.6 186.509 122.579 186.474 122.548L186.408 122.474C186.37 122.438 186.325 122.41 186.275 122.392C186.205 122.373 186.131 122.373 186.062 122.392C185.951 122.409 185.845 122.449 185.752 122.509C185.661 122.561 185.575 122.62 185.494 122.686C185.413 122.747 185.341 122.819 185.28 122.899C185.213 122.976 185.158 123.063 185.117 123.156C185.079 123.253 185.059 123.355 185.057 123.458C185.05 123.499 185.052 123.541 185.064 123.581C185.076 123.62 185.097 123.656 185.126 123.686C185.155 123.716 185.19 123.738 185.229 123.751C185.269 123.764 185.311 123.768 185.351 123.761C185.493 123.759 185.634 123.739 185.772 123.703L186.42 123.535C186.641 123.474 186.869 123.444 187.098 123.448C187.276 123.456 187.446 123.521 187.584 123.633C187.722 123.766 187.821 123.934 187.87 124.12C187.938 124.39 187.97 124.667 187.965 124.945C187.963 125.312 187.907 125.677 187.8 126.028C187.688 126.381 187.534 126.72 187.341 127.036C187.147 127.354 186.914 127.645 186.647 127.904C186.389 128.164 186.096 128.387 185.776 128.566C185.513 128.738 185.212 128.843 184.899 128.873C184.666 128.902 184.43 128.86 184.221 128.754C184.029 128.648 183.872 128.485 183.773 128.289C183.658 128.061 183.6 127.808 183.605 127.552C183.606 127.483 183.621 127.415 183.65 127.353C183.672 127.303 183.708 127.26 183.753 127.228L184.682 126.692C184.729 126.663 184.782 126.645 184.837 126.641C184.878 126.649 184.916 126.666 184.948 126.693C184.976 126.721 185.003 126.75 185.028 126.781C185.075 126.826 185.127 126.866 185.183 126.899C185.263 126.919 185.346 126.92 185.426 126.9C185.553 126.89 185.675 126.847 185.78 126.775C186.01 126.643 186.221 126.48 186.407 126.29C186.563 126.131 186.653 125.917 186.659 125.694C186.663 125.652 186.656 125.61 186.64 125.571C186.623 125.533 186.597 125.499 186.564 125.473C186.475 125.442 186.379 125.442 186.291 125.472C186.131 125.486 185.973 125.515 185.819 125.56L185.126 125.735C184.95 125.807 184.757 125.828 184.569 125.795C184.381 125.762 184.207 125.677 184.066 125.549C183.8 125.171 183.68 124.71 183.73 124.251C183.732 123.922 183.78 123.595 183.871 123.279C183.964 122.937 184.098 122.609 184.271 122.3C184.446 121.983 184.659 121.689 184.907 121.425C185.152 121.158 185.439 120.932 185.755 120.756Z" fill="#FAFAFA"/>
<path d="M192.559 122.803C192.578 122.788 192.601 122.779 192.626 122.779C192.65 122.779 192.673 122.788 192.692 122.803C192.733 122.85 192.754 122.911 192.75 122.973L192.748 124.13C192.745 124.212 192.725 124.292 192.689 124.365C192.662 124.432 192.616 124.489 192.556 124.527L189.207 126.48C189.188 126.496 189.165 126.504 189.14 126.504C189.116 126.504 189.093 126.496 189.074 126.48C189.053 126.456 189.037 126.428 189.027 126.397C189.017 126.367 189.013 126.335 189.016 126.303L189.03 119.289C189.033 119.207 189.053 119.127 189.089 119.053C189.115 118.987 189.162 118.93 189.222 118.891L192.512 116.983C192.531 116.967 192.554 116.958 192.578 116.959C192.603 116.959 192.626 116.967 192.645 116.983C192.666 117.007 192.682 117.035 192.692 117.065C192.702 117.096 192.706 117.128 192.703 117.16L192.701 118.309C192.699 118.393 192.678 118.476 192.641 118.552C192.613 118.618 192.567 118.674 192.509 118.714L190.333 119.962L190.33 121.133L192.351 119.973C192.37 119.959 192.394 119.951 192.418 119.952C192.442 119.952 192.465 119.959 192.484 119.974C192.505 119.998 192.521 120.026 192.531 120.056C192.541 120.087 192.545 120.119 192.542 120.151L192.54 121.33C192.538 121.414 192.518 121.497 192.481 121.573C192.455 121.639 192.408 121.696 192.348 121.734L190.327 122.894L190.324 124.11L192.559 122.803Z" fill="#FAFAFA"/>
<path d="M196.03 114.964C196.288 114.808 196.57 114.697 196.864 114.634C197.077 114.592 197.299 114.626 197.49 114.731C197.681 114.863 197.819 115.059 197.879 115.284C197.983 115.613 198.029 115.957 198.017 116.301C198.022 116.801 197.946 117.298 197.793 117.774C197.653 118.199 197.443 118.597 197.172 118.952L198.044 121.031C198.051 121.068 198.051 121.105 198.044 121.142C198.041 121.209 198.023 121.274 197.992 121.333C197.971 121.389 197.932 121.436 197.881 121.466L196.922 122.016C196.834 122.075 196.76 122.082 196.723 122.016C196.685 121.974 196.653 121.927 196.628 121.876L195.851 120.003L195.202 120.377L195.197 122.698C195.196 122.78 195.175 122.861 195.137 122.934C195.111 123.002 195.065 123.061 195.005 123.103L194.075 123.631C194.057 123.647 194.033 123.656 194.009 123.655C193.984 123.655 193.961 123.647 193.942 123.631C193.903 123.581 193.884 123.518 193.891 123.454L193.906 116.44C193.906 116.359 193.924 116.278 193.958 116.205C193.984 116.138 194.03 116.081 194.091 116.043L196.03 114.964ZM195.227 118.712L196.024 118.25C196.221 118.14 196.388 117.983 196.511 117.794C196.653 117.575 196.723 117.318 196.711 117.057C196.712 116.748 196.646 116.578 196.514 116.534C196.343 116.506 196.169 116.545 196.027 116.643L195.23 117.106L195.227 118.712Z" fill="#FAFAFA"/>
<path d="M200.507 119.983C200.325 120.085 200.2 120.012 200.132 119.761L198.671 113.805C198.671 113.761 198.671 113.731 198.671 113.716L198.671 113.672C198.672 113.606 198.687 113.541 198.715 113.481C198.736 113.425 198.775 113.378 198.826 113.348L199.711 112.834C199.807 112.783 199.874 112.776 199.918 112.835C199.953 112.872 199.979 112.918 199.991 112.968L200.962 117.184L201.953 111.844C201.963 111.766 201.988 111.691 202.027 111.623C202.069 111.532 202.139 111.457 202.227 111.41L203.119 110.904C203.135 110.891 203.154 110.884 203.174 110.884C203.195 110.884 203.214 110.891 203.23 110.904C203.246 110.923 203.259 110.945 203.266 110.969C203.274 110.993 203.276 111.019 203.274 111.044C203.277 111.058 203.277 111.074 203.274 111.088C203.274 111.088 203.273 111.14 203.273 111.199L201.821 118.814C201.808 118.942 201.768 119.067 201.703 119.178C201.638 119.29 201.549 119.387 201.444 119.461L200.507 119.983Z" fill="#FAFAFA"/>
<path d="M204.469 117.707C204.45 117.722 204.426 117.731 204.402 117.731C204.378 117.731 204.354 117.722 204.336 117.707C204.313 117.683 204.296 117.655 204.286 117.625C204.276 117.594 204.273 117.562 204.277 117.53L204.292 110.515C204.289 110.433 204.31 110.351 204.351 110.28C204.377 110.211 204.423 110.152 204.484 110.111L205.406 109.582C205.425 109.567 205.448 109.558 205.472 109.558C205.497 109.558 205.52 109.567 205.539 109.582C205.56 109.607 205.576 109.635 205.586 109.665C205.596 109.695 205.6 109.727 205.597 109.759L205.583 116.773C205.581 116.855 205.56 116.936 205.524 117.009C205.496 117.077 205.45 117.135 205.391 117.178L204.469 117.707Z" fill="#FAFAFA"/>
<path d="M208.07 110.928C208.07 111.024 208.07 111.157 208.07 111.326L208.067 112.365C208.067 112.535 208.067 112.66 208.067 112.756C208.074 112.902 208.093 113.047 208.125 113.19C208.149 113.309 208.205 113.418 208.286 113.508C208.319 113.545 208.36 113.575 208.406 113.596C208.451 113.616 208.501 113.627 208.551 113.626C208.693 113.624 208.831 113.58 208.949 113.502C209.098 113.418 209.233 113.311 209.348 113.186C209.446 113.079 209.53 112.96 209.599 112.832C209.663 112.715 209.715 112.592 209.754 112.464C209.79 112.356 209.818 112.245 209.836 112.133C209.852 112.034 209.879 111.938 209.918 111.846C209.954 111.777 210.011 111.72 210.08 111.684L211.002 111.155C211.018 111.143 211.037 111.136 211.058 111.136C211.078 111.136 211.097 111.143 211.113 111.156C211.145 111.198 211.16 111.25 211.157 111.303C211.146 111.69 211.086 112.073 210.978 112.445C210.868 112.833 210.712 113.206 210.511 113.556C210.316 113.905 210.083 114.23 209.817 114.527C209.567 114.817 209.273 115.065 208.946 115.262C208.673 115.434 208.361 115.533 208.039 115.548C207.791 115.552 207.55 115.465 207.362 115.303C207.159 115.117 207.009 114.88 206.928 114.617C206.826 114.28 206.77 113.93 206.761 113.578C206.761 113.291 206.762 112.974 206.763 112.635C206.763 112.296 206.764 111.965 206.765 111.648C206.792 110.806 207 109.98 207.374 109.225C207.556 108.857 207.785 108.513 208.054 108.202C208.313 107.909 208.62 107.66 208.962 107.467C209.223 107.301 209.522 107.203 209.832 107.182C210.075 107.163 210.317 107.223 210.524 107.353C210.734 107.492 210.895 107.693 210.987 107.928C211.104 108.229 211.163 108.549 211.162 108.872C211.161 108.938 211.146 109.003 211.117 109.063C211.096 109.119 211.057 109.165 211.006 109.196L210.084 109.732C210.003 109.776 209.951 109.783 209.922 109.731C209.879 109.673 209.851 109.604 209.841 109.532C209.825 109.45 209.798 109.371 209.761 109.296C209.728 109.219 209.675 109.153 209.607 109.104C209.532 109.056 209.445 109.033 209.356 109.037C209.215 109.056 209.08 109.103 208.958 109.177C208.808 109.267 208.673 109.381 208.56 109.515C208.449 109.645 208.359 109.791 208.293 109.949C208.22 110.104 208.166 110.267 208.13 110.435C208.1 110.598 208.08 110.763 208.07 110.928Z" fill="#FAFAFA"/>
<path d="M215.773 109.471C215.791 109.455 215.815 109.446 215.839 109.447C215.863 109.447 215.887 109.455 215.905 109.471C215.926 109.493 215.942 109.52 215.952 109.549C215.963 109.579 215.966 109.61 215.964 109.64L215.961 110.79C215.959 110.874 215.939 110.957 215.902 111.033C215.876 111.099 215.829 111.156 215.769 111.195L212.413 113.133C212.394 113.148 212.371 113.157 212.346 113.157C212.322 113.157 212.299 113.148 212.28 113.133C212.241 113.083 212.222 113.019 212.229 112.956L212.243 105.942C212.243 105.86 212.261 105.78 212.295 105.706C212.321 105.639 212.368 105.583 212.428 105.544L215.718 103.65C215.777 103.65 215.821 103.65 215.858 103.65C215.898 103.7 215.916 103.764 215.909 103.827L215.907 104.976C215.908 105.058 215.89 105.139 215.855 105.212C215.829 105.283 215.779 105.343 215.715 105.381L213.546 106.629L213.544 107.801L215.557 106.641C215.577 106.625 215.602 106.616 215.627 106.616C215.653 106.616 215.678 106.625 215.697 106.641C215.737 106.691 215.755 106.755 215.749 106.818L215.746 107.967C215.747 108.051 215.729 108.134 215.694 108.21C215.661 108.275 215.613 108.331 215.554 108.372L213.54 109.532L213.538 110.748L215.773 109.471Z" fill="#FAFAFA"/>
<path d="M181.801 141.488L190.586 136.444C191.073 136.165 191.463 136.387 191.469 136.954L191.469 137.175C191.451 137.481 191.361 137.778 191.207 138.043C191.053 138.308 190.839 138.532 190.582 138.699L181.796 143.75C181.31 144.029 180.912 143.8 180.913 143.24L180.914 143.019C180.931 142.712 181.02 142.413 181.174 142.147C181.328 141.881 181.543 141.655 181.801 141.488Z" fill="#FAFAFA"/>
<path d="M143.554 163.462L177.965 143.698C178.452 143.419 178.849 143.648 178.848 144.215L178.848 144.436C178.832 144.743 178.743 145.04 178.588 145.305C178.434 145.57 178.219 145.794 177.961 145.96L143.55 165.724C143.063 166.003 142.673 165.773 142.674 165.213L142.675 164.992C142.691 164.686 142.779 164.388 142.932 164.122C143.085 163.857 143.298 163.63 143.554 163.462Z" fill="#FAFAFA"/>
<path d="M194.548 134.168L215.083 122.363C215.578 122.076 215.968 122.306 215.966 122.873L215.966 123.094C215.949 123.399 215.861 123.696 215.708 123.961C215.555 124.225 215.342 124.45 215.086 124.617L194.543 136.423C194.056 136.702 193.659 136.473 193.66 135.913L193.66 135.692C193.678 135.386 193.768 135.089 193.922 134.824C194.076 134.559 194.291 134.335 194.548 134.168Z" fill="#FAFAFA"/>
<path d="M167.685 155.524L176.471 150.473C176.957 150.194 177.355 150.423 177.354 150.983L177.353 151.204C177.336 151.511 177.247 151.81 177.093 152.076C176.939 152.342 176.724 152.568 176.466 152.735L167.681 157.779C167.194 158.058 166.797 157.829 166.798 157.269L166.798 157.048C166.816 156.742 166.906 156.445 167.06 156.18C167.214 155.915 167.428 155.691 167.685 155.524Z" fill="#FAFAFA"/>
<path d="M180.66 148.043L215.064 128.286C215.558 128 215.948 128.229 215.947 128.797L215.946 129.018C215.93 129.323 215.841 129.62 215.689 129.884C215.536 130.149 215.323 130.374 215.067 130.541L180.656 150.305C180.162 150.584 179.772 150.355 179.773 149.795L179.773 149.574C179.789 149.267 179.878 148.968 180.033 148.702C180.187 148.436 180.402 148.21 180.66 148.043Z" fill="#FAFAFA"/>
<path d="M143.491 169.43L164.034 157.624C164.521 157.338 164.918 157.567 164.917 158.134L164.917 158.355C164.899 158.661 164.809 158.958 164.655 159.223C164.501 159.487 164.286 159.712 164.029 159.879L143.486 171.684C142.999 171.97 142.609 171.741 142.61 171.174L142.611 170.953C142.628 170.648 142.716 170.351 142.869 170.086C143.022 169.821 143.235 169.597 143.491 169.43Z" fill="#FAFAFA"/>
<path d="M143.567 157.531L158.622 148.882C159.109 148.603 159.499 148.832 159.498 149.392L159.497 149.613C159.48 149.92 159.392 150.218 159.239 150.483C159.086 150.749 158.873 150.976 158.617 151.144L143.562 159.793C143.075 160.072 142.685 159.842 142.686 159.275L142.687 159.062C142.702 158.755 142.79 158.457 142.943 158.191C143.096 157.925 143.31 157.698 143.567 157.531Z" fill="#FAFAFA"/>
<path d="M201.67 124.148L215.272 116.329C215.767 116.043 216.157 116.272 216.156 116.839L216.155 117.06C216.139 117.366 216.05 117.664 215.896 117.929C215.741 118.194 215.526 118.418 215.268 118.583L201.666 126.402C201.179 126.681 200.782 126.452 200.783 125.892L200.783 125.671C200.801 125.366 200.891 125.068 201.045 124.804C201.199 124.539 201.413 124.314 201.67 124.148Z" fill="#FAFAFA"/>
<path d="M162.45 146.672L196.861 126.908C197.348 126.629 197.745 126.859 197.744 127.419L197.744 127.64C197.726 127.945 197.636 128.242 197.482 128.507C197.328 128.772 197.113 128.996 196.856 129.163L162.446 148.927C161.959 149.206 161.561 148.977 161.562 148.417L161.563 148.196C161.581 147.89 161.671 147.593 161.825 147.328C161.979 147.063 162.193 146.839 162.45 146.672Z" fill="#FAFAFA"/>
<path d="M181.763 159.87L190.549 154.827C191.036 154.54 191.426 154.77 191.432 155.337L191.431 155.558C191.413 155.864 191.324 156.161 191.169 156.425C191.015 156.69 190.801 156.915 190.544 157.081L181.759 162.132C181.272 162.411 180.875 162.182 180.876 161.622L180.876 161.401C180.893 161.094 180.982 160.796 181.137 160.53C181.291 160.264 181.506 160.038 181.763 159.87Z" fill="#FAFAFA"/>
<path d="M143.517 181.844L177.928 162.08C178.415 161.801 178.812 162.031 178.811 162.598L178.81 162.819C178.794 163.125 178.705 163.423 178.551 163.688C178.397 163.953 178.181 164.177 177.923 164.342L143.512 184.106C143.026 184.385 142.636 184.156 142.637 183.596L142.637 183.375C142.654 183.069 142.742 182.771 142.895 182.505C143.048 182.239 143.261 182.013 143.517 181.844Z" fill="#FAFAFA"/>
<path d="M194.51 152.551L215.046 140.738C215.54 140.459 215.93 140.688 215.929 141.255L215.928 141.476C215.912 141.782 215.823 142.079 215.671 142.343C215.518 142.608 215.305 142.833 215.049 143L194.505 154.805C194.018 155.084 193.621 154.855 193.622 154.295L193.623 154.074C193.641 153.768 193.73 153.471 193.885 153.207C194.039 152.942 194.253 152.717 194.51 152.551Z" fill="#FAFAFA"/>
<path d="M167.648 173.907L176.433 168.856C176.92 168.577 177.317 168.806 177.316 169.366L177.316 169.587C177.299 169.894 177.21 170.192 177.055 170.458C176.901 170.724 176.686 170.95 176.428 171.117L167.643 176.161C167.156 176.44 166.759 176.211 166.76 175.651L166.76 175.43C166.779 175.124 166.868 174.827 167.022 174.563C167.177 174.298 167.391 174.073 167.648 173.907Z" fill="#FAFAFA"/>
<path d="M180.623 166.425L215.027 146.669C215.521 146.383 215.911 146.612 215.91 147.179L215.909 147.4C215.892 147.705 215.804 148.002 215.651 148.267C215.498 148.532 215.285 148.756 215.029 148.923L180.618 168.687C180.124 168.966 179.734 168.737 179.735 168.177L179.736 167.956C179.752 167.649 179.841 167.35 179.995 167.084C180.15 166.818 180.365 166.592 180.623 166.425Z" fill="#FAFAFA"/>
<path d="M143.453 187.812L163.996 176.007C164.483 175.72 164.881 175.949 164.88 176.517L164.879 176.738C164.861 177.043 164.771 177.341 164.617 177.605C164.463 177.87 164.249 178.094 163.992 178.261L143.449 190.067C142.962 190.353 142.572 190.124 142.573 189.556L142.573 189.335C142.59 189.03 142.678 188.733 142.831 188.469C142.984 188.204 143.197 187.979 143.453 187.812Z" fill="#FAFAFA"/>
<path d="M143.529 175.913L158.584 167.265C159.071 166.986 159.461 167.215 159.46 167.775L159.459 167.996C159.443 168.302 159.354 168.6 159.202 168.866C159.049 169.132 158.836 169.358 158.58 169.527L143.524 178.175C143.038 178.454 142.648 178.225 142.649 177.658L142.649 177.444C142.665 177.137 142.752 176.839 142.905 176.573C143.058 176.307 143.272 176.081 143.529 175.913Z" fill="#FAFAFA"/>
<path d="M201.633 142.523L215.235 134.704C215.729 134.425 216.119 134.654 216.118 135.222L216.117 135.443C216.101 135.749 216.012 136.047 215.858 136.312C215.704 136.576 215.488 136.801 215.23 136.966L201.628 144.785C201.141 145.064 200.744 144.835 200.745 144.275L200.746 144.054C200.764 143.747 200.854 143.449 201.008 143.183C201.162 142.918 201.376 142.692 201.633 142.523Z" fill="#FAFAFA"/>
<path d="M162.413 165.055L196.823 145.291C197.31 145.012 197.708 145.241 197.707 145.801L197.706 146.022C197.688 146.328 197.598 146.625 197.444 146.889C197.29 147.154 197.076 147.379 196.819 147.545L162.408 167.309C161.921 167.588 161.524 167.359 161.525 166.799L161.525 166.578C161.543 166.272 161.633 165.975 161.787 165.711C161.941 165.446 162.156 165.221 162.413 165.055Z" fill="#FAFAFA"/>
<path d="M197.445 165.671C199.658 164.409 201.424 165.436 201.419 167.978C201.341 169.358 200.938 170.7 200.245 171.896C199.551 173.091 198.586 174.106 197.426 174.859C195.213 176.122 193.447 175.094 193.452 172.552C193.531 171.172 193.933 169.83 194.626 168.635C195.32 167.439 196.286 166.424 197.445 165.671Z" fill="#BA68C8"/>
<path d="M197.555 173.29C197.362 173.289 197.177 173.212 197.04 173.075L195.297 171.377C195.174 171.238 195.109 171.057 195.114 170.871C195.118 170.686 195.193 170.509 195.323 170.376C195.453 170.243 195.628 170.164 195.813 170.154C195.999 170.145 196.181 170.206 196.323 170.326L197.294 171.278L200.788 163.011C200.821 162.915 200.872 162.827 200.94 162.752C201.008 162.677 201.091 162.616 201.184 162.575C201.276 162.533 201.376 162.511 201.477 162.51C201.578 162.508 201.679 162.528 201.772 162.567C201.866 162.607 201.95 162.665 202.02 162.738C202.09 162.811 202.144 162.898 202.178 162.993C202.213 163.089 202.228 163.19 202.222 163.291C202.216 163.392 202.189 163.491 202.143 163.581L198.234 172.842C198.187 172.952 198.114 173.049 198.022 173.124C197.929 173.2 197.819 173.252 197.702 173.275L197.555 173.29Z" fill="#FAFAFA"/>
<path opacity="0.3" d="M205.152 161.974L208.84 159.874C209.578 159.448 210.196 159.796 210.194 160.665L210.186 164.879C210.158 165.35 210.02 165.807 209.784 166.215C209.548 166.622 209.219 166.969 208.825 167.227L205.137 169.327C204.399 169.76 203.781 169.405 203.783 168.543L203.792 164.329C203.817 163.857 203.954 163.398 204.19 162.988C204.427 162.579 204.756 162.232 205.152 161.974Z" fill="white"/>
<path d="M155.99 189.311C158.203 188.048 159.969 189.083 159.964 191.618C159.888 192.999 159.486 194.343 158.792 195.54C158.099 196.737 157.132 197.753 155.971 198.506C153.759 199.769 151.992 198.734 151.998 196.199C152.078 194.819 152.481 193.477 153.175 192.28C153.868 191.084 154.832 190.067 155.99 189.311Z" fill="#F28F8F"/>
<path opacity="0.3" d="M163.638 185.879L167.326 183.779C168.063 183.346 168.682 183.701 168.68 184.563L168.671 188.777C168.649 189.249 168.514 189.708 168.277 190.117C168.041 190.525 167.709 190.871 167.311 191.125L163.623 193.232C162.885 193.657 162.267 193.31 162.269 192.44L162.277 188.226C162.304 187.756 162.441 187.298 162.677 186.89C162.914 186.482 163.243 186.136 163.638 185.879Z" fill="white"/>
<path d="M157.465 196.078C157.275 196.077 157.093 196.002 156.957 195.87L154.015 193.013C153.933 192.95 153.865 192.87 153.816 192.778C153.767 192.687 153.738 192.586 153.73 192.483C153.723 192.379 153.737 192.275 153.773 192.178C153.808 192.08 153.864 191.991 153.936 191.917C154.008 191.842 154.095 191.784 154.192 191.745C154.288 191.707 154.392 191.689 154.495 191.693C154.599 191.698 154.7 191.724 154.793 191.77C154.886 191.816 154.968 191.881 155.034 191.962L157.976 194.811C158.113 194.95 158.189 195.137 158.189 195.331C158.188 195.526 158.111 195.713 157.973 195.85C157.84 195.99 157.657 196.071 157.465 196.078Z" fill="#FAFAFA"/>
<path d="M154.366 198.039C154.259 198.039 154.153 198.013 154.057 197.964C153.883 197.88 153.75 197.73 153.686 197.548C153.621 197.366 153.631 197.166 153.713 196.991L156.931 190.197C157.016 190.022 157.167 189.887 157.351 189.823C157.534 189.758 157.736 189.769 157.912 189.853C158.085 189.938 158.219 190.087 158.283 190.269C158.348 190.451 158.338 190.651 158.256 190.826L155.038 197.62C154.977 197.746 154.882 197.853 154.763 197.927C154.644 198.001 154.506 198.04 154.366 198.039Z" fill="#FAFAFA"/>
<path d="M277.81 72.7581L275.403 68.1999L277.352 62.5602L277.359 59.1194L271.399 62.548L271.392 65.9888L273.947 70.4146C273.986 70.4827 274.045 70.5369 274.116 70.5697L277.81 72.7581Z" fill="#BA68C8"/>
<path opacity="0.2" d="M277.81 72.7581L275.403 68.1999L277.352 62.5602L277.359 59.1194L271.399 62.548L271.392 65.9888L273.947 70.4146C273.986 70.4827 274.045 70.5369 274.116 70.5697L277.81 72.7581Z" fill="black"/>
<path d="M292.15 31.8373C292.116 31.2172 291.937 30.6138 291.627 30.0757C291.317 29.5376 290.885 29.0798 290.366 28.7392L288.894 27.8963C288.341 27.6154 287.729 27.4684 287.108 27.4671C286.488 27.4659 285.875 27.6104 285.321 27.889L262.985 40.7445C262.464 41.082 262.031 41.538 261.72 42.0751C261.409 42.6123 261.229 43.2155 261.196 43.8353L261.146 68.3698C261.177 68.9897 261.354 69.5936 261.662 70.132C261.971 70.6705 262.403 71.1282 262.923 71.4679L264.394 72.3108C264.947 72.5916 265.557 72.7386 266.176 72.7398C266.796 72.7411 267.407 72.5966 267.96 72.3181L275.145 68.192L277.693 72.6179C277.729 72.6812 277.783 72.7326 277.848 72.7661C277.914 72.7997 277.987 72.8139 278.06 72.807C278.133 72.8002 278.202 72.7726 278.26 72.7276C278.317 72.6826 278.361 72.622 278.385 72.553L281.083 64.7781L290.274 59.4773C290.802 59.1428 291.243 58.6873 291.561 58.1486C291.878 57.6099 292.063 57.0034 292.1 56.3792L292.15 31.8373Z" fill="#BA68C8"/>
<path opacity="0.2" d="M261.131 68.3698C261.162 68.9897 261.339 69.5936 261.648 70.132C261.957 70.6705 262.388 71.1282 262.908 71.4678L264.38 72.3108C264.882 72.5651 265.433 72.7103 265.995 72.7368C266.558 72.7634 267.119 72.6706 267.643 72.4648C266.803 72.7799 266.17 72.2997 266.172 71.2829L266.222 46.7484C266.244 46.1263 266.425 45.5202 266.749 44.9886L261.73 42.0755C261.409 42.6082 261.227 43.2136 261.203 43.8353L261.131 68.3698Z" fill="black"/>
<path opacity="0.5" d="M292.063 31.3287C291.858 30.5915 291.166 30.3322 290.34 30.8021L268.004 43.6576C267.478 43.9856 267.045 44.4441 266.749 44.9886L261.73 42.0828C262.027 41.5383 262.459 41.0798 262.985 40.7518L285.314 27.8963C285.868 27.6177 286.48 27.4732 287.101 27.4745C287.722 27.4757 288.333 27.6227 288.887 27.9036L290.359 28.7465C290.803 29.0394 291.182 29.4193 291.475 29.8631C291.768 30.3069 291.968 30.8055 292.063 31.3287Z" fill="white"/>
<path d="M286.598 37.6539C286.097 37.4447 285.533 37.4421 285.031 37.6467C284.528 37.8514 284.126 38.2467 283.914 38.7463L276.125 57.1498L274.287 55.3557C273.897 54.9758 273.372 54.7664 272.828 54.7736C272.283 54.7808 271.764 55.004 271.384 55.394C271.004 55.784 270.795 56.309 270.802 56.8534C270.809 57.3978 271.032 57.9171 271.422 58.297L275.415 62.1953C275.798 62.5657 276.31 62.7728 276.843 62.7729C276.978 62.7841 277.114 62.7843 277.249 62.7737C277.575 62.7073 277.88 62.5621 278.137 62.3507C278.395 62.1393 278.596 61.8682 278.725 61.561L287.712 40.3455C287.816 40.0956 287.87 39.8277 287.87 39.557C287.871 39.2864 287.818 39.0183 287.714 38.7682C287.611 38.5181 287.459 38.291 287.267 38.0998C287.076 37.9085 286.848 37.757 286.598 37.6539Z" fill="#FAFAFA"/>
<path d="M291.836 120.795C297.082 120.806 299.709 122.55 301.887 127.343C303.971 131.923 309.021 148.061 308.698 151.288C308.375 154.514 297.103 168.446 297.103 168.446L292.407 162.682L300.065 150.297L292.941 135.363L291.836 120.795Z" fill="#FFA8A7"/>
<path d="M288.418 258.344L284.31 263.994C284.31 263.994 286.332 265.811 290.362 265.974C294.009 266.121 295.014 264.745 295.147 264.458C295.495 263.722 295.343 262.189 295.221 260.649C295.127 259.485 295.161 257.488 294.49 257.487L288.418 258.344Z" fill="#263238"/>
<path d="M282.38 259.864C282.38 259.864 274.436 261.019 272.572 260.817C270.649 260.997 267.746 261.006 266.264 261.43C263.816 262.125 265.327 265.849 269.936 267.089C272.882 267.89 277.715 267.952 280.741 268.864C283.767 269.777 285.894 271.144 289.447 270.149C291.851 269.469 291.95 267.539 291.725 266.116C291.339 263.75 291.277 261.459 289.996 261.206C288.413 260.886 282.38 259.864 282.38 259.864Z" fill="#263238"/>
<path d="M302.544 170.284C301.871 164.337 298.646 159.666 295.253 154.369L286.411 180.242L284.184 188.342C284.184 188.342 284.301 206.945 284.579 211.396C284.857 215.847 287.768 252.043 287.768 252.043L288.291 259.191C293.35 260.601 294.413 259.277 294.467 258.172C294.521 257.067 295.082 252.662 295.082 252.662C295.082 252.662 299.94 226.207 300.14 222.376C300.384 217.901 299.758 213.421 298.295 209.184C299.294 199.903 303.978 182.849 302.544 170.284Z" fill="#FFA8A7"/>
<path d="M287.738 252.051L288.261 259.198C293.32 260.609 294.384 259.285 294.438 258.179C294.438 257.929 294.491 257.494 294.543 256.986C293.722 258.812 292.05 258.278 291.098 255.668C290.145 253.057 285.992 230.312 285.992 230.312C286.847 240.968 287.738 252.051 287.738 252.051Z" fill="#F28F8F"/>
<path d="M295.253 154.369L269.497 157.264C269.497 157.264 263.046 202.717 262.551 207.004C261.878 211.772 262.754 216.629 265.05 220.861C266.76 224.364 280.314 254.334 281.916 259.841C281.916 259.841 275.284 260.564 272.587 260.787C269.476 261.591 270.852 262.685 271.793 263.335C272.971 264.14 275.439 264.079 278.142 264.276C281.023 264.496 283.521 264.376 285.981 264.41C290.218 264.47 290.406 262.504 290.406 262.504C289.785 259.739 289.253 256.961 288.832 254.167C287.559 245.832 284.838 228.888 283 223.41C281.594 219.163 277.714 213.968 277.714 213.968L286.396 180.22C296.135 177.344 299.326 173.195 300.458 167.281C301.404 162.428 297.052 157.342 295.253 154.369Z" fill="#FFA8A7"/>
<path d="M279.594 115.996L280.632 127.057L290.521 126.465L289.75 114.197L279.594 115.996Z" fill="#FFA8A7"/>
<path d="M299.401 125.526C298.405 122.577 296.36 120.878 291.836 120.817L290.171 120.865C289.851 122.493 285.008 123.802 280.171 122.127C278.081 122.333 276.009 122.693 273.972 123.205C270.922 128.181 269.163 133.84 268.855 139.669C268.723 142.888 269.091 146.462 269.756 153.131C268.598 160.74 265.902 175.278 264.161 190.74C264.85 190.82 265.548 190.74 266.2 190.505C266.853 190.269 267.442 189.886 267.921 189.384C269.021 188.215 270.263 186.059 271.538 178.723C271.519 187.999 273.87 191.253 277.093 193.308C279.733 194.961 282.81 195.778 285.922 195.654C298.029 194.75 300.362 192.736 301.946 189.1C303.636 177.072 303.743 171.2 302.866 167.632C301.99 164.064 300.095 161.099 297.614 156.57C296.571 154.645 295.149 151.076 295.417 149.979C296.783 144.684 298.989 139.568 299.618 134.824C300.112 130.861 300.06 127.494 299.401 125.526Z" fill="#BA68C8"/>
<g opacity="0.6">
<path d="M299.401 125.526C298.405 122.577 296.36 120.878 291.836 120.817L290.171 120.865C289.851 122.493 285.008 123.802 280.171 122.127C278.081 122.333 276.009 122.693 273.972 123.205C270.922 128.181 269.163 133.84 268.855 139.669C268.723 142.888 269.091 146.462 269.756 153.131C268.598 160.74 265.902 175.278 264.161 190.74C264.85 190.82 265.548 190.74 266.2 190.505C266.853 190.269 267.442 189.886 267.921 189.384C269.021 188.215 270.263 186.059 271.538 178.723C271.519 187.999 273.87 191.253 277.093 193.308C279.733 194.961 282.81 195.778 285.922 195.654C298.029 194.75 300.362 192.736 301.946 189.1C303.636 177.072 303.743 171.2 302.866 167.632C301.99 164.064 300.095 161.099 297.614 156.57C296.571 154.645 295.149 151.076 295.417 149.979C296.783 144.684 298.989 139.568 299.618 134.824C300.112 130.861 300.06 127.494 299.401 125.526Z" fill="black"/>
</g>
<path d="M273.972 123.205C268.674 123.444 266.328 128.501 266.098 133.253C265.667 142.027 265.076 149.924 263.846 153.635C262.497 157.611 253.897 165.779 251.294 166.51C248.692 167.242 245.254 165.761 244.331 167.041C243.407 168.321 247.127 168.815 247.273 169.486C247.419 170.157 242.583 171.584 239.843 171.107C237.103 170.629 237.793 175.317 241.901 177.174C246.008 179.032 251.345 177.577 256.326 173.969C261.307 170.362 270.406 163.145 272.701 157.661C275.005 152.33 276.518 146.691 277.193 140.923C279.575 124.999 273.972 123.205 273.972 123.205Z" fill="#FFA8A7"/>
<path d="M266.972 94.7066C266.888 94.1867 266.889 93.6568 266.975 93.1373C267.1 92.4653 267.369 91.8284 267.765 91.2709C268.16 90.7133 268.672 90.2484 269.265 89.9083C269.858 89.5682 270.518 89.3611 271.198 89.3013C271.879 89.2415 272.565 89.3304 273.208 89.5619C273.021 88.5443 273.179 87.4933 273.658 86.5759C274.136 85.6585 274.907 84.9272 275.849 84.4982C276.581 84.2265 277.36 84.1031 278.14 84.135C278.921 84.167 279.687 84.3537 280.394 84.6843C281.243 84.9873 281.948 85.5955 282.373 86.3903C282.871 85.5419 283.608 84.8599 284.493 84.4302C285.378 84.0006 286.37 83.8427 287.345 83.9762C288.319 84.1098 289.233 84.529 289.969 85.1809C290.706 85.8328 291.233 86.6882 291.484 87.6393C292.958 87.3033 295.108 87.9782 295.783 89.4752C296.516 91.1787 295.599 93.2766 295.949 95.0603C296.175 96.2101 296.681 97.2721 296.877 98.4661C297.089 99.7727 297.21 101.093 297.238 102.416C297.44 107.876 284.761 111.401 285.003 115.145L278.264 106.908C278.265 106.57 277.309 105.713 277.095 105.433C276.691 104.887 276.361 104.304 275.964 103.736C274.797 102.088 273.184 100.807 271.315 100.042C269.992 99.431 268.847 98.49 267.991 97.3095C267.451 96.5343 267.102 95.6424 266.972 94.7066Z" fill="#263238"/>
<path d="M272.287 103.846C272.287 103.846 270.07 107.098 270.372 107.438C270.884 107.78 271.452 108.031 272.05 108.178L272.287 103.846Z" fill="#F28F8F"/>
<path d="M278.999 93.5523C276.867 94.631 273.186 96.6202 272.22 104.325C271.239 112.229 273.024 114.98 274.12 116.021C274.855 116.76 278.678 116.981 280.669 116.381C283.168 115.649 288.574 113.008 291.117 108.931C294.073 104.134 294.735 97.7398 291.299 95.2204C286.466 91.6814 280.798 92.6424 278.999 93.5523Z" fill="#FFA8A7"/>
<path d="M274.296 116.162C275.194 116.657 277.735 116.905 279.629 116.593L279.573 115.17C278.761 115.523 277.917 115.798 277.052 115.99C276.147 116.184 275.218 116.242 274.296 116.162Z" fill="#F28F8F"/>
<path d="M278.063 93.322C277.161 93.6459 276.322 94.1254 275.585 94.7389C275.216 95.0483 274.917 95.4318 274.706 95.8644C274.539 96.2672 274.478 96.7056 274.526 97.1386C274.587 97.7308 274.803 98.2966 275.151 98.7795C275.499 99.2624 275.968 99.6456 276.51 99.8908C276.223 100.281 276.026 100.729 275.932 101.204C275.838 101.679 275.85 102.168 275.967 102.638C276.355 103.731 277.024 104.703 277.906 105.456C277.953 105.504 278.008 105.544 278.068 105.575C278.131 105.584 278.196 105.579 278.257 105.56C278.318 105.541 278.375 105.508 278.422 105.465C279.757 104.576 280.585 103.038 282.478 103.661C284.951 104.476 284.827 107.541 282.878 109.445C282.182 110.141 281.263 110.572 280.282 110.663C279.784 110.671 279.3 110.497 278.92 110.174C278.92 110.174 278.979 114.167 282.446 115.758C282.446 115.758 286.304 116.997 289.857 115.862C291.165 114.199 293.365 112.082 295.174 110.185C301.139 103.949 301.497 94.858 292.728 91.9741C292.426 91.8703 292.124 91.7813 291.815 91.6996C288.994 90.9593 286.04 90.8902 283.187 91.4978C281.768 91.7972 280.387 92.2592 279.073 92.8746C278.764 93.0361 278.395 93.1753 278.063 93.322Z" fill="#263238"/>
<path d="M277.753 108.241C277.523 108.161 277.312 108.037 277.13 107.874C276.949 107.712 276.802 107.516 276.698 107.296C276.593 107.076 276.534 106.838 276.522 106.595C276.51 106.352 276.547 106.11 276.63 105.881C276.807 105.421 277.157 105.048 277.604 104.842C278.052 104.637 278.563 104.615 279.027 104.781L277.753 108.241Z" fill="#263238"/>
</svg>
