<svg width="555" height="322" viewBox="0 0 555 322" fill="none" xmlns="http://www.w3.org/2000/svg">
<path d="M526.34 161.849C526.34 161.849 526.34 157.339 516.608 151.088C506.876 144.837 500.704 141.211 500.704 141.211C500.704 141.211 495.866 151.53 504.874 157.817C511.488 162.232 518.659 166.281 526.312 169.922L526.34 161.849Z" fill="#BA68C8"/>
<path d="M512.298 189.865C512.298 189.865 512.298 185.355 502.566 179.104C492.835 172.853 486.69 169.227 486.69 169.227C486.69 169.227 481.838 179.546 490.86 185.833C497.474 190.249 504.645 194.298 512.298 197.938V189.865Z" fill="#BA68C8"/>
<path d="M525.728 169.489C525.728 169.489 526.465 165.033 537.114 159.449C547.764 153.866 554.534 150.727 554.534 150.727C554.534 150.727 557.662 161.316 547.708 166.963C540.413 170.902 532.624 174.438 524.421 177.535L525.728 169.489Z" fill="#BA68C8"/>
<path d="M508.767 202.575C508.767 202.575 510.158 198.191 521.711 193.365C533.264 188.539 540.437 185.878 540.437 185.878C540.437 185.878 541.828 196.63 531.025 201.546C523.132 204.967 514.813 207.954 506.154 210.476L508.767 202.575Z" fill="#BA68C8"/>
<path d="M511.951 238.655C511.951 238.655 511.951 234.145 521.682 227.885C531.414 221.625 537.573 218.017 537.573 218.017C537.573 218.017 542.425 228.336 533.402 234.614C526.791 239.034 519.62 243.087 511.965 246.728L511.951 238.655Z" fill="#BA68C8"/>
<path d="M511.798 247.459C511.798 247.459 512.771 243.021 504.568 235.913C496.366 228.805 490.985 224.674 490.985 224.674C490.985 224.674 483.937 234.443 491.458 241.488C497.034 246.47 503.242 251.14 510.018 255.451L511.798 247.459Z" fill="#BA68C8"/>
<path d="M502.247 273.554C502.247 273.554 502.247 269.044 511.978 262.793C521.71 256.542 527.883 252.916 527.883 252.916C527.883 252.916 532.721 263.235 523.712 269.522C517.097 273.939 509.926 277.991 502.274 281.636L502.247 273.554Z" fill="#BA68C8"/>
<path d="M508.711 297.214C508.711 297.214 506.959 292.876 513.869 285.208C520.778 277.541 525.408 273.049 525.408 273.049C525.408 273.049 534.111 282.232 527.869 289.791C523.199 295.15 517.846 300.246 511.867 305.026L508.711 297.214Z" fill="#BA68C8"/>
<path d="M527.216 160.703C526.729 165.373 525.847 170.023 524.574 174.63C520.737 187.457 511.172 195.737 507.349 207.319C503.526 218.901 514.509 233.83 511.52 248.713C508.531 263.596 499.661 271.868 502.205 281.799C504.749 291.73 518.151 318.628 518.151 318.628" stroke="#263238" stroke-linecap="round" stroke-linejoin="round"/>
<path d="M525.645 172.474L536.071 167.279" stroke="#263238" stroke-linecap="round" stroke-linejoin="round"/>
<path d="M526.131 166.494L521.752 161.452" stroke="#263238" stroke-linecap="round" stroke-linejoin="round"/>
<path d="M507.933 206.787C507.933 206.787 516.663 202.539 525.644 198.29" stroke="#263238" stroke-linecap="round" stroke-linejoin="round"/>
<path d="M512.298 197.938C512.298 197.938 505.013 188.684 496.769 182.55" stroke="#263238" stroke-linecap="round" stroke-linejoin="round"/>
<path d="M512.298 245.041C517.279 239.07 523.573 233.6 530.983 228.805" stroke="#263238" stroke-linecap="round" stroke-linejoin="round"/>
<path d="M510.602 251.338C507.952 247.289 504.785 243.39 501.134 239.684C496.046 234.804 495.309 234.172 495.309 234.172" stroke="#263238" stroke-linecap="round" stroke-linejoin="round"/>
<path d="M502.247 281.799C504.463 278.243 507.094 274.803 510.115 271.507C513.139 268.443 516.547 265.547 520.306 262.847" stroke="#263238" stroke-linecap="round" stroke-linejoin="round"/>
<path d="M511.868 305.026C511.361 301.626 512.263 298.201 514.481 295.104C518.124 290.539 522.239 284.559 523.935 282.196" stroke="#263238" stroke-linecap="round" stroke-linejoin="round"/>
<path d="M447.346 221.788C447.346 221.788 446.595 218.973 451.614 214.346C456.633 209.719 459.956 207.04 459.956 207.04C459.956 207.04 464.71 213.173 460.122 217.738C456.715 220.975 452.897 224.022 448.708 226.848L447.346 221.788Z" fill="#BA68C8"/>
<path d="M460.845 238.367C460.845 238.367 460.095 235.552 465.114 230.925C470.132 226.298 473.455 223.619 473.455 223.619C473.455 223.619 478.21 229.752 473.622 234.326C470.212 237.559 466.394 240.603 462.208 243.427L460.845 238.367Z" fill="#BA68C8"/>
<path d="M449 226.532C449 226.532 447.804 223.826 440.186 221.039C432.567 218.252 427.813 216.79 427.813 216.79C427.813 216.79 427.618 223.655 434.764 226.487C439.996 228.441 445.469 230.11 451.127 231.475L449 226.532Z" fill="#BA68C8"/>
<path d="M465.182 246.088C465.182 246.088 463.542 243.436 455.534 241.217C447.526 238.998 442.521 237.843 442.521 237.843C442.521 237.843 443.439 244.681 451.057 247.008C456.578 248.595 462.293 249.88 468.143 250.851L465.182 246.088Z" fill="#BA68C8"/>
<path d="M469.214 268.936C469.214 268.936 468.477 266.122 461.345 262.865C454.213 259.609 449.723 257.796 449.723 257.796C449.723 257.796 448.416 264.606 455.103 267.908C459.988 270.216 465.164 272.252 470.577 273.996L469.214 268.936Z" fill="#BA68C8"/>
<path d="M470.799 274.447C470.799 274.447 469.409 271.741 473.399 266.69C477.389 261.639 480.031 258.689 480.031 258.689C480.031 258.689 486.078 264.318 482.547 269.27C479.887 272.785 476.775 276.15 473.246 279.327L470.799 274.447Z" fill="#BA68C8"/>
<path d="M482.95 297.133C482.95 297.133 483.45 294.301 490.276 290.819C497.102 287.337 501.398 285.326 501.398 285.326C501.398 285.326 503.303 292.082 496.922 295.627C492.248 298.108 487.263 300.332 482.018 302.274L482.95 297.133Z" fill="#BA68C8"/>
<path d="M481.129 290.133C481.129 290.133 480.378 287.319 473.26 284.063C466.142 280.807 461.665 278.993 461.665 278.993C461.665 278.993 460.358 285.804 467.045 289.114C471.934 291.418 477.11 293.455 482.519 295.203L481.129 290.133Z" fill="#BA68C8"/>
<path d="M481.129 305.432C481.129 305.432 481.491 302.581 475.874 298.261C470.258 293.94 466.615 291.45 466.615 291.45C466.615 291.45 462.681 297.819 467.866 302.121C471.667 305.151 475.853 307.969 480.379 310.546L481.129 305.432Z" fill="#BA68C8"/>
<path d="M446.608 221.12C447.696 224.016 449.028 226.87 450.598 229.671C455.145 237.447 462.527 241.966 466.864 248.956C471.202 255.947 466.864 266.095 471.146 275.214C475.428 284.333 482.519 288.898 482.519 295.302C482.519 301.706 478.681 319.521 478.681 319.521" stroke="#263238" stroke-linecap="round" stroke-linejoin="round"/>
<path d="M449.57 228.39L442.16 225.874" stroke="#263238" stroke-linecap="round" stroke-linejoin="round"/>
<path d="M448.263 224.674L450.153 221.21" stroke="#263238" stroke-linecap="round" stroke-linejoin="round"/>
<path d="M466.406 248.668C466.406 248.668 460.219 246.62 453.894 244.581" stroke="#263238" stroke-linecap="round" stroke-linejoin="round"/>
<path d="M462.194 243.427C464.018 239.71 466.416 236.123 469.354 232.72" stroke="#263238" stroke-linecap="round" stroke-linejoin="round"/>
<path d="M470.076 272.959C465.951 269.572 461.09 266.591 455.646 264.11" stroke="#263238" stroke-linecap="round" stroke-linejoin="round"/>
<path d="M472.189 276.784C473.179 274.062 474.514 271.398 476.179 268.819C478.557 265.4 478.96 264.949 478.96 264.949" stroke="#263238" stroke-linecap="round" stroke-linejoin="round"/>
<path d="M482.185 300.164C484.596 298.226 487.266 296.43 490.165 294.797C492.009 293.916 493.739 292.938 495.337 291.874" stroke="#263238" stroke-linecap="round" stroke-linejoin="round"/>
<path d="M482.519 295.302C480.533 293.223 478.307 291.245 475.86 289.385C473.45 287.678 470.827 286.103 468.019 284.676" stroke="#263238" stroke-linecap="round" stroke-linejoin="round"/>
<path d="M480.378 310.546C480.13 308.377 478.992 306.29 477.083 304.502C474.039 301.896 470.452 298.432 468.992 297.07" stroke="#263238" stroke-linecap="round" stroke-linejoin="round"/>
<path d="M52.4726 182.496L46.3833 171.212L52.4726 176.001L47.6901 159.071L55.0863 171.212L57.7 147.498L62.0514 170.075L66.8339 165.565V171.212L72.4922 163.59L69.4476 176.849L74.661 174.594L66.4029 181.928L52.4726 182.496Z" fill="#BA68C8"/>
<path d="M71.6165 179.673H48.9971L53.0705 209.304H67.543L71.6165 179.673Z" fill="#263238" stroke="#263238" stroke-linecap="round" stroke-linejoin="round"/>
<path d="M114.047 208.97H36.9849V314.867H114.047V208.97Z" fill="white" stroke="#263238" stroke-linecap="round" stroke-linejoin="round"/>
<path d="M118.26 208.97H75.5093V314.867H118.26V208.97Z" fill="white" stroke="#263238" stroke-linecap="round" stroke-linejoin="round"/>
<path d="M113.449 208.97H75.5093V314.867H113.449V208.97Z" fill="#263238" stroke="#263238" stroke-linecap="round" stroke-linejoin="round"/>
<path d="M109.181 290.242H75.5093V311.926H109.181V290.242Z" fill="#BA68C8" stroke="#263238" stroke-linecap="round" stroke-linejoin="round"/>
<path d="M109.181 291.414H75.5093V294.192H109.181V291.414Z" fill="white" stroke="#263238" stroke-linecap="round" stroke-linejoin="round"/>
<path d="M109.181 307.38H75.5093V310.158H109.181V307.38Z" fill="white" stroke="#263238" stroke-linecap="round" stroke-linejoin="round"/>
<path d="M81.8906 290.693V318.114" stroke="#263238" stroke-linecap="round" stroke-linejoin="round"/>
<path d="M93.6382 290.693V318.114" stroke="#263238" stroke-linecap="round" stroke-linejoin="round"/>
<path d="M103.954 290.693V318.114" stroke="#263238" stroke-linecap="round" stroke-linejoin="round"/>
<path d="M109.181 212.903H75.5093V244.789H109.181V212.903Z" fill="#BA68C8" stroke="#263238" stroke-linecap="round" stroke-linejoin="round"/>
<path d="M109.181 214.238H75.5093V217.395H109.181V214.238Z" fill="white" stroke="#263238" stroke-linecap="round" stroke-linejoin="round"/>
<path d="M109.181 234.678H75.5093V237.835H109.181V234.678Z" fill="white" stroke="#263238" stroke-linecap="round" stroke-linejoin="round"/>
<path d="M81.8906 213.408V244.573" stroke="#263238" stroke-linecap="round" stroke-linejoin="round"/>
<path d="M93.6382 213.408V244.573" stroke="#263238" stroke-linecap="round" stroke-linejoin="round"/>
<path d="M103.954 213.408V244.573" stroke="#263238" stroke-linecap="round" stroke-linejoin="round"/>
<path d="M109.181 251.329H75.5093V283.215H109.181V251.329Z" fill="#BA68C8" stroke="#263238" stroke-linecap="round" stroke-linejoin="round"/>
<path d="M109.181 252.664H75.5093V255.821H109.181V252.664Z" fill="white" stroke="#263238" stroke-linecap="round" stroke-linejoin="round"/>
<path d="M109.181 273.103H75.5093V276.26H109.181V273.103Z" fill="white" stroke="#263238" stroke-linecap="round" stroke-linejoin="round"/>
<path d="M81.8906 251.843V282.998" stroke="#263238" stroke-linecap="round" stroke-linejoin="round"/>
<path d="M93.6382 251.843V282.998" stroke="#263238" stroke-linecap="round" stroke-linejoin="round"/>
<path d="M103.954 251.843V282.998" stroke="#263238" stroke-linecap="round" stroke-linejoin="round"/>
<path d="M114.033 244.347H75.5093V247.973H114.033V244.347Z" fill="white" stroke="#263238" stroke-linecap="round" stroke-linejoin="round"/>
<path d="M114.033 283.017H75.5093V286.643H114.033V283.017Z" fill="white" stroke="#263238" stroke-linecap="round" stroke-linejoin="round"/>
<path d="M114.033 208.97V314.858" stroke="#263238" stroke-linecap="round" stroke-linejoin="round"/>
<path d="M70.0737 208.97V314.858H75.5096V212.903H113.366V208.925L70.0737 208.97Z" fill="white" stroke="#263238" stroke-linecap="round" stroke-linejoin="round"/>
<path d="M75.5093 212.903V208.97" stroke="#263238" stroke-linecap="round" stroke-linejoin="round"/>
<path d="M113.74 160.324C109.695 155.264 107.999 151.638 107.999 150.799C107.999 149.139 113.56 148.147 113.56 148.147C122.235 145.17 163.039 149.473 181.404 151.457C191.685 152.62 202.085 153.284 212.518 153.442C212.518 153.442 215.062 152.125 218.079 150.465C221.096 148.805 235.415 137.891 241.032 136.935C246.648 135.979 251.737 138.261 251.737 138.261C251.737 138.261 260.926 141.869 259.383 142.564C257.84 143.258 235.415 155.796 229.799 158.114C224.182 160.432 212.462 159.44 202.258 160.766C193.471 161.903 157.881 163.31 149.72 163.743C143.591 164.686 137.159 164.338 131.355 162.751" fill="white"/>
<path d="M251.834 138.225C251.834 138.225 246.732 135.907 241.129 136.899C235.527 137.891 221.235 148.815 218.176 150.429C215.118 152.044 212.615 153.406 212.615 153.406C202.182 153.248 191.782 152.584 181.502 151.421C163.136 149.437 122.332 145.107 113.657 148.111C113.657 148.111 108.096 149.103 108.096 150.763C108.289 151.691 108.658 152.6 109.195 153.469L109.959 153.649C109.959 153.649 120.15 152.955 142.143 153.298C164.137 153.64 215.007 155.598 218.274 156.364C219.664 156.707 229.521 155.264 240.448 152.756C248.79 148.345 258.591 142.834 259.578 142.446C261.024 141.86 251.834 138.225 251.834 138.225Z" fill="#BA68C8"/>
<path opacity="0.5" d="M251.834 138.225C251.834 138.225 246.732 135.907 241.129 136.899C235.527 137.891 221.235 148.815 218.176 150.429C215.118 152.044 212.615 153.406 212.615 153.406C202.182 153.248 191.782 152.584 181.502 151.421C163.136 149.437 122.332 145.107 113.657 148.111C113.657 148.111 108.096 149.103 108.096 150.763C108.289 151.691 108.658 152.6 109.195 153.469L109.959 153.649C109.959 153.649 120.15 152.955 142.143 153.298C164.137 153.64 215.007 155.598 218.274 156.364C219.664 156.707 229.521 155.264 240.448 152.756C248.79 148.345 258.591 142.834 259.578 142.446C261.024 141.86 251.834 138.225 251.834 138.225Z" fill="white"/>
<path d="M113.74 160.324C109.695 155.264 107.999 151.638 107.999 150.799C107.999 149.139 113.56 148.147 113.56 148.147C122.235 145.17 163.039 149.473 181.404 151.457C191.685 152.62 202.085 153.284 212.518 153.442C212.518 153.442 215.062 152.125 218.079 150.465C221.096 148.805 235.415 137.891 241.032 136.935C246.648 135.979 251.737 138.261 251.737 138.261C251.737 138.261 260.926 141.869 259.383 142.564C257.84 143.258 235.415 155.796 229.799 158.114C224.182 160.432 212.462 159.44 202.258 160.766C193.471 161.903 157.881 163.31 149.72 163.743C143.591 164.686 137.159 164.338 131.355 162.751" stroke="#263238" stroke-linecap="round" stroke-linejoin="round"/>
<path d="M315.202 189.748C316.125 188.612 317.509 187.66 319.205 186.998C320.9 186.335 322.843 185.985 324.823 185.987H417.553C417.553 185.987 424.254 185.987 422.252 194.249C420.25 202.512 392.751 252.961 386.105 268.214C379.46 283.468 378.056 315.615 378.056 315.615H266.835C266.835 315.615 275.65 238.737 315.202 189.748Z" fill="white"/>
<path opacity="0.16" d="M356.965 185.987H324.823C322.843 185.985 320.9 186.335 319.204 186.998C317.509 187.66 316.125 188.612 315.202 189.748C275.649 238.737 266.738 315.588 266.738 315.588H316.62L328.924 285.272L380.224 292.136C380.586 289.592 381.003 287.003 381.489 284.451L380.363 276.333C380.363 276.333 369.853 269.162 366.544 267.367C363.235 265.572 365.432 262.333 364.876 248.343C364.32 234.353 344.967 224.295 337.766 215.681C330.564 207.067 341.645 201.682 351.599 193.067C355.144 189.956 356.59 187.664 356.965 185.987Z" fill="black"/>
<path d="M315.202 189.748C316.125 188.612 317.509 187.66 319.205 186.998C320.9 186.335 322.843 185.985 324.823 185.987H417.553C417.553 185.987 424.254 185.987 422.252 194.249C420.25 202.512 392.751 252.961 386.105 268.214C379.46 283.468 378.056 315.615 378.056 315.615H266.835C266.835 315.615 275.65 238.737 315.202 189.748Z" stroke="#263238" stroke-linecap="round" stroke-linejoin="round"/>
<path d="M401.467 200.338C392.097 214.526 372.272 270.695 369.046 315.588H378C378 315.588 379.39 283.404 386.049 268.187C392.708 252.97 420.235 202.512 422.196 194.222C424.156 185.932 417.497 185.96 417.497 185.96C417.497 185.96 408.988 188.963 401.467 200.338Z" fill="#263238" stroke="#263238" stroke-linecap="round" stroke-linejoin="round"/>
<path d="M238.571 171.978C238.571 171.978 223.779 166.35 218.176 156.428C212.574 146.505 262.039 130.612 283.518 129.62C304.998 128.627 311.059 132.263 323.836 146.496C336.612 160.73 345.259 180.25 338.628 189.847C331.996 199.445 320.777 201.763 328.896 209.692C337.015 217.62 360.01 240.135 358.481 250.724C356.951 261.314 341.144 270.569 318.163 271.579C295.183 272.589 264.597 263.632 239.1 249.028C213.603 234.425 220.22 212.948 229.368 206.002C238.516 199.057 252.321 196.405 253.336 189.459C254.351 182.514 238.571 171.978 238.571 171.978Z" fill="#263238" stroke="#263238" stroke-linecap="round" stroke-linejoin="round"/>
<path d="M301.619 156.274C309.474 165.763 319.303 178.473 322.376 186.149C327.742 199.589 300.132 208.05 307.792 214.517" stroke="white" stroke-linecap="round" stroke-linejoin="round"/>
<path d="M290.915 143.844C290.915 143.844 293.973 147.227 298.2 152.206" stroke="white" stroke-linecap="round" stroke-linejoin="round"/>
<path d="M332.121 167.721C333.027 169.499 333.615 171.339 333.873 173.205" stroke="white" stroke-linecap="round" stroke-linejoin="round"/>
<path d="M296.225 138.91C296.225 138.91 320.388 150.492 330.036 164.356" stroke="white" stroke-linecap="round" stroke-linejoin="round"/>
<path d="M262.693 147.597C245.44 150.736 220.624 155.832 222.639 158.773" stroke="white" stroke-linecap="round" stroke-linejoin="round"/>
<path d="M278.639 144.837C278.639 144.837 274.955 145.432 269.463 146.388" stroke="white" stroke-linecap="round" stroke-linejoin="round"/>
<path d="M257.298 138.992C267.181 136.971 277.532 136.086 287.884 136.376" stroke="white" stroke-linecap="round" stroke-linejoin="round"/>
<path d="M250.264 140.859C251.826 140.331 253.443 139.872 255.102 139.488" stroke="white" stroke-linecap="round" stroke-linejoin="round"/>
<path d="M107.999 150.799C107.993 150.862 107.993 150.925 107.999 150.988C107.993 150.925 107.993 150.862 107.999 150.799ZM113.741 160.324C111.399 157.542 109.534 154.602 108.18 151.557C109.528 154.604 111.393 157.544 113.741 160.324ZM108.027 151.043C108.027 151.097 108.027 151.16 108.027 151.241C108.054 151.16 108.041 151.097 108.027 151.043ZM108.096 151.295C108.113 151.384 108.141 151.471 108.18 151.557C108.141 151.471 108.113 151.384 108.096 151.295ZM113.741 160.315C118.94 166.705 125.409 172.625 132.982 177.923C151.347 190.83 204.399 224.593 209.446 226.911C214.492 229.229 213.019 235.841 209.446 242.462C205.873 249.083 192.61 258.698 193.124 269.27C193.638 279.841 198.685 296.078 198.226 299.388C197.767 302.698 185.005 313.956 185.005 313.956H316.606C316.606 313.956 300.201 300.425 300.201 295.798C300.201 291.171 322.723 231.881 323.738 227.579C324.753 223.276 320.68 220.299 312.519 219.966C304.358 219.632 273.244 215.329 271.715 212.019C270.186 208.708 279.876 196.134 279.876 196.134L249.29 197.127C249.29 197.127 247.761 205.732 245.717 207.391C243.674 209.051 240.615 205.732 233.469 203.423C226.323 201.113 212.615 199.12 207.457 196.468C202.3 193.816 153.391 163.995 153.391 163.995" fill="white"/>
<path d="M215.271 199.021C217.815 201.907 220.359 204.514 220.359 204.514C220.359 204.514 228.937 207.644 231.078 207.644C233.219 207.644 246.093 212.154 246.093 212.154C246.093 212.154 256.826 210.413 253.044 204.496C251.851 202.981 250.345 201.579 248.568 200.329C247.928 202.953 246.899 206.39 245.69 207.373C243.646 209.024 240.587 205.714 233.442 203.404C228.812 201.907 221.319 200.536 215.271 199.021Z" fill="#BA68C8"/>
<path d="M189.078 185.626C173.327 176.164 153.391 164.031 153.391 164.031L141.796 162.949L140.406 163.454C140.406 163.454 173.132 182.243 180.097 184.336C182.915 185.176 185.977 185.616 189.078 185.626Z" fill="#BA68C8"/>
<path d="M205.581 195.422L204.33 194.7C204.97 195.386 205.331 195.819 205.331 195.819L205.581 195.422Z" fill="#BA68C8"/>
<g opacity="0.5">
<path d="M215.271 199.021C217.815 201.907 220.359 204.514 220.359 204.514C220.359 204.514 228.937 207.644 231.078 207.644C233.219 207.644 246.093 212.154 246.093 212.154C246.093 212.154 256.826 210.413 253.044 204.496C251.851 202.981 250.345 201.579 248.568 200.329C247.928 202.953 246.899 206.39 245.69 207.373C243.646 209.024 240.587 205.714 233.442 203.404C228.812 201.907 221.319 200.536 215.271 199.021Z" fill="white"/>
<path d="M189.078 185.626C173.327 176.164 153.391 164.031 153.391 164.031L141.796 162.949L140.406 163.454C140.406 163.454 173.132 182.243 180.097 184.336C182.915 185.176 185.977 185.616 189.078 185.626Z" fill="white"/>
<path d="M205.581 195.422L204.33 194.7C204.97 195.386 205.331 195.819 205.331 195.819L205.581 195.422Z" fill="white"/>
</g>
<path d="M113.741 160.315C118.94 166.705 125.409 172.625 132.982 177.923C151.347 190.83 204.399 224.593 209.446 226.911C214.492 229.229 213.019 235.841 209.446 242.462C205.873 249.083 192.61 258.698 193.124 269.27C193.638 279.841 198.685 296.078 198.226 299.388C197.767 302.698 185.005 313.956 185.005 313.956H316.606C316.606 313.956 300.201 300.425 300.201 295.798C300.201 291.171 322.723 231.881 323.738 227.579C324.753 223.276 320.68 220.299 312.519 219.966C304.358 219.632 273.244 215.329 271.715 212.019C270.186 208.708 279.876 196.134 279.876 196.134L249.29 197.127C249.29 197.127 247.761 205.732 245.717 207.391C243.674 209.051 240.615 205.732 233.469 203.423C226.323 201.113 212.615 199.12 207.457 196.468C202.3 193.816 153.391 163.995 153.391 163.995M107.999 150.799C107.993 150.862 107.993 150.925 107.999 150.988C107.993 150.925 107.993 150.862 107.999 150.799V150.799ZM113.741 160.324C111.399 157.542 109.534 154.602 108.18 151.557C109.528 154.604 111.393 157.544 113.741 160.324V160.324ZM108.027 151.043C108.027 151.097 108.027 151.16 108.027 151.241C108.054 151.16 108.041 151.097 108.027 151.043V151.043ZM108.096 151.295C108.113 151.384 108.141 151.471 108.18 151.557C108.141 151.471 108.113 151.384 108.096 151.295Z" stroke="#263238" stroke-linecap="round" stroke-linejoin="round"/>
<path d="M153.391 164.032C153.391 164.032 137.097 164.23 128.005 159.368" stroke="#263238" stroke-linecap="round" stroke-linejoin="round"/>
<path d="M271.728 212.019C270.199 208.717 279.889 196.134 279.889 196.134L249.304 197.127C249.304 197.127 247.774 205.732 245.731 207.391C243.687 209.051 240.628 205.732 233.483 203.423C232.94 203.242 232.343 203.071 231.731 202.899L229.882 221.761C229.882 221.761 232.565 240.026 264.735 236.554C277.762 235.146 291.665 227.606 303.663 219.127C291.317 217.656 272.896 214.553 271.728 212.019Z" fill="white"/>
<path d="M270.867 198.633C270.867 198.633 269.018 205.362 267.531 212.803C266.043 220.245 264.945 225.783 264.945 225.783L271.729 212.019L279.376 197.433C279.376 197.433 271.979 197.433 270.867 198.633Z" fill="#BA68C8"/>
<path opacity="0.5" d="M270.867 198.633C270.867 198.633 269.018 205.362 267.531 212.803C266.043 220.245 264.945 225.783 264.945 225.783L271.729 212.019L279.376 197.433C279.376 197.433 271.979 197.433 270.867 198.633Z" fill="white"/>
<path d="M271.728 212.019C270.199 208.717 279.889 196.134 279.889 196.134L249.304 197.127C249.304 197.127 247.774 205.732 245.731 207.391C243.687 209.051 240.628 205.732 233.483 203.423C232.94 203.242 232.343 203.071 231.731 202.899L229.882 221.761C229.882 221.761 232.565 240.026 264.735 236.554C277.762 235.146 291.665 227.606 303.663 219.127C291.317 217.656 272.896 214.553 271.728 212.019Z" stroke="#263238" stroke-linecap="round" stroke-linejoin="round"/>
<path d="M245.717 207.391C243.674 209.042 240.615 205.732 233.469 203.422C228.965 201.952 221.791 200.617 215.855 199.174C214.172 196.585 211.948 193.212 210.516 191.173C207.972 187.565 203.885 189.847 203.885 189.847C201.752 188.274 200.029 186.485 198.782 184.552C196.238 180.944 192.151 181.242 186.548 180.583C180.945 179.925 169.198 172.97 169.198 172.97C169.198 172.97 163.706 170.264 161.44 168.92C158.799 172.294 152.473 178.229 138.793 181.936C160.606 196.721 204.858 224.809 209.501 226.92C214.603 229.229 213.074 235.85 209.501 242.471C205.928 249.092 192.665 258.707 193.18 269.279C193.694 279.85 198.741 296.087 198.282 299.397C197.823 302.347 187.646 311.592 185.436 313.577L190.622 313.956H217.62C217.467 305.08 217.481 268.855 226.838 254.422C237.556 237.834 245.717 207.391 245.717 207.391Z" fill="#BA68C8"/>
<path opacity="0.16" d="M233.469 203.422C228.965 201.952 221.791 200.617 215.855 199.174C214.172 196.585 211.948 193.212 210.516 191.173C207.972 187.565 203.885 189.847 203.885 189.847C201.752 188.274 200.029 186.485 198.782 184.552C196.238 180.944 192.151 181.242 186.548 180.583C180.945 179.925 169.198 172.97 169.198 172.97C169.198 172.97 163.706 170.264 161.44 168.92C160.309 170.353 158.964 171.709 157.422 172.97C166.542 177.977 176.608 183.28 180.125 184.336C187.076 186.419 188.703 184.679 194.028 186.771C199.352 188.864 205.289 195.791 205.289 195.791C205.289 195.791 208.514 190.217 211.197 194.051C213.88 197.884 220.317 204.487 220.317 204.487C220.317 204.487 228.895 207.617 231.036 207.617C232.718 207.617 240.963 210.395 244.466 211.595C245.245 208.952 245.676 207.364 245.676 207.364C243.674 209.042 240.615 205.732 233.469 203.422Z" fill="black"/>
<path d="M245.717 207.391C243.674 209.042 240.615 205.732 233.469 203.422C228.965 201.952 221.791 200.617 215.855 199.174C214.172 196.585 211.948 193.212 210.516 191.173C207.972 187.565 203.885 189.847 203.885 189.847C201.752 188.274 200.029 186.485 198.782 184.552C196.238 180.944 192.151 181.242 186.548 180.583C180.945 179.925 169.198 172.97 169.198 172.97C169.198 172.97 163.706 170.264 161.44 168.92C158.799 172.294 152.473 178.229 138.793 181.936C160.606 196.721 204.858 224.809 209.501 226.92C214.603 229.229 213.074 235.85 209.501 242.471C205.928 249.092 192.665 258.707 193.18 269.279C193.694 279.85 198.741 296.087 198.282 299.397C197.823 302.347 187.646 311.592 185.436 313.577L190.622 313.956H217.62C217.467 305.08 217.481 268.855 226.838 254.422C237.556 237.834 245.717 207.391 245.717 207.391Z" stroke="#263238" stroke-linecap="round" stroke-linejoin="round"/>
<path d="M246.078 206.237C246.078 206.237 239.739 204.974 235.832 207.193C231.926 209.412 226.1 220.795 222.666 233.144C220.55 240.332 222.011 247.772 226.837 254.386C226.837 254.386 234.859 240.739 237.292 234.091C239.725 227.443 246.078 206.237 246.078 206.237Z" fill="#BA68C8"/>
<path opacity="0.16" d="M233.914 208.248C233.914 208.248 238.501 207.527 240.392 207.942C241.984 208.385 243.472 208.971 244.813 209.682L246.078 206.237C244.181 205.608 242.028 205.377 239.919 205.578C236.764 205.993 233.914 208.248 233.914 208.248Z" fill="black"/>
<path d="M246.078 206.237C246.078 206.237 239.739 204.974 235.832 207.193C231.926 209.412 226.1 220.795 222.666 233.144C220.55 240.332 222.011 247.772 226.837 254.386C226.837 254.386 234.859 240.739 237.292 234.091C239.725 227.443 246.078 206.237 246.078 206.237Z" stroke="#263238" stroke-linecap="round" stroke-linejoin="round"/>
<path d="M203.385 207.319L211.545 228.832L193.18 201.691" stroke="#263238" stroke-linecap="round" stroke-linejoin="round"/>
<path d="M257.145 313.955H316.62C316.62 313.955 300.215 300.425 300.215 295.798C300.215 291.171 322.737 231.881 323.752 227.578C324.767 223.276 320.693 220.299 312.533 219.965C304.372 219.632 273.258 215.329 271.729 212.019C271.729 212.019 259.995 238.827 255.922 257.029C252.418 272.643 256.047 305.044 257.145 313.955Z" fill="#BA68C8"/>
<path opacity="0.16" d="M312.532 219.965C305.845 219.695 283.754 216.754 275.148 213.886L278.277 218.576C283.944 220.527 290.039 221.902 296.35 222.653C306.707 223.853 316.342 223.619 322.639 229.626L322.945 229.924C323.335 228.769 323.599 227.957 323.682 227.578C324.78 223.276 320.693 220.299 312.532 219.965Z" fill="black"/>
<path d="M257.145 313.955H316.62C316.62 313.955 300.215 300.425 300.215 295.798C300.215 291.171 322.737 231.881 323.752 227.578C324.767 223.276 320.693 220.299 312.533 219.965C304.372 219.632 273.258 215.329 271.729 212.019C271.729 212.019 259.995 238.827 255.922 257.029C252.418 272.643 256.047 305.044 257.145 313.955Z" stroke="#263238" stroke-linecap="round" stroke-linejoin="round"/>
<path d="M271.729 212.019C271.729 212.019 255.991 244.491 255.921 257.029C255.921 257.029 278.277 239.467 281.196 227.127C284.116 214.788 271.729 212.019 271.729 212.019Z" fill="#BA68C8"/>
<path opacity="0.16" d="M269.018 216.168C271.382 216.117 273.731 216.44 275.86 217.109C277.989 217.779 279.835 218.774 281.238 220.011C281.238 220.011 278.152 214.12 271.729 212.019L269.018 216.168Z" fill="black"/>
<path d="M271.729 212.019C271.729 212.019 255.991 244.491 255.921 257.029C255.921 257.029 278.277 239.467 281.196 227.127C284.116 214.788 271.729 212.019 271.729 212.019Z" stroke="#263238" stroke-linecap="round" stroke-linejoin="round"/>
<path d="M439.74 307.849C439.74 307.849 451.266 308.156 458.815 308.859C463.849 309.302 468.917 309.564 473.996 309.644C473.996 309.644 469.825 304.178 465.377 302.635C460.928 301.093 452.864 298.333 446.108 298.946C439.351 299.559 429.689 303.979 430.495 305.386C431.301 306.793 434.902 307.425 439.74 307.849Z" fill="white"/>
<path d="M439.74 307.849C439.74 307.849 451.266 308.156 458.815 308.859C463.849 309.302 468.917 309.564 473.996 309.644C473.996 309.644 469.825 304.178 465.377 302.635C460.928 301.093 452.864 298.333 446.108 298.946C439.351 299.559 429.689 303.979 430.495 305.386C431.301 306.793 434.902 307.425 439.74 307.849Z" fill="#BA68C8"/>
<path opacity="0.5" d="M439.74 307.849C439.74 307.849 451.266 308.156 458.815 308.859C463.849 309.302 468.917 309.564 473.996 309.644C473.996 309.644 469.825 304.178 465.377 302.635C460.928 301.093 452.864 298.333 446.108 298.946C439.351 299.559 429.689 303.979 430.495 305.386C431.301 306.793 434.902 307.425 439.74 307.849Z" fill="white"/>
<path d="M439.74 307.849C439.74 307.849 451.266 308.156 458.815 308.859C463.849 309.302 468.917 309.564 473.996 309.644C473.996 309.644 469.825 304.178 465.377 302.635C460.928 301.093 452.864 298.333 446.108 298.946C439.351 299.559 429.689 303.979 430.495 305.386C431.301 306.793 434.902 307.425 439.74 307.849Z" stroke="#263238" stroke-linecap="round" stroke-linejoin="round"/>
<path d="M458.884 305.612C458.884 305.612 468.018 302.536 470.298 302.581C472.578 302.626 487.732 309.274 486.981 310.338C486.471 310.832 485.735 311.209 484.877 311.416C484.019 311.624 483.082 311.65 482.199 311.493C480.517 310.979 470.312 308.165 470.312 308.165L463.639 309.184L458.884 305.612Z" fill="white"/>
<path d="M458.884 305.612C458.884 305.612 468.018 302.536 470.298 302.581C472.578 302.626 487.732 309.274 486.981 310.338C486.231 311.403 482.644 312.269 482.199 311.493C481.754 310.717 470.312 308.165 470.312 308.165L463.639 309.184L458.884 305.612Z" fill="#BA68C8"/>
<path opacity="0.5" d="M458.884 305.612C458.884 305.612 468.018 302.536 470.298 302.581C472.578 302.626 487.732 309.274 486.981 310.338C486.231 311.403 482.644 312.269 482.199 311.493C481.754 310.717 470.312 308.165 470.312 308.165L463.639 309.184L458.884 305.612Z" fill="white"/>
<path d="M458.884 305.612C458.884 305.612 468.018 302.536 470.298 302.581C472.578 302.626 487.732 309.274 486.981 310.338C486.471 310.832 485.735 311.209 484.877 311.416C484.019 311.624 483.082 311.65 482.199 311.493C480.517 310.979 470.312 308.165 470.312 308.165L463.639 309.184L458.884 305.612Z" stroke="#263238" stroke-linecap="round" stroke-linejoin="round"/>
<path d="M452.364 300.552C452.364 300.552 464.543 300.299 466.962 301.093C469.381 301.887 480.308 314.046 478.668 314.93C477.027 315.814 472.495 315.552 472.634 314.569C472.773 313.586 462.569 307.073 462.569 307.073L454.63 305.946L452.364 300.552Z" fill="white"/>
<path d="M452.364 300.552C452.364 300.552 464.543 300.299 466.962 301.093C469.381 301.887 480.308 314.046 478.668 314.93C477.027 315.814 472.495 315.552 472.634 314.569C472.773 313.586 462.569 307.073 462.569 307.073L454.63 305.946L452.364 300.552Z" fill="#BA68C8"/>
<path opacity="0.5" d="M452.364 300.552C452.364 300.552 464.543 300.299 466.962 301.093C469.381 301.887 480.308 314.046 478.668 314.93C477.027 315.814 472.495 315.552 472.634 314.569C472.773 313.586 462.569 307.073 462.569 307.073L454.63 305.946L452.364 300.552Z" fill="white"/>
<path d="M452.364 300.552C452.364 300.552 464.543 300.299 466.962 301.093C469.381 301.887 480.308 314.046 478.668 314.93C477.027 315.814 472.495 315.552 472.634 314.569C472.773 313.586 462.569 307.073 462.569 307.073L454.63 305.946L452.364 300.552Z" stroke="#263238" stroke-linecap="round" stroke-linejoin="round"/>
<path d="M445.148 298.919C445.148 298.919 457.48 298.657 459.927 299.469C462.374 300.281 473.44 312.575 471.772 313.477C470.103 314.379 465.543 314.1 465.682 313.108C465.822 312.115 455.492 305.522 455.492 305.522L447.456 304.376L445.148 298.919Z" fill="white"/>
<path d="M445.148 298.919C445.148 298.919 457.48 298.657 459.927 299.469C462.374 300.281 473.44 312.575 471.772 313.477C470.103 314.379 465.543 314.1 465.682 313.108C465.822 312.115 455.492 305.522 455.492 305.522L447.456 304.376L445.148 298.919Z" fill="#BA68C8"/>
<path opacity="0.5" d="M445.148 298.919C445.148 298.919 457.48 298.657 459.927 299.469C462.374 300.281 473.44 312.575 471.772 313.477C470.103 314.379 465.543 314.1 465.682 313.108C465.822 312.115 455.492 305.522 455.492 305.522L447.456 304.376L445.148 298.919Z" fill="white"/>
<path d="M445.148 298.919C445.148 298.919 457.48 298.657 459.927 299.469C462.374 300.281 473.44 312.575 471.772 313.477C470.103 314.379 465.543 314.1 465.682 313.108C465.822 312.115 455.492 305.522 455.492 305.522L447.456 304.376L445.148 298.919Z" stroke="#263238" stroke-linecap="round" stroke-linejoin="round"/>
<path d="M304.942 253.078C313.868 261.999 331.788 284.604 337.015 287.148C345.176 291.116 399.73 300.75 404.985 303.384C410.24 306.018 409.878 308.661 414.855 309.626C419.833 310.591 438.49 313.36 445.608 313.793C452.726 314.226 449.542 311.367 449.542 311.367L437.405 305.955L447.985 304.259C447.985 304.259 458.593 312.539 460.581 312.99C462.569 313.441 466.072 312.99 465.85 311.971C465.461 310.338 454.144 296.98 450.126 296.411C446.108 295.843 421.723 298.035 421.723 298.035C421.723 298.035 370.576 275.656 369.658 274.862C369.658 274.862 366.6 269.234 364.097 266.915C361.595 264.597 360.01 265.265 360.01 265.265C360.01 265.265 361.039 262.279 359.509 261.287L351.349 255.992L351.057 256.245C349.667 254.441 348.276 252.384 346.747 250.039C342.479 243.517 327.367 225.215 324.823 222.572C322.918 220.597 306.958 219.181 298.867 218.585" fill="#BA68C8"/>
<path opacity="0.16" d="M340.476 253.647C347.149 257.489 344.925 257.489 343.437 260.863C341.95 264.236 344.55 259.663 350.847 259.907C357.145 260.15 355.296 265.427 354.546 266.392C353.795 267.357 362.331 268.557 360.843 270.713C359.356 272.869 350.847 275.999 346.037 279.129C341.227 282.259 358.619 274.077 364.541 273.843C366.349 273.762 367.836 273.915 369.088 273.897C367.775 271.483 366.089 269.162 364.055 266.97C361.497 264.651 359.968 265.319 359.968 265.319C359.968 265.319 360.996 262.333 359.467 261.341L351.306 256.046L351.014 256.299C349.624 254.495 348.234 252.438 346.705 250.093C342.436 243.571 327.324 225.269 324.78 222.626C322.876 220.651 306.915 219.235 298.824 218.64L299.561 222.816L299.742 222.906C299.742 222.906 309.738 224.106 313.074 224.349C316.411 224.593 320.484 226.505 320.109 227.957C319.734 229.41 310.113 235.886 313.074 236.373C316.036 236.86 319.372 231.565 322.709 232.287C326.045 233.009 333.761 249.804 340.476 253.647Z" fill="black"/>
<path d="M304.942 253.078C313.868 261.999 331.788 284.604 337.015 287.148C345.176 291.116 399.73 300.75 404.985 303.384C410.24 306.018 409.878 308.661 414.855 309.626C419.833 310.591 438.49 313.36 445.608 313.793C452.726 314.226 449.542 311.367 449.542 311.367L437.405 305.955L447.985 304.259C447.985 304.259 458.593 312.539 460.581 312.99C462.569 313.441 466.072 312.99 465.85 311.971C465.461 310.338 454.144 296.98 450.126 296.411C446.108 295.843 421.723 298.035 421.723 298.035C421.723 298.035 370.576 275.656 369.658 274.862C369.658 274.862 366.6 269.234 364.097 266.915C361.595 264.597 360.01 265.265 360.01 265.265C360.01 265.265 361.039 262.279 359.509 261.287L351.349 255.992L351.057 256.245C349.667 254.441 348.276 252.384 346.747 250.039C342.479 243.517 327.367 225.215 324.823 222.572C322.918 220.597 306.958 219.181 298.867 218.585" stroke="#263238" stroke-linecap="round" stroke-linejoin="round"/>
<path d="M305.081 240.838C304.706 241.65 304.386 242.462 304.136 243.292" stroke="#263238" stroke-linecap="round" stroke-linejoin="round"/>
<path d="M318.595 225.91C314.226 229.141 310.542 232.735 307.64 236.599" stroke="#263238" stroke-linecap="round" stroke-linejoin="round"/>
<path d="M339.017 277.126C342.771 273.518 348.749 268.945 355.339 267.637" stroke="#263238" stroke-linecap="round" stroke-linejoin="round"/>
<path d="M334.86 281.564C334.86 281.564 335.528 280.716 336.723 279.435" stroke="#263238" stroke-linecap="round" stroke-linejoin="round"/>
<path d="M334.86 275.863C334.86 275.863 341.686 264.787 348.513 261.936C355.339 259.086 351.432 264.787 351.432 264.787" stroke="#263238" stroke-linecap="round" stroke-linejoin="round"/>
<path d="M404.984 303.393C410.254 306.036 409.878 308.67 414.855 309.635C419.832 310.6 438.49 313.369 445.608 313.802C452.726 314.235 449.542 311.376 449.542 311.376L437.405 305.964L447.985 304.268C447.985 304.268 458.593 312.548 460.581 312.999C462.569 313.45 466.35 313.613 465.85 311.98C464.877 308.823 454.144 296.989 450.126 296.42C446.108 295.852 421.723 298.044 421.723 298.044C421.723 298.044 375.136 277.298 370.033 275.052C350.25 276.287 340.838 283.007 336.876 287.039L337.015 287.112C345.176 291.117 399.729 300.75 404.984 303.393Z" fill="white"/>
<path d="M465.835 312.016C463.305 308.002 454.13 297.025 450.112 296.456C446.094 295.888 421.709 298.08 421.709 298.08C421.709 298.08 375.121 277.334 370.019 275.088C364.827 275.381 359.732 276.18 354.907 277.46C362.262 280.166 411.282 298.206 417.469 299.009C424.031 299.911 445.927 297.575 449.778 299.253C452.225 300.317 459.51 307.813 464.431 313.135C465.835 312.999 466.35 312.828 465.835 312.016Z" fill="#BA68C8"/>
<path opacity="0.5" d="M465.835 312.016C461.887 306.27 454.13 297.025 450.112 296.456C446.094 295.888 421.709 298.08 421.709 298.08C421.709 298.08 375.121 277.334 370.019 275.088C364.827 275.381 359.732 276.18 354.907 277.46C362.262 280.166 411.282 298.206 417.469 299.009C424.031 299.911 445.927 297.575 449.778 299.253C452.225 300.317 459.51 307.813 464.431 313.135C465.835 312.999 466.392 312.819 465.835 312.016Z" fill="white"/>
<path d="M404.984 303.393C410.254 306.036 409.878 308.67 414.855 309.635C419.832 310.6 438.49 313.369 445.608 313.802C452.726 314.235 449.542 311.376 449.542 311.376L437.405 305.964L447.985 304.268C447.985 304.268 458.593 312.548 460.581 312.999C462.569 313.45 466.35 313.613 465.85 311.98C464.877 308.823 454.144 296.989 450.126 296.42C446.108 295.852 421.723 298.044 421.723 298.044C421.723 298.044 375.136 277.298 370.033 275.052C350.25 276.287 340.838 283.007 336.876 287.039L337.015 287.112C345.176 291.117 399.729 300.75 404.984 303.393Z" stroke="#263238" stroke-linecap="round" stroke-linejoin="round"/>
<path d="M282.114 145.883L240.24 157.221C239.732 161.996 237.91 166.673 234.86 171.031C229.91 177.823 232.802 190.677 237.557 197.614C242.311 204.55 263.262 201.835 270.923 200.969C276.118 200.328 281.207 199.364 286.118 198.092C288.355 198.651 290.773 198.832 293.147 198.617C295.521 198.402 297.771 197.799 299.687 196.865C299.687 196.865 277.276 156.049 282.114 145.883Z" fill="white"/>
<path d="M282.114 145.883L240.24 157.221C239.732 161.996 237.91 166.673 234.86 171.031C229.91 177.823 232.802 190.677 237.557 197.614C238.353 198.729 239.633 199.669 241.241 200.32V199.796C241.241 199.796 233.469 187.304 234.943 180.096C236.417 172.889 242.728 169.272 243.465 164.717C244.202 160.162 243.827 157.997 257.91 154.633C271.993 151.268 277.902 148.147 279.375 151.503C280.849 154.858 286.786 176.975 290.859 182.261C294.932 187.547 294.557 193.085 288.273 195.476C281.922 197.949 275.117 199.895 268.017 201.267L270.978 200.933C276.174 200.292 281.262 199.328 286.174 198.056C288.41 198.615 290.829 198.796 293.203 198.581C295.577 198.366 297.827 197.763 299.743 196.829C299.743 196.829 277.276 156.049 282.114 145.883Z" fill="#BA68C8"/>
<path opacity="0.5" d="M282.114 145.883L240.24 157.221C239.732 161.996 237.91 166.673 234.86 171.031C229.91 177.823 232.802 190.677 237.557 197.614C238.353 198.729 239.633 199.669 241.241 200.32V199.796C241.241 199.796 233.469 187.304 234.943 180.096C236.417 172.889 242.728 169.272 243.465 164.717C244.202 160.162 243.827 157.997 257.91 154.633C271.993 151.268 277.902 148.147 279.375 151.503C280.849 154.858 286.786 176.975 290.859 182.261C294.932 187.547 294.557 193.085 288.273 195.476C281.922 197.949 275.117 199.895 268.017 201.267L270.978 200.933C276.174 200.292 281.262 199.328 286.174 198.056C288.41 198.615 290.829 198.796 293.203 198.581C295.577 198.366 297.827 197.763 299.743 196.829C299.743 196.829 277.276 156.049 282.114 145.883Z" fill="white"/>
<path d="M282.114 145.883L240.24 157.221C239.732 161.996 237.91 166.673 234.86 171.031C229.91 177.823 232.802 190.677 237.557 197.614C242.311 204.55 263.262 201.835 270.923 200.969C276.118 200.328 281.207 199.364 286.118 198.092C288.355 198.651 290.773 198.832 293.147 198.617C295.521 198.402 297.771 197.799 299.687 196.865C299.687 196.865 277.276 156.049 282.114 145.883Z" stroke="#263238" stroke-linecap="round" stroke-linejoin="round"/>
<path d="M260.955 163.662C261.068 165.259 260.763 166.857 260.051 168.388C258.939 170.192 248.442 177.282 248.762 178.049C249.082 178.816 250.027 181.278 251.89 181.513" stroke="#263238" stroke-linecap="round" stroke-linejoin="round"/>
<path d="M272.591 170.003C274.051 168.109 278.847 169.958 278.777 174.224" stroke="#263238" stroke-linecap="round" stroke-linejoin="round"/>
<path d="M248.817 164.428C248.817 164.428 252.904 163.265 256.561 167.558" stroke="#263238" stroke-linecap="round" stroke-linejoin="round"/>
<path d="M266.78 176.254C271.503 176.408 275.994 177.63 279.473 179.709" stroke="#263238" stroke-width="0.5" stroke-linecap="round" stroke-linejoin="round"/>
<path d="M243.882 170.616C246.324 170.828 248.71 171.256 250.973 171.888" stroke="#263238" stroke-width="0.5" stroke-linecap="round" stroke-linejoin="round"/>
<path d="M260.496 159.657C259.416 159.286 258.219 159.084 256.998 159.065C255.777 159.046 254.567 159.212 253.461 159.549C249.721 160.712 247.428 161.993 247.678 160.505C247.928 159.016 252.321 157.375 253.642 157.158C254.963 156.942 260.871 156.346 260.496 159.657Z" fill="#263238"/>
<path d="M270.978 156.292C274.875 158.338 277.972 160.953 280.015 163.923C282.795 168.433 284.992 163.508 282.795 160.559C280.599 157.609 274.245 154.47 270.978 156.292Z" fill="#263238"/>
<path d="M300.298 204.577C300.298 206.679 298.463 208.384 296.211 208.384C293.959 208.384 292.138 206.679 292.138 204.577C292.138 202.475 293.959 197.126 296.211 197.126C298.463 197.126 300.298 202.475 300.298 204.577Z" fill="#BA68C8" stroke="#263238" stroke-linecap="round" stroke-linejoin="round"/>
<path d="M272.952 169.182C272.792 169.458 272.667 169.741 272.577 170.03C272.174 171.365 271.771 174.152 272.577 174.269C273.383 174.387 275.357 171.78 275.705 170.445C275.783 170.183 275.83 169.918 275.844 169.651C274.895 169.458 273.929 169.301 272.952 169.182Z" fill="#263238"/>
<path d="M249.235 164.167C249.111 164.403 249.014 164.644 248.943 164.888C248.526 166.223 248.54 169.155 249.415 169.263C250.291 169.371 251.723 166.629 252.126 165.294C252.227 164.971 252.283 164.641 252.293 164.311C251.298 164.134 250.259 164.085 249.235 164.167Z" fill="#263238"/>
<path d="M272.591 170.048L273.981 168.37C276.185 168.649 278.182 169.398 279.653 170.499" stroke="#263238" stroke-width="0.75" stroke-linecap="round" stroke-linejoin="round"/>
<path d="M249.234 164.167L250.625 163.111C250.625 163.111 251.222 162.922 254.503 163.887" stroke="#263238" stroke-width="0.75" stroke-linecap="round" stroke-linejoin="round"/>
<path d="M243.966 188.63C243.966 188.63 246.301 185.842 249.43 185.842C252.558 185.842 254.893 190.397 254.893 190.397" stroke="#263238" stroke-linecap="round" stroke-linejoin="round"/>
<path d="M143.297 308.832C140.274 308.735 137.305 308.276 134.538 307.479C134.153 307.387 133.8 307.244 133.502 307.06C133.204 306.877 132.966 306.655 132.804 306.41C132.642 306.165 132.559 305.901 132.559 305.634C132.559 305.367 132.643 305.103 132.805 304.858C132.968 304.613 133.205 304.392 133.504 304.208C133.802 304.025 134.155 303.882 134.541 303.79C134.927 303.698 135.337 303.657 135.748 303.671C136.159 303.685 136.561 303.753 136.93 303.871C139.71 304.638 143.311 305.116 144.27 304.845C146.036 303.564 148.747 295.825 145.243 292.091C144.451 291.261 143.714 291.108 143.227 291.071C141.239 290.891 138.292 292.217 137.249 292.876C136.959 293.053 136.618 293.192 136.245 293.284C135.872 293.376 135.474 293.42 135.075 293.412C134.677 293.405 134.284 293.346 133.92 293.24C133.556 293.134 133.227 292.983 132.953 292.794C132.68 292.606 132.466 292.384 132.324 292.142C132.182 291.9 132.115 291.643 132.126 291.384C132.138 291.125 132.228 290.87 132.391 290.634C132.555 290.398 132.788 290.185 133.079 290.007C133.621 289.664 138.64 286.733 143.992 287.202C145.32 287.328 146.585 287.65 147.689 288.144C148.793 288.639 149.707 289.292 150.359 290.052C155.517 295.509 151.986 305.892 148.024 307.948C146.647 308.58 144.981 308.892 143.297 308.832Z" fill="white"/>
<path d="M147.37 291.495C147.006 290.935 146.435 290.442 145.708 290.058C144.98 289.674 144.119 289.412 143.2 289.295C139.724 288.934 136.457 291.198 136.095 291.45C135.763 291.71 135.558 292.028 135.506 292.364C135.454 292.7 135.557 293.038 135.803 293.336C136.35 293.264 136.856 293.096 137.263 292.849C138.306 292.217 141.253 290.891 143.241 291.044C143.728 291.044 144.465 291.234 145.257 292.064C148.761 295.762 146.05 303.537 144.284 304.818C143.325 305.089 139.738 304.611 136.943 303.844C136.6 303.75 136.232 303.698 135.859 303.691C135.884 303.938 136.004 304.177 136.208 304.387C136.412 304.596 136.694 304.769 137.027 304.89C138.785 305.5 140.724 305.856 142.713 305.937C143.848 305.972 144.96 305.72 145.813 305.233C148.427 303.673 150.735 295.69 147.37 291.495Z" fill="#BA68C8"/>
<path opacity="0.5" d="M147.37 291.495C147.006 290.935 146.435 290.442 145.708 290.058C144.98 289.674 144.119 289.412 143.2 289.295C139.724 288.934 136.457 291.198 136.095 291.45C135.763 291.71 135.558 292.028 135.506 292.364C135.454 292.7 135.557 293.038 135.803 293.336C136.35 293.264 136.856 293.096 137.263 292.849C138.306 292.217 141.253 290.891 143.241 291.044C143.728 291.044 144.465 291.234 145.257 292.064C148.761 295.762 146.05 303.537 144.284 304.818C143.325 305.089 139.738 304.611 136.943 303.844C136.6 303.75 136.232 303.698 135.859 303.691C135.884 303.938 136.004 304.177 136.208 304.387C136.412 304.596 136.694 304.769 137.027 304.89C138.785 305.5 140.724 305.856 142.713 305.937C143.848 305.972 144.96 305.72 145.813 305.233C148.427 303.673 150.735 295.69 147.37 291.495Z" fill="white"/>
<path d="M143.297 308.832C140.274 308.735 137.305 308.276 134.538 307.479C134.153 307.387 133.8 307.244 133.502 307.06C133.204 306.877 132.966 306.655 132.804 306.41C132.642 306.165 132.559 305.901 132.559 305.634C132.559 305.367 132.643 305.103 132.805 304.858C132.968 304.613 133.205 304.392 133.504 304.208C133.802 304.025 134.155 303.882 134.541 303.79C134.927 303.698 135.337 303.657 135.748 303.671C136.159 303.685 136.561 303.753 136.93 303.871C139.71 304.638 143.311 305.116 144.27 304.845C146.036 303.564 148.747 295.825 145.243 292.091C144.451 291.261 143.714 291.108 143.227 291.071C141.239 290.891 138.292 292.217 137.249 292.876C136.959 293.053 136.618 293.192 136.245 293.284C135.872 293.376 135.474 293.42 135.075 293.412C134.677 293.405 134.284 293.346 133.92 293.24C133.556 293.134 133.227 292.983 132.953 292.794C132.68 292.606 132.466 292.384 132.324 292.142C132.182 291.9 132.115 291.643 132.126 291.384C132.138 291.125 132.228 290.87 132.391 290.634C132.555 290.398 132.788 290.185 133.079 290.007C133.621 289.664 138.64 286.733 143.992 287.202C145.32 287.328 146.585 287.65 147.689 288.144C148.793 288.639 149.707 289.292 150.359 290.052C155.517 295.509 151.986 305.892 148.024 307.948C146.647 308.58 144.981 308.892 143.297 308.832V308.832Z" stroke="#263238" stroke-linecap="round" stroke-linejoin="round"/>
<path d="M137.986 285.56H104.551V314.352H137.986V285.56Z" fill="white"/>
<path d="M118.245 285.56H104.551V314.352H118.245V285.56Z" fill="#BA68C8"/>
<path opacity="0.5" d="M118.245 285.56H104.551V314.352H118.245V285.56Z" fill="white"/>
<path d="M137.986 285.56H104.551V314.352H137.986V285.56Z" stroke="#263238" stroke-linecap="round" stroke-linejoin="round"/>
<path d="M321.722 313.956H178.888L174.23 263.01C174.102 262.516 174.14 262.01 174.342 261.526C174.544 261.043 174.905 260.593 175.401 260.209C175.896 259.825 176.514 259.515 177.212 259.301C177.91 259.087 178.672 258.973 179.444 258.969H321.111C321.887 258.968 322.655 259.078 323.36 259.29C324.065 259.501 324.69 259.811 325.191 260.195C325.693 260.58 326.059 261.031 326.265 261.517C326.47 262.003 326.509 262.513 326.38 263.01L321.722 313.956Z" fill="#263238" stroke="#263238" stroke-linecap="round" stroke-linejoin="round"/>
<path d="M185.922 260.187H320.082C320.84 260.181 321.59 260.284 322.28 260.487C322.971 260.69 323.584 260.988 324.078 261.361C324.572 261.734 324.935 262.172 325.14 262.646C325.346 263.119 325.389 263.616 325.267 264.101" stroke="white" stroke-linecap="round" stroke-linejoin="round"/>
<path d="M175.273 263.298C175.385 262.446 175.988 261.652 176.962 261.075C177.936 260.498 179.209 260.181 180.528 260.186" stroke="white" stroke-linecap="round" stroke-linejoin="round"/>
<path d="M322.32 308.994H178.29V313.956H322.32V308.994Z" fill="white" stroke="#263238" stroke-linecap="round" stroke-linejoin="round"/>
<path d="M249.791 290.629C255.427 290.629 259.995 288.852 259.995 286.661C259.995 284.469 255.427 282.692 249.791 282.692C244.155 282.692 239.586 284.469 239.586 286.661C239.586 288.852 244.155 290.629 249.791 290.629Z" fill="white" stroke="#263238" stroke-linecap="round" stroke-linejoin="round"/>
<path d="M539.561 313.369H3.11816V321.821H539.561V313.369Z" fill="#263238"/>
<path d="M400.466 0H142.394C133.694 0 126.642 4.57558 126.642 10.2198V106.294C126.642 111.938 133.694 116.513 142.394 116.513H400.466C409.165 116.513 416.218 111.938 416.218 106.294V10.2198C416.218 4.57558 409.165 0 400.466 0Z" fill="#BA68C8"/>
<path d="M278.24 66.9567C301.65 64.5157 317.577 50.2241 313.815 35.0355C310.053 19.847 288.025 9.51298 264.616 11.954C241.206 14.3949 225.278 28.6865 229.041 43.8751C232.803 59.0637 254.83 69.3976 278.24 66.9567Z" fill="#263238"/>
<path d="M271.103 44.6047L256.797 56.5204C256.311 57.0164 255.642 57.4261 254.851 57.7127C254.06 57.9993 253.171 58.1537 252.265 58.162C251.022 58.173 249.823 57.865 248.928 57.3051C248.474 57.0345 248.114 56.7034 247.874 56.3345C247.634 55.9656 247.52 55.5675 247.538 55.1673C247.583 54.2711 248.07 53.4078 248.928 52.7048L265.236 39.6166L249.943 26.5193C249.233 25.9047 248.843 25.1589 248.831 24.3905C248.827 23.9323 248.97 23.4786 249.25 23.0579C249.53 22.6372 249.941 22.2586 250.458 21.9461C250.943 21.6175 251.525 21.3561 252.171 21.1778C252.816 20.9995 253.51 20.908 254.211 20.9088C255.109 20.9182 255.99 21.0734 256.771 21.3601C257.553 21.6469 258.212 22.0561 258.688 22.5504L272.507 34.3578L286.41 22.7489C286.907 22.2073 287.602 21.7536 288.433 21.4279C289.265 21.1022 290.208 20.9146 291.178 20.8817C291.78 20.8807 292.376 20.9603 292.929 21.1155C293.481 21.2707 293.979 21.4982 294.39 21.7837C294.828 22.0514 295.177 22.3742 295.416 22.7325C295.655 23.0908 295.779 23.477 295.78 23.8674C295.765 24.566 295.393 25.2417 294.723 25.7887L278.36 39.373L294.167 52.9033C294.914 53.508 295.33 54.257 295.349 55.032C295.353 55.4802 295.208 55.9236 294.922 56.3317C294.636 56.7397 294.218 57.1026 293.694 57.3953C292.674 58.0317 291.314 58.3873 289.899 58.3875C288.997 58.3802 288.111 58.2261 287.324 57.9393C286.537 57.6525 285.874 57.2422 285.395 56.7459L271.103 44.6047Z" fill="white"/>
<path d="M353.226 96.3353H189.579C186.261 96.3353 183.078 95.4799 180.732 93.9575C178.385 92.4351 177.067 90.3702 177.067 88.2171C177.067 86.064 178.385 83.9992 180.732 82.4767C183.078 80.9543 186.261 80.099 189.579 80.099H353.226C356.544 80.099 359.727 80.9543 362.073 82.4767C364.42 83.9992 365.738 86.064 365.738 88.2171C365.738 90.3702 364.42 92.4351 362.073 93.9575C359.727 95.4799 356.544 96.3353 353.226 96.3353Z" fill="white"/>
<path d="M212.003 90.833C211.894 90.833 211.786 90.8186 211.686 90.7907C211.585 90.7628 211.495 90.7219 211.419 90.6706C211.337 90.6177 211.273 90.5543 211.23 90.4845C211.186 90.4147 211.166 90.3399 211.169 90.2647C211.169 90.1377 211.222 90.013 211.322 89.9039L212.573 88.6411H210.015C209.897 88.645 209.779 88.6326 209.669 88.6046C209.558 88.5766 209.458 88.5337 209.376 88.4787C209.233 88.3708 209.154 88.2332 209.154 88.0909C209.154 87.9486 209.233 87.811 209.376 87.703C209.458 87.648 209.558 87.6051 209.669 87.5771C209.779 87.5492 209.897 87.5367 210.015 87.5406L212.532 87.5857L211.419 86.4131C211.308 86.293 211.246 86.1564 211.239 86.0162C211.235 85.9411 211.256 85.8663 211.299 85.7965C211.342 85.7266 211.407 85.6633 211.489 85.6103C211.567 85.5588 211.66 85.5178 211.763 85.4899C211.865 85.4621 211.975 85.4478 212.087 85.448C212.242 85.4465 212.395 85.4748 212.526 85.5293C212.657 85.5838 212.761 85.6622 212.824 85.7547L214.047 87.1708L215.215 85.8178C215.288 85.7125 215.405 85.6224 215.552 85.5571C215.699 85.4919 215.871 85.4542 216.049 85.448C216.158 85.448 216.266 85.4624 216.367 85.4903C216.467 85.5182 216.558 85.559 216.633 85.6103C216.714 85.6599 216.779 85.7201 216.822 85.7869C216.865 85.8538 216.886 85.9258 216.883 85.9982C216.881 86.1263 216.823 86.2514 216.716 86.359L215.493 87.6308L218.037 87.5857C218.155 87.5812 218.274 87.5934 218.384 87.6214C218.495 87.6494 218.594 87.6927 218.677 87.7481C218.819 87.8561 218.898 87.9937 218.898 88.136C218.898 88.2783 218.819 88.4159 218.677 88.5238C218.594 88.5793 218.495 88.6225 218.384 88.6505C218.274 88.6786 218.155 88.6907 218.037 88.6862H215.465L216.605 89.8408C216.734 89.9801 216.805 90.1385 216.814 90.3008C216.818 90.3739 216.799 90.4467 216.758 90.515C216.717 90.5832 216.656 90.6453 216.577 90.6977C216.504 90.7483 216.416 90.7888 216.318 90.8167C216.22 90.8446 216.114 90.8594 216.007 90.8601C215.835 90.8573 215.668 90.8228 215.525 90.7605C215.382 90.6981 215.27 90.6106 215.201 90.5083L214.047 89.1823L212.893 90.5083C212.81 90.6127 212.681 90.6991 212.523 90.7568C212.365 90.8144 212.184 90.8409 212.003 90.833Z" fill="black"/>
<path d="M224.766 90.8329C224.656 90.8329 224.548 90.8185 224.448 90.7906C224.348 90.7627 224.257 90.7219 224.182 90.6706C224.099 90.6176 224.035 90.5543 223.992 90.4844C223.949 90.4146 223.928 90.3398 223.931 90.2647C223.931 90.1377 223.984 90.013 224.084 89.9039L225.336 88.641H222.777C222.659 88.645 222.541 88.6325 222.431 88.6045C222.321 88.5765 222.221 88.5336 222.138 88.4787C221.995 88.3707 221.917 88.2331 221.917 88.0908C221.917 87.9485 221.995 87.8109 222.138 87.7029C222.221 87.648 222.321 87.6051 222.431 87.5771C222.541 87.5491 222.659 87.5366 222.777 87.5406L225.294 87.5857L224.112 86.368C224.001 86.2479 223.938 86.1112 223.931 85.9711C223.928 85.8959 223.949 85.8211 223.992 85.7513C224.035 85.6815 224.099 85.6181 224.182 85.5652C224.26 85.5136 224.353 85.4727 224.455 85.4448C224.558 85.4169 224.668 85.4026 224.779 85.4028C224.935 85.4013 225.088 85.4296 225.219 85.4841C225.35 85.5387 225.453 85.6171 225.516 85.7095L226.74 87.1257L227.908 85.7726C227.981 85.6674 228.098 85.5772 228.245 85.512C228.392 85.4468 228.564 85.409 228.742 85.4028C228.851 85.4028 228.959 85.4172 229.059 85.4451C229.16 85.473 229.25 85.5139 229.326 85.5652C229.407 85.6147 229.471 85.6749 229.515 85.7417C229.558 85.8086 229.579 85.8806 229.576 85.953C229.574 86.0811 229.516 86.2062 229.409 86.3138L228.186 87.5857L230.73 87.5406C230.848 87.5361 230.967 87.5482 231.077 87.5762C231.187 87.6043 231.287 87.6475 231.369 87.7029C231.512 87.8109 231.591 87.9485 231.591 88.0908C231.591 88.2331 231.512 88.3707 231.369 88.4787C231.287 88.5341 231.187 88.5773 231.077 88.6054C230.967 88.6334 230.848 88.6456 230.73 88.641H228.158L229.298 89.7956C229.426 89.935 229.498 90.0933 229.506 90.2556C229.51 90.3287 229.491 90.4016 229.451 90.4698C229.41 90.538 229.349 90.6002 229.27 90.6525C229.197 90.7032 229.109 90.7436 229.011 90.7715C228.913 90.7995 228.807 90.8142 228.7 90.8149C228.527 90.8133 228.359 90.7792 228.216 90.7167C228.073 90.6543 227.961 90.5661 227.894 90.4631L226.74 89.1372L225.586 90.4631C225.517 90.5689 225.404 90.6599 225.259 90.7254C225.113 90.7909 224.942 90.8282 224.766 90.8329Z" fill="black"/>
<path d="M237.529 90.8329C237.42 90.8329 237.312 90.8185 237.212 90.7906C237.111 90.7627 237.021 90.7219 236.945 90.6706C236.863 90.6176 236.798 90.5543 236.755 90.4844C236.712 90.4146 236.692 90.3398 236.695 90.2647C236.695 90.1377 236.748 90.013 236.848 89.9039L238.099 88.641H235.541C235.423 88.645 235.305 88.6325 235.194 88.6045C235.084 88.5765 234.984 88.5336 234.902 88.4787C234.759 88.3707 234.68 88.2331 234.68 88.0908C234.68 87.9485 234.759 87.8109 234.902 87.7029C234.984 87.648 235.084 87.6051 235.194 87.5771C235.305 87.5491 235.423 87.5366 235.541 87.5406L238.058 87.5857L236.876 86.368C236.764 86.2479 236.702 86.1112 236.695 85.9711C236.692 85.8959 236.712 85.8211 236.755 85.7513C236.798 85.6815 236.863 85.6181 236.945 85.5652C237.023 85.5136 237.116 85.4727 237.219 85.4448C237.322 85.4169 237.432 85.4026 237.543 85.4028C237.699 85.4013 237.852 85.4296 237.983 85.4841C238.114 85.5387 238.217 85.6171 238.28 85.7095L239.503 87.1257L240.671 85.7726C240.745 85.6674 240.861 85.5772 241.009 85.512C241.156 85.4468 241.327 85.409 241.505 85.4028C241.615 85.4028 241.723 85.4172 241.823 85.4451C241.923 85.473 242.014 85.5139 242.089 85.5652C242.171 85.6147 242.235 85.6749 242.278 85.7417C242.321 85.8086 242.342 85.8806 242.34 85.953C242.338 86.0811 242.28 86.2062 242.173 86.3138L240.949 87.5857L243.493 87.5406C243.612 87.5361 243.73 87.5482 243.841 87.5762C243.951 87.6043 244.051 87.6475 244.133 87.7029C244.276 87.8109 244.354 87.9485 244.354 88.0908C244.354 88.2331 244.276 88.3707 244.133 88.4787C244.051 88.5341 243.951 88.5773 243.841 88.6054C243.73 88.6334 243.612 88.6456 243.493 88.641H240.921L242.061 89.7956C242.19 89.935 242.262 90.0933 242.27 90.2556C242.274 90.3287 242.255 90.4016 242.214 90.4698C242.174 90.538 242.112 90.6002 242.034 90.6525C241.96 90.7032 241.872 90.7436 241.774 90.7715C241.676 90.7995 241.571 90.8142 241.464 90.8149C241.291 90.8133 241.123 90.7792 240.98 90.7167C240.837 90.6543 240.725 90.5661 240.657 90.4631L239.503 89.1372L238.349 90.4631C238.281 90.5689 238.167 90.6599 238.022 90.7254C237.877 90.7909 237.706 90.8282 237.529 90.8329Z" fill="black"/>
<path d="M250.347 90.8329C250.237 90.8329 250.129 90.8185 250.029 90.7906C249.929 90.7627 249.838 90.7219 249.763 90.6706C249.68 90.6176 249.616 90.5543 249.573 90.4844C249.53 90.4146 249.509 90.3398 249.512 90.2647C249.512 90.1377 249.565 90.013 249.665 89.9039L250.917 88.641H248.359C248.24 88.645 248.122 88.6325 248.012 88.6045C247.902 88.5765 247.802 88.5336 247.719 88.4787C247.576 88.3707 247.498 88.2331 247.498 88.0908C247.498 87.9485 247.576 87.8109 247.719 87.7029C247.802 87.648 247.902 87.6051 248.012 87.5771C248.122 87.5491 248.24 87.5366 248.359 87.5406L250.875 87.5857L249.693 86.368C249.582 86.2479 249.519 86.1112 249.512 85.9711C249.509 85.8959 249.53 85.8211 249.573 85.7513C249.616 85.6815 249.68 85.6181 249.763 85.5652C249.841 85.5136 249.934 85.4727 250.036 85.4448C250.139 85.4169 250.249 85.4026 250.36 85.4028C250.516 85.4013 250.669 85.4296 250.8 85.4841C250.931 85.5387 251.035 85.6171 251.097 85.7095L252.321 87.1257L253.489 85.7726C253.562 85.6674 253.679 85.5772 253.826 85.512C253.973 85.4468 254.145 85.409 254.323 85.4028C254.432 85.4028 254.54 85.4172 254.64 85.4451C254.741 85.473 254.831 85.5139 254.907 85.5652C254.988 85.6147 255.053 85.6749 255.096 85.7417C255.139 85.8086 255.16 85.8806 255.157 85.953C255.155 86.0811 255.097 86.2062 254.99 86.3138L253.767 87.5857L256.311 87.5406C256.429 87.5361 256.548 87.5482 256.658 87.5762C256.768 87.6043 256.868 87.6475 256.95 87.7029C257.093 87.8109 257.172 87.9485 257.172 88.0908C257.172 88.2331 257.093 88.3707 256.95 88.4787C256.868 88.5341 256.768 88.5773 256.658 88.6054C256.548 88.6334 256.429 88.6456 256.311 88.641H253.739L254.879 89.7956C255.007 89.935 255.079 90.0933 255.087 90.2556C255.091 90.3287 255.072 90.4016 255.032 90.4698C254.991 90.538 254.93 90.6002 254.851 90.6525C254.778 90.7032 254.69 90.7436 254.592 90.7715C254.494 90.7995 254.388 90.8142 254.281 90.8149C254.109 90.8122 253.942 90.7776 253.799 90.7153C253.656 90.653 253.543 90.5655 253.475 90.4631L252.321 89.1372L251.167 90.4631C251.098 90.5689 250.985 90.6599 250.84 90.7254C250.694 90.7909 250.523 90.8282 250.347 90.8329Z" fill="black"/>
<path d="M263.054 90.8329C262.944 90.8329 262.836 90.8186 262.736 90.7906C262.636 90.7627 262.545 90.7219 262.47 90.6706C262.387 90.6176 262.323 90.5543 262.28 90.4844C262.237 90.4146 262.216 90.3398 262.219 90.2647C262.226 90.1383 262.278 90.0146 262.372 89.9039L263.624 88.641H261.066C260.947 88.645 260.829 88.6325 260.719 88.6045C260.609 88.5766 260.509 88.5336 260.426 88.4787C260.283 88.3707 260.205 88.2331 260.205 88.0908C260.205 87.9485 260.283 87.8109 260.426 87.7029C260.509 87.648 260.609 87.6051 260.719 87.5771C260.829 87.5491 260.947 87.5367 261.066 87.5406L263.582 87.5857L262.4 86.368C262.289 86.2479 262.226 86.1112 262.219 85.9711C262.216 85.8959 262.237 85.8211 262.28 85.7513C262.323 85.6815 262.387 85.6181 262.47 85.5652C262.548 85.5136 262.641 85.4727 262.743 85.4448C262.846 85.4169 262.956 85.4026 263.068 85.4028C263.223 85.4013 263.376 85.4296 263.507 85.4841C263.638 85.5387 263.742 85.6171 263.804 85.7095L265.028 87.1257L266.196 85.7726C266.269 85.6674 266.386 85.5772 266.533 85.512C266.68 85.4468 266.852 85.409 267.03 85.4028C267.139 85.4017 267.248 85.4156 267.348 85.4436C267.449 85.4716 267.539 85.513 267.614 85.5652C267.695 85.6147 267.76 85.6749 267.803 85.7417C267.846 85.8086 267.867 85.8806 267.864 85.953C267.862 86.0811 267.804 86.2062 267.697 86.3138L266.474 87.5857L269.018 87.5406C269.136 87.5361 269.255 87.5482 269.365 87.5762C269.475 87.6043 269.575 87.6475 269.657 87.7029C269.8 87.8109 269.879 87.9485 269.879 88.0908C269.879 88.2331 269.8 88.3707 269.657 88.4787C269.575 88.5341 269.475 88.5773 269.365 88.6054C269.255 88.6334 269.136 88.6456 269.018 88.641H266.446L267.586 89.7956C267.714 89.935 267.786 90.0933 267.794 90.2556C267.798 90.3287 267.779 90.4016 267.739 90.4698C267.698 90.538 267.637 90.6002 267.558 90.6525C267.485 90.7032 267.397 90.7436 267.299 90.7716C267.201 90.7995 267.095 90.8142 266.988 90.8149C266.816 90.8122 266.649 90.7776 266.506 90.7153C266.363 90.653 266.251 90.5655 266.182 90.4631L265.028 89.1372L263.874 90.4631C263.805 90.5689 263.692 90.6599 263.547 90.7254C263.401 90.7909 263.23 90.8282 263.054 90.8329Z" fill="black"/>
<path d="M275.816 90.8329C275.707 90.8329 275.599 90.8186 275.498 90.7906C275.398 90.7627 275.307 90.7219 275.232 90.6706C275.15 90.6176 275.085 90.5543 275.042 90.4844C274.999 90.4146 274.978 90.3398 274.982 90.2647C274.988 90.1383 275.041 90.0146 275.135 89.9039L276.386 88.641H273.842C273.721 88.6457 273.601 88.6336 273.488 88.6056C273.375 88.5776 273.273 88.5343 273.188 88.4787C273.045 88.3707 272.967 88.2331 272.967 88.0908C272.967 87.9485 273.045 87.8109 273.188 87.7029C273.273 87.6473 273.375 87.604 273.488 87.576C273.601 87.548 273.721 87.5359 273.842 87.5406L276.344 87.5857L275.162 86.368C275.051 86.2479 274.989 86.1112 274.982 85.9711C274.978 85.8959 274.999 85.8211 275.042 85.7513C275.085 85.6815 275.15 85.6181 275.232 85.5652C275.31 85.5136 275.403 85.4727 275.506 85.4448C275.608 85.4169 275.718 85.4026 275.83 85.4028C275.985 85.4013 276.138 85.4296 276.269 85.4841C276.4 85.5387 276.504 85.6171 276.567 85.7095L277.79 87.1257L278.958 85.7726C279.031 85.6674 279.148 85.5772 279.295 85.512C279.442 85.4468 279.614 85.409 279.792 85.4028C279.901 85.4017 280.01 85.4156 280.111 85.4436C280.211 85.4716 280.302 85.513 280.376 85.5652C280.457 85.6147 280.522 85.6749 280.565 85.7417C280.608 85.8086 280.629 85.8806 280.626 85.953C280.624 86.0811 280.566 86.2062 280.459 86.3138L279.236 87.5857L281.78 87.5406C281.898 87.5361 282.017 87.5482 282.127 87.5762C282.238 87.6043 282.337 87.6475 282.42 87.7029C282.562 87.8109 282.641 87.9485 282.641 88.0908C282.641 88.2331 282.562 88.3707 282.42 88.4787C282.337 88.5341 282.238 88.5773 282.127 88.6054C282.017 88.6334 281.898 88.6456 281.78 88.641H279.208L280.348 89.7956C280.477 89.935 280.548 90.0933 280.557 90.2556C280.561 90.3287 280.542 90.4016 280.501 90.4698C280.46 90.538 280.399 90.6002 280.32 90.6525C280.247 90.7032 280.159 90.7436 280.061 90.7716C279.963 90.7995 279.857 90.8142 279.75 90.8149C279.578 90.8122 279.411 90.7776 279.268 90.7153C279.125 90.653 279.013 90.5655 278.944 90.4631L277.79 89.1372L276.636 90.4631C276.568 90.5689 276.454 90.6599 276.309 90.7254C276.164 90.7909 275.993 90.8282 275.816 90.8329Z" fill="black"/>
<path d="M288.578 90.833C288.469 90.833 288.361 90.8186 288.26 90.7907C288.16 90.7628 288.069 90.722 287.994 90.6706C287.912 90.6177 287.847 90.5543 287.804 90.4845C287.761 90.4147 287.741 90.3399 287.744 90.2647C287.744 90.1377 287.797 90.013 287.897 89.9039L289.148 88.6411H286.59C286.472 88.645 286.354 88.6326 286.243 88.6046C286.133 88.5766 286.033 88.5337 285.95 88.4787C285.808 88.3708 285.729 88.2332 285.729 88.0909C285.729 87.9486 285.808 87.811 285.95 87.703C286.033 87.648 286.133 87.6051 286.243 87.5772C286.354 87.5492 286.472 87.5367 286.59 87.5406L289.106 87.5858L287.883 86.4131C287.771 86.293 287.709 86.1564 287.702 86.0162C287.699 85.9411 287.719 85.8663 287.762 85.7965C287.806 85.7266 287.87 85.6633 287.952 85.6103C288.03 85.5588 288.123 85.5178 288.226 85.4899C288.329 85.4621 288.439 85.4478 288.55 85.448C288.706 85.4465 288.859 85.4748 288.99 85.5293C289.121 85.5839 289.224 85.6622 289.287 85.7547L290.51 87.1708L291.678 85.8178C291.752 85.7125 291.869 85.6224 292.016 85.5572C292.163 85.4919 292.335 85.4542 292.512 85.448C292.622 85.4469 292.73 85.4608 292.831 85.4887C292.932 85.5167 293.022 85.5582 293.096 85.6103C293.178 85.6599 293.242 85.7201 293.285 85.7869C293.328 85.8538 293.349 85.9258 293.347 85.9982C293.345 86.1263 293.287 86.2514 293.18 86.359L291.956 87.6308L294.501 87.5858C294.619 87.5812 294.737 87.5934 294.848 87.6214C294.958 87.6494 295.058 87.6927 295.14 87.7481C295.283 87.8561 295.361 87.9937 295.361 88.136C295.361 88.2783 295.283 88.4159 295.14 88.5238C295.058 88.5793 294.958 88.6225 294.848 88.6505C294.737 88.6786 294.619 88.6907 294.501 88.6862H291.929L293.069 89.8408C293.197 89.9802 293.269 90.1385 293.277 90.3008C293.281 90.3739 293.262 90.4467 293.222 90.515C293.181 90.5832 293.119 90.6453 293.041 90.6977C292.968 90.7483 292.879 90.7888 292.781 90.8167C292.683 90.8446 292.578 90.8594 292.471 90.8601C292.299 90.8573 292.131 90.8228 291.988 90.7605C291.846 90.6981 291.733 90.6107 291.664 90.5083L290.51 89.1823L289.357 90.5083C289.282 90.6017 289.17 90.6809 289.034 90.7378C288.897 90.7948 288.74 90.8276 288.578 90.833Z" fill="black"/>
<path d="M301.341 90.833C301.232 90.833 301.124 90.8186 301.023 90.7907C300.923 90.7628 300.833 90.722 300.757 90.6707C300.675 90.6177 300.61 90.5543 300.567 90.4845C300.524 90.4147 300.504 90.3399 300.507 90.2647C300.513 90.1383 300.566 90.0147 300.66 89.9039L301.911 88.6411H299.367C299.248 88.6469 299.129 88.6353 299.019 88.6072C298.908 88.5791 298.808 88.5352 298.727 88.4787C298.576 88.3735 298.492 88.2349 298.492 88.0909C298.492 87.9469 298.576 87.8083 298.727 87.703C298.808 87.6466 298.908 87.6027 299.019 87.5746C299.129 87.5464 299.248 87.5349 299.367 87.5407L301.869 87.5858L300.688 86.368C300.576 86.2479 300.514 86.1113 300.507 85.9711C300.503 85.8974 300.522 85.8239 300.563 85.755C300.604 85.6862 300.666 85.6234 300.745 85.5704C300.824 85.5173 300.919 85.4752 301.024 85.4464C301.129 85.4176 301.241 85.4028 301.355 85.4029C301.511 85.4014 301.664 85.4297 301.795 85.4842C301.926 85.5388 302.029 85.6171 302.092 85.7096L303.315 87.1257L304.483 85.7727C304.557 85.6674 304.673 85.5773 304.82 85.5121C304.967 85.4468 305.139 85.4091 305.317 85.4029C305.427 85.4006 305.536 85.414 305.637 85.442C305.738 85.4701 305.828 85.5121 305.901 85.5652C305.983 85.6148 306.047 85.675 306.09 85.7418C306.133 85.8087 306.154 85.8807 306.151 85.9531C306.15 86.0812 306.092 86.2063 305.985 86.3139L304.761 87.5858L307.305 87.5407C307.424 87.5361 307.542 87.5483 307.653 87.5763C307.763 87.6043 307.863 87.6476 307.945 87.703C308.088 87.811 308.166 87.9486 308.166 88.0909C308.166 88.2332 308.088 88.3708 307.945 88.4787C307.863 88.5342 307.763 88.5774 307.653 88.6054C307.542 88.6335 307.424 88.6456 307.305 88.6411H304.733L305.873 89.7957C306.002 89.9351 306.074 90.0934 306.082 90.2557C306.086 90.3268 306.068 90.3977 306.029 90.4642C305.991 90.5308 305.932 90.5918 305.857 90.6438C305.782 90.6957 305.693 90.7376 305.593 90.7669C305.493 90.7963 305.385 90.8126 305.276 90.815C305.103 90.8122 304.936 90.7777 304.793 90.7154C304.65 90.6531 304.538 90.5656 304.469 90.4632L303.315 89.1372L302.161 90.4632C302.093 90.569 301.979 90.66 301.834 90.7255C301.689 90.7909 301.518 90.8283 301.341 90.833Z" fill="black"/>
<path d="M314.103 90.833C313.994 90.833 313.886 90.8186 313.786 90.7907C313.685 90.7628 313.595 90.722 313.519 90.6707C313.437 90.6177 313.373 90.5543 313.329 90.4845C313.286 90.4147 313.266 90.3399 313.269 90.2647C313.276 90.1383 313.328 90.0147 313.422 89.9039L314.673 88.6411H312.115C311.999 88.6455 311.883 88.6333 311.775 88.6052C311.666 88.5772 311.569 88.534 311.49 88.4787C311.338 88.3735 311.254 88.2349 311.254 88.0909C311.254 87.9469 311.338 87.8083 311.49 87.703C311.569 87.6478 311.666 87.6046 311.775 87.5765C311.883 87.5485 311.999 87.5362 312.115 87.5407L314.632 87.5858L313.45 86.368C313.338 86.2479 313.276 86.1113 313.269 85.9711C313.265 85.8974 313.285 85.8239 313.326 85.755C313.367 85.6862 313.428 85.6234 313.508 85.5704C313.587 85.5173 313.681 85.4752 313.786 85.4464C313.891 85.4176 314.003 85.4028 314.117 85.4029C314.273 85.4014 314.426 85.4297 314.557 85.4842C314.688 85.5388 314.791 85.6171 314.854 85.7096L316.077 87.1257L317.245 85.7727C317.319 85.6674 317.436 85.5773 317.583 85.5121C317.73 85.4468 317.902 85.4091 318.079 85.4029C318.189 85.4006 318.298 85.414 318.399 85.442C318.5 85.4701 318.59 85.5121 318.663 85.5652C318.745 85.6148 318.809 85.675 318.852 85.7418C318.896 85.8087 318.916 85.8807 318.914 85.9531C318.912 86.0812 318.854 86.2063 318.747 86.3139L317.523 87.5858L320.068 87.5407C320.186 87.5361 320.304 87.5483 320.415 87.5763C320.525 87.6043 320.625 87.6476 320.707 87.703C320.85 87.811 320.928 87.9486 320.928 88.0909C320.928 88.2332 320.85 88.3708 320.707 88.4787C320.625 88.5342 320.525 88.5774 320.415 88.6054C320.304 88.6335 320.186 88.6456 320.068 88.6411H317.496L318.636 89.7957C318.764 89.9351 318.836 90.0934 318.844 90.2557C318.848 90.3268 318.83 90.3977 318.791 90.4642C318.753 90.5308 318.694 90.5918 318.62 90.6438C318.545 90.6957 318.455 90.7376 318.355 90.7669C318.255 90.7963 318.147 90.8126 318.038 90.815C317.866 90.8122 317.698 90.7777 317.555 90.7154C317.413 90.6531 317.3 90.5656 317.231 90.4632L316.077 89.1372L314.924 90.4632C314.855 90.569 314.742 90.66 314.596 90.7255C314.451 90.7909 314.28 90.8283 314.103 90.833Z" fill="black"/>
<path d="M326.81 90.833C326.701 90.833 326.593 90.8186 326.493 90.7907C326.392 90.7628 326.302 90.722 326.226 90.6707C326.144 90.6177 326.08 90.5543 326.037 90.4845C325.993 90.4147 325.973 90.3399 325.976 90.2647C325.983 90.1383 326.035 90.0147 326.129 89.9039L327.38 88.6411H324.822C324.706 88.6455 324.59 88.6333 324.482 88.6052C324.373 88.5772 324.276 88.534 324.197 88.4787C324.045 88.3735 323.961 88.2349 323.961 88.0909C323.961 87.9469 324.045 87.8083 324.197 87.703C324.276 87.6478 324.373 87.6046 324.482 87.5765C324.59 87.5485 324.706 87.5362 324.822 87.5407L327.339 87.5858L326.157 86.368C326.045 86.2479 325.983 86.1113 325.976 85.9711C325.973 85.896 325.993 85.8212 326.037 85.7514C326.08 85.6816 326.144 85.6182 326.226 85.5652C326.304 85.5137 326.397 85.4727 326.5 85.4448C326.603 85.417 326.713 85.4027 326.824 85.4029C326.98 85.4014 327.133 85.4297 327.264 85.4842C327.395 85.5388 327.498 85.6171 327.561 85.7096L328.785 87.1257L329.952 85.7727C330.026 85.6674 330.143 85.5773 330.29 85.5121C330.437 85.4468 330.609 85.4091 330.786 85.4029C330.896 85.4006 331.005 85.414 331.106 85.442C331.207 85.4701 331.297 85.5121 331.37 85.5652C331.452 85.6148 331.516 85.675 331.559 85.7418C331.603 85.8087 331.623 85.8807 331.621 85.9531C331.619 86.0812 331.561 86.2063 331.454 86.3139L330.23 87.5858L332.775 87.5407C332.893 87.5361 333.011 87.5483 333.122 87.5763C333.232 87.6043 333.332 87.6476 333.414 87.703C333.557 87.811 333.636 87.9486 333.636 88.0909C333.636 88.2332 333.557 88.3708 333.414 88.4787C333.332 88.5342 333.232 88.5774 333.122 88.6054C333.011 88.6335 332.893 88.6456 332.775 88.6411H330.203L331.343 89.7957C331.471 89.9351 331.543 90.0934 331.551 90.2557C331.555 90.3288 331.536 90.4017 331.496 90.4699C331.455 90.5381 331.393 90.6002 331.315 90.6526C331.242 90.7032 331.153 90.7437 331.055 90.7716C330.957 90.7995 330.852 90.8143 330.745 90.815C330.573 90.8122 330.405 90.7777 330.263 90.7154C330.12 90.6531 330.007 90.5656 329.938 90.4632L328.785 89.1372L327.631 90.4632C327.562 90.569 327.449 90.66 327.303 90.7255C327.158 90.7909 326.987 90.8283 326.81 90.833Z" fill="black"/>
<path d="M370.548 110.786H387.551" stroke="white" stroke-width="3" stroke-linecap="round" stroke-linejoin="round"/>
<path d="M134.72 29.559V102.83C134.72 104.952 136.019 106.987 138.332 108.487C140.644 109.988 143.781 110.831 147.051 110.831H354.407" stroke="white" stroke-width="3" stroke-linecap="round" stroke-linejoin="round"/>
<path d="M134.72 10.1296V21.1161" stroke="white" stroke-width="3" stroke-linecap="round" stroke-linejoin="round"/>
</svg>
