<svg width="552" height="449" viewBox="0 0 552 449" fill="none" xmlns="http://www.w3.org/2000/svg">
<path d="M500.563 208.732L510.915 194.58L505.817 191.901C505.084 191.512 504.494 190.958 504.112 190.301C503.731 189.643 503.572 188.908 503.656 188.179C503.733 187.356 503.759 186.521 503.746 185.687C503.722 184.956 503.937 184.234 504.366 183.601C504.795 182.967 505.423 182.447 506.179 182.097L511.472 179.692L502.193 165.024L496.901 167.429C496.14 167.769 495.283 167.925 494.424 167.878C493.566 167.832 492.739 167.585 492.035 167.165C491.232 166.687 490.398 166.248 489.538 165.848C488.775 165.503 488.141 164.984 487.706 164.35C487.272 163.715 487.055 162.991 487.079 162.258L487.274 157.163L467.669 156.647L467.488 161.764C467.448 162.495 467.171 163.203 466.687 163.81C466.203 164.416 465.531 164.897 464.745 165.2C464.318 165.376 463.878 165.562 463.451 165.76C463.024 165.958 462.597 166.155 462.157 166.364C461.422 166.744 460.578 166.945 459.718 166.945C458.857 166.945 458.013 166.744 457.278 166.364L452.102 163.663L441.75 177.804L446.862 180.494C447.594 180.882 448.184 181.436 448.566 182.094C448.948 182.751 449.106 183.486 449.022 184.216C448.934 185.04 448.904 185.869 448.932 186.697C448.953 187.428 448.736 188.15 448.305 188.784C447.873 189.417 447.244 189.937 446.486 190.287L441.194 192.691L450.472 207.37L455.764 204.955C456.525 204.614 457.382 204.459 458.241 204.505C459.099 204.552 459.926 204.798 460.63 205.218C461.43 205.691 462.259 206.127 463.114 206.525C463.879 206.869 464.515 207.388 464.951 208.022C465.388 208.656 465.608 209.381 465.586 210.115L465.392 215.22L485.009 215.736L485.19 210.631C485.227 209.9 485.502 209.192 485.984 208.586C486.466 207.979 487.136 207.498 487.921 207.194L489.215 206.646C489.642 206.448 490.056 206.239 490.509 206.031C491.245 205.648 492.091 205.446 492.954 205.446C493.817 205.446 494.664 205.648 495.4 206.031L500.563 208.732ZM483.961 198.225C481.158 199.497 477.974 200.036 474.81 199.773C471.647 199.51 468.646 198.458 466.188 196.748C463.729 195.038 461.924 192.748 461 190.168C460.075 187.587 460.074 184.832 460.995 182.251C461.916 179.67 463.719 177.378 466.175 175.666C468.631 173.954 471.631 172.899 474.794 172.633C477.957 172.367 481.142 172.904 483.946 174.174C486.75 175.444 489.048 177.391 490.547 179.769C491.545 181.348 492.166 183.077 492.374 184.86C492.583 186.642 492.376 188.441 491.764 190.156C491.152 191.87 490.148 193.465 488.809 194.849C487.47 196.234 485.823 197.381 483.961 198.225V198.225Z" fill="#EBEBEB"/>
<path d="M88.0576 266.58L101.916 247.333V247.542L94.67 243.721C93.4447 242.989 92.5574 241.917 92.1596 240.691C91.898 239.478 91.837 238.24 91.9784 237.013V235.213C91.9678 234.254 92.245 233.308 92.7837 232.465C93.3225 231.622 94.1052 230.909 95.0582 230.393L102.589 226.935L102.447 227.341L89.8692 207.491L90.4386 207.634L82.8815 211.081C81.8322 211.479 80.6811 211.644 79.5359 211.561C78.3908 211.479 77.2891 211.151 76.3338 210.609L74.5222 209.687L72.7106 208.742C71.7083 208.258 70.8669 207.566 70.265 206.73C69.6632 205.895 69.3203 204.945 69.2685 203.967L69.5144 196.688L69.9932 197.127L43.4141 196.512L43.9964 196.051L43.7376 203.33C43.6125 204.327 43.1905 205.28 42.5114 206.1C41.8323 206.92 40.9183 207.58 39.8556 208.018L37.9663 208.83L36.1288 209.72C35.1119 210.228 33.9584 210.508 32.7782 210.531C31.598 210.554 30.4305 210.32 29.387 209.851L22.0629 206.042L22.9558 205.866L8.94163 224.969L8.74753 224.278L16.0199 228.153C16.9687 228.732 17.7272 229.506 18.2233 230.404C18.7193 231.301 18.9364 232.292 18.8538 233.28L18.7761 235.081V236.881C18.7774 237.87 18.4838 238.842 17.9227 239.708C17.3615 240.573 16.5511 241.305 15.567 241.833L7.997 245.269L8.20404 244.688L20.6524 264.581L20.0572 264.428L27.6401 261.013C29.0399 260.484 30.6116 260.379 32.0915 260.717C33.4732 261.146 34.7793 261.733 35.9736 262.462L37.7722 263.407C38.7601 263.888 39.5873 264.576 40.1758 265.403C40.7644 266.231 41.0951 267.172 41.1367 268.139L40.8649 275.407L40.4897 275.121L67.0557 275.923L66.8099 276.12L67.1593 268.863C67.3534 266.206 70.0967 264.614 72.7106 263.714C75.0528 262.397 78.1196 261.397 80.7852 262.726L88.0317 266.58H88.0576ZM88.0576 266.58L80.7594 262.814C78.0807 261.529 75.1951 262.55 72.84 263.912C70.252 264.856 67.6639 266.349 67.5345 268.918L67.3146 276.153V276.351H67.0687L40.4897 275.725H40.1273V275.418L40.3603 268.182C40.3158 267.329 40.0171 266.498 39.4922 265.769C38.9672 265.039 38.2331 264.434 37.3582 264.01L35.5207 263.055L33.6961 262.1C32.862 261.626 31.8999 261.339 30.8997 261.266C29.8995 261.193 28.8938 261.337 27.9766 261.683L20.4583 265.108L20.0831 265.284L19.8631 264.955L7.24648 245.094L7.00061 244.72L7.44057 244.512L14.9329 241.075C15.7629 240.627 16.4445 240.007 16.9132 239.273C17.3819 238.539 17.6223 237.716 17.6115 236.881L17.6762 235.048L17.7539 233.226C17.8156 232.397 17.6284 231.568 17.2097 230.817C16.791 230.066 16.1545 229.418 15.3599 228.933L8.13934 225.123L7.64762 224.871L7.95818 224.442L21.9076 205.295L22.2441 204.834L22.8005 205.119L30.034 208.929C30.8908 209.314 31.8491 209.507 32.8183 209.49C33.7876 209.472 34.7355 209.245 35.5724 208.83L37.4487 207.93L39.3768 207.118C40.2503 206.754 41.0013 206.209 41.5601 205.534C42.1189 204.858 42.4674 204.074 42.573 203.253L42.8706 196.029V195.546H43.44L70.0061 196.303H70.5108V196.721L70.252 203.923C70.2888 204.766 70.5777 205.587 71.0916 206.309C71.6054 207.031 72.3273 207.631 73.1894 208.051L75.0269 209.006L76.8514 209.983C77.6795 210.454 78.6341 210.74 79.6271 210.815C80.6201 210.89 81.6192 210.751 82.5321 210.411L90.0504 207.019L90.4256 206.854L90.6197 207.162L103.133 227.077L103.301 227.352L102.99 227.484L95.4723 230.909C94.6136 231.371 93.9068 232.01 93.4181 232.766C92.9293 233.523 92.6744 234.372 92.6772 235.235C92.6772 236.146 92.5607 237.968 92.509 238.88C92.4309 239.75 92.6156 240.624 93.0458 241.417C93.476 242.21 94.1374 242.898 94.9676 243.414L102.175 247.279L102.331 247.366L102.24 247.487L88.0705 266.58H88.0576Z" fill="#EBEBEB"/>
<path d="M65.5547 252.34C48.3961 260.19 28.4812 246.488 33.8902 230.547C34.7321 228.162 36.1217 225.943 37.9787 224.016C39.8358 222.089 42.1237 220.493 44.7108 219.32C47.2979 218.146 50.133 217.418 53.0529 217.178C55.9728 216.938 58.9199 217.191 61.7244 217.921C80.3582 222.905 82.7262 244.556 65.6064 252.34H65.5547ZM65.5547 252.34C82.3769 244.534 79.7888 223.41 61.4009 218.821C56.0049 217.508 50.2177 218.036 45.2739 220.292C40.3302 222.548 36.6212 226.354 34.9383 230.898C29.2706 246.422 48.5514 260.003 65.5547 252.395V252.34Z" fill="#EBEBEB"/>
<path d="M119.877 339.567L131.782 333.738L129.686 330.653C129.383 330.207 129.234 329.698 129.254 329.184C129.275 328.67 129.465 328.171 129.802 327.743C130.174 327.253 130.515 326.748 130.825 326.228C131.093 325.771 131.507 325.386 132.019 325.116C132.531 324.847 133.121 324.703 133.723 324.702H137.942V313.031H133.723C133.121 313.03 132.531 312.887 132.019 312.617C131.507 312.348 131.093 311.963 130.825 311.505C130.515 310.986 130.174 310.48 129.802 309.99C129.465 309.563 129.275 309.064 129.254 308.55C129.234 308.035 129.383 307.527 129.686 307.081L131.782 303.996L119.877 298.166L117.781 301.273C117.47 301.714 117.021 302.075 116.485 302.315C115.949 302.555 115.345 302.665 114.74 302.634C114.404 302.634 114.067 302.634 113.731 302.634C113.394 302.634 113.058 302.634 112.721 302.634C112.121 302.666 111.522 302.557 110.99 302.318C110.459 302.08 110.014 301.722 109.706 301.284L107.584 298.166L95.6793 303.996L97.7885 307.092C98.0893 307.539 98.2366 308.048 98.2137 308.562C98.1908 309.076 97.9987 309.575 97.6591 310.001C97.2968 310.484 96.9474 310.989 96.6369 311.505C96.3681 311.963 95.9546 312.348 95.4427 312.617C94.9308 312.887 94.3407 313.03 93.7383 313.031H89.5327V324.702H93.7383C94.3407 324.703 94.9308 324.847 95.4427 325.116C95.9546 325.386 96.3681 325.771 96.6369 326.228C96.9474 326.744 97.2968 327.249 97.6591 327.732C97.9987 328.158 98.1908 328.657 98.2137 329.171C98.2366 329.685 98.0893 330.195 97.7885 330.642L95.6793 333.749L107.584 339.578L109.693 336.471C110 336.032 110.444 335.674 110.976 335.435C111.509 335.197 112.108 335.088 112.709 335.121C113.045 335.121 113.394 335.121 113.731 335.121C114.067 335.121 114.404 335.121 114.74 335.121C115.346 335.088 115.95 335.197 116.487 335.437C117.024 335.678 117.472 336.039 117.781 336.482L119.877 339.567ZM113.731 328.413C111.504 328.413 109.327 327.852 107.475 326.802C105.623 325.752 104.18 324.26 103.329 322.514C102.477 320.768 102.255 318.847 102.69 316.994C103.126 315.141 104.199 313.439 105.775 312.103C107.351 310.768 109.358 309.859 111.542 309.492C113.727 309.124 115.991 309.315 118.048 310.04C120.105 310.764 121.862 311.99 123.098 313.563C124.333 315.135 124.991 316.983 124.989 318.872C124.989 320.126 124.697 321.368 124.131 322.526C123.566 323.684 122.736 324.736 121.691 325.622C120.645 326.508 119.404 327.211 118.038 327.69C116.672 328.169 115.209 328.414 113.731 328.413V328.413Z" fill="#EBEBEB"/>
<path d="M206.356 38.8325L199.485 28.7319L195.849 30.5214C195.322 30.7757 194.723 30.9011 194.118 30.8837C193.512 30.8663 192.925 30.7066 192.42 30.4226C191.846 30.1001 191.249 29.8068 190.634 29.5443C190.095 29.3162 189.641 28.9655 189.323 28.5311C189.006 28.0968 188.837 27.5962 188.835 27.085V23.5169H175.067V27.085C175.065 27.5962 174.896 28.0968 174.579 28.5311C174.261 28.9655 173.807 29.3162 173.268 29.5443C172.653 29.8068 172.057 30.1001 171.483 30.4226C170.978 30.7066 170.39 30.8663 169.784 30.8837C169.179 30.9011 168.58 30.7757 168.053 30.5214L164.417 28.7319L157.546 38.8325L161.221 40.6111C161.742 40.8717 162.168 41.2498 162.451 41.7033C162.734 42.1567 162.864 42.6679 162.826 43.1801C162.826 43.4656 162.826 43.7511 162.826 44.0365C162.826 44.322 162.826 44.6074 162.826 44.8929C162.861 45.4034 162.731 45.9125 162.451 46.3652C162.17 46.8179 161.75 47.1971 161.234 47.4619L157.559 49.2515L164.43 59.3521L168.079 57.5626C168.607 57.3099 169.207 57.1863 169.812 57.2057C170.418 57.2251 171.005 57.3866 171.508 57.6723C172.08 57.989 172.672 58.2785 173.281 58.5397C173.82 58.7677 174.274 59.1185 174.592 59.5528C174.909 59.9871 175.078 60.4878 175.08 60.999V64.5781H188.835V60.999C188.836 60.4931 189 59.9971 189.31 59.5653C189.621 59.1334 190.065 58.7824 190.595 58.5506C191.204 58.2895 191.796 57.9999 192.368 57.6833C192.872 57.3976 193.459 57.2361 194.064 57.2167C194.67 57.1973 195.269 57.3208 195.797 57.5735L199.446 59.3631L206.317 49.2625L202.655 47.4839C202.138 47.2209 201.715 46.842 201.435 46.3889C201.154 45.9357 201.025 45.4257 201.064 44.9148C201.064 44.6294 201.064 44.3439 201.064 44.0475C201.064 43.751 201.064 43.4766 201.064 43.1911C201.024 42.6734 201.157 42.1566 201.447 41.7002C201.738 41.2438 202.175 40.8663 202.707 40.6111L206.356 38.8325ZM193.183 44.0475C193.183 45.9371 192.523 47.7842 191.285 49.3552C190.047 50.9262 188.288 52.1505 186.23 52.8731C184.173 53.5957 181.908 53.7843 179.724 53.4148C177.54 53.0454 175.534 52.1346 173.96 50.7976C172.386 49.4607 171.315 47.7577 170.882 45.9042C170.449 44.0506 170.674 42.1297 171.528 40.3846C172.382 38.6395 173.827 37.1484 175.68 36.1002C177.533 35.052 179.711 34.4936 181.938 34.4958C183.416 34.4958 184.879 34.743 186.244 35.2231C187.61 35.7033 188.85 36.407 189.894 37.2941C190.939 38.1812 191.767 39.2342 192.331 40.393C192.895 41.5518 193.185 42.7937 193.183 44.0475V44.0475Z" fill="#EBEBEB"/>
<path d="M539.163 240.285L531.982 230.547L532.24 230.602L528.358 232.457C527.641 232.756 526.829 232.852 526.042 232.731C525.301 232.573 524.597 232.309 523.959 231.952C522.522 231.392 521.06 230.634 520.905 229.152C520.905 227.846 520.905 226.638 520.905 225.376L521.28 225.694L507.24 225.782L507.719 225.376C507.719 226.638 507.719 227.824 507.719 229.163C507.643 229.706 507.405 230.223 507.027 230.665C506.648 231.107 506.143 231.459 505.558 231.688L503.656 232.6C503.093 232.862 502.466 233.007 501.824 233.022C501.183 233.037 500.546 232.923 499.968 232.688L496.086 230.887L496.849 230.711L489.862 240.592L489.642 239.879L493.524 241.69C494.671 242.689 495.314 244.028 495.314 245.423C495.314 246.818 494.671 248.157 493.524 249.156L489.642 250.989L489.887 250.221L496.875 260.102L496.06 259.915L499.942 258.115C500.725 257.792 501.61 257.692 502.465 257.829C503.242 258.007 503.98 258.289 504.652 258.664C506.153 259.289 507.628 260.102 507.784 261.672C507.784 263.022 507.784 264.197 507.784 265.46L507.214 264.977L521.254 265.031L520.75 265.46C520.905 263.352 520.012 260.256 522.962 259.213L523.907 258.773C524.54 258.346 525.298 258.073 526.101 257.982C526.903 257.891 527.719 257.986 528.462 258.257L532.344 260.091L531.839 260.212L538.969 250.418L539.06 250.715L535.178 248.859C534.557 248.48 534.082 247.954 533.813 247.346C533.543 246.739 533.492 246.077 533.664 245.445C533.528 244.825 533.605 244.186 533.884 243.602C534.164 243.018 534.636 242.515 535.243 242.151L539.125 240.395L539.163 240.285ZM539.163 240.285L535.346 242.14C534.762 242.502 534.318 243.004 534.071 243.581C533.825 244.157 533.786 244.784 533.962 245.379C533.806 245.966 533.861 246.578 534.119 247.138C534.377 247.697 534.827 248.178 535.411 248.519L539.293 250.287L539.513 250.386L539.383 250.572L532.486 260.453L532.305 260.717L531.982 260.574L528.1 258.795C527.475 258.584 526.794 258.523 526.132 258.62C525.469 258.717 524.852 258.968 524.347 259.344C523.718 259.606 523.12 259.918 522.561 260.278C522.106 260.648 521.818 261.141 521.746 261.672C521.746 262.978 521.746 264.45 521.746 265.811H521.228H507.188H506.619C506.619 264.439 506.619 262.923 506.619 261.628C506.619 260.332 505.157 259.882 504.031 259.432C503.473 259.111 502.857 258.87 502.206 258.719C501.605 258.621 500.982 258.695 500.434 258.927L496.552 260.728L496.047 260.958L495.736 260.53L488.684 250.649L488.335 250.155L488.93 249.881L492.812 248.091C493.313 247.843 493.697 247.455 493.899 246.993C494.037 246.438 494.072 245.867 494.002 245.302C494.162 244.784 494.135 244.238 493.926 243.733C493.716 243.228 493.332 242.788 492.825 242.47L488.943 240.669L488.386 240.406L488.71 239.956L495.762 230.129L496.047 229.723L496.526 229.954L500.408 231.754C501.015 231.954 501.674 232.012 502.316 231.921C502.958 231.83 503.559 231.595 504.057 231.238C504.681 230.988 505.275 230.687 505.83 230.338C506.287 229.986 506.58 229.507 506.658 228.988C506.658 227.703 506.658 226.221 506.658 224.871H507.137L521.177 224.958H521.565V225.277C521.772 227.22 520.659 229.91 523.234 230.942C524.128 231.451 525.093 231.864 526.107 232.172C526.779 232.295 527.479 232.225 528.1 231.974L531.982 230.217L532.15 230.14L532.24 230.283L539.099 240.164L539.163 240.285Z" fill="#EBEBEB"/>
<path d="M525.744 245.379C525.809 253.833 512.985 257.983 505.83 252.373C504.67 251.49 503.742 250.41 503.107 249.204C502.472 247.997 502.144 246.69 502.144 245.368C502.144 244.047 502.472 242.74 503.107 241.533C503.742 240.326 504.67 239.246 505.83 238.364C512.985 232.742 525.744 236.914 525.744 245.379ZM525.744 245.379C525.744 237.134 513.167 233.401 506.606 239.055C505.608 239.874 504.815 240.855 504.273 241.94C503.731 243.024 503.451 244.19 503.451 245.368C503.451 246.546 503.731 247.712 504.273 248.797C504.815 249.881 505.608 250.862 506.606 251.681C513.154 257.335 525.809 253.624 525.757 245.379H525.744Z" fill="#EBEBEB"/>
<path d="M388.864 0.944183V77.8736H401.597V96.5378L423.595 77.8736H544.301V0.944183H388.864Z" fill="white"/>
<path d="M388.864 0.944189C389.187 23.6157 389.446 55.5864 389.64 77.8736L388.864 77.2258L401.597 77.1599H402.425V77.8736L402.542 96.5378L400.898 95.9669L422.793 77.2148L423.116 76.9404C458.831 76.9404 509.065 76.7757 544.288 76.7976L542.994 77.8955L543.162 0.966147L544.262 1.89936C505.519 1.76761 427.568 1.2516 388.825 0.966147L388.864 0.944189ZM388.864 0.944189C428.163 0.647758 506.101 0.131747 545.439 0V0.944189L545.595 77.8736V78.9715C510.203 79.0593 459.53 78.8397 423.621 78.8397L424.397 78.5652L402.296 97.1416L400.639 98.525V96.5597L400.769 77.8955L401.61 78.6092H388.877H388.1C388.1 55.9377 388.721 23.956 388.877 1.02104L388.864 0.944189Z" fill="#EBEBEB"/>
<path d="M495.982 39.4034C495.982 40.6389 496.414 41.8467 497.223 42.874C498.032 43.9014 499.182 44.7021 500.527 45.1749C501.873 45.6477 503.353 45.7714 504.782 45.5304C506.21 45.2893 507.522 44.6944 508.551 43.8207C509.581 42.947 510.282 41.8339 510.567 40.6221C510.851 39.4103 510.705 38.1543 510.148 37.0128C509.59 35.8713 508.647 34.8956 507.436 34.2092C506.225 33.5228 504.801 33.1564 503.345 33.1564C501.393 33.1593 499.523 33.8184 498.143 34.9893C496.762 36.1602 495.986 37.7475 495.982 39.4034V39.4034Z" fill="#EBEBEB"/>
<path d="M459.219 39.4034C459.219 40.6389 459.651 41.8467 460.46 42.874C461.269 43.9014 462.419 44.7021 463.765 45.1749C465.11 45.6477 466.59 45.7714 468.019 45.5304C469.447 45.2893 470.759 44.6944 471.789 43.8207C472.818 42.947 473.52 41.8339 473.804 40.6221C474.088 39.4103 473.942 38.1543 473.385 37.0128C472.827 35.8713 471.884 34.8956 470.673 34.2092C469.462 33.5228 468.038 33.1564 466.582 33.1564C464.63 33.1593 462.76 33.8184 461.38 34.9893C460 36.1602 459.223 37.7475 459.219 39.4034V39.4034Z" fill="#EBEBEB"/>
<path d="M422.469 39.4034C422.469 40.6389 422.901 41.8467 423.71 42.874C424.519 43.9014 425.669 44.7021 427.015 45.1749C428.36 45.6477 429.84 45.7714 431.269 45.5304C432.697 45.2893 434.009 44.6944 435.039 43.8207C436.068 42.947 436.77 41.8339 437.054 40.6221C437.338 39.4103 437.192 38.1543 436.635 37.0128C436.077 35.8713 435.134 34.8956 433.923 34.2092C432.712 33.5228 431.288 33.1564 429.832 33.1564C427.879 33.1564 426.007 33.8145 424.626 34.9861C423.245 36.1576 422.469 37.7466 422.469 39.4034Z" fill="#EBEBEB"/>
<path d="M95.6017 89.8845C94.6053 95.5924 91.698 100.937 87.2253 105.284C82.7526 109.631 76.9028 112.796 70.3714 114.404C63.8399 116.012 56.9016 115.994 50.3815 114.354C43.8614 112.713 38.0337 109.519 33.5913 105.15C29.149 100.781 26.2789 95.4211 25.3223 89.7084C24.3658 83.9957 25.363 78.1701 28.1953 72.9242C31.0277 67.6783 35.5761 63.233 41.2997 60.1166C47.0233 57.0002 53.6813 55.344 60.4821 55.3448V85.471L95.6017 89.8845Z" fill="#EBEBEB"/>
<path d="M103.223 79.3338C103.224 80.8038 103.095 82.2719 102.835 83.7253L67.7157 79.3338V49.2076C72.3796 49.2047 76.9984 49.982 81.3079 51.4949C85.6175 53.0079 89.5332 55.2268 92.831 58.0249C96.1289 60.8229 98.7443 64.1452 100.527 67.8016C102.311 71.4579 103.227 75.3767 103.223 79.3338V79.3338Z" fill="#DBDBDB"/>
<path d="M102.098 96.0327H64.3383V97.1306H102.098V96.0327Z" fill="#C7C7C7"/>
<path d="M104.737 99.3813C104.084 99.3813 103.445 99.2165 102.901 98.9079C102.358 98.5993 101.935 98.1608 101.686 97.6479C101.437 97.1351 101.374 96.571 101.503 96.0274C101.633 95.4837 101.949 94.9849 102.413 94.5943C102.877 94.2036 103.468 93.9387 104.11 93.8332C104.751 93.7277 105.416 93.7862 106.018 94.0015C106.621 94.2168 107.134 94.579 107.494 95.0423C107.853 95.5056 108.042 96.049 108.037 96.6036C108.03 97.3423 107.68 98.0488 107.062 98.5691C106.443 99.0894 105.608 99.3813 104.737 99.3813V99.3813ZM104.737 94.8909C104.235 94.9252 103.766 95.1188 103.424 95.4332C103.082 95.7475 102.893 96.1595 102.893 96.5872C102.893 97.0149 103.082 97.4269 103.424 97.7412C103.766 98.0555 104.235 98.2491 104.737 98.2834C105.013 98.3023 105.291 98.2724 105.553 98.1957C105.815 98.119 106.055 97.9972 106.259 97.8378C106.462 97.6785 106.624 97.4851 106.736 97.2698C106.847 97.0546 106.904 96.8222 106.904 96.5872C106.904 96.3522 106.847 96.1197 106.736 95.9045C106.624 95.6893 106.462 95.4959 106.259 95.3365C106.055 95.1772 105.815 95.0553 105.553 94.9786C105.291 94.9019 105.013 94.8721 104.737 94.8909V94.8909Z" fill="#C7C7C7"/>
<path d="M143.661 94.9019H114.339V96.0218H143.661V94.9019Z" fill="#C7C7C7"/>
<path d="M130.941 97.1416H114.339V98.2615H130.941V97.1416Z" fill="#C7C7C7"/>
<path d="M410.81 291.15H400.808V351.578H410.81V291.15Z" fill="#EBEBEB"/>
<path d="M428.021 305.774H418.018V351.578H428.021V305.774Z" fill="#EBEBEB"/>
<path d="M445.218 328.676H435.215V351.578H445.218V328.676Z" fill="#EBEBEB"/>
<path d="M462.415 315.589H452.413V351.567H462.415V315.589Z" fill="#EBEBEB"/>
<path d="M479.626 301.855H469.623V351.567H479.626V301.855Z" fill="#EBEBEB"/>
<path d="M496.823 293.774H486.821V351.567H496.823V293.774Z" fill="#EBEBEB"/>
<path d="M395.049 283.465L395.166 300.493V317.511L395.243 351.545L395.049 351.315C404.245 351.315 413.441 351.315 422.638 351.315L450.239 351.37H477.827L505.428 351.491L477.827 351.622H450.239H422.638C413.45 351.622 404.254 351.622 395.049 351.622H394.79V351.403L394.881 317.368V300.351L395.049 283.465Z" fill="#EBEBEB"/>
<path d="M392.798 286.88C394.248 286.558 395.772 286.558 397.223 286.88C395.772 287.201 394.248 287.201 392.798 286.88Z" fill="#EBEBEB"/>
<path d="M392.798 292.029C394.248 291.707 395.772 291.707 397.223 292.029C396.503 292.201 395.758 292.282 395.01 292.27C394.263 292.277 393.519 292.195 392.798 292.029V292.029Z" fill="#EBEBEB"/>
<path d="M392.798 297.233C394.248 296.911 395.772 296.911 397.223 297.233C395.772 297.555 394.248 297.555 392.798 297.233Z" fill="#EBEBEB"/>
<path d="M392.798 302.404C394.248 302.082 395.772 302.082 397.223 302.404C395.772 302.726 394.248 302.726 392.798 302.404Z" fill="#EBEBEB"/>
<path d="M392.798 307.586C394.248 307.264 395.772 307.264 397.223 307.586C395.772 307.908 394.248 307.908 392.798 307.586Z" fill="#EBEBEB"/>
<path d="M392.798 312.757C394.248 312.435 395.772 312.435 397.223 312.757C395.772 313.079 394.248 313.079 392.798 312.757Z" fill="#EBEBEB"/>
<path d="M392.798 317.939C394.248 317.617 395.772 317.617 397.223 317.939C395.77 318.246 394.251 318.246 392.798 317.939V317.939Z" fill="#EBEBEB"/>
<path d="M392.798 323.11C394.248 322.788 395.772 322.788 397.223 323.11C395.772 323.432 394.248 323.432 392.798 323.11Z" fill="#EBEBEB"/>
<path d="M392.798 328.259C394.248 327.937 395.772 327.937 397.223 328.259C395.77 328.566 394.251 328.566 392.798 328.259V328.259Z" fill="#EBEBEB"/>
<path d="M392.798 333.463C394.248 333.141 395.772 333.141 397.223 333.463C395.772 333.785 394.248 333.785 392.798 333.463Z" fill="#EBEBEB"/>
<path d="M392.798 338.634C394.251 338.327 395.77 338.327 397.223 338.634C395.772 338.956 394.248 338.956 392.798 338.634Z" fill="#EBEBEB"/>
<path d="M392.798 343.816C394.248 343.495 395.772 343.495 397.223 343.816C395.772 344.138 394.248 344.138 392.798 343.816Z" fill="#EBEBEB"/>
<path d="M442.501 123.096L455.7 87.3594L463.231 91.8937L442.501 123.096Z" fill="#455A64"/>
<path d="M452.866 131.802L488.8 124.358L490.819 132.768L452.866 131.802Z" fill="#455A64"/>
<path d="M449.087 124.798L494.429 87.7546L503.177 97.976L449.087 124.798Z" fill="#455A64"/>
<path d="M452.322 448.489H328.835C326.523 442.634 324.336 436.929 322.274 431.373C319.686 424.478 317.628 417.825 315.985 411.512C315.597 410.019 315.234 408.537 314.898 407.121C314.238 404.255 313.669 401.467 313.216 398.766C310.912 385.207 311.249 373.942 314.51 366.301C317.421 359.472 322.688 355.542 330.53 355.465H331.474C332.108 355.465 332.768 355.52 333.402 355.586C345.98 356.815 364.29 366.806 389.045 388.676C394.98 393.924 401.304 399.867 408.015 406.506C410.241 408.702 412.544 410.963 414.925 413.291C426.105 424.138 438.89 436.138 452.322 448.489Z" fill="#AD6359"/>
<path d="M479.16 448.489H315.7C312.543 441.628 309.605 435.029 306.953 428.782C304.969 424.12 303.2 419.626 301.647 415.3C301.013 413.543 300.353 411.809 299.849 410.107C298.71 406.711 297.709 403.417 296.846 400.226C296.29 398.228 295.785 396.285 295.345 394.374C294.905 392.464 294.53 390.828 294.194 389.115C293.974 388.017 293.767 386.854 293.586 385.745C293.404 384.636 293.236 383.549 293.081 382.451C292.848 380.76 292.654 379.157 292.524 377.522C292.447 376.665 292.382 375.82 292.33 374.996C292.33 374.854 292.33 374.711 292.33 374.568C291.722 363.216 293.624 354.345 297.584 348.109C300.177 343.737 304.59 340.338 309.968 338.568C310.275 338.453 310.591 338.354 310.912 338.272C317.072 336.548 324.603 336.845 333.286 339.26C344.453 342.367 357.51 348.965 371.99 359.22C401.636 380.321 441.336 414.367 479.16 448.489Z" fill="#BA68C8"/>
<path d="M437.48 411.798C439.146 419.843 442.447 427.581 447.237 434.667C450.627 439.607 457.097 446.37 464.499 442.242C466.053 441.351 467.302 440.128 468.122 438.696C457.925 429.54 447.599 420.482 437.48 411.798ZM401.726 448.489H417.047C411.871 445.734 405.945 444.636 401.726 448.489ZM416.504 394.045C407.51 386.557 398.724 379.465 390.468 373.097C388.294 375.666 387.79 379.399 388.359 383.417C388.473 385.168 388.723 386.91 389.11 388.632C390.36 394.319 392.588 399.82 395.722 404.958C398.31 408.976 402.865 415.838 409.322 415.75C410.435 415.752 411.531 415.525 412.518 415.089C413.505 414.653 414.353 414.021 414.99 413.247C417.047 410.93 417.811 407.45 417.94 404.738C417.865 401.143 417.384 397.562 416.504 394.045V394.045Z" fill="#263238"/>
<path opacity="0.1" d="M366.775 448.489H315.726C312.556 441.628 309.618 435.029 306.979 428.782C305.003 424.12 303.23 419.626 301.66 415.3C301.022 413.543 300.418 411.812 299.849 410.107C298.71 406.711 297.709 403.436 296.846 400.281C296.29 398.283 295.785 396.339 295.345 394.429C294.906 392.519 294.53 390.883 294.194 389.17C293.974 388.072 293.767 386.909 293.586 385.8C293.404 384.691 293.236 383.604 293.081 382.506C290.972 367.311 292.693 355.794 297.61 348.186C298.469 346.831 299.483 345.551 300.638 344.365L304.442 350.349L314.536 366.235L327.76 387.172L332.574 394.748L333.868 396.691L352.761 426.422L362.699 442.089L366.775 448.489Z" fill="black"/>
<path d="M364.303 448.489H281.487C281.487 436.841 281.487 425.565 281.487 414.927C281.487 412.852 281.487 410.799 281.487 408.768C281.487 404.936 281.487 401.192 281.487 397.558C281.564 371.209 281.707 350.404 281.771 340.116C281.771 335.56 281.836 333.057 281.836 333.057L281.085 330.663L279.61 325.975C290.855 328.444 301.473 332.638 310.938 338.349C312.664 339.381 314.389 340.501 316.114 341.708C320.61 344.801 324.732 348.266 328.42 352.05C328.809 352.446 329.184 352.83 329.559 353.236C330.219 353.95 330.853 354.674 331.5 355.432C332.147 356.19 332.924 357.101 333.596 357.979C336.896 362.179 339.659 366.666 341.839 371.362C347.261 383.011 354.65 409.723 362.725 442.089C363.234 444.197 363.76 446.33 364.303 448.489Z" fill="#BA68C8"/>
<path d="M357.523 448.489H92.7678C124.639 403.75 154.88 365.785 171.068 351.996C173.219 350.152 175.519 348.439 177.953 346.868C182.902 343.637 188.257 340.879 193.921 338.645C199.512 336.412 205.312 334.576 211.261 333.156C214.521 332.354 217.847 331.674 221.211 331.081C237.005 328.398 253.186 327.754 269.206 329.17V329.17C273.295 329.533 277.294 330.027 281.176 330.653C291.158 332.135 300.837 334.827 309.916 338.645C312.04 339.566 314.101 340.589 316.089 341.708C320.354 344.033 324.096 346.985 327.139 350.426C327.553 350.92 327.98 351.458 328.433 352.05C328.705 352.435 328.977 352.83 329.249 353.247C329.689 353.928 330.12 354.66 330.543 355.443C331.595 357.287 332.652 359.395 333.713 361.767C340.028 375.886 346.511 398.985 352.761 426.433C354.365 433.514 355.97 440.892 357.523 448.489Z" fill="#EBEBEB"/>
<path d="M202.047 353.994C210.985 364.07 220.795 373.567 231.395 382.407C241.942 391.081 253.523 398.876 266.45 404.124C279.377 409.371 293.78 411.809 307.561 409.13C321.342 406.451 333.001 397.47 338.617 385.668C335.913 398.129 324.668 410.03 309.14 413.829C293.896 417.913 277.191 415.476 263.267 409.756C249.534 403.838 237.303 395.691 227.267 385.778C217.188 376.211 208.702 365.517 202.047 353.994V353.994Z" fill="#C7C7C7"/>
<path d="M215.777 448.489H75.8033C102.68 404.354 125.83 367.739 134.836 358.265C135.291 357.769 135.779 357.296 136.298 356.848C147.129 347.725 162.774 341.203 176.943 336.757C188.032 333.286 199.441 330.602 211.053 328.731C211.053 328.731 211.118 330.279 211.248 333.123C211.493 338.975 211.985 350.294 212.542 365.203C212.611 366.718 212.675 368.266 212.736 369.847C213.654 391.289 214.741 419.11 215.777 448.489Z" fill="#BA68C8"/>
<path d="M204.583 387.007C204.493 386.821 204.389 386.645 204.286 386.469C204.182 386.294 204.014 386.041 203.872 385.844C203.715 385.646 203.547 385.456 203.367 385.273V385.273C203.252 385.151 203.127 385.038 202.992 384.932C202.798 384.768 202.604 384.625 202.409 384.482C202.215 384.352 202.012 384.231 201.801 384.12C201.665 384.046 201.522 383.98 201.374 383.922C200.965 383.741 200.53 383.605 200.08 383.516L199.834 383.461C198.409 383.267 196.949 383.365 195.577 383.747C192.485 384.65 189.59 385.982 187.011 387.688C183.767 389.72 180.736 391.987 177.953 394.462C176.995 395.307 176.063 396.186 175.158 397.086C174.549 397.69 173.967 398.305 173.385 398.931C172.802 399.556 172.246 400.182 171.69 400.83C167.263 405.886 164.073 411.642 162.308 417.759C161.959 418.44 161.622 419.11 161.325 419.79C161.178 420.091 161.049 420.387 160.936 420.68C160.833 420.932 160.729 421.185 160.639 421.437C160.548 421.69 160.406 422.074 160.302 422.382C159.008 426.202 159.008 429.661 161.182 431.867C161.299 431.988 161.428 432.098 161.57 432.219C161.844 432.447 162.138 432.656 162.45 432.844C163.354 433.362 164.363 433.735 165.427 433.942C165.571 433.976 165.718 433.998 165.867 434.008L166.294 434.074C167.606 434.184 168.931 434.049 170.176 433.679C170.538 433.58 170.913 433.459 171.288 433.328C171.732 433.174 172.164 432.998 172.582 432.801C172.997 432.625 173.411 432.427 173.812 432.219C174.213 432.01 174.524 431.845 174.886 431.637C176.42 430.748 177.885 429.776 179.273 428.727L179.829 428.299C179.997 428.178 180.152 428.058 180.321 427.915L181.343 427.113L181.809 426.74C182.365 426.301 182.883 425.862 183.375 425.467L184.526 424.511C185.199 423.963 185.82 423.414 186.532 422.81C187.244 422.206 187.528 421.931 188.02 421.47C188.512 421.009 189.146 420.372 189.702 419.878C190.259 419.384 190.802 418.78 191.333 418.242C195.508 413.939 198.93 409.147 201.491 404.014C203.535 399.853 206.951 391.937 204.583 387.007Z" fill="#263238"/>
<path d="M200.003 383.461C196.548 396.076 188.486 411.205 175.649 427.608C174.2 429.463 172.725 431.351 171.237 433.295C167.549 438.103 163.718 443.176 159.798 448.467H44.6305C81.2381 417.584 138.356 343.3 182.43 341.423C202.694 340.578 205.916 361.822 200.003 383.461Z" fill="#AD6359"/>
<path d="M208.711 364.391C208.484 372.044 207.101 379.641 204.596 386.996V386.996C204.053 388.709 203.453 390.458 202.798 392.244C202.539 392.936 202.28 393.639 202.008 394.341C201.594 395.439 201.167 396.537 200.714 397.635C200.378 398.436 200.041 399.249 199.692 400.061C199.343 400.874 199.084 401.489 198.76 402.202C198.437 402.916 198.126 403.651 197.79 404.398C196.496 407.329 195.085 410.371 193.597 413.489C193.235 414.268 192.86 415.059 192.471 415.849L191.32 418.242C186.726 427.695 181.459 437.884 175.727 448.511H41.3178C41.5507 448.314 81.7945 403.498 113.42 374.953C142.548 348.669 176.257 331.871 193.921 338.722C202.824 342.158 207.909 349.844 208.621 361.218C208.711 362.195 208.711 363.271 208.711 364.391Z" fill="#BA68C8"/>
<path d="M204.286 386.448C204.156 386.228 204.014 386.019 203.872 385.822C203.715 385.624 203.547 385.434 203.367 385.251V385.251C203.252 385.129 203.127 385.016 202.992 384.91C202.814 384.746 202.619 384.596 202.409 384.46V384.46C202.215 384.33 202.012 384.209 201.801 384.098C201.665 384.024 201.522 383.958 201.374 383.9C200.965 383.719 200.53 383.583 200.08 383.494V383.494H199.834C198.409 383.3 196.949 383.398 195.577 383.78C192.485 384.683 189.59 386.015 187.011 387.721C183.767 389.753 180.736 392.02 177.953 394.495C176.995 395.34 176.063 396.219 175.158 397.119C174.549 397.723 173.967 398.338 173.385 398.963C172.802 399.589 172.246 400.215 171.69 400.863C167.263 405.919 164.073 411.675 162.308 417.792C161.959 418.473 161.622 419.143 161.325 419.823C161.178 420.124 161.049 420.42 160.936 420.713C160.833 420.965 160.729 421.218 160.639 421.47C160.548 421.723 160.406 422.107 160.302 422.415C159.008 426.235 159.008 429.694 161.182 431.9C161.299 432.021 161.428 432.131 161.57 432.252C161.844 432.48 162.138 432.689 162.45 432.877V432.877C163.36 433.394 164.373 433.766 165.44 433.975L165.867 434.052L166.294 434.118C167.606 434.228 168.931 434.093 170.176 433.723C170.538 433.624 170.913 433.503 171.288 433.371C171.732 433.218 172.164 433.042 172.582 432.844C172.997 432.669 173.411 432.471 173.812 432.263C174.213 432.054 174.524 431.889 174.886 431.681C176.42 430.792 177.885 429.82 179.273 428.771L179.829 428.343C179.997 428.222 180.152 428.102 180.321 427.959L181.343 427.157L181.809 426.784C182.365 426.345 182.883 425.906 183.375 425.511L184.526 424.555C185.199 424.006 185.82 423.457 186.532 422.854C187.244 422.25 187.528 421.975 188.02 421.514C188.512 421.053 189.146 420.416 189.702 419.922C190.259 419.428 190.802 418.824 191.333 418.286L192.484 415.893C192.873 415.103 193.248 414.312 193.61 413.533C195.098 410.415 196.496 407.373 197.803 404.442C198.139 403.706 198.463 402.982 198.773 402.246C199.084 401.511 199.407 400.808 199.705 400.105C200.003 399.403 200.391 398.48 200.727 397.679C201.18 396.581 201.607 395.483 202.021 394.385C202.293 393.683 202.552 392.98 202.811 392.288C203.475 390.502 204.074 388.753 204.609 387.04C204.493 386.81 204.389 386.634 204.286 386.448Z" fill="#263238"/>
<path d="M179.79 446.206C179.324 446.963 178.858 447.732 178.38 448.489H177.176C177.81 447.622 178.47 446.766 179.104 445.898C179.155 445.825 179.237 445.771 179.333 445.748C179.429 445.725 179.532 445.734 179.621 445.774C179.709 445.813 179.776 445.88 179.808 445.961C179.839 446.041 179.833 446.129 179.79 446.206V446.206Z" fill="#263238"/>
<path d="M442.022 192.12C441.905 192.12 441.789 192.219 441.892 192.274C454.302 199.366 461.73 212.278 455.971 224.881C451.041 235.652 440.262 240.384 428.318 241.504C438.58 237.233 447.431 230.305 450.976 220.973C454.858 210.73 451.287 199.015 441.504 192.505C450.963 183.129 457.265 170.437 453.862 158.294C451.015 148.073 441.271 139.685 428.888 138.181C435.979 127.553 435.422 113.742 426.364 104.289C417.889 95.4069 403.616 91.7729 390.391 94.2212C392.543 90.4068 393.504 86.1867 393.179 81.9665C392.855 77.7463 391.256 73.6678 388.538 70.123C385.819 66.5782 382.071 63.6863 377.655 61.725C373.239 59.7638 368.302 58.7992 363.32 58.9239C365.455 52.5781 362.375 45.848 356.332 41.698C349.383 36.8892 339.911 36.3293 331.073 37.1417C329.857 33.9187 327.686 31.0146 324.768 28.7077C321.849 26.4009 318.281 24.7685 314.406 23.967C309.291 23.0784 303.97 23.7259 299.355 25.7988C294.74 27.8717 291.118 31.2411 289.108 35.3302C276.699 29.3577 262.206 24.3513 247.571 27.0631C235.523 29.2589 224.278 36.8673 221.988 47.2753C198.036 39.1289 170.667 50.4262 163.149 71.6046C152.422 70.6824 141.798 75.1179 135.25 82.5177C128.703 89.9175 126.749 96.2853 126.192 99.3374C121.379 99.3151 116.674 100.545 112.711 102.861C108.748 105.178 105.716 108.469 104.026 112.293C100.622 119.901 102.732 127.202 107.08 133.789C106.897 135.983 106.137 138.114 104.854 140.025C98.3838 150.148 97.8791 161.511 103.961 171.546C92.2114 180.856 93.1948 197.785 105.889 205.581C97.8015 217.591 103.495 233.741 117.833 239.802C115.242 244.683 113.936 249.984 114.005 255.336C114.075 260.689 115.518 265.964 118.234 270.795C122.517 278.195 131.174 284.815 141.293 283.97C138.809 290.217 144.761 296.53 151.788 298.748C154.482 299.545 157.273 300.083 160.108 300.351C163.46 300.724 167.872 300.439 170.9 301.811C173.928 303.183 175.39 306.477 177.37 308.761C178.817 310.398 180.465 311.9 182.288 313.24C193.364 321.342 209.759 323.121 223.321 318.455C226.694 317.316 229.855 315.766 232.702 313.855C239.638 321.694 251.815 323.231 263.047 321.661C264.341 321.474 265.635 321.244 266.929 320.98C270.883 320.086 274.736 318.899 278.446 317.434C279.71 316.949 281.006 316.528 282.328 316.171C284.463 315.58 286.734 315.426 288.953 315.721C291.308 316.051 293.534 316.819 295.889 317.159C303.886 318.257 310.757 315.051 317.098 311.231C321.927 316.486 328.739 320.173 336.392 321.672V321.672C356.915 325.525 379.987 311.999 384.361 292.029C390.783 292.603 397.273 291.851 403.278 289.836C409.283 287.821 414.625 284.603 418.846 280.457V280.457C419.743 279.551 420.577 278.602 421.344 277.613C424.871 272.959 426.915 267.608 427.276 262.083C427.636 256.559 426.301 251.049 423.401 246.093V246.093C423.026 245.434 422.625 244.786 422.185 244.15C422.573 244.15 422.974 244.15 423.375 244.15C438.256 244.314 452.814 238.66 458.495 225.705C464.551 211.959 456.541 198.521 442.022 192.12ZM125.895 101.292C125.895 101.292 122.854 102.499 121.456 103.224C117.568 105.316 114.255 108.09 111.739 111.361C109.223 114.632 107.564 118.323 106.873 122.185C106.53 124.477 106.53 126.798 106.873 129.09C106.873 129.398 106.873 129.65 106.873 129.947C104.926 125.691 104.437 121.055 105.462 116.574C107.701 107.791 115.633 101.863 125.92 100.238C125.895 100.874 125.895 101.292 125.895 101.292ZM313.992 25.6138C321.756 27.1838 326.014 31.8279 328.226 37.3942H328.071C325.202 34.2106 321.317 31.7913 316.878 30.4226C312.381 29.0621 307.506 28.8845 302.888 29.9128C298.271 30.9412 294.127 33.1277 290.998 36.1866L290.325 35.8682C295.656 28.7209 302.851 23.3741 313.992 25.6138ZM336.909 319.564C330.789 318.378 324.551 315.491 318.482 310.484L318.767 310.32C324.372 313.681 330.881 315.795 337.699 316.468V316.468C345.045 317.163 352.48 316.25 359.293 313.817C366.107 311.384 372.073 307.512 376.622 302.568C366.93 314.766 352.256 322.539 336.909 319.564V319.564Z" fill="#263238"/>
<path d="M308.053 399.93C280.4 404.113 234.967 381.54 218.352 351.985C217.239 349.954 232.042 271.773 233.09 256.018L347.934 285.551C347.934 285.551 334.308 318.027 332.691 345.496C332.582 347.668 332.708 349.843 333.066 351.996C333.066 352.292 333.157 352.654 333.157 353.094C334.709 365.467 334.774 395.878 308.053 399.93Z" fill="#AD6359"/>
<path d="M333.04 352.007C333.04 352.281 333.131 352.632 333.144 353.05C329.156 353.325 325.149 353.325 321.161 353.05C253.872 348.57 242.614 277.844 240.842 258.016L269.53 265.405L347.921 285.562C347.921 285.562 334.231 318.049 332.73 345.507C332.582 347.677 332.686 349.854 333.04 352.007Z" fill="#263238"/>
<path d="M214.133 147.579C204.156 184.062 234.734 286.012 266.554 307.289C312.672 338.14 384.05 337.196 413.89 290.931C442.811 246.137 400.225 113.874 365.041 94.9019C313.268 66.9605 228.859 93.6832 214.133 147.579Z" fill="#AD6359"/>
<path d="M332.937 201.815C332.794 201.573 332.393 202.276 332.484 202.561C334.761 209.379 336.016 217.515 329.352 221.346C329.145 221.467 329.274 221.807 329.533 221.72C338.113 218.755 336.353 207.974 332.937 201.815Z" fill="#263238"/>
<path d="M323.555 196.172C310.278 198.082 315.791 220.479 328.084 218.7C340.183 216.955 334.696 194.558 323.555 196.172Z" fill="#263238"/>
<path d="M381.876 193.218C381.876 192.944 382.601 193.427 382.653 193.712C384.102 200.695 387.143 208.49 395.101 209.489C395.347 209.489 395.411 209.873 395.101 209.884C385.836 210.422 381.928 200.047 381.876 193.218Z" fill="#263238"/>
<path d="M387.402 184.699C400.342 181.537 406.812 203.725 394.868 206.657C382.924 209.588 376.558 187.356 387.402 184.699Z" fill="#263238"/>
<path d="M308.855 180.625C312.36 179.64 315.923 178.811 319.531 178.144C323.633 177.222 326.79 176.135 330.983 177.365C332.122 177.821 333.051 178.584 333.627 179.535C334.203 180.486 334.392 181.572 334.166 182.624C332.872 187.07 328.175 189.211 323.283 190.528C318.404 191.953 313.074 191.781 308.337 190.045C303.355 188.333 304.184 182.119 308.855 180.625Z" fill="#263238"/>
<path d="M394.143 167.22C390.45 167.195 386.762 167.004 383.092 166.649C378.861 166.386 375.458 166.55 371.964 164.234C371.056 163.493 370.465 162.517 370.282 161.46C370.099 160.403 370.336 159.324 370.955 158.393C373.866 154.529 379.146 153.76 384.257 153.892C389.418 153.889 394.396 155.508 398.232 158.437C402.283 161.434 399.138 167.088 394.143 167.22Z" fill="#263238"/>
<path d="M357.691 268.062C359.503 269.873 361.237 272.311 364.226 272.761C367.215 273.211 370.605 272.365 373.362 271.663C373.422 271.647 373.487 271.648 373.546 271.665C373.606 271.683 373.657 271.716 373.693 271.76C373.73 271.804 373.748 271.857 373.747 271.91C373.745 271.964 373.723 272.015 373.685 272.058C372.34 273.348 370.609 274.306 368.675 274.83C366.741 275.354 364.676 275.424 362.699 275.033C358.998 274.177 357.445 271.267 356.863 268.27C356.772 267.875 357.432 267.798 357.691 268.062Z" fill="#263238"/>
<path d="M344.414 245.225C347.021 247.623 350.184 249.537 353.705 250.846C357.226 252.156 361.028 252.832 364.873 252.834C368.235 252.873 371.585 252.503 374.824 251.736C375.457 251.628 376.076 251.47 376.674 251.264C377.244 251.121 377.761 250.978 378.382 250.77C378.797 250.637 379.148 250.391 379.382 250.072C379.616 249.752 379.719 249.377 379.676 249.002V248.947C379.626 248.714 379.548 248.486 379.443 248.267V248.212L379.301 247.608C378.369 242.327 376.105 234.433 376.105 234.433C378.563 235.059 391.038 237.727 390.339 235.015C383.985 212.497 376.933 187.465 365.015 166.199C364.934 166.06 364.796 165.951 364.627 165.891C364.459 165.831 364.27 165.824 364.096 165.872C363.922 165.92 363.775 166.019 363.68 166.152C363.585 166.284 363.549 166.441 363.579 166.594C368.664 188.431 378.253 209.412 383.778 231.238C379.896 230.613 373.426 229.306 370.139 229.855C369.298 230.195 374.85 245.072 375.044 247.421C375.052 247.509 375.052 247.597 375.044 247.685C364.86 250.375 356.449 248.881 345.1 244.468C344.363 244.204 343.819 244.753 344.414 245.225Z" fill="#263238"/>
<path d="M403.473 134.196C398.297 125.489 392.979 124.117 392.979 124.117C392.979 124.117 391.387 113.325 377.8 100.798C363.566 87.6888 350.263 87.2276 350.263 87.2276C350.263 87.2276 342.771 81.7382 327.631 78.686C322.575 77.6742 317.421 77.0568 312.232 76.8416C306.383 76.5781 289.044 78.2798 283.971 80.6952C278.135 83.4948 271.16 81.4637 264.742 82.0785C258.759 82.6374 252.983 84.261 247.79 86.8434C243.407 89.0016 239.472 91.7576 236.144 95.0007C234.214 96.9816 232.433 99.0645 230.813 101.237C227.992 104.827 225.003 106.298 220.668 107.912C211.403 111.414 204.312 118.199 200.779 127.301C198.824 132.622 198.194 138.23 198.929 143.769C199.679 150.686 191.656 154.869 189.405 161.149C188.915 162.492 188.569 163.87 188.369 165.266C187.734 169.655 188.421 174.109 190.365 178.212C192.308 182.315 195.446 185.933 199.485 188.728C189.87 196.413 188.149 211.224 195.603 221.928C197.132 224.142 199.093 226.121 201.4 227.78L202.099 228.263C203.436 229.153 204.866 229.94 206.369 230.613C210.889 232.524 215.767 233.754 220.784 234.247C222.564 234.451 224.365 234.491 226.155 234.367C226.724 234.367 227.28 234.367 227.837 234.367C229 234.334 230.16 234.227 231.305 234.049C232.895 233.797 234.451 233.411 235.95 232.896C240.199 231.429 243.965 229.108 246.923 226.133C248.942 224.152 250.612 221.933 251.88 219.546C253.774 215.956 254.74 212.063 254.714 208.13C254.687 204.197 253.668 200.314 251.724 196.743V196.512C251.724 196.512 274.408 201.211 284.217 187.07C290.221 178.408 290.907 167.363 289.393 156.834C315.273 166.935 346.33 150.664 346.588 124.183C354.352 129.76 371.278 136.468 379.922 133.076C387.246 155.44 401.273 155.034 406.631 154.693C406.755 154.705 406.881 154.705 407.006 154.693C407.601 154.55 409.4 144.186 403.473 134.196ZM250.611 215.571C249.168 219.039 246.895 222.217 243.934 224.903C243.645 225.191 243.338 225.466 243.016 225.727C243.287 225.419 243.546 225.112 243.792 224.794C245.054 223.228 246.116 221.554 246.962 219.798C247.639 218.425 248.201 217.012 248.645 215.571C250.229 209.818 250.882 203.908 250.586 198.005C252.975 203.684 252.984 209.888 250.611 215.571V215.571ZM316.218 155.187C329.417 150.411 339.717 139.685 343.314 125.412C341.438 141.804 330.517 151.367 316.218 155.187Z" fill="#263238"/>
<path d="M203.302 189.925C220.474 202.528 248.088 201.848 269.297 190.715C283.208 183.414 290.441 166.902 303.601 152.662C325.263 129.211 376.493 123.722 362.776 87.4033C350.574 55.1252 287.103 51.2936 232.418 78.5213C184.125 102.609 164.715 161.654 203.302 189.925Z" fill="white"/>
<path d="M360.952 210.785C360.675 209.896 360.342 209.02 359.956 208.161V208.161C359.671 207.524 359.373 206.887 359.037 206.272C355.086 198.801 347.932 192.886 339.028 189.727C330.124 186.569 320.136 186.404 311.094 189.266C310.227 189.54 309.386 189.837 308.506 190.166C303.058 192.291 298.28 195.478 294.561 199.468C290.841 203.457 288.286 208.136 287.103 213.123C286.767 214.536 286.542 215.967 286.43 217.405C286.035 222.769 287.227 228.132 289.898 233.006C292.568 237.88 296.632 242.11 301.72 245.312C306.808 248.514 312.759 250.586 319.031 251.34C325.303 252.093 331.698 251.505 337.634 249.628C340.394 248.759 343.023 247.612 345.463 246.214C345.98 245.928 346.485 245.621 346.99 245.302C353.148 241.415 357.778 236.038 360.27 229.878C362.761 223.717 362.999 217.062 360.952 210.785V210.785ZM335.9 245.577C329.805 247.51 323.171 247.865 316.837 246.598C310.504 245.332 304.756 242.5 300.32 238.461C295.883 234.422 292.959 229.357 291.916 223.908C290.873 218.458 291.758 212.869 294.46 207.847C297.162 202.824 301.558 198.594 307.094 195.693C312.63 192.791 319.055 191.347 325.558 191.544C332.061 191.741 338.349 193.57 343.626 196.799C348.904 200.029 352.934 204.514 355.206 209.687C358.229 216.615 357.895 224.277 354.277 230.996C350.659 237.716 344.051 242.947 335.9 245.544V245.577Z" fill="#BA68C8"/>
<path d="M434.853 197.434C432.902 189.572 428.096 182.427 421.111 177.002C417.92 174.566 414.139 172.752 410.034 171.689C406.392 170.771 402.532 170.665 398.828 171.381C391.309 172.841 385.202 177.562 381.643 184.666C379.76 188.501 378.699 192.591 378.512 196.743V196.743C378.421 198.169 378.421 199.598 378.512 201.024C378.631 202.681 378.864 204.331 379.21 205.965C379.353 206.689 379.534 207.425 379.728 208.161C380.998 212.954 383.268 217.516 386.431 221.632C393.186 230.316 403.253 235.476 413.308 234.554C414.134 234.474 414.955 234.357 415.766 234.203C418.21 233.723 420.536 232.883 422.638 231.721C433.417 225.837 438.774 211.882 434.853 197.434ZM422.223 226.693C420.083 228.303 417.504 229.435 414.718 229.987C402.205 232.424 388.838 222.17 384.762 207.173C384.287 205.393 383.954 203.588 383.765 201.771V201.771C383.701 201.222 383.662 200.673 383.636 200.113C383.636 199.191 383.636 198.28 383.636 197.368C383.749 193.597 384.679 189.875 386.379 186.389C386.651 185.84 386.949 185.291 387.272 184.797C390.235 179.89 394.713 176.651 400.044 175.619C400.668 175.5 401.298 175.408 401.933 175.345C405.29 175.072 408.67 175.588 411.703 176.838C413.934 177.73 416.003 178.887 417.85 180.274C424.028 185.105 428.272 191.455 429.988 198.433C433.041 210.016 429.651 221.149 422.223 226.693Z" fill="#BA68C8"/>
<path d="M359.697 212.003L355.646 209.401C360.188 204.307 371.718 196.413 382.963 202.814L380.129 206.393C370.049 200.64 360.111 211.542 359.697 212.003Z" fill="#BA68C8"/>
<path d="M197.932 235.169L193.3 233.401C194.283 231.568 203.16 215.462 214.379 213.387C224.874 211.487 285.55 213.013 288.5 213.123L288.293 217.427C268.715 216.724 223.592 216.109 215.453 217.602C208.051 218.964 200.287 230.744 197.932 235.169Z" fill="#BA68C8"/>
<path d="M250.65 230.009C250.65 230.009 219.685 198.741 202.772 208.402C185.859 218.064 211.519 264.823 233.142 269.884C254.765 274.945 260.601 257.994 260.601 257.994L250.65 230.009Z" fill="#AD6359"/>
<path d="M210.497 221.654C210.422 221.654 210.349 221.679 210.296 221.724C210.242 221.77 210.212 221.831 210.212 221.895C210.212 221.959 210.242 222.021 210.296 222.066C210.349 222.111 210.422 222.137 210.497 222.137C225.702 226.067 234.63 237.035 241.295 248.596C236.455 244.314 230.244 242.239 223.424 247.191C223.075 247.454 223.489 247.937 223.89 247.827C229.791 246.29 234.242 246.85 238.706 250.627C241.89 253.306 244.232 256.808 246.639 259.992C247.441 261.09 249.757 260.278 249.123 259.037L248.968 258.763C247.609 242.854 230.71 221.763 210.497 221.654Z" fill="#263238"/>
<path d="M292.667 75.6668V86.3932C292.667 86.9359 292.414 87.4564 291.963 87.8411C291.512 88.2258 290.899 88.4434 290.26 88.4463V88.4463C289.892 88.4417 289.53 88.3685 289.199 88.2319C288.868 88.0953 288.576 87.8986 288.345 87.6558C287.689 86.9702 286.798 86.474 285.796 86.2356C284.794 85.9971 283.729 86.0281 282.749 86.3243C281.768 86.6204 280.92 87.1673 280.321 87.8894C279.722 88.6116 279.401 89.4735 279.403 90.3566C279.398 91.2407 279.717 92.1042 280.315 92.8281C280.913 93.552 281.761 94.1006 282.743 94.3982C283.724 94.6958 284.79 94.7277 285.793 94.4895C286.796 94.2513 287.688 93.7548 288.345 93.0684C288.574 92.8239 288.866 92.626 289.197 92.4892C289.528 92.3524 289.891 92.2802 290.26 92.278V92.278C290.898 92.278 291.511 92.4931 291.962 92.8761C292.413 93.259 292.667 93.7784 292.667 94.32V105.046H280.024C279.385 105.049 278.773 105.267 278.322 105.652C277.871 106.036 277.617 106.557 277.617 107.1V107.1C277.632 107.407 277.727 107.709 277.895 107.982C278.063 108.255 278.299 108.494 278.588 108.68C279.389 109.239 279.968 109.995 280.244 110.843C280.52 111.691 280.48 112.592 280.131 113.42C279.781 114.249 279.138 114.965 278.289 115.472C277.441 115.979 276.429 116.251 275.392 116.251C274.354 116.251 273.342 115.979 272.494 115.472C271.646 114.965 271.003 114.249 270.653 113.42C270.303 112.592 270.264 111.691 270.54 110.843C270.816 109.995 271.394 109.239 272.196 108.68C272.485 108.486 272.721 108.24 272.884 107.959C273.048 107.677 273.135 107.369 273.14 107.056V107.056C273.14 106.511 272.885 105.989 272.431 105.604C271.978 105.219 271.362 105.003 270.72 105.003H258.078V94.2761C258.081 93.7335 258.338 93.2141 258.791 92.8315C259.245 92.4488 259.858 92.234 260.498 92.234V92.234C260.864 92.2364 261.226 92.3087 261.555 92.4455C261.884 92.5823 262.173 92.7802 262.4 93.0245C263.058 93.7094 263.95 94.2046 264.954 94.4423C265.957 94.6799 267.022 94.6484 268.004 94.3519C268.985 94.0554 269.834 93.5085 270.435 92.7863C271.035 92.0641 271.357 91.202 271.357 90.3182C271.357 89.4344 271.035 88.5723 270.435 87.8501C269.834 87.1279 268.985 86.581 268.004 86.2846C267.022 85.9881 265.957 85.9565 264.954 86.1941C263.95 86.4318 263.058 86.927 262.4 87.6119C262.171 87.8545 261.882 88.0511 261.553 88.1877C261.224 88.3244 260.864 88.3977 260.498 88.4024V88.4024C259.856 88.4024 259.24 88.1861 258.787 87.8011C258.333 87.416 258.078 86.8938 258.078 86.3493V75.6229H270.72C271.362 75.6229 271.978 75.4066 272.431 75.0216C272.885 74.6366 273.14 74.1144 273.14 73.5698V73.5698C273.133 73.2583 273.045 72.952 272.881 72.6729C272.718 72.3939 272.484 72.149 272.196 71.9559C271.39 71.3966 270.808 70.6396 270.529 69.7886C270.251 68.9377 270.289 68.0344 270.639 67.2026C270.989 66.3709 271.634 65.6513 272.484 65.1425C273.335 64.6337 274.351 64.3606 275.392 64.3606C276.433 64.3606 277.448 64.6337 278.299 65.1425C279.15 65.6513 279.795 66.3709 280.145 67.2026C280.495 68.0344 280.533 68.9377 280.254 69.7886C279.976 70.6396 279.394 71.3966 278.588 71.9559C278.301 72.1496 278.069 72.3948 277.908 72.6739C277.747 72.9531 277.661 73.2591 277.656 73.5698V73.5698C277.655 73.8389 277.716 74.1057 277.836 74.3547C277.956 74.6037 278.133 74.8301 278.357 75.0209C278.58 75.2117 278.846 75.3631 279.139 75.4664C279.432 75.5697 279.746 75.6229 280.063 75.6229L292.667 75.6668Z" fill="#263238"/>
<path d="M292.667 75.6668H280.024C279.385 75.6639 278.773 75.4463 278.322 75.0616C277.871 74.6769 277.617 74.1564 277.617 73.6138V73.6138C277.619 73.3026 277.704 72.9957 277.865 72.7163C278.027 72.4368 278.261 72.1919 278.549 71.9998C279.351 71.441 279.929 70.6857 280.205 69.8373C280.481 68.9889 280.442 68.0888 280.092 67.2602C279.742 66.4316 279.099 65.7149 278.251 65.2083C277.402 64.7016 276.39 64.4297 275.353 64.4297C274.316 64.4297 273.304 64.7016 272.455 65.2083C271.607 65.7149 270.964 66.4316 270.614 67.2602C270.264 68.0888 270.225 68.9889 270.501 69.8373C270.777 70.6857 271.355 71.441 272.157 71.9998C272.447 72.1913 272.683 72.4358 272.846 72.7153C273.01 72.9947 273.097 73.3018 273.101 73.6138V73.6138C273.101 73.8834 273.039 74.1503 272.917 74.3994C272.796 74.6485 272.617 74.8748 272.393 75.0655C272.168 75.2561 271.901 75.4074 271.608 75.5105C271.314 75.6137 270.999 75.6668 270.682 75.6668H258.039V64.9404C258.039 64.3959 257.784 63.8737 257.33 63.4887C256.877 63.1036 256.261 62.8873 255.619 62.8873V62.8873C255.253 62.8913 254.892 62.9642 254.563 63.1009C254.234 63.2376 253.945 63.4347 253.717 63.6778C253.059 64.3627 252.167 64.8579 251.163 65.0956C250.16 65.3332 249.095 65.3017 248.113 65.0052C247.132 64.7087 246.283 64.1618 245.682 63.4396C245.082 62.7175 244.76 61.8553 244.76 60.9715C244.76 60.0877 245.082 59.2256 245.682 58.5034C246.283 57.7812 247.132 57.2343 248.113 56.9378C249.095 56.6414 250.16 56.6098 251.163 56.8474C252.167 57.0851 253.059 57.5803 253.717 58.2652C253.943 58.5101 254.232 58.7084 254.561 58.8453C254.891 58.9822 255.252 59.0541 255.619 59.0557V59.0557C256.259 59.0557 256.872 58.8409 257.326 58.4582C257.779 58.0756 258.036 57.5562 258.039 57.0136V46.2762H270.682C271.317 46.2761 271.926 46.4879 272.379 46.8658C272.832 47.2438 273.091 47.7576 273.101 48.2963V48.2963C273.096 48.6097 273.009 48.9182 272.845 49.1993C272.682 49.4804 272.447 49.727 272.157 49.9212C271.351 50.4806 270.769 51.2376 270.491 52.0886C270.212 52.9395 270.25 53.8428 270.6 54.6745C270.95 55.5063 271.595 56.2259 272.446 56.7347C273.297 57.2435 274.312 57.5166 275.353 57.5166C276.394 57.5166 277.409 57.2435 278.26 56.7347C279.111 56.2259 279.756 55.5063 280.106 54.6745C280.456 53.8428 280.494 52.9395 280.215 52.0886C279.937 51.2376 279.355 50.4806 278.549 49.9212C278.261 49.7264 278.028 49.4794 277.866 49.1983C277.705 48.9171 277.62 48.609 277.617 48.2963V48.2963C277.617 47.7537 277.871 47.2332 278.322 46.8485C278.773 46.4638 279.385 46.2462 280.024 46.2433H292.667V56.9807C292.67 57.5233 292.927 58.0427 293.38 58.4253C293.834 58.808 294.447 59.0228 295.087 59.0227V59.0227C295.453 59.0212 295.815 58.9493 296.144 58.8124C296.474 58.6755 296.763 58.4772 296.989 58.2323C297.647 57.5474 298.539 57.0522 299.543 56.8145C300.546 56.5768 301.611 56.6084 302.593 56.9049C303.574 57.2014 304.423 57.7482 305.024 58.4704C305.624 59.1926 305.946 60.0548 305.946 60.9386C305.946 61.8224 305.624 62.6845 305.024 63.4067C304.423 64.1289 303.574 64.6758 302.593 64.9722C301.611 65.2687 300.546 65.3003 299.543 65.0627C298.539 64.825 297.647 64.3298 296.989 63.6449C296.761 63.4018 296.472 63.2047 296.143 63.068C295.814 62.9313 295.453 62.8583 295.087 62.8544V62.8544C294.445 62.8544 293.829 63.0707 293.376 63.4557C292.922 63.8407 292.667 64.363 292.667 64.9075V75.6668Z" fill="white"/>
<path d="M154.492 127.476H167.135C167.776 127.476 168.392 127.693 168.846 128.078C169.3 128.463 169.555 128.985 169.555 129.529V129.529C169.549 129.842 169.463 130.149 169.302 130.43C169.141 130.711 168.909 130.958 168.623 131.154C167.815 131.711 167.23 132.466 166.949 133.317C166.668 134.167 166.704 135.07 167.053 135.902C167.402 136.734 168.047 137.454 168.898 137.962C169.749 138.471 170.765 138.743 171.806 138.741C172.848 138.745 173.866 138.475 174.719 137.967C175.572 137.46 176.219 136.74 176.57 135.908C176.92 135.075 176.958 134.171 176.677 133.319C176.396 132.468 175.811 131.712 175.002 131.154C174.714 130.96 174.481 130.713 174.32 130.431C174.158 130.15 174.073 129.842 174.071 129.529V129.529C174.071 128.987 174.324 128.466 174.775 128.082C175.226 127.697 175.838 127.479 176.477 127.476H189.133V138.214C189.133 138.755 189.386 139.275 189.838 139.658C190.289 140.041 190.901 140.256 191.54 140.256V140.256C191.908 140.254 192.271 140.181 192.603 140.045C192.934 139.908 193.225 139.71 193.455 139.465C194.113 138.781 195.005 138.285 196.009 138.048C197.012 137.81 198.077 137.842 199.059 138.138C200.04 138.435 200.889 138.981 201.49 139.704C202.09 140.426 202.412 141.288 202.412 142.172C202.412 143.056 202.09 143.918 201.49 144.64C200.889 145.362 200.04 145.909 199.059 146.205C198.077 146.502 197.012 146.533 196.009 146.296C195.005 146.058 194.113 145.563 193.455 144.878C193.224 144.635 192.932 144.439 192.601 144.302C192.27 144.165 191.908 144.092 191.54 144.088C190.9 144.09 190.288 144.308 189.837 144.693C189.386 145.077 189.133 145.598 189.133 146.141V156.867H176.477C175.838 156.864 175.226 156.647 174.775 156.262C174.324 155.877 174.071 155.357 174.071 154.814V154.814C174.072 154.503 174.157 154.196 174.319 153.916C174.48 153.637 174.714 153.392 175.002 153.2C175.81 152.641 176.393 151.885 176.673 151.033C176.953 150.182 176.916 149.278 176.567 148.446C176.217 147.613 175.573 146.893 174.722 146.383C173.87 145.874 172.854 145.6 171.813 145.6C170.771 145.6 169.755 145.874 168.904 146.383C168.052 146.893 167.408 147.613 167.058 148.446C166.709 149.278 166.672 150.182 166.952 151.033C167.232 151.885 167.816 152.641 168.623 153.2C168.909 153.394 169.142 153.639 169.303 153.918C169.464 154.197 169.55 154.503 169.555 154.814V154.814C169.555 155.358 169.3 155.881 168.846 156.266C168.392 156.651 167.776 156.867 167.135 156.867H154.492V146.141C154.492 145.596 154.237 145.074 153.783 144.689C153.33 144.304 152.714 144.088 152.072 144.088V144.088C151.707 144.094 151.347 144.168 151.018 144.304C150.69 144.441 150.4 144.637 150.17 144.878C149.514 145.564 148.624 146.06 147.621 146.298C146.619 146.537 145.555 146.506 144.574 146.21C143.593 145.913 142.745 145.367 142.146 144.644C141.547 143.922 141.226 143.06 141.229 142.177C141.224 141.293 141.542 140.43 142.14 139.706C142.739 138.982 143.587 138.433 144.568 138.136C145.549 137.838 146.615 137.806 147.618 138.044C148.622 138.283 149.513 138.779 150.17 139.465C150.398 139.709 150.687 139.906 151.016 140.042C151.345 140.179 151.706 140.252 152.072 140.256V140.256C152.39 140.257 152.704 140.206 152.997 140.104C153.291 140.002 153.558 139.851 153.783 139.662C154.008 139.472 154.186 139.246 154.308 138.998C154.43 138.749 154.492 138.483 154.492 138.214V127.476Z" fill="white"/>
<path d="M0 448.489C176.827 447.82 375.173 447.82 552 448.489C375.173 449.17 176.827 449.17 0 448.489V448.489Z" fill="#263238"/>
<path d="M247.596 81.4856C260.433 101.797 249.046 113.654 250.78 120.066C252.168 123.926 253.814 127.716 255.71 131.418L232.586 145.098C229.159 142.3 225.538 139.678 221.742 137.248C215.272 133.636 198.204 138.598 180.204 121.35C168.364 110.02 163.291 84.0767 187.761 69.6064C212.231 55.1362 239.146 68.1572 247.596 81.4856Z" fill="#BA68C8"/>
<path d="M207.358 115.486L206.704 116.049L239.196 143.196L239.849 142.633L207.358 115.486Z" fill="white"/>
<path d="M232.556 100.746L231.707 101.071L250.465 136.336L251.314 136.011L232.556 100.746Z" fill="white"/>
<path d="M228.031 118.616C225.572 120.066 221.936 118.935 219.982 118.133L219.555 117.958C219.559 118.375 219.454 118.789 219.249 119.168C219.043 119.548 218.741 119.884 218.365 120.153C214.987 122.152 208.698 116.981 208.44 116.761L208.763 116.476C208.828 116.476 215.039 121.647 218.106 119.835C218.442 119.577 218.706 119.259 218.881 118.904C219.055 118.549 219.135 118.166 219.115 117.782C216.658 116.678 214.512 115.134 212.826 113.259C211.455 111.601 211.39 110.272 212.658 109.515C213.023 109.278 213.46 109.133 213.918 109.098C214.376 109.063 214.837 109.139 215.246 109.317C217.511 110.218 219.335 113.808 219.607 116.596C219.632 116.914 219.632 117.233 219.607 117.551C222.609 118.891 225.818 119.484 227.772 118.32C229.247 117.442 229.92 115.597 229.674 113.116C229.674 112.885 229.674 112.655 229.584 112.413C226.936 111.794 224.64 110.387 223.114 108.45C221.367 106.32 221.211 104.454 222.7 103.575C222.984 103.409 223.316 103.312 223.66 103.294C224.005 103.277 224.348 103.34 224.654 103.476C226.905 104.377 229.286 108.318 229.972 112.095C230.518 112.183 231.079 112.179 231.623 112.083C232.167 111.987 232.683 111.801 233.142 111.535V111.535C235.73 109.976 232.871 102.851 232.832 102.752L233.272 102.62C233.401 102.927 236.326 110.097 233.414 111.82C232.424 112.387 231.217 112.615 230.037 112.457L230.114 113.05C230.295 114.906 230.114 117.387 228.018 118.605L228.031 118.616ZM222.945 103.872C221.444 104.761 222.234 106.693 223.476 108.197C224.915 109.993 227.019 111.33 229.454 111.996C228.768 108.417 226.504 104.64 224.434 103.817C224.206 103.703 223.944 103.648 223.68 103.658C223.416 103.668 223.161 103.742 222.945 103.872V103.872ZM212.93 109.778C211.545 110.591 212.503 112.128 213.202 112.973C214.799 114.745 216.818 116.212 219.128 117.277C219.128 117.057 219.128 116.816 219.128 116.563C218.856 113.939 217.109 110.437 215.026 109.614C214.695 109.467 214.321 109.405 213.949 109.434C213.578 109.463 213.223 109.583 212.93 109.778V109.778Z" fill="white"/>
<path d="M257.735 128.96L229.211 145.831L233.096 150.559L261.62 133.689L257.735 128.96Z" fill="#DBDBDB"/>
<path d="M262.238 134.472L233.714 151.342L237.599 156.07L266.123 139.2L262.238 134.472Z" fill="#DBDBDB"/>
<path d="M266.212 140.391L237.701 157.207L241.573 161.933L270.084 145.118L266.212 140.391Z" fill="#DBDBDB"/>
<path d="M180.89 111.974C173.462 102.093 172.841 86.7775 184.099 78.7409C176.335 88.6988 177.383 100.929 180.89 111.974Z" fill="white"/>
<path d="M308.803 134.393C309.303 132.636 309.4 130.813 309.088 129.024L312.97 127.608L311.158 123.041L306.953 123.952C305.874 122.367 304.43 120.982 302.708 119.879L304.261 116.585L299.163 114.389L297.054 117.42C294.907 116.913 292.663 116.778 290.454 117.024L288.94 114.093L283.57 115.63L284.528 118.825C282.507 119.779 280.744 121.08 279.351 122.646L276 121.493L273.49 125.808L276.647 127.411C276.048 129.334 275.929 131.342 276.298 133.306L273.024 134.492L274.822 139.048L278.446 138.269C279.627 139.967 281.219 141.434 283.117 142.572L281.732 145.471L286.831 147.601L288.824 144.757C291.018 145.195 293.293 145.251 295.514 144.922L297.041 147.996L302.424 146.459L301.401 143.034C303.247 142.053 304.852 140.778 306.125 139.279L310.007 140.596L312.517 136.292L308.803 134.393ZM291.386 140.783C289.1 140.514 286.96 139.675 285.237 138.372C283.514 137.069 282.287 135.362 281.71 133.466C281.133 131.57 281.233 129.571 281.997 127.724C282.761 125.876 284.155 124.263 286.001 123.089C287.848 121.915 290.064 121.232 292.368 121.128C294.673 121.025 296.962 121.504 298.945 122.506C300.927 123.508 302.515 124.987 303.505 126.755C304.495 128.524 304.844 130.502 304.507 132.439C304.059 135.017 302.428 137.34 299.971 138.902C297.513 140.465 294.428 141.141 291.386 140.783V140.783Z" fill="#DBDBDB"/>
<path d="M300.366 136.556L298.231 137.928L294.258 133.537L292.822 131.868C293.121 131.769 293.4 131.632 293.65 131.462C294.14 131.152 294.52 130.734 294.75 130.254L296.29 131.978L300.366 136.556Z" fill="#DBDBDB"/>
<path d="M296.148 126.093C295.469 125.346 294.552 124.779 293.506 124.459C292.46 124.139 291.327 124.08 290.243 124.287C289.158 124.495 288.166 124.961 287.383 125.631C286.6 126.301 286.059 127.147 285.823 128.069C285.588 128.991 285.668 129.951 286.054 130.836C286.44 131.721 287.116 132.494 288.002 133.064C288.888 133.633 289.948 133.977 291.056 134.053C292.165 134.129 293.276 133.935 294.258 133.493C295.06 133.126 295.75 132.608 296.277 131.978C297.002 131.115 297.381 130.077 297.358 129.017C297.335 127.958 296.91 126.932 296.148 126.093ZM293.637 131.462C293.387 131.632 293.108 131.769 292.809 131.868C292.06 132.122 291.231 132.149 290.461 131.943C289.692 131.737 289.03 131.312 288.588 130.739C288.146 130.167 287.952 129.482 288.037 128.801C288.123 128.121 288.483 127.486 289.058 127.006C289.632 126.525 290.384 126.228 291.188 126.164C291.991 126.101 292.795 126.275 293.464 126.658C294.133 127.04 294.625 127.608 294.857 128.263C295.09 128.919 295.047 129.622 294.737 130.254C294.507 130.734 294.127 131.152 293.637 131.462V131.462Z" fill="#DBDBDB"/>
<path d="M212.283 165.101C213.19 164.122 213.867 163.004 214.276 161.808L217.239 161.862L217.627 158.514L214.664 158.075C214.514 156.807 214.075 155.576 213.37 154.452L215.453 152.772L212.943 150.17L210.549 151.498C209.358 150.657 207.981 150.027 206.499 149.643V147.348L202.617 147.019L202.138 149.281C200.539 149.396 198.987 149.796 197.583 150.455L195.823 148.896L192.769 151.026L194.231 152.816C193.203 153.891 192.45 155.136 192.019 156.472H189.534L189.146 159.765L191.734 160.15C191.902 161.518 192.414 162.839 193.235 164.025L191.385 165.518L193.895 168.12L196.121 166.803C197.367 167.614 198.793 168.204 200.313 168.538L200.249 170.854L204.131 171.195L204.635 168.768C206.139 168.598 207.59 168.181 208.905 167.539L210.924 169.317L213.965 167.187L212.283 165.101ZM199.058 164.915C197.712 164.186 196.651 163.135 196.008 161.895C195.366 160.655 195.171 159.281 195.449 157.947C195.727 156.613 196.465 155.379 197.569 154.4C198.674 153.422 200.095 152.743 201.654 152.45C203.213 152.157 204.839 152.263 206.327 152.754C207.815 153.245 209.098 154.099 210.014 155.209C210.93 156.318 211.438 157.633 211.473 158.988C211.509 160.342 211.07 161.675 210.212 162.818C209.059 164.349 207.237 165.43 205.146 165.823C203.055 166.216 200.866 165.889 199.058 164.915V164.915Z" fill="#DBDBDB"/>
<path d="M271.212 180.208C272.598 179.757 273.868 179.082 274.952 178.221L277.462 179.56L279.882 176.86L277.605 175.18C278.241 174.025 278.602 172.775 278.666 171.502L281.474 170.975L280.904 167.681L278.019 167.857C277.511 166.613 276.709 165.47 275.664 164.497L277.1 162.554L273.943 160.556L272.118 162.247C270.674 161.655 269.101 161.322 267.498 161.27L266.942 159.184L263.06 159.667L263.228 161.862C261.689 162.339 260.286 163.087 259.113 164.058L257.017 162.96L254.649 165.65L256.616 167.099C255.935 168.346 255.573 169.7 255.555 171.074L253.057 171.546L253.639 174.84L256.344 174.675C256.936 175.91 257.816 177.03 258.932 177.969L257.47 179.934L260.64 181.943L262.542 180.087C263.933 180.595 265.428 180.867 266.942 180.889L267.589 183.293L271.471 182.81L271.212 180.208ZM259.993 174.28C259.276 173.066 258.999 171.699 259.198 170.352C259.397 169.005 260.062 167.738 261.109 166.712C262.157 165.686 263.539 164.946 265.082 164.587C266.625 164.228 268.259 164.265 269.778 164.694C271.296 165.122 272.63 165.924 273.611 166.996C274.592 168.068 275.177 169.364 275.29 170.718C275.404 172.072 275.041 173.424 274.248 174.604C273.456 175.783 272.268 176.736 270.837 177.343C269.888 177.746 268.855 177.988 267.796 178.052C266.737 178.117 265.674 178.003 264.666 177.719C263.659 177.434 262.728 176.984 261.926 176.394C261.124 175.804 260.467 175.085 259.993 174.28Z" fill="#BA68C8"/>
<path d="M248.062 177.848C247.863 176.046 247.256 174.295 246.277 172.688L249.447 170.272L245.979 166.452L242.356 168.461C240.723 167.265 238.827 166.355 236.778 165.782L237.011 162.28L231.37 161.654L230.528 165.101C228.306 165.217 226.134 165.706 224.136 166.539L221.548 164.091L217.058 167.023L219.18 169.778C217.652 171.239 216.494 172.951 215.777 174.807L212.14 174.653L211.416 179.418L215.013 180.065C215.172 182.048 215.825 183.978 216.928 185.731L214.263 187.729L217.718 191.549L220.836 189.815C222.606 191.096 224.674 192.046 226.905 192.603L226.698 195.721L232.34 196.347L233.142 193.054C235.382 192.872 237.554 192.3 239.522 191.374L242.11 193.855L246.626 190.924L244.336 187.959C245.721 186.534 246.755 184.888 247.376 183.118L251.543 183.304L252.268 178.539L248.062 177.848ZM234.022 188.684C231.757 189.058 229.412 188.852 227.285 188.093C225.158 187.335 223.345 186.057 222.075 184.422C220.805 182.788 220.136 180.87 220.153 178.912C220.17 176.954 220.872 175.045 222.17 173.427C223.468 171.808 225.303 170.553 227.443 169.821C229.583 169.088 231.931 168.912 234.19 169.314C236.448 169.716 238.515 170.678 240.128 172.078C241.74 173.478 242.827 175.253 243.249 177.178C243.795 179.734 243.134 182.37 241.407 184.515C239.68 186.66 237.027 188.142 234.022 188.64V188.684Z" fill="#37474F"/>
<g opacity="0.6">
<path d="M237.374 175.784C237.374 176.19 237.232 176.587 236.966 176.924C236.7 177.262 236.322 177.525 235.88 177.68C235.438 177.836 234.951 177.877 234.482 177.797C234.012 177.718 233.581 177.523 233.243 177.235C232.904 176.948 232.674 176.582 232.581 176.184C232.487 175.786 232.535 175.373 232.718 174.998C232.901 174.623 233.212 174.302 233.61 174.077C234.007 173.851 234.475 173.731 234.954 173.731C235.596 173.731 236.211 173.947 236.665 174.332C237.119 174.717 237.374 175.239 237.374 175.784V175.784Z" fill="#455A64"/>
<path d="M239.134 181.449V182.239H230.774V181.493C230.774 180.552 231.215 179.65 231.998 178.985C232.782 178.32 233.845 177.947 234.954 177.947C236.062 177.947 237.126 178.32 237.909 178.985C238.693 179.65 239.134 180.552 239.134 181.493V181.449Z" fill="#455A64"/>
</g>
<path d="M231.175 177.024C231.175 177.43 231.033 177.827 230.768 178.165C230.502 178.503 230.124 178.766 229.682 178.921C229.239 179.077 228.753 179.117 228.284 179.038C227.814 178.959 227.383 178.763 227.045 178.476C226.706 178.189 226.476 177.823 226.382 177.425C226.289 177.027 226.337 176.614 226.52 176.239C226.703 175.864 227.013 175.543 227.411 175.317C227.809 175.092 228.277 174.971 228.756 174.971C229.397 174.971 230.013 175.188 230.467 175.573C230.92 175.958 231.175 176.48 231.175 177.024V177.024Z" fill="#37474F"/>
<path d="M232.935 182.689V183.436H224.563V182.689C224.623 181.782 225.09 180.928 225.868 180.303C226.647 179.678 227.678 179.33 228.749 179.33C229.821 179.33 230.852 179.678 231.63 180.303C232.409 180.928 232.876 181.782 232.935 182.689V182.689Z" fill="#37474F"/>
<path d="M360.874 101.577L361.508 97.471L355.841 96.3731C355.874 94.1456 355.521 91.926 354.792 89.7857L359.878 87.4582L358.015 83.6265L352.45 85.0758C351.169 83.1194 349.546 81.3389 347.637 79.7949L350.69 75.6119L346.808 73.0977L342.823 76.6988C340.573 75.5413 338.124 74.6893 335.563 74.1737L335.732 69.2441L330.892 68.7062L329.598 73.5149C326.972 73.4858 324.355 73.7892 321.834 74.4152L319.091 70.0895L314.587 71.6705L316.27 76.3914C313.973 77.485 311.88 78.8613 310.058 80.4756L305.128 77.8955L302.152 81.1892L306.409 84.5488C305.049 86.4634 304.045 88.5446 303.433 90.7189L297.636 90.5872L297.002 94.6823L302.67 95.7802C302.632 98.008 302.985 100.228 303.718 102.368L298.606 104.695L300.496 108.516L306.06 107.089C307.344 109.034 308.957 110.81 310.848 112.358L307.82 116.53L311.702 119.056L315.649 115.454C317.915 116.607 320.376 117.459 322.947 117.98L322.766 122.887L327.592 123.425L328.886 118.627C331.512 118.651 334.128 118.348 336.65 117.727L339.394 122.053L343.91 120.461L342.202 115.74C344.51 114.657 346.609 113.279 348.426 111.656L353.356 114.258L356.306 110.964L352.101 107.583C353.452 105.66 354.455 103.576 355.077 101.401L360.874 101.577ZM329.236 110.613C325.839 110.615 322.518 109.762 319.692 108.163C316.867 106.563 314.664 104.289 313.362 101.627C312.06 98.9647 311.718 96.035 312.38 93.2082C313.041 90.3813 314.675 87.7843 317.076 85.7457C319.477 83.7071 322.537 82.3185 325.868 81.7554C329.199 81.1924 332.653 81.4802 335.791 82.5826C338.929 83.685 341.612 85.5523 343.499 87.9484C345.387 90.3446 346.394 93.1618 346.394 96.0437C346.394 99.9058 344.587 103.61 341.369 106.342C338.152 109.074 333.788 110.61 329.236 110.613V110.613Z" fill="#BA68C8"/>
<path d="M332.742 88.2706C332.745 88.8622 332.54 89.4411 332.155 89.9338C331.769 90.4266 331.219 90.8111 330.576 91.0384C329.932 91.2658 329.223 91.3259 328.539 91.211C327.855 91.0961 327.227 90.8115 326.734 90.3932C326.241 89.9749 325.905 89.4418 325.77 88.8615C325.635 88.2812 325.705 87.6799 325.973 87.1337C326.241 86.5876 326.695 86.1213 327.275 85.794C327.856 85.4667 328.538 85.2932 329.236 85.2953C330.166 85.2953 331.058 85.6088 331.715 86.1668C332.373 86.7248 332.742 87.4815 332.742 88.2706V88.2706Z" fill="#BA68C8"/>
<path d="M332.949 90.7958H325.509V91.707H332.949V90.7958Z" fill="#BA68C8"/>
<path opacity="0.1" d="M332.949 90.7958H325.509V91.707H332.949V90.7958Z" fill="black"/>
<path d="M336.78 103.334H321.692V104.245H336.78V103.334Z" fill="#BA68C8"/>
<path opacity="0.1" d="M336.78 103.334H321.692V104.245H336.78V103.334Z" fill="black"/>
<path d="M336.78 105.892H321.692V106.803H336.78V105.892Z" fill="#BA68C8"/>
<path opacity="0.1" d="M336.78 105.892H321.692V106.803H336.78V105.892Z" fill="black"/>
<path d="M336.21 104.245H322.248V105.892H336.21V104.245Z" fill="#BA68C8"/>
<path d="M332.277 91.707H326.195V92.6183H332.277V91.707Z" fill="#BA68C8"/>
<path d="M335.395 103.334H323.063C324.726 101.872 325.901 100.06 326.467 98.0858C326.958 95.6814 327.191 92.5963 327.191 92.5963H331.267C331.267 92.5963 331.513 95.6595 332.005 98.0858C332.562 100.061 333.733 101.873 335.395 103.334V103.334Z" fill="#BA68C8"/>
</svg>
