<svg width="40" height="40" viewBox="0 0 40 40" fill="none" xmlns="http://www.w3.org/2000/svg">
<rect width="40" height="40" rx="20" fill="#200331"/>
<path d="M21.56 32L18.932 27.23H18.194V32H15.116V19.364H20.282C21.278 19.364 22.124 19.538 22.82 19.886C23.528 20.234 24.056 20.714 24.404 21.326C24.752 21.926 24.926 22.598 24.926 23.342C24.926 24.182 24.686 24.932 24.206 25.592C23.738 26.252 23.042 26.72 22.118 26.996L25.034 32H21.56ZM18.194 25.052H20.102C20.666 25.052 21.086 24.914 21.362 24.638C21.65 24.362 21.794 23.972 21.794 23.468C21.794 22.988 21.65 22.61 21.362 22.334C21.086 22.058 20.666 21.92 20.102 21.92H18.194V25.052Z" fill="white"/>
<path d="M20.0267 14.474C17.5416 14.474 15.4302 15.1171 14.0511 16.1251V18H26.0031V16.1251C24.6241 15.1171 22.5122 14.474 20.0267 14.474ZM31 13.5119L19.9977 9L9 13.5119L10.8333 14.2585V15.4068C10.3736 15.4915 10.3722 15.7058 10.3722 15.9607C10.3722 16.1112 10.4283 16.2875 10.5349 16.3931L9.90606 17.5909H12.1494L11.526 16.3923C11.6308 16.2867 11.7168 16.1313 11.7168 15.9807C11.7168 15.7263 11.293 15.491 11.293 15.4064V14.4503L13.5914 15.3691V15.2877C14.9705 14.2204 17.3935 13.543 20.0262 13.543C22.6598 13.543 25.0837 14.2204 26.4628 15.2877V15.3691L31 13.5119Z" fill="white"/>
</svg>
