<svg width="621" height="629" viewBox="0 0 621 629" fill="none" xmlns="http://www.w3.org/2000/svg">
<path d="M540.16 549.014C529.106 557.528 511.025 508.182 509.784 494.404C508.542 480.627 517.708 488.567 517.708 488.567C517.708 488.567 509.031 443.999 514.486 430.419C519.94 416.838 524.787 432.324 524.787 432.324C524.787 432.324 528.908 386.35 546.632 382.206C564.356 378.062 549.815 428.952 549.815 428.952C549.815 428.952 557.052 416.218 564.184 419.621C571.316 423.023 550.369 480.748 550.369 480.748C550.369 480.748 558.439 470.54 565.174 473.731C571.91 476.922 557.25 535.872 540.16 549.014Z" fill="#4D0E55"/>
<path d="M537.968 545.732C537.812 545.731 537.661 545.667 537.543 545.55C537.424 545.434 537.346 545.273 537.321 545.097C537.189 544.22 524.497 456.763 544.558 391.477C544.581 391.375 544.622 391.28 544.678 391.198C544.735 391.115 544.806 391.047 544.886 390.998C544.967 390.948 545.056 390.918 545.147 390.91C545.239 390.902 545.33 390.916 545.417 390.951C545.503 390.986 545.582 391.041 545.649 391.112C545.716 391.184 545.769 391.27 545.805 391.367C545.841 391.463 545.859 391.567 545.858 391.672C545.857 391.777 545.837 391.88 545.8 391.976C525.857 456.884 538.483 543.963 538.615 544.84C538.63 544.938 538.628 545.039 538.609 545.137C538.59 545.234 538.554 545.326 538.504 545.408C538.454 545.489 538.39 545.559 538.316 545.612C538.242 545.665 538.16 545.701 538.074 545.717H537.968V545.732Z" fill="#D06CC2"/>
<path d="M533.874 477.013C533.735 477.01 533.601 476.957 533.491 476.862C520.944 466.381 519.24 440.43 519.161 439.326C519.155 439.227 519.166 439.127 519.193 439.033C519.221 438.938 519.265 438.851 519.322 438.776C519.379 438.701 519.448 438.639 519.526 438.595C519.604 438.55 519.688 438.524 519.775 438.517C519.862 438.51 519.949 438.523 520.031 438.554C520.114 438.586 520.19 438.636 520.255 438.701C520.321 438.766 520.375 438.846 520.414 438.935C520.452 439.024 520.475 439.121 520.482 439.22C520.482 439.477 522.185 465.066 533.913 475.334C536.053 473.822 547.543 464.113 555.216 434.94C555.241 434.841 555.283 434.748 555.34 434.668C555.396 434.587 555.466 434.52 555.545 434.47C555.624 434.42 555.711 434.389 555.801 434.377C555.891 434.366 555.981 434.375 556.068 434.404C556.155 434.432 556.236 434.48 556.306 434.545C556.377 434.61 556.435 434.69 556.479 434.78C556.522 434.871 556.55 434.97 556.56 435.073C556.57 435.176 556.562 435.28 556.537 435.379C547.899 468.181 534.798 476.574 534.243 476.922C534.13 476.993 534.002 477.025 533.874 477.013Z" fill="#D06CC2"/>
<path d="M535.432 521.762H535.234C527.613 519.07 521.815 502.238 521.578 501.527C521.529 501.345 521.543 501.148 521.616 500.976C521.689 500.805 521.816 500.671 521.971 500.602C522.126 500.533 522.299 500.534 522.454 500.605C522.609 500.676 522.734 500.811 522.806 500.983C522.806 501.149 528.445 517.376 535.326 520.204C536.766 518.995 544.254 512.023 550.013 493.27C550.081 493.098 550.203 492.961 550.354 492.886C550.506 492.812 550.677 492.805 550.833 492.868C550.989 492.931 551.119 493.058 551.197 493.225C551.275 493.392 551.295 493.586 551.254 493.769C544.65 515.063 536.132 521.414 535.775 521.686C535.669 521.746 535.55 521.772 535.432 521.762Z" fill="#D06CC2"/>
<path d="M536.409 435.802C536.319 435.798 536.23 435.773 536.149 435.729C536.067 435.685 535.994 435.622 535.934 435.545C532.302 430.736 531.483 415.553 531.443 414.917C531.438 414.818 531.45 414.719 531.478 414.625C531.507 414.531 531.551 414.444 531.609 414.369C531.666 414.295 531.736 414.234 531.814 414.191C531.893 414.147 531.977 414.122 532.064 414.116C532.151 414.11 532.238 414.124 532.32 414.156C532.402 414.189 532.478 414.239 532.543 414.305C532.608 414.371 532.661 414.451 532.699 414.541C532.737 414.63 532.759 414.727 532.764 414.827C532.764 414.978 533.517 428.785 536.488 433.897C538.271 431.719 544.135 424.097 546.222 415.114C546.245 415.015 546.284 414.921 546.338 414.84C546.392 414.758 546.46 414.689 546.537 414.637C546.614 414.585 546.7 414.551 546.788 414.537C546.877 414.523 546.967 414.529 547.054 414.554C547.141 414.58 547.222 414.625 547.294 414.687C547.365 414.749 547.425 414.826 547.471 414.915C547.516 415.003 547.546 415.101 547.558 415.203C547.571 415.305 547.565 415.408 547.543 415.507C544.994 426.517 537.268 435.167 536.977 435.606C536.902 435.687 536.812 435.747 536.714 435.781C536.615 435.815 536.511 435.823 536.409 435.802Z" fill="#D06CC2"/>
<path d="M553.407 550.738C540.728 553.339 541.52 501.633 545.073 488.869C548.626 476.105 554.027 487.221 554.027 487.221C554.027 487.221 561.503 443.924 570.932 434.29C580.362 424.657 579.398 440.566 579.398 440.566C579.398 440.566 598.667 401.745 615.757 405.98C632.847 410.214 602.682 448.748 602.682 448.748C602.682 448.748 613.407 440.702 618.531 446.903C623.655 453.103 585.513 494.828 585.513 494.828C585.513 494.828 596.184 489.429 601.032 495.236C605.879 501.043 572.966 546.715 553.407 550.738Z" fill="#E5FAD1"/>
<path d="M552.839 546.942H552.68C552.596 546.917 552.517 546.874 552.447 546.814C552.378 546.754 552.319 546.68 552.275 546.594C552.231 546.508 552.202 546.413 552.19 546.315C552.178 546.216 552.183 546.116 552.205 546.02C552.39 545.188 570.893 462.162 610.831 413.345C610.888 413.264 610.959 413.198 611.039 413.15C611.12 413.102 611.208 413.074 611.298 413.067C611.388 413.059 611.479 413.073 611.564 413.108C611.65 413.143 611.728 413.197 611.794 413.268C611.86 413.338 611.913 413.424 611.949 413.519C611.986 413.614 612.004 413.716 612.004 413.82C612.005 413.924 611.986 414.026 611.95 414.121C611.914 414.216 611.861 414.302 611.795 414.373C572.081 462.903 553.684 545.551 553.486 546.383C553.448 546.545 553.363 546.688 553.246 546.789C553.129 546.891 552.986 546.945 552.839 546.942Z" fill="#4D0E55"/>
<path d="M572.57 484.317C572.455 484.316 572.342 484.281 572.242 484.215C572.143 484.148 572.06 484.053 572.002 483.939C564.461 469.073 571.778 445.345 572.082 444.332C572.109 444.236 572.153 444.147 572.212 444.071C572.27 443.995 572.341 443.933 572.42 443.889C572.499 443.845 572.586 443.819 572.674 443.814C572.762 443.808 572.85 443.823 572.933 443.858C573.016 443.892 573.092 443.945 573.157 444.014C573.222 444.083 573.274 444.165 573.31 444.258C573.347 444.35 573.367 444.449 573.369 444.55C573.371 444.651 573.355 444.752 573.323 444.846C573.244 445.088 566.046 468.438 572.927 482.744C575.397 482.291 588.775 478.843 605.482 456.521C605.596 456.369 605.758 456.274 605.933 456.259C606.107 456.243 606.28 456.307 606.413 456.438C606.547 456.568 606.629 456.754 606.643 456.954C606.656 457.154 606.6 457.352 606.486 457.504C587.626 482.684 573.231 484.317 572.623 484.317H572.57Z" fill="#4D0E55"/>
<path d="M558.729 524.605C558.57 524.607 558.415 524.543 558.293 524.424C552.456 518.632 553.011 501.164 553.077 500.423C553.078 500.323 553.097 500.225 553.133 500.134C553.169 500.042 553.221 499.96 553.285 499.893C553.349 499.825 553.424 499.773 553.507 499.739C553.589 499.705 553.676 499.691 553.763 499.698C553.85 499.701 553.935 499.725 554.014 499.766C554.093 499.808 554.164 499.867 554.223 499.94C554.282 500.013 554.327 500.099 554.357 500.192C554.387 500.285 554.401 500.385 554.397 500.484C554.397 500.65 553.816 517.452 558.914 523.032C560.631 522.594 569.599 519.751 581.036 505.762C581.093 505.681 581.164 505.615 581.244 505.567C581.325 505.519 581.413 505.491 581.503 505.484C581.593 505.477 581.684 505.491 581.769 505.525C581.855 505.56 581.933 505.614 581.999 505.685C582.065 505.755 582.118 505.841 582.154 505.936C582.19 506.031 582.209 506.134 582.209 506.237C582.209 506.341 582.191 506.444 582.155 506.539C582.119 506.634 582.066 506.719 582 506.79C568.965 522.715 559.218 524.515 558.808 524.59H558.716L558.729 524.605Z" fill="#4D0E55"/>
<path d="M588.815 448.99C588.674 448.991 588.536 448.94 588.422 448.845C588.308 448.749 588.224 448.615 588.181 448.46C586.61 442.578 591.034 428.8 591.219 428.195C591.249 428.102 591.295 428.017 591.355 427.944C591.414 427.871 591.485 427.812 591.564 427.77C591.643 427.729 591.729 427.706 591.816 427.702C591.902 427.699 591.989 427.715 592.071 427.749C592.152 427.784 592.227 427.837 592.291 427.905C592.354 427.973 592.406 428.054 592.442 428.145C592.478 428.235 592.498 428.333 592.501 428.433C592.505 428.532 592.491 428.631 592.46 428.725C592.46 428.861 588.406 441.368 589.277 447.205C591.628 446.071 599.368 441.927 604.228 434.94C604.278 434.853 604.344 434.779 604.421 434.722C604.498 434.666 604.585 434.628 604.675 434.612C604.765 434.596 604.858 434.601 604.946 434.628C605.034 434.654 605.117 434.702 605.189 434.767C605.26 434.832 605.319 434.914 605.362 435.006C605.405 435.099 605.43 435.201 605.436 435.305C605.443 435.41 605.43 435.514 605.4 435.613C605.369 435.712 605.321 435.802 605.258 435.878C599.262 444.483 589.409 448.763 589.04 448.944C588.968 448.974 588.892 448.989 588.815 448.99Z" fill="#4D0E55"/>
<path d="M534.164 557.619C533.118 558.286 531.884 558.454 530.73 558.088C511.487 552.401 481.6 504.068 486.803 498.684C492.007 493.3 501.793 499.319 502.282 499.592C501.542 498.654 467.019 454.676 472.526 449.005C478.034 443.334 487.728 451.772 488.23 452.196C487.754 451.485 470.809 426.063 472.381 414.252C472.532 413.329 472.915 412.476 473.483 411.799C474.051 411.122 474.779 410.649 475.578 410.438C476.378 410.228 477.213 410.289 477.983 410.615C478.752 410.94 479.421 411.516 479.909 412.271C515.608 465.323 530.466 537.006 534.164 557.619Z" fill="#D06CC2"/>
<path d="M515.238 490.034H515.08C511.501 488.975 498.703 483.743 483.885 460.604C483.781 460.442 483.738 460.239 483.766 460.041C483.793 459.842 483.888 459.664 484.03 459.546C484.172 459.427 484.349 459.378 484.522 459.41C484.696 459.441 484.851 459.55 484.954 459.712C499.482 482.397 511.95 487.554 515.41 488.567C515.553 488.625 515.674 488.737 515.753 488.885C515.832 489.033 515.864 489.208 515.844 489.38C515.824 489.552 515.753 489.711 515.642 489.83C515.532 489.949 515.389 490.021 515.238 490.034Z" fill="#4D0E55"/>
<path d="M527.165 531.592H527.019C526.623 531.486 517.022 528.855 505.056 511.856C505.001 511.779 504.96 511.69 504.936 511.595C504.911 511.499 504.903 511.399 504.913 511.3C504.922 511.201 504.948 511.105 504.989 511.018C505.031 510.93 505.087 510.853 505.155 510.79C505.223 510.728 505.3 510.681 505.384 510.653C505.467 510.625 505.555 510.616 505.641 510.626C505.727 510.637 505.811 510.667 505.888 510.714C505.964 510.762 506.031 510.826 506.086 510.904C517.761 527.539 527.217 530.095 527.31 530.11C527.46 530.159 527.59 530.268 527.677 530.416C527.764 530.565 527.802 530.744 527.785 530.921C527.767 531.099 527.695 531.264 527.582 531.387C527.468 531.51 527.32 531.582 527.165 531.592Z" fill="#4D0E55"/>
<path d="M500.367 452.559C500.256 452.56 500.147 452.529 500.05 452.468C496.695 450.351 490.475 445.799 486.486 439.114C486.388 438.948 486.352 438.744 486.385 438.547C486.419 438.349 486.519 438.176 486.664 438.063C486.81 437.951 486.988 437.909 487.16 437.948C487.332 437.986 487.484 438.101 487.582 438.267C491.426 444.695 497.448 449.111 500.697 451.152C500.821 451.237 500.917 451.365 500.972 451.518C501.026 451.671 501.035 451.84 500.998 451.999C500.96 452.158 500.878 452.299 500.765 452.4C500.651 452.502 500.511 452.557 500.367 452.559Z" fill="#4D0E55"/>
<path d="M561.331 627.987H515.371C511.701 627.989 508.174 626.36 505.533 623.443C502.891 620.526 501.343 616.549 501.212 612.349L499.231 548.696C499.208 547.948 499.317 547.203 499.551 546.504C499.784 545.805 500.139 545.167 500.592 544.628C501.046 544.089 501.589 543.66 502.19 543.367C502.791 543.073 503.438 542.921 504.092 542.919H572.584C573.237 542.921 573.884 543.073 574.485 543.367C575.086 543.66 575.63 544.089 576.083 544.628C576.537 545.167 576.891 545.805 577.125 546.504C577.358 547.203 577.467 547.948 577.444 548.696L575.463 612.349C575.333 616.544 573.788 620.517 571.152 623.433C568.517 626.349 564.996 627.982 561.331 627.987Z" fill="#F68D88"/>
<path d="M572.597 542.919H559.178C558.148 548.061 558.452 555.471 567.235 558.995C570.398 560.319 573.827 560.576 577.114 559.736L577.457 548.696C577.48 547.948 577.372 547.203 577.138 546.504C576.904 545.805 576.55 545.167 576.096 544.628C575.643 544.089 575.099 543.66 574.498 543.367C573.897 543.073 573.25 542.921 572.597 542.919Z" fill="#ECBDBB"/>
<path d="M542.815 563.532C541.019 556.288 544.4 548.001 547.094 542.934H532.355C523.876 559.207 529 588.788 552.06 582.451C563.484 579.306 571.263 580.939 576.387 583.767L576.783 570.973C563.484 561.445 545.364 573.922 542.815 563.532Z" fill="#ECBDBB"/>
<path d="M573.363 620.319C562.137 592.085 542.022 619.775 528.789 590.179C519.742 569.929 507.657 569.899 499.997 572.53L500.433 586.444C524.074 575.857 523.044 620.108 543.158 616.69C553.909 614.83 560.01 621.378 563.352 627.851C565.4 627.51 567.358 626.66 569.088 625.358C570.818 624.057 572.277 622.337 573.363 620.319Z" fill="#ECBDBB"/>
<path d="M511.117 601.521C505.016 603.26 510.787 618.913 516.07 614.754C521.353 610.595 515.74 600.206 511.117 601.521Z" fill="#ECBDBB"/>
<path d="M562.031 590.814C557.844 593.673 565.174 603.805 568.291 599.359C571.408 594.913 565.174 588.667 562.031 590.814Z" fill="#ECBDBB"/>
<path d="M67.649 561.869C76.894 568.992 92.0426 527.69 93.1124 516.151C94.1821 504.612 86.5088 511.267 86.5088 511.267C86.5088 511.267 93.7727 473.943 89.1502 462.585C84.5277 451.228 80.526 464.173 80.526 464.173C80.526 464.173 77.0789 425.685 62.2341 422.222C47.3893 418.759 59.5927 461.36 59.5927 461.36C59.5927 461.36 53.5306 450.774 47.561 453.542C41.5914 456.309 59.1304 504.718 59.1304 504.718C59.1304 504.718 52.3024 496.174 46.7026 498.851C41.1027 501.527 53.3589 550.859 67.649 561.869Z" fill="#4D0E55"/>
<path d="M69.4848 559.237H69.3791C69.2931 559.221 69.2108 559.185 69.1369 559.132C69.0631 559.079 68.9991 559.009 68.9488 558.928C68.8984 558.846 68.8627 558.754 68.8436 558.657C68.8245 558.559 68.8225 558.458 68.8377 558.36C68.9433 557.634 79.5222 484.756 62.8284 430.434C62.7874 430.25 62.8079 430.056 62.8858 429.889C62.9637 429.722 63.0934 429.595 63.2494 429.532C63.4053 429.47 63.576 429.476 63.7279 429.551C63.8798 429.625 64.0019 429.762 64.0699 429.935C80.8826 484.635 70.2508 557.876 70.132 558.617C70.1042 558.791 70.0243 558.948 69.9062 559.061C69.788 559.174 69.6389 559.237 69.4848 559.237Z" fill="#D06CC2"/>
<path d="M72.9186 501.694C72.808 501.694 72.699 501.663 72.6017 501.603C72.1394 501.316 61.1247 494.268 53.8872 466.82C53.8364 466.619 53.8573 466.404 53.9452 466.221C54.0331 466.038 54.1809 465.903 54.356 465.844C54.5312 465.786 54.7193 465.81 54.8791 465.911C55.0388 466.012 55.1571 466.181 55.2079 466.381C61.5737 490.578 71.0565 498.654 72.9451 500.091C82.6787 491.486 84.0787 470.207 84.0919 469.996C84.0979 469.896 84.121 469.799 84.1598 469.71C84.1986 469.621 84.2524 469.542 84.318 469.477C84.3836 469.411 84.4598 469.361 84.5422 469.33C84.6247 469.298 84.7117 469.286 84.7985 469.293C84.8852 469.299 84.9698 469.326 85.0476 469.37C85.1254 469.415 85.1948 469.476 85.2519 469.551C85.3089 469.627 85.3524 469.714 85.38 469.808C85.4076 469.903 85.4187 470.002 85.4126 470.102C85.4126 471.024 83.9202 492.786 73.3809 501.618C73.24 501.707 73.0756 501.734 72.9186 501.694Z" fill="#D06CC2"/>
<path d="M71.6112 539.169C71.4772 539.178 71.3438 539.141 71.2282 539.063C70.9245 538.851 63.7266 533.498 58.2192 515.637C58.1815 515.542 58.1616 515.438 58.1607 515.334C58.1598 515.229 58.1779 515.125 58.2139 515.028C58.2499 514.932 58.3031 514.845 58.3699 514.774C58.4368 514.702 58.5159 514.647 58.6023 514.613C58.6886 514.578 58.7804 514.564 58.8716 514.572C58.9629 514.58 59.0517 514.61 59.1324 514.659C59.2132 514.709 59.284 514.777 59.3405 514.859C59.397 514.942 59.4379 515.037 59.4607 515.138C64.2284 530.624 70.383 536.492 71.6773 537.596C77.3695 535.176 81.992 521.732 82.0449 521.596C82.1164 521.423 82.2422 521.288 82.397 521.218C82.5518 521.147 82.7243 521.146 82.8797 521.215C83.0351 521.284 83.162 521.418 83.235 521.589C83.308 521.761 83.3216 521.958 83.2731 522.14C83.075 522.745 78.2016 536.885 71.7697 539.154L71.6112 539.169Z" fill="#D06CC2"/>
<path d="M70.7923 467.198C70.62 467.199 70.4541 467.123 70.33 466.986C70.0527 466.684 63.5548 459.425 61.4152 450.109C61.3697 449.908 61.3956 449.695 61.4872 449.517C61.5789 449.338 61.7287 449.208 61.9039 449.156C62.079 449.104 62.2651 449.134 62.4211 449.239C62.5771 449.344 62.6904 449.515 62.7359 449.716C64.4396 457.065 69.1678 463.326 70.7659 465.277C73.1828 460.937 73.7903 449.625 73.7903 449.504C73.7936 449.404 73.8145 449.306 73.8518 449.215C73.8892 449.125 73.9422 449.044 74.0076 448.977C74.073 448.911 74.1495 448.86 74.2325 448.829C74.3154 448.797 74.4031 448.785 74.4903 448.793C74.577 448.799 74.6619 448.824 74.7401 448.868C74.8183 448.911 74.8883 448.972 74.946 449.046C75.0036 449.121 75.0479 449.208 75.0762 449.302C75.1045 449.396 75.1164 449.495 75.111 449.595C75.111 450.139 74.3978 462.873 71.3338 466.941C71.2736 467.018 71.2005 467.081 71.1188 467.125C71.0372 467.169 70.9486 467.194 70.8583 467.198H70.7923Z" fill="#D06CC2"/>
<path d="M56.5682 563.305C67.1339 565.483 66.5264 522.201 63.5548 511.509C60.5831 500.817 56.0663 510.117 56.0663 510.117C56.0663 510.117 49.8061 473.822 41.9083 465.837C34.0104 457.852 34.8293 471.085 34.8293 471.085C34.8293 471.085 18.6902 438.585 4.38686 442.124C-9.91645 445.663 15.3356 477.935 15.3356 477.935C15.3356 477.935 6.35472 471.206 2.03599 476.423C-2.28274 481.641 29.6653 516.545 29.6653 516.545C29.6653 516.545 20.7241 512.008 16.6695 516.892C12.6149 521.777 40.1782 559.933 56.5682 563.305Z" fill="#E5FAD1"/>
<path d="M57.0436 560.25C56.8972 560.249 56.7556 560.191 56.6408 560.087C56.5261 559.983 56.4448 559.838 56.4096 559.676C56.2512 558.98 40.8384 489.807 7.62254 449.277C7.55644 449.206 7.50376 449.121 7.46778 449.025C7.4318 448.93 7.41329 448.828 7.41339 448.724C7.41349 448.62 7.43221 448.518 7.46838 448.423C7.50455 448.328 7.5574 448.242 7.62364 448.172C7.68989 448.101 7.76812 448.047 7.85346 448.012C7.93881 447.977 8.02946 447.963 8.11977 447.971C8.21008 447.978 8.29813 448.006 8.37845 448.054C8.45877 448.102 8.52964 448.168 8.58666 448.249C42.0535 489.081 57.5455 558.647 57.6907 559.388C57.7126 559.485 57.7176 559.585 57.7055 559.683C57.6934 559.782 57.6644 559.877 57.6203 559.963C57.5761 560.048 57.5176 560.123 57.4481 560.183C57.3786 560.243 57.2995 560.286 57.2153 560.311H57.0436V560.25Z" fill="#4D0E55"/>
<path d="M40.5218 507.819C40.0068 507.819 27.8694 506.442 12.1001 485.331C11.9863 485.178 11.93 484.98 11.9436 484.78C11.9572 484.58 12.0396 484.395 12.1727 484.264C12.3059 484.134 12.4787 484.07 12.6533 484.085C12.828 484.101 12.99 484.195 13.1038 484.348C26.8789 502.813 37.9861 505.822 40.2181 506.246C45.8971 494.314 39.9011 474.896 39.8351 474.699C39.8027 474.605 39.7871 474.504 39.7893 474.403C39.7914 474.302 39.8113 474.203 39.8476 474.111C39.884 474.018 39.9361 473.936 40.0008 473.867C40.0656 473.798 40.1418 473.745 40.2248 473.711C40.3079 473.676 40.3961 473.661 40.4842 473.667C40.5724 473.672 40.6587 473.698 40.7381 473.742C40.8176 473.786 40.8884 473.848 40.9465 473.924C41.0047 474 41.0489 474.089 41.0765 474.185C41.3407 475.032 47.482 494.949 41.0765 507.456C41.0184 507.565 40.9371 507.656 40.8401 507.719C40.743 507.783 40.6336 507.817 40.5218 507.819Z" fill="#4D0E55"/>
<path d="M52.1041 541.558H51.9984C51.655 541.558 43.4666 540.046 32.5179 526.617C32.4518 526.546 32.3991 526.46 32.3632 526.365C32.3272 526.27 32.3087 526.167 32.3088 526.064C32.3089 525.96 32.3276 525.857 32.3638 525.762C32.3999 525.667 32.4528 525.582 32.519 525.511C32.5853 525.44 32.6635 525.386 32.7489 525.352C32.8342 525.317 32.9248 525.303 33.0152 525.31C33.1055 525.317 33.1935 525.346 33.2738 525.394C33.3542 525.441 33.425 525.508 33.482 525.588C42.9251 537.127 50.3475 539.592 51.8928 540.001C56.0926 535.327 55.604 521.399 55.604 521.263C55.6004 521.164 55.614 521.065 55.644 520.971C55.6739 520.878 55.7197 520.792 55.7785 520.719C55.8374 520.646 55.9083 520.587 55.9871 520.546C56.066 520.504 56.1512 520.48 56.2379 520.477C56.3255 520.468 56.4137 520.481 56.4968 520.513C56.5799 520.546 56.6562 520.598 56.7207 520.667C56.7853 520.735 56.8368 520.818 56.8719 520.91C56.907 521.002 56.925 521.102 56.9247 521.203C56.9247 521.823 57.453 536.507 52.5267 541.407C52.4052 541.512 52.256 541.565 52.1041 541.558Z" fill="#4D0E55"/>
<path d="M26.9047 478.268C26.8261 478.284 26.7456 478.284 26.667 478.268C26.3236 478.117 18.0824 474.533 13.0373 467.289C12.9745 467.212 12.9262 467.122 12.8955 467.024C12.8648 466.925 12.8523 466.82 12.8588 466.716C12.8653 466.611 12.8907 466.51 12.9334 466.417C12.976 466.324 13.035 466.243 13.1066 466.178C13.1782 466.113 13.2608 466.065 13.3492 466.038C13.4376 466.012 13.5299 466.006 13.6202 466.023C13.7106 466.039 13.797 466.077 13.8739 466.133C13.9509 466.19 14.0168 466.264 14.0674 466.351C18.0296 472.068 24.3293 475.425 26.4161 476.514C27.0632 471.599 23.7746 461.391 23.7746 461.255C23.7443 461.161 23.7303 461.062 23.7335 460.962C23.7366 460.863 23.7569 460.765 23.793 460.674C23.8292 460.584 23.8806 460.502 23.9443 460.434C24.008 460.367 24.0827 460.314 24.1643 460.279C24.2458 460.244 24.3325 460.228 24.4194 460.232C24.5063 460.236 24.5918 460.259 24.6709 460.3C24.75 460.342 24.8212 460.4 24.8804 460.473C24.9397 460.546 24.9858 460.632 25.0161 460.725C25.1746 461.209 28.899 472.824 27.5651 477.769C27.5168 477.923 27.4265 478.054 27.3074 478.144C27.1884 478.234 27.0471 478.278 26.9047 478.268Z" fill="#4D0E55"/>
<path d="M81.7938 627.987H43.2819C40.2057 627.989 37.2484 626.626 35.0318 624.184C32.8151 621.741 31.5117 618.41 31.3955 614.89L29.7842 561.596C29.7647 560.97 29.8554 560.346 30.051 559.76C30.2465 559.175 30.5428 558.641 30.9223 558.189C31.3018 557.738 31.7568 557.378 32.2601 557.132C32.7634 556.886 33.3047 556.759 33.852 556.757H91.1973C91.7446 556.759 92.2859 556.886 92.7893 557.132C93.2926 557.378 93.7475 557.738 94.127 558.189C94.5065 558.641 94.8028 559.175 94.9984 559.76C95.1939 560.346 95.2846 560.97 95.2651 561.596L93.6803 614.89C93.564 618.41 92.2606 621.741 90.0439 624.184C87.8273 626.626 84.87 627.989 81.7938 627.987Z" fill="#F68D88"/>
<path d="M91.1972 556.757H79.958C79.0863 561.067 79.3504 567.343 86.7068 570.217C89.3542 571.324 92.2235 571.539 94.9745 570.837L95.265 561.596C95.2845 560.97 95.1938 560.346 94.9983 559.76C94.8027 559.175 94.5064 558.641 94.1269 558.189C93.7474 557.738 93.2925 557.378 92.7892 557.132C92.2859 556.886 91.7445 556.759 91.1972 556.757Z" fill="#ECBDBB"/>
<path d="M66.2624 574.012C64.7568 567.963 67.5831 561.007 69.8415 556.757H57.4929C50.3874 570.368 54.693 595.155 73.9886 589.831C83.5505 587.2 90.0748 588.591 94.3539 590.935L94.6841 580.228C83.5637 572.304 68.4152 582.723 66.2624 574.012Z" fill="#ECBDBB"/>
<path d="M91.8311 621.559C82.4277 597.907 65.5886 621.106 54.5078 596.319C46.9269 579.366 36.7706 579.336 30.3916 581.544L30.7482 593.189C50.5589 584.326 49.6872 621.378 66.5263 618.474C75.5203 616.962 80.6315 622.406 83.4314 627.82C85.1452 627.54 86.7849 626.835 88.2357 625.753C89.6866 624.672 90.9137 623.241 91.8311 621.559Z" fill="#ECBDBB"/>
<path d="M39.7161 605.831C34.6049 607.344 39.4388 620.395 43.8631 616.917C48.2875 613.438 43.5858 604.727 39.7161 605.831Z" fill="#ECBDBB"/>
<path d="M82.3485 596.863C78.8486 599.253 84.9899 607.737 87.6313 604.017C90.2728 600.296 85.0031 595.064 82.3485 596.863Z" fill="#ECBDBB"/>
<path d="M285.183 474.744H95.001C95.001 474.744 63.568 370.713 65.5491 311.158C66.7509 274.998 78.0166 249.803 98.6858 237.055C112.038 228.737 129.339 225.712 150.392 228.238C204.845 234.786 227.561 302.008 231.1 336.035H279.901C280.9 336.036 281.898 336.127 282.885 336.308H283.018C284.016 336.491 284.997 336.78 285.949 337.17C286.54 337.408 287.118 337.686 287.68 338.001C293.227 341.177 298.404 349.041 298.985 367.99C299.817 396.755 295.379 432.4 285.183 474.744Z" fill="#D9D9D9"/>
<path d="M259.918 475.501H259.76C259.59 475.454 259.444 475.332 259.352 475.162C259.261 474.992 259.231 474.788 259.271 474.593C263.484 454.812 267.697 410.456 268.648 389.783C268.82 385.942 268.86 381.798 268.899 377.397C269.044 360.293 269.203 340.905 278.54 336.565C278.622 336.515 278.711 336.486 278.803 336.478C278.895 336.471 278.987 336.485 279.074 336.521C279.16 336.557 279.239 336.613 279.306 336.686C279.373 336.759 279.425 336.846 279.46 336.944C279.495 337.041 279.512 337.146 279.51 337.252C279.508 337.357 279.486 337.461 279.447 337.556C279.407 337.651 279.351 337.736 279.281 337.805C279.212 337.874 279.13 337.925 279.042 337.956C270.524 341.979 270.352 360.837 270.22 377.473C270.22 381.889 270.141 386.047 269.969 389.919C269.031 410.638 264.792 455.145 260.565 475.001C260.518 475.153 260.43 475.282 260.313 475.372C260.197 475.462 260.059 475.507 259.918 475.501Z" fill="#D06CC2"/>
<path d="M181.6 484.317L204.765 622.724C204.892 623.487 204.869 624.272 204.7 625.024C204.531 625.776 204.219 626.476 203.786 627.074C203.353 627.672 202.811 628.153 202.197 628.484C201.583 628.814 200.913 628.985 200.235 628.985C199.238 628.985 198.269 628.615 197.471 627.931C196.673 627.246 196.091 626.284 195.811 625.189L159.808 484.317H181.6Z" fill="#D06CC2"/>
<path d="M109.952 484.317L86.7862 622.724C86.6599 623.487 86.6822 624.272 86.8515 625.024C87.0207 625.776 87.3328 626.476 87.7655 627.074C88.1981 627.672 88.7407 628.153 89.3545 628.484C89.9682 628.814 90.6381 628.985 91.3163 628.985C92.313 628.985 93.2829 628.615 94.0806 627.931C94.8783 627.246 95.4608 626.284 95.7406 625.189L131.743 484.317H109.952Z" fill="#D06CC2"/>
<path d="M272.399 484.317L295.564 622.724C295.691 623.487 295.668 624.272 295.499 625.024C295.33 625.776 295.018 626.476 294.585 627.074C294.152 627.672 293.61 628.153 292.996 628.484C292.382 628.814 291.712 628.985 291.034 628.985C290.037 628.985 289.068 628.615 288.27 627.931C287.472 627.246 286.89 626.284 286.61 625.189L250.607 484.317H272.399Z" fill="#4D0E55"/>
<path d="M200.751 484.317L177.585 622.724C177.459 623.487 177.481 624.272 177.65 625.024C177.82 625.776 178.132 626.476 178.564 627.074C178.997 627.672 179.54 628.153 180.153 628.484C180.767 628.814 181.437 628.985 182.115 628.985C183.112 628.985 184.082 628.615 184.88 627.931C185.677 627.246 186.26 626.284 186.54 625.189L222.542 484.317H200.751Z" fill="#4D0E55"/>
<path d="M285.17 474.744L277.246 491.879H100.125L94.9875 474.744H285.17Z" fill="#D06CC2"/>
<path d="M128.336 492.635H110.665C110.49 492.635 110.322 492.555 110.198 492.414C110.074 492.272 110.004 492.079 110.004 491.879C110.004 491.678 110.074 491.486 110.198 491.344C110.322 491.202 110.49 491.123 110.665 491.123H128.336C128.511 491.123 128.679 491.202 128.803 491.344C128.927 491.486 128.996 491.678 128.996 491.879C128.996 492.079 128.927 492.272 128.803 492.414C128.679 492.555 128.511 492.635 128.336 492.635Z" fill="#4D0E55"/>
<path d="M180.002 492.635H164.154C163.979 492.635 163.811 492.555 163.687 492.414C163.563 492.272 163.493 492.079 163.493 491.879C163.493 491.678 163.563 491.486 163.687 491.344C163.811 491.202 163.979 491.123 164.154 491.123H180.002C180.177 491.123 180.345 491.202 180.469 491.344C180.593 491.486 180.663 491.678 180.663 491.879C180.663 492.079 180.593 492.272 180.469 492.414C180.345 492.555 180.177 492.635 180.002 492.635Z" fill="#4D0E55"/>
<path d="M285.183 474.744L279.491 491.879H181.574C180.451 487.614 179.011 481.792 177.493 474.744H285.183Z" fill="#4D0E55"/>
<path d="M207.631 97.1659C207.631 97.1659 207.526 96.9391 207.301 96.5308C205.743 93.6876 198.333 82.3453 180.557 84.4323C160.257 86.8973 152.333 115.253 158.606 126.974C164.88 138.694 153.112 144.048 140.935 149.915C128.758 155.783 118.985 174.868 130.541 192.078C142.098 209.289 201.028 213.251 204.831 192.835C208.635 172.418 196.577 155.965 198.017 139.511L207.631 97.1659Z" fill="#4D0E55"/>
<path d="M195.771 142.354L193.883 153.424L191.968 164.645L181.732 163.133L183.502 141.688L184.043 135.155L195.771 142.354Z" fill="#ECBDBB"/>
<path d="M195.771 142.354L193.883 153.424C187.768 152.516 184.875 146.77 183.502 141.688L184.043 135.155L195.771 142.354Z" fill="#4D0E55"/>
<path d="M159.28 162.951C159.28 162.951 183.053 151.428 207.658 165.22L203.035 181.477L162.595 179.783L159.28 162.951Z" fill="#F68D88"/>
<path d="M132.205 199.247C132.205 199.247 153.667 173.916 182.062 174.672C210.457 175.428 226.966 201.515 226.966 201.515C226.966 201.515 241.494 227.603 241.164 240.457C240.834 253.312 232.909 288.851 232.909 288.851C235.236 299.387 238.442 309.643 242.485 319.476C248.758 334.221 281.446 361.442 286.728 367.491C292.011 373.541 296.304 432.717 226.636 432.717C156.969 432.717 130.224 411.726 130.224 360.308C130.224 308.889 132.205 199.247 132.205 199.247Z" fill="#F68D88"/>
<path d="M201.741 180.267C201.658 180.286 201.573 180.286 201.49 180.267C195.327 177.298 188.733 175.677 182.049 175.488C176.196 175.367 170.361 176.275 164.748 178.18C164.661 178.208 164.57 178.216 164.481 178.204C164.392 178.192 164.305 178.159 164.227 178.109C164.148 178.058 164.079 177.99 164.024 177.909C163.968 177.828 163.927 177.735 163.903 177.636C163.878 177.537 163.871 177.433 163.882 177.33C163.893 177.228 163.921 177.129 163.965 177.039C164.009 176.949 164.069 176.87 164.139 176.807C164.21 176.743 164.291 176.696 164.378 176.668C170.123 174.716 176.097 173.788 182.089 173.916C188.928 174.119 195.674 175.786 201.979 178.831C202.11 178.903 202.217 179.022 202.283 179.171C202.349 179.32 202.37 179.49 202.343 179.654C202.316 179.818 202.242 179.967 202.133 180.078C202.024 180.189 201.886 180.256 201.741 180.267Z" fill="#ECBDBB"/>
<path d="M282.331 569.506L280.033 579.699L275.727 598.739H263.616L267.684 577.188L269.124 569.506H282.331Z" fill="#ECBDBB"/>
<path d="M282.331 569.506L280.033 579.699L267.684 577.188L269.124 569.506H282.331Z" fill="#4D0E55"/>
<path d="M317.316 629H254.807C254.758 626.982 254.802 624.963 254.939 622.951C255.683 612.804 258.023 602.896 261.846 593.703C269.559 595.971 278.58 593.96 278.58 593.96C278.58 593.96 313.143 614.119 314.675 616.902C315.509 618.808 316.088 620.847 316.392 622.951C316.973 626.036 317.316 629 317.316 629Z" fill="#F68D88"/>
<path d="M317.316 629H254.807C254.758 626.982 254.802 624.963 254.939 622.951H316.392C316.973 626.036 317.316 629 317.316 629Z" fill="#4D0E55"/>
<path d="M258.162 368.928C235.855 367.083 220.165 394.471 231.259 416.702C234.059 422.313 237.863 426.532 241.825 428.347C255.032 434.396 282.767 432.385 282.767 432.385L262.956 573.029H287.165C287.165 573.029 334.274 425.836 336.467 406.675C338.659 387.514 327.446 375.673 307.187 373.404C295.38 372.089 273.918 370.244 258.162 368.928Z" fill="#4D0E55"/>
<path d="M271.646 566.36H271.514C271.428 566.342 271.346 566.304 271.272 566.25C271.199 566.195 271.136 566.124 271.087 566.041C271.038 565.958 271.003 565.864 270.986 565.766C270.969 565.668 270.969 565.566 270.986 565.468L297.598 408.989L239.21 401.14C239.123 401.129 239.038 401.098 238.962 401.049C238.886 401.001 238.818 400.935 238.764 400.856C238.71 400.777 238.67 400.687 238.647 400.59C238.624 400.494 238.617 400.393 238.628 400.293C238.652 400.097 238.74 399.918 238.875 399.794C239.01 399.67 239.182 399.611 239.355 399.628L298.457 407.568C298.546 407.58 298.633 407.614 298.711 407.666C298.789 407.719 298.856 407.789 298.91 407.873C298.963 407.956 299.001 408.052 299.02 408.153C299.04 408.254 299.042 408.358 299.025 408.46L272.28 565.74C272.253 565.911 272.175 566.066 272.059 566.179C271.944 566.292 271.798 566.356 271.646 566.36Z" fill="#D06CC2"/>
<path d="M284.087 430.872C283.987 430.873 283.887 430.847 283.797 430.797C283.641 430.706 283.523 430.549 283.469 430.359C283.414 430.169 283.428 429.962 283.506 429.783C283.929 428.8 294.151 405.738 309.418 399.915C309.501 399.884 309.588 399.871 309.675 399.877C309.761 399.884 309.846 399.91 309.924 399.955C310.002 399.999 310.071 400.06 310.129 400.135C310.186 400.21 310.229 400.297 310.257 400.392C310.285 400.486 310.296 400.586 310.29 400.685C310.284 400.784 310.261 400.881 310.223 400.97C310.184 401.06 310.131 401.139 310.065 401.205C310 401.27 309.923 401.32 309.841 401.352C295.089 406.978 284.748 430.222 284.748 430.464C284.687 430.601 284.591 430.713 284.473 430.786C284.355 430.859 284.22 430.889 284.087 430.872Z" fill="#D06CC2"/>
<path d="M215.186 569.506L212.941 579.427L208.582 598.739H196.484L200.42 577.763L201.979 569.506H215.186Z" fill="#ECBDBB"/>
<path d="M215.186 569.506L212.941 579.427L200.42 577.763L201.979 569.506H215.186Z" fill="#4D0E55"/>
<path d="M250.184 629H187.675C187.626 626.982 187.67 624.963 187.807 622.951C188.551 612.804 190.891 602.896 194.714 593.703C202.427 595.971 211.448 593.96 211.448 593.96C211.448 593.96 246.011 614.119 247.543 616.902C248.377 618.808 248.956 620.847 249.26 622.951C249.841 626.036 250.184 629 250.184 629Z" fill="#F68D88"/>
<path d="M250.184 629H187.675C187.626 626.982 187.67 624.963 187.807 622.951H249.26C249.841 626.036 250.184 629 250.184 629Z" fill="#4D0E55"/>
<path d="M269.335 406.675C267.142 425.836 220.033 573.029 220.033 573.029H195.824L215.635 432.385C208.293 432.868 200.933 432.868 193.592 432.385C186.737 431.855 179.685 430.721 174.693 428.437C161.485 422.388 150.035 389.616 171.602 367.431C171.602 367.431 219.887 371.227 240.068 373.48C260.248 375.733 271.54 387.529 269.335 406.675Z" fill="black"/>
<path d="M231.259 408.324C224.799 415.171 219.501 423.329 215.635 432.385C208.293 432.868 200.934 432.868 193.592 432.385L231.259 408.324Z" fill="#4D0E55"/>
<path d="M204.515 566.36H204.382C204.296 566.342 204.214 566.304 204.141 566.25C204.067 566.195 204.004 566.124 203.955 566.041C203.906 565.958 203.872 565.864 203.854 565.766C203.837 565.668 203.837 565.566 203.854 565.468L230.467 408.989L172.078 401.14C171.991 401.129 171.907 401.098 171.83 401.049C171.754 401.001 171.687 400.935 171.633 400.856C171.578 400.777 171.539 400.687 171.515 400.59C171.492 400.494 171.486 400.393 171.497 400.293C171.52 400.097 171.608 399.918 171.744 399.794C171.879 399.67 172.051 399.611 172.223 399.628L231.325 407.568C231.415 407.58 231.501 407.614 231.579 407.666C231.657 407.719 231.725 407.789 231.778 407.873C231.831 407.956 231.869 408.052 231.889 408.153C231.908 408.254 231.91 408.358 231.893 408.46L205.148 565.74C205.121 565.911 205.043 566.066 204.928 566.179C204.812 566.292 204.666 566.356 204.515 566.36Z" fill="#4D0E55"/>
<path d="M216.942 430.872C216.842 430.873 216.742 430.847 216.652 430.797C216.496 430.706 216.378 430.549 216.324 430.359C216.269 430.169 216.283 429.962 216.361 429.783C216.784 428.8 227.006 405.738 242.273 399.915C242.44 399.851 242.622 399.865 242.779 399.955C242.936 400.044 243.056 400.201 243.112 400.392C243.168 400.582 243.156 400.79 243.078 400.97C243 401.151 242.863 401.288 242.696 401.352C227.944 406.978 217.603 430.222 217.603 430.464C217.542 430.601 217.446 430.713 217.328 430.786C217.21 430.859 217.076 430.889 216.942 430.872Z" fill="#4D0E55"/>
<path d="M219.597 193.455C207.169 185.893 188.996 200.003 197.369 224.714C205.743 249.425 262.507 304.988 272.518 305.366C282.529 305.744 281.895 274.62 281.895 274.62C281.895 274.62 241.389 206.808 219.597 193.455Z" fill="#F68D88"/>
<path d="M237.36 286.023L249.907 199.822H205.333L192.786 286.023H237.36Z" fill="#4D0E55"/>
<path d="M200.803 196.313L205.333 199.822H249.907L245.377 196.313H200.803Z" fill="#E9F3FF"/>
<path d="M200.803 196.313L188.256 282.515L192.787 286.023L205.333 199.822L200.803 196.313Z" fill="#D06CC2"/>
<path d="M272.518 305.366C269.44 304.927 261.952 296.519 256.828 290.243C253.698 286.447 251.4 283.437 251.4 283.437C246.117 264.775 258.228 257.35 258.228 257.35C258.228 257.35 261.16 258.968 265.161 261.494L265.32 261.584C272.954 266.424 284.325 274.454 286.623 280.791C290.136 290.485 289.304 307.755 272.518 305.366Z" fill="#F68D88"/>
<path d="M267.367 302.628C267.214 302.631 267.064 302.572 266.944 302.462C263.863 299.488 260.931 296.317 258.162 292.965C258.101 292.893 258.053 292.809 258.021 292.716C257.989 292.623 257.973 292.524 257.974 292.425C257.975 292.325 257.994 292.227 258.028 292.135C258.063 292.043 258.113 291.96 258.175 291.891C258.237 291.821 258.311 291.767 258.392 291.73C258.473 291.693 258.559 291.675 258.647 291.676C258.734 291.678 258.82 291.699 258.9 291.738C258.98 291.777 259.052 291.835 259.113 291.906C261.845 295.215 264.737 298.346 267.777 301.282C267.883 301.38 267.96 301.513 267.998 301.663C268.036 301.814 268.032 301.973 267.987 302.121C267.942 302.268 267.858 302.396 267.747 302.487C267.636 302.578 267.504 302.627 267.367 302.628Z" fill="#ECBDBB"/>
<path d="M277.114 270.688C276.977 270.69 276.843 270.642 276.731 270.552C273.931 268.284 270.563 265.864 266.72 263.369C266.577 263.265 266.475 263.102 266.434 262.915C266.393 262.727 266.417 262.529 266.5 262.36C266.582 262.192 266.719 262.066 266.88 262.009C267.041 261.952 267.215 261.968 267.367 262.053C271.25 264.579 274.657 267.029 277.484 269.327C277.593 269.421 277.674 269.551 277.716 269.7C277.758 269.848 277.759 270.008 277.719 270.157C277.678 270.307 277.598 270.438 277.49 270.533C277.382 270.628 277.25 270.682 277.114 270.688Z" fill="#ECBDBB"/>
<path d="M256.828 290.243C253.698 286.447 251.4 283.437 251.4 283.437C246.117 264.775 258.228 257.35 258.228 257.35C258.228 257.35 261.16 258.968 265.161 261.494C266.271 267.679 267.076 280.881 256.828 290.243Z" fill="#D06CC2"/>
<path d="M241.6 266.923L246.117 268.314L254.595 278.023C254.595 278.023 260.763 269.826 257.897 261.267L250.197 255.217L245.575 242.862L241.6 266.923Z" fill="#ECBDBB"/>
<path d="M244.954 240.2C242.73 236.908 239.915 234.201 236.7 232.261C234.56 230.945 232.408 234.121 234.468 238.461C234.468 238.461 231.113 241.486 234.336 246.31C234.336 246.31 231.008 249.531 234.23 253.872C234.23 253.872 230.347 255.535 233.081 260.178C235.815 264.821 241.005 268.874 242.828 267.86C244.651 266.847 243.33 261.811 243.33 261.811C243.33 261.811 246.909 259.361 244.651 253.811C244.651 253.811 247.186 251.043 244.981 246.567C244.954 246.567 247.926 244.873 244.954 240.2Z" fill="#ECBDBB"/>
<path d="M241.6 260.979C241.497 260.979 241.396 260.952 241.305 260.9C241.213 260.847 241.133 260.771 241.072 260.677C239.475 258.456 237.497 256.633 235.261 255.323C235.115 255.229 235.007 255.075 234.957 254.892C234.907 254.71 234.919 254.513 234.991 254.34C235.063 254.168 235.19 254.033 235.345 253.963C235.5 253.892 235.673 253.892 235.828 253.962C238.262 255.369 240.408 257.348 242.128 259.77C242.202 259.882 242.247 260.015 242.258 260.155C242.269 260.295 242.245 260.436 242.191 260.561C242.136 260.687 242.051 260.793 241.947 260.866C241.843 260.94 241.723 260.979 241.6 260.979Z" fill="#4D0E55"/>
<path d="M242.762 253.569C242.652 253.569 242.543 253.537 242.446 253.476C242.349 253.415 242.267 253.328 242.207 253.221C240.513 250.596 238.232 248.543 235.604 247.278C235.441 247.204 235.31 247.058 235.241 246.874C235.172 246.69 235.169 246.481 235.234 246.295C235.299 246.108 235.426 245.959 235.587 245.88C235.748 245.8 235.93 245.797 236.092 245.871C238.989 247.243 241.498 249.504 243.343 252.405C243.409 252.521 243.445 252.655 243.448 252.794C243.451 252.932 243.421 253.069 243.361 253.189C243.301 253.309 243.214 253.408 243.108 253.475C243.002 253.542 242.883 253.574 242.762 253.569Z" fill="#4D0E55"/>
<path d="M242.762 246.007C242.652 246.007 242.543 245.975 242.446 245.915C242.349 245.854 242.267 245.766 242.207 245.66C240.519 242.983 238.331 240.772 235.802 239.187C235.646 239.095 235.529 238.935 235.475 238.744C235.422 238.552 235.437 238.345 235.518 238.166C235.599 237.988 235.738 237.853 235.905 237.792C236.072 237.731 236.254 237.749 236.409 237.841C239.149 239.539 241.512 241.935 243.317 244.843C243.381 244.957 243.417 245.089 243.421 245.224C243.425 245.36 243.397 245.494 243.341 245.613C243.284 245.732 243.2 245.832 243.099 245.901C242.997 245.971 242.881 246.007 242.762 246.007Z" fill="#4D0E55"/>
<path d="M181.507 283.18C181.507 283.18 177.77 286.341 171.972 290.742C161.565 298.545 144.528 310.19 130.66 314.243C109.093 320.549 94.3405 317.268 93.2443 301.388C92.1481 285.509 111.734 223.217 132.205 199.307C144.528 184.94 164.338 221.493 155.093 238.885C149.295 249.788 141.45 265.592 141.45 265.592L157.616 260.284L166.768 257.259C182.168 264.019 181.507 283.18 181.507 283.18Z" fill="#F68D88"/>
<path d="M130.66 314.939C130.485 314.963 130.309 314.906 130.17 314.781C130.031 314.656 129.942 314.474 129.921 314.273C129.9 314.073 129.949 313.871 130.058 313.712C130.167 313.553 130.327 313.45 130.502 313.426C142.996 309.782 158.118 299.891 168.604 292.254C168.751 292.158 168.925 292.13 169.089 292.176C169.253 292.222 169.396 292.339 169.487 292.502C169.578 292.665 169.612 292.862 169.58 293.052C169.549 293.242 169.455 293.411 169.317 293.524C158.752 301.222 143.484 311.188 130.832 314.893L130.66 314.939Z" fill="#ECBDBB"/>
<path d="M141.451 266.288C141.335 266.287 141.222 266.251 141.122 266.185C141.022 266.118 140.939 266.022 140.882 265.908C140.824 265.793 140.794 265.663 140.794 265.53C140.794 265.398 140.825 265.268 140.883 265.153C140.962 265.002 148.807 249.214 154.539 238.431C158.078 231.777 157.431 220.979 152.901 210.922C149.19 202.695 143.749 197.13 139.034 196.752C138.859 196.738 138.695 196.644 138.58 196.493C138.465 196.341 138.407 196.143 138.42 195.942C138.432 195.742 138.513 195.555 138.646 195.423C138.778 195.291 138.951 195.225 139.126 195.239C144.409 195.663 150.101 201.409 154.077 210.226C158.818 220.812 159.452 232.125 155.675 239.217C151.026 247.958 144.99 259.981 142.851 264.291L154.063 260.601C154.15 260.574 154.241 260.566 154.33 260.578C154.42 260.59 154.506 260.623 154.584 260.673C154.663 260.724 154.732 260.791 154.788 260.872C154.843 260.954 154.884 261.046 154.909 261.146C154.933 261.245 154.94 261.349 154.929 261.451C154.918 261.554 154.89 261.653 154.846 261.742C154.802 261.832 154.743 261.911 154.672 261.975C154.601 262.039 154.52 262.086 154.433 262.114L141.649 266.303L141.451 266.288Z" fill="#ECBDBB"/>
<path d="M181.507 283.18C181.507 283.18 177.77 286.341 171.972 290.742C157.774 282.469 157.246 266.424 157.616 260.284L166.768 257.259C182.168 264.019 181.507 283.18 181.507 283.18Z" fill="#D06CC2"/>
<path d="M167.864 261.373C167.864 261.373 170.176 274.227 177.875 278.008L192.509 263.384C192.509 263.384 207.142 262.658 208.965 261.146C209.524 260.579 209.968 259.879 210.267 259.096C210.566 258.312 210.712 257.464 210.695 256.609C211.533 255.791 212.15 254.716 212.472 253.51C212.795 252.305 212.811 251.019 212.518 249.803C213.382 248.689 213.963 247.323 214.195 245.856C214.428 244.39 214.305 242.878 213.838 241.486C213.838 241.486 217.88 233.637 218.461 230.9C219.042 228.162 216.15 227.315 214.01 229.962C212.77 231.753 211.224 233.235 209.467 234.317C208.318 234.892 197.25 237.433 197.25 237.433C196.311 236.952 195.565 236.082 195.163 234.998L196.365 226.756C194.945 227.494 193.67 228.551 192.614 229.866C191.559 231.181 190.746 232.726 190.224 234.408C188.824 239.792 186.434 251.24 186.434 251.24L167.864 261.373Z" fill="#ECBDBB"/>
<path d="M208.12 474.744H95.001C95.001 474.744 63.568 370.713 65.5491 311.158C65.7076 306.197 66.0598 301.444 66.6057 296.897C68.5735 280.443 89.7709 281.516 90.3785 298.107C90.8671 310.976 92.135 324.844 93.9444 339.075H172.012L176.172 339.196C190.343 339.196 195.441 348.92 197.105 367.37C199.76 396.603 208.12 474.744 208.12 474.744Z" fill="#4D0E55"/>
<path d="M172.025 339.831H93.9576C93.7997 339.829 93.6475 339.763 93.5288 339.643C93.4101 339.524 93.3326 339.36 93.3105 339.181C91.4087 324.194 90.2068 310.447 89.7446 298.137C89.741 298.037 89.7546 297.938 89.7846 297.845C89.8145 297.752 89.8603 297.666 89.9191 297.593C89.978 297.52 90.0489 297.461 90.1277 297.419C90.2065 297.378 90.2918 297.354 90.3785 297.35C90.4657 297.344 90.553 297.358 90.6353 297.392C90.7175 297.425 90.793 297.478 90.8572 297.546C90.9214 297.613 90.9729 297.695 91.0086 297.787C91.0444 297.878 91.0637 297.976 91.0653 298.076C91.5275 310.099 92.6898 323.634 94.5388 338.319H172.038C172.125 338.32 172.211 338.34 172.29 338.379C172.37 338.418 172.442 338.475 172.503 338.546C172.564 338.617 172.612 338.701 172.644 338.793C172.677 338.885 172.693 338.983 172.692 339.083C172.691 339.182 172.673 339.28 172.639 339.371C172.605 339.463 172.556 339.546 172.494 339.615C172.432 339.685 172.359 339.739 172.278 339.777C172.198 339.814 172.112 339.832 172.025 339.831Z" fill="#D06CC2"/>
<path d="M177.136 473.625C176.984 473.625 176.836 473.565 176.718 473.455C176.6 473.345 176.519 473.191 176.489 473.02C172.949 454.132 156.031 359.037 170.189 341.525C170.246 341.444 170.317 341.378 170.397 341.33C170.477 341.283 170.566 341.254 170.656 341.247C170.746 341.24 170.837 341.254 170.922 341.288C171.007 341.323 171.086 341.377 171.152 341.448C171.218 341.519 171.271 341.604 171.307 341.699C171.343 341.794 171.362 341.897 171.362 342C171.362 342.104 171.344 342.207 171.308 342.302C171.272 342.397 171.219 342.482 171.153 342.553C157.14 359.869 175.617 461.194 177.757 472.703C177.792 472.897 177.759 473.1 177.665 473.267C177.571 473.434 177.424 473.552 177.255 473.595H177.109L177.136 473.625Z" fill="#D06CC2"/>
<path d="M192.126 101.521C181.111 108.387 175.287 147.087 194.939 148.978C214.591 150.868 214.578 87.5325 192.126 101.521Z" fill="#ECBDBB"/>
<path d="M179.526 132.705C179.526 132.705 183.33 121.741 188.111 114.936C188.111 114.936 199.839 123.45 209.903 119.291C219.967 115.132 225.593 93.0222 217.008 88.6667C208.424 84.3113 203.801 94.1564 203.801 94.1564C203.801 94.1564 166.874 81.8613 179.526 132.705Z" fill="#4D0E55"/>
<path d="M183.713 129.302C183.713 129.302 180.583 115.132 170.678 117.96C160.773 120.788 169.859 142.354 184.057 135.17L183.713 129.302Z" fill="#ECBDBB"/>
<path d="M179.883 132.645C179.749 132.646 179.617 132.6 179.507 132.514C179.396 132.427 179.31 132.304 179.262 132.161C179.262 132.085 176.436 124.085 170.559 123.087C170.472 123.072 170.389 123.038 170.313 122.986C170.238 122.934 170.173 122.866 170.121 122.785C170.069 122.705 170.031 122.613 170.01 122.515C169.989 122.418 169.984 122.317 169.997 122.217C170.01 122.118 170.04 122.023 170.085 121.937C170.131 121.851 170.19 121.776 170.261 121.716C170.331 121.656 170.411 121.613 170.496 121.589C170.582 121.565 170.67 121.56 170.757 121.575C177.36 122.724 180.372 131.253 180.49 131.616C180.529 131.73 180.542 131.853 180.53 131.974C180.518 132.095 180.481 132.211 180.421 132.312C180.362 132.413 180.281 132.496 180.188 132.554C180.094 132.612 179.989 132.643 179.883 132.645Z" fill="#4D0E55"/>
<path d="M174.534 131.269C174.361 131.269 174.195 131.191 174.072 131.052C173.948 130.914 173.877 130.725 173.874 130.527C173.946 128.562 174.49 126.657 175.446 125.023C175.538 124.852 175.687 124.731 175.857 124.686C176.028 124.64 176.208 124.674 176.357 124.781C176.506 124.887 176.612 125.057 176.651 125.252C176.691 125.448 176.661 125.654 176.568 125.824C175.776 127.216 175.32 128.823 175.247 130.482C175.249 130.581 175.234 130.68 175.202 130.773C175.171 130.865 175.123 130.95 175.063 131.021C175.003 131.093 174.931 131.15 174.852 131.19C174.773 131.23 174.687 131.251 174.6 131.253L174.534 131.269Z" fill="#4D0E55"/>
<path d="M189.141 123.405C189.141 123.405 191.492 118.535 194.714 120.607C194.739 120.316 194.854 120.045 195.038 119.842C195.222 119.64 195.463 119.519 195.718 119.503C196.577 119.503 196.55 122.618 196.55 122.618C194.059 122.309 191.54 122.576 189.141 123.405Z" fill="#4D0E55"/>
<path d="M207.605 126.732C207.605 126.732 207.539 121.65 204.964 122.921C204.967 122.697 204.914 122.476 204.811 122.286C204.708 122.095 204.559 121.943 204.382 121.847C203.432 121.62 203.062 124.524 203.062 124.524C204.743 124.687 206.334 125.461 207.605 126.732Z" fill="#4D0E55"/>
<path d="M195.393 129.688C195.488 128.263 194.751 127.038 193.748 126.95C192.744 126.862 191.853 127.945 191.758 129.369C191.663 130.793 192.399 132.019 193.403 132.107C194.406 132.195 195.297 131.112 195.393 129.688Z" fill="#4D0E55"/>
<path d="M194.536 128.689C194.556 128.381 194.355 128.112 194.086 128.088C193.817 128.065 193.582 128.295 193.561 128.603C193.541 128.911 193.742 129.18 194.011 129.204C194.28 129.228 194.515 128.997 194.536 128.689Z" fill="white"/>
<path d="M207.46 130.561C207.559 129.133 206.824 127.9 205.818 127.808C204.811 127.716 203.914 128.799 203.814 130.227C203.715 131.655 204.45 132.888 205.456 132.98C206.463 133.072 207.36 131.989 207.46 130.561Z" fill="#4D0E55"/>
<path d="M205.244 129.628C205.264 129.32 205.063 129.051 204.794 129.027C204.525 129.004 204.29 129.234 204.269 129.543C204.249 129.851 204.45 130.12 204.719 130.143C204.988 130.167 205.223 129.936 205.244 129.628Z" fill="white"/>
<path d="M199.562 138.86C199.082 138.859 198.605 138.772 198.149 138.603C197.988 138.536 197.857 138.399 197.782 138.223C197.708 138.047 197.696 137.845 197.749 137.659C197.802 137.473 197.916 137.318 198.067 137.226C198.218 137.134 198.394 137.113 198.558 137.167C198.558 137.167 200.433 137.847 200.988 136.516C201.023 136.45 201.042 136.374 201.042 136.297C201.042 136.22 201.023 136.144 200.988 136.078C200.478 135.594 199.841 135.322 199.179 135.306C199.006 135.291 198.845 135.198 198.731 135.048C198.618 134.898 198.56 134.703 198.571 134.505L198.875 129.469C198.892 129.272 198.974 129.091 199.104 128.961C199.234 128.832 199.403 128.765 199.575 128.773C199.748 128.789 199.908 128.881 200.022 129.031C200.136 129.181 200.193 129.377 200.182 129.575L199.918 133.915C200.351 133.973 200.77 134.13 201.149 134.377C201.528 134.623 201.859 134.955 202.124 135.352C202.262 135.634 202.334 135.951 202.334 136.274C202.334 136.597 202.262 136.915 202.124 137.197C201.881 137.726 201.511 138.165 201.056 138.46C200.602 138.755 200.083 138.894 199.562 138.86Z" fill="#4D0E55"/>
<path d="M199.337 143.488C199.337 143.488 194.332 146.815 191.545 139.798L199.337 143.488Z" fill="white"/>
<path d="M255.19 319.854V611.17C255.19 615.972 258.59 619.866 262.784 619.866C266.978 619.866 270.378 615.972 270.378 611.17V319.854C270.378 315.051 266.978 311.158 262.784 311.158C258.59 311.158 255.19 315.051 255.19 319.854Z" fill="#4D0E55"/>
<path d="M409.806 311.158H169.106C164.912 311.158 161.512 315.051 161.512 319.854C161.512 324.656 164.912 328.549 169.106 328.549H409.806C414 328.549 417.4 324.656 417.4 319.854C417.4 315.051 414 311.158 409.806 311.158Z" fill="white"/>
<path d="M207.235 311.158H115.776C111.582 311.158 108.182 315.051 108.182 319.854C108.182 324.656 111.582 328.549 115.776 328.549H207.235C211.429 328.549 214.829 324.656 214.829 319.854C214.829 315.051 211.429 311.158 207.235 311.158Z" fill="#E9F3FF"/>
<path d="M364.228 599.57H351.259L346.174 578.655L343.902 569.324L358.932 567.252L360.292 575.555L364.228 599.57Z" fill="#ECBDBB"/>
<path d="M360.292 575.555L346.174 578.655L343.902 569.324L358.932 567.252L360.292 575.555Z" fill="#4D0E55"/>
<path d="M365.747 594.293C359.415 594.349 353.085 594.031 346.781 593.34C339.61 606.572 314.662 616.403 313.632 618.414C313.187 619.869 313.003 621.412 313.09 622.951C313.09 625.87 313.341 629 313.341 629H368.547C368.527 617.358 367.59 605.742 365.747 594.293Z" fill="#4D0E55"/>
<path d="M368.494 622.951H313.116C313.116 625.87 313.367 629 313.367 629H368.573C368.573 626.958 368.547 624.962 368.494 622.951Z" fill="#D06CC2"/>
<path d="M408.974 382.751C408.974 382.751 306.777 380.225 298.034 382.751C289.291 385.276 289.977 400.898 291.166 410.985C292.355 421.072 340.032 573.302 340.032 573.302H361.917C361.917 573.302 348.855 477.013 342.819 444.256C342.819 444.256 437.158 463.916 456.4 457.867C475.643 451.818 474.679 408.46 474.679 408.46L408.974 382.751Z" fill="#4D0E55"/>
<path d="M347.877 568.009C347.74 568.007 347.606 567.957 347.495 567.865C347.384 567.773 347.301 567.643 347.257 567.494L314.767 420.8C314.743 420.69 314.741 420.574 314.762 420.462C314.783 420.351 314.825 420.246 314.886 420.156C314.947 420.066 315.025 419.992 315.114 419.942C315.203 419.891 315.301 419.864 315.401 419.863H415.102L424.967 399.084C425.009 398.996 425.065 398.919 425.133 398.856C425.201 398.794 425.278 398.747 425.362 398.719C425.445 398.691 425.532 398.682 425.619 398.693C425.705 398.703 425.789 398.733 425.865 398.781C425.942 398.829 426.009 398.893 426.064 398.971C426.118 399.048 426.159 399.137 426.183 399.233C426.208 399.328 426.216 399.428 426.207 399.527C426.197 399.626 426.171 399.722 426.13 399.809L416.066 420.982C416.009 421.101 415.925 421.201 415.822 421.27C415.72 421.339 415.603 421.375 415.485 421.375H316.26L348.577 567.056C348.599 567.152 348.604 567.252 348.592 567.351C348.58 567.449 348.551 567.544 348.507 567.63C348.463 567.716 348.404 567.791 348.335 567.85C348.265 567.91 348.186 567.954 348.102 567.978L347.877 568.009Z" fill="#D06CC2"/>
<path d="M339.967 442.109C339.861 442.107 339.756 442.076 339.663 442.018C339.465 441.897 320.011 430.01 308.824 412.679C308.761 412.601 308.714 412.509 308.684 412.408C308.654 412.307 308.644 412.2 308.653 412.095C308.661 411.989 308.69 411.886 308.735 411.794C308.781 411.702 308.843 411.621 308.918 411.558C308.993 411.495 309.078 411.451 309.169 411.428C309.259 411.405 309.353 411.405 309.444 411.426C309.535 411.448 309.621 411.491 309.696 411.553C309.771 411.615 309.834 411.695 309.881 411.787C320.869 428.831 340.072 440.521 340.257 440.672C340.392 440.747 340.501 440.872 340.565 441.026C340.63 441.181 340.647 441.356 340.613 441.523C340.579 441.69 340.497 441.839 340.379 441.945C340.262 442.052 340.116 442.109 339.967 442.109Z" fill="#D06CC2"/>
<path d="M415.511 421.314C415.401 421.314 415.292 421.282 415.195 421.222C415.098 421.161 415.016 421.073 414.957 420.967C404.391 402.501 414.204 391.749 414.309 391.643C414.439 391.522 414.604 391.463 414.771 391.476C414.938 391.489 415.094 391.575 415.209 391.715C415.323 391.855 415.386 392.04 415.386 392.231C415.386 392.423 415.322 392.607 415.208 392.747C414.825 393.155 406.108 402.774 416.066 420.135C416.133 420.249 416.172 420.383 416.178 420.52C416.184 420.658 416.157 420.795 416.1 420.917C416.043 421.038 415.958 421.14 415.854 421.21C415.75 421.28 415.632 421.316 415.511 421.314Z" fill="#D06CC2"/>
<path d="M287.891 567.252V599.57H274.182L272.24 580.863L271.052 569.324L287.891 567.252Z" fill="#ECBDBB"/>
<path d="M271.052 569.324L287.891 567.252V577.158L272.24 580.863L271.052 569.324Z" fill="#4D0E55"/>
<path d="M293.768 629H221.79C222.009 626.964 222.331 624.944 222.754 622.951C223.01 621.314 223.583 619.764 224.431 618.414C226.201 616.403 257.568 606.572 269.718 593.34C276.8 594.073 283.911 594.391 291.021 594.293C292.572 603.749 293.455 613.332 293.663 622.951C293.742 624.962 293.768 626.928 293.768 629Z" fill="#4D0E55"/>
<path d="M293.768 629H221.79C222.009 626.964 222.331 624.944 222.754 622.951H293.689C293.742 624.962 293.768 626.928 293.768 629Z" fill="#D06CC2"/>
<path d="M361.785 382.751C361.785 382.751 266.258 380.225 254.371 382.751C242.485 385.276 240.015 400.898 239.408 410.985C238.8 421.072 268.463 573.302 268.463 573.302H290.466C290.466 573.302 293.993 477.013 293.108 444.256C293.108 444.256 381.16 463.916 407.574 457.867C433.988 451.818 441.912 408.46 441.912 408.46L361.785 382.751Z" fill="black"/>
<path d="M268.45 574.058C268.3 574.059 268.153 574.001 268.036 573.893C267.918 573.786 267.836 573.636 267.803 573.468C266.588 567.237 238.14 420.8 238.747 410.925C239.777 393.7 244.994 383.96 254.252 382.01C266.073 379.499 357.902 381.889 361.811 382.01C361.898 382.011 361.983 382.033 362.063 382.073C362.142 382.113 362.214 382.17 362.274 382.242C362.334 382.313 362.381 382.398 362.413 382.49C362.445 382.583 362.46 382.681 362.458 382.781C362.451 382.98 362.377 383.169 362.252 383.307C362.126 383.445 361.959 383.522 361.785 383.522C360.834 383.522 266.192 381.027 254.503 383.522C245.919 385.337 241.058 394.607 240.081 411.061C239.5 420.725 268.82 571.638 269.137 573.165C269.156 573.263 269.159 573.364 269.144 573.462C269.129 573.561 269.098 573.655 269.051 573.739C269.004 573.823 268.943 573.896 268.872 573.954C268.801 574.011 268.72 574.051 268.635 574.073H268.49L268.45 574.058Z" fill="#4D0E55"/>
<path d="M279.9 568.009C279.734 568.009 279.574 567.938 279.451 567.809C279.329 567.68 279.253 567.503 279.24 567.313L268.238 420.619C268.231 420.515 268.243 420.41 268.273 420.311C268.303 420.212 268.35 420.121 268.412 420.045C268.474 419.968 268.55 419.907 268.633 419.865C268.717 419.823 268.807 419.802 268.899 419.802H361.943L379.363 398.872C379.487 398.744 379.649 398.675 379.815 398.678C379.982 398.681 380.141 398.756 380.262 398.888C380.382 399.02 380.454 399.199 380.464 399.39C380.474 399.58 380.42 399.768 380.314 399.915L362.709 421.088C362.648 421.163 362.575 421.223 362.493 421.264C362.411 421.306 362.323 421.328 362.234 421.33H269.612L280.561 567.207C280.568 567.306 280.558 567.406 280.531 567.501C280.505 567.596 280.462 567.684 280.405 567.76C280.349 567.836 280.28 567.898 280.202 567.944C280.125 567.989 280.04 568.016 279.953 568.024L279.9 568.009Z" fill="#4D0E55"/>
<path d="M290.031 442.109C289.908 442.106 289.789 442.064 289.687 441.988C289.529 441.867 273.112 429.995 262.256 412.679C262.196 412.6 262.152 412.507 262.126 412.406C262.099 412.306 262.091 412.2 262.102 412.096C262.113 411.992 262.143 411.892 262.19 411.802C262.236 411.712 262.299 411.634 262.373 411.573C262.448 411.511 262.532 411.469 262.622 411.447C262.711 411.426 262.804 411.426 262.894 411.447C262.983 411.469 263.068 411.512 263.142 411.573C263.217 411.634 263.279 411.712 263.326 411.802C274.01 428.861 290.215 440.536 290.374 440.717C290.493 440.805 290.584 440.934 290.634 441.086C290.684 441.237 290.69 441.403 290.651 441.558C290.613 441.714 290.532 441.852 290.42 441.951C290.308 442.05 290.172 442.105 290.031 442.109Z" fill="#4D0E55"/>
<path d="M362.22 421.315C362.107 421.315 361.994 421.282 361.895 421.219C361.795 421.155 361.712 421.063 361.653 420.952C358.575 415.19 357.585 409.594 358.707 404.316C360.001 399.052 362.926 394.509 366.935 391.537C367.086 391.433 367.267 391.401 367.438 391.45C367.609 391.498 367.756 391.622 367.847 391.794C367.938 391.967 367.965 392.173 367.923 392.369C367.881 392.565 367.773 392.733 367.622 392.838C363.928 395.625 361.221 399.829 359.989 404.694C358.958 409.549 359.896 414.751 362.788 420.15C362.853 420.265 362.889 420.398 362.893 420.535C362.896 420.672 362.868 420.808 362.809 420.927C362.751 421.047 362.665 421.146 362.562 421.214C362.458 421.282 362.34 421.317 362.22 421.315Z" fill="#4D0E55"/>
<path d="M396.77 130.694C396.77 130.694 394.684 134.701 393.469 137.106C392.254 139.511 399.187 140.524 399.187 140.524L396.77 130.694Z" fill="#ECBDBB"/>
<path d="M399.187 141.28H399.108C398.21 141.144 393.68 140.388 392.821 138.422C392.706 138.156 392.652 137.861 392.664 137.565C392.675 137.269 392.752 136.981 392.887 136.728C394.102 134.323 396.189 130.301 396.189 130.301L397.325 131.072C397.325 131.072 395.238 135.08 394.023 137.484C394.002 137.523 393.991 137.567 393.991 137.613C393.991 137.658 394.002 137.703 394.023 137.741C394.38 138.573 397.034 139.435 399.306 139.768C399.393 139.777 399.477 139.805 399.554 139.851C399.631 139.898 399.7 139.961 399.756 140.037C399.811 140.114 399.853 140.202 399.879 140.297C399.905 140.393 399.915 140.493 399.907 140.592C399.899 140.691 399.874 140.788 399.834 140.876C399.794 140.964 399.738 141.043 399.671 141.107C399.605 141.171 399.527 141.219 399.444 141.248C399.361 141.278 399.274 141.289 399.187 141.28Z" fill="#4D0E55"/>
<path d="M431.518 126.777C430.515 145.983 416.449 154.316 407.112 152.713C406.14 152.558 405.187 152.274 404.272 151.866C394.367 147.329 392.98 121.62 397.008 108.508C399.65 99.9334 428.705 93.3851 431.347 119.851C431.585 122.149 431.643 124.467 431.518 126.777Z" fill="#ECBDBB"/>
<path d="M431.519 126.777C430.515 145.983 416.449 154.316 407.112 152.713C415.036 145.424 416.845 127.669 416.845 127.669C416.845 127.669 424.44 126.974 431.519 126.777Z" fill="#4D0E55"/>
<path d="M426.143 141.976L427.213 165.507L413.517 166.354L414.138 140.524L426.143 141.976Z" fill="#ECBDBB"/>
<path d="M387.539 78.5192C387.539 78.5192 373.896 89.8615 381.82 108.266C389.744 126.671 409.33 118.595 409.33 118.595L411.536 132.584C411.536 132.584 413.953 147.329 424.637 147.329C435.322 147.329 445.663 123.631 445.544 120.486C445.425 117.34 440.262 109.401 440.262 109.401C440.262 109.401 440.592 92.2661 435.203 89.3624C429.815 86.4588 414.177 93.0222 414.177 93.0222C414.177 93.0222 402.291 80.7876 387.539 78.5192Z" fill="#4D0E55"/>
<path d="M410.136 135.579C410.136 135.579 413.874 124.115 421.362 126.127C428.85 128.138 423.568 143.261 411.787 141.885L410.136 135.579Z" fill="#ECBDBB"/>
<path d="M412.883 139.042C412.804 139.059 412.724 139.059 412.645 139.042C412.564 139.005 412.491 138.951 412.429 138.881C412.366 138.812 412.316 138.729 412.282 138.638C412.248 138.547 412.23 138.449 412.228 138.349C412.227 138.25 412.243 138.151 412.275 138.059C412.381 137.741 414.917 130.361 420.715 129.363C420.887 129.337 421.063 129.388 421.203 129.507C421.343 129.625 421.438 129.801 421.467 129.998C421.481 130.096 421.477 130.197 421.456 130.293C421.435 130.39 421.398 130.481 421.346 130.561C421.295 130.641 421.23 130.709 421.156 130.76C421.081 130.811 420.999 130.845 420.913 130.86C415.894 131.737 413.53 138.543 413.504 138.603C413.449 138.738 413.361 138.852 413.251 138.93C413.14 139.008 413.012 139.047 412.883 139.042Z" fill="#4D0E55"/>
<path d="M417.479 137.862C417.392 137.86 417.307 137.839 417.227 137.799C417.148 137.759 417.076 137.702 417.016 137.63C416.956 137.558 416.908 137.474 416.877 137.381C416.845 137.289 416.83 137.19 416.832 137.091C416.756 135.681 416.354 134.319 415.67 133.144C415.577 132.973 415.547 132.768 415.586 132.572C415.626 132.376 415.732 132.207 415.881 132.1C416.03 131.994 416.209 131.96 416.38 132.005C416.551 132.051 416.699 132.172 416.792 132.342C417.608 133.772 418.065 135.43 418.113 137.136C418.106 137.326 418.037 137.507 417.92 137.641C417.802 137.776 417.645 137.855 417.479 137.862Z" fill="#4D0E55"/>
<path d="M397.827 167.488C397.827 167.488 426.143 149.915 447.935 162.483L443.484 179.118L403.783 182.143L397.827 167.488Z" fill="#4D0E55"/>
<path d="M392.161 184.88C404.898 176.248 419.681 172.413 434.424 173.916C459.359 176.381 467.613 190.551 470.255 198.309C472.896 206.067 487.424 324.028 482.141 410.985C482.141 410.985 446.918 426.109 410.717 421.572C374.516 417.035 346.821 375.431 346.821 375.431C346.821 375.431 373.896 301.328 375.877 263.52C377.858 225.712 380.882 196.268 392.161 184.88Z" fill="#F68D88"/>
<path d="M405.566 178.619C405.391 178.651 405.212 178.602 405.069 178.483C404.925 178.364 404.828 178.184 404.8 177.984C404.772 177.783 404.815 177.578 404.919 177.414C405.023 177.249 405.18 177.139 405.355 177.107C414.741 173.516 424.67 172.162 434.53 173.129C437.315 173.396 440.085 173.851 442.824 174.49C442.909 174.51 442.989 174.549 443.061 174.605C443.133 174.66 443.195 174.731 443.243 174.814C443.29 174.897 443.324 174.99 443.34 175.088C443.357 175.185 443.356 175.285 443.339 175.383C443.301 175.577 443.198 175.747 443.053 175.857C442.908 175.967 442.731 176.009 442.56 175.972C439.873 175.347 437.156 174.902 434.424 174.642C424.742 173.696 414.993 175.029 405.778 178.558L405.566 178.619Z" fill="#D06CC2"/>
<path d="M296.528 205.553C296.198 205.432 284.867 196.101 284.867 196.101C284.867 196.101 280.469 190.173 278.487 189.553C275.542 188.561 272.7 187.207 270.009 185.515C268.688 184.381 264.726 179.088 262.639 178.332C260.552 177.575 260.552 182.233 262.969 185.893C265.386 189.553 266.046 191.443 264.29 192.698C262.533 193.954 254.82 193.334 252.509 192.441C250.198 191.549 243.924 187.647 242.168 187.526C240.411 187.405 240.411 190.808 242.392 192.32C244.374 193.833 254.385 202.408 258.135 203.542C261.886 204.676 277.061 204.298 277.061 204.298L291.259 218.922L296.528 205.553Z" fill="#ECBDBB"/>
<path d="M309.999 209.652L296.634 200.956C296.634 200.956 282.938 203.421 282.938 225.909L294.164 238.385C294.164 238.385 311.162 228.737 309.999 209.652Z" fill="#D06CC2"/>
<path d="M396.348 183.625C382.441 183.307 350.123 242.348 350.123 242.348L304.334 210.332C304.334 210.332 294.428 214.869 293.992 230.748C293.992 230.748 334.274 289.471 350.123 294.008C365.971 298.545 406.689 248.639 413.953 232.76C421.217 216.88 417.915 184.124 396.348 183.625Z" fill="#F68D88"/>
<path d="M347.573 275.24C347.416 275.239 347.263 275.172 347.145 275.053C347.026 274.933 346.948 274.769 346.926 274.59C345.831 264.44 346.591 254.14 349.158 244.344C349.214 244.153 349.334 243.996 349.492 243.907C349.649 243.818 349.831 243.803 349.997 243.868C350.163 243.932 350.301 244.069 350.379 244.249C350.457 244.429 350.469 244.637 350.413 244.828C347.91 254.389 347.168 264.441 348.234 274.348C348.247 274.447 348.243 274.547 348.222 274.643C348.201 274.74 348.164 274.831 348.113 274.911C348.061 274.991 347.996 275.059 347.922 275.11C347.848 275.161 347.765 275.195 347.679 275.21H347.587L347.573 275.24Z" fill="#D06CC2"/>
<path d="M377.633 279.49C377.496 279.492 377.361 279.445 377.248 279.356C377.135 279.266 377.049 279.138 377.002 278.99C376.956 278.842 376.951 278.68 376.988 278.529C377.026 278.377 377.103 278.243 377.211 278.144C392.597 263.596 409 242 413.372 232.412C417.889 222.536 417.928 207.368 413.464 197.114C410.44 190.143 405.54 185.863 399.465 184.698C399.378 184.683 399.295 184.647 399.22 184.595C399.145 184.542 399.08 184.473 399.029 184.391C398.977 184.31 398.94 184.218 398.92 184.12C398.899 184.022 398.896 183.921 398.91 183.821C398.924 183.722 398.955 183.627 399.001 183.541C399.047 183.455 399.107 183.381 399.178 183.322C399.249 183.263 399.33 183.221 399.415 183.197C399.501 183.174 399.589 183.17 399.676 183.186C406.28 184.426 411.417 189.009 414.653 196.419C419.289 207.005 419.249 222.839 414.547 233.092C410.11 242.801 393.561 264.624 378.056 279.278C377.942 279.405 377.792 279.48 377.633 279.49Z" fill="#DF68D8"/>
<path d="M393.376 484.317L416.541 622.724C416.668 623.487 416.645 624.272 416.476 625.024C416.307 625.776 415.995 626.476 415.562 627.074C415.129 627.672 414.587 628.153 413.973 628.484C413.359 628.814 412.689 628.985 412.011 628.985C411.014 628.985 410.045 628.615 409.247 627.931C408.449 627.246 407.867 626.284 407.587 625.189L371.584 484.317H393.376Z" fill="#B28B67"/>
<path d="M321.727 484.317L298.562 622.724C298.436 623.487 298.458 624.272 298.627 625.024C298.797 625.776 299.109 626.476 299.541 627.074C299.974 627.672 300.517 628.153 301.13 628.484C301.744 628.814 302.414 628.985 303.092 628.985C304.089 628.985 305.059 628.615 305.856 627.931C306.654 627.246 307.237 626.284 307.517 625.189L343.519 484.317H321.727Z" fill="#B28B67"/>
<path d="M484.175 484.317L507.34 622.724C507.466 623.487 507.444 624.272 507.275 625.024C507.106 625.776 506.793 626.476 506.361 627.074C505.928 627.672 505.386 628.153 504.772 628.484C504.158 628.814 503.488 628.985 502.81 628.985C501.813 628.985 500.843 628.615 500.046 627.931C499.248 627.246 498.666 626.284 498.386 625.189L462.383 484.317H484.175Z" fill="#B28B67"/>
<path d="M412.526 484.317L389.361 622.724C389.235 623.487 389.257 624.272 389.426 625.024C389.595 625.776 389.908 626.476 390.34 627.074C390.773 627.672 391.315 628.153 391.929 628.484C392.543 628.814 393.213 628.985 393.891 628.985C394.888 628.985 395.858 628.615 396.655 627.931C397.453 627.246 398.035 626.284 398.315 625.189L434.318 484.317H412.526Z" fill="#B28B67"/>
<path d="M496.947 474.744L489.022 491.879H313.909L306.764 474.744H496.947Z" fill="#D9D9D9"/>
<path d="M339.966 492.635H322.797C322.622 492.635 322.454 492.555 322.33 492.414C322.206 492.272 322.137 492.079 322.137 491.879C322.137 491.678 322.206 491.486 322.33 491.344C322.454 491.202 322.622 491.123 322.797 491.123H339.966C340.142 491.123 340.31 491.202 340.433 491.344C340.557 491.486 340.627 491.678 340.627 491.879C340.627 492.079 340.557 492.272 340.433 492.414C340.31 492.555 340.142 492.635 339.966 492.635Z" fill="#4D0E55"/>
<path d="M496.946 474.744L490.937 491.879H404.364C403.242 487.614 401.802 481.792 400.283 474.744H496.946Z" fill="#4D0E55"/>
<path d="M524.232 344.686C518.514 412.74 496.946 474.744 496.946 474.744H306.764C279.108 407.189 277.92 379.56 282.423 358.796C283.828 352.436 287.049 346.797 291.574 342.774C296.099 338.752 301.669 336.577 307.398 336.595H370.488C370.488 336.595 391.725 231.247 450.721 231.247C459.032 231.154 467.321 232.22 475.406 234.423C499.905 241.44 514.538 259.679 521.089 286.008C523.178 294.726 524.449 303.674 524.879 312.7C524.879 312.7 524.879 312.867 524.879 312.942C524.879 313.925 524.972 314.923 525.011 315.967C525.051 317.01 525.077 317.646 525.091 318.477C525.284 327.225 524.997 335.979 524.232 344.686Z" fill="#631465"/>
<path d="M489.167 475.501H306.764C306.639 475.5 306.516 475.458 306.411 475.38C306.306 475.302 306.222 475.192 306.17 475.062C279.227 409.307 276.942 380.966 281.789 358.614C281.957 357.838 282.15 357.072 282.37 356.315C282.398 356.221 282.442 356.134 282.499 356.059C282.556 355.984 282.626 355.923 282.704 355.878C282.781 355.834 282.866 355.808 282.953 355.801C283.04 355.794 283.127 355.807 283.209 355.839C283.291 355.871 283.368 355.921 283.433 355.986C283.499 356.052 283.552 356.131 283.591 356.221C283.629 356.31 283.652 356.407 283.658 356.506C283.664 356.605 283.653 356.705 283.625 356.799C283.414 357.515 283.229 358.241 283.07 358.977C278.303 380.951 280.574 408.883 307.187 473.913H489.181C489.365 473.915 489.54 474 489.669 474.151C489.798 474.301 489.869 474.504 489.867 474.714C489.866 474.925 489.791 475.126 489.66 475.273C489.528 475.421 489.351 475.503 489.167 475.501Z" fill="#4D0E55"/>
<path d="M524.232 344.686C518.514 412.74 496.946 474.744 496.946 474.744H400.283C396.077 455.381 393.263 435.654 391.871 415.764C390.471 394.894 390.84 372.3 394.803 350.735C407.574 281.169 438.835 247.384 476.251 253.433C476.621 253.433 476.99 253.554 477.36 253.645L477.994 253.75C490.478 256.072 501.908 263.165 510.422 273.875C518.936 284.585 524.032 298.281 524.879 312.731C524.879 312.731 524.879 312.897 524.879 312.973C524.879 313.956 524.972 314.954 525.012 315.997C525.051 317.041 525.078 317.661 525.091 318.508C525.283 327.246 524.996 335.989 524.232 344.686Z" fill="#D9D9D9"/>
<path d="M494.173 475.455H404.048C403.872 475.455 403.704 475.375 403.581 475.234C403.457 475.092 403.387 474.9 403.387 474.699C403.387 474.498 403.457 474.306 403.581 474.164C403.704 474.022 403.872 473.943 404.048 473.943H494.186C494.273 473.944 494.359 473.964 494.438 474.003C494.518 474.042 494.59 474.099 494.651 474.17C494.712 474.241 494.76 474.324 494.792 474.417C494.825 474.509 494.841 474.607 494.84 474.706C494.839 474.806 494.821 474.904 494.787 474.995C494.753 475.087 494.704 475.169 494.642 475.239C494.58 475.309 494.507 475.363 494.426 475.4C494.346 475.438 494.26 475.456 494.173 475.455Z" fill="#D06CC2"/>
<path d="M397.352 126.429C397.352 126.429 397.352 123.208 398.263 122.936C399.174 122.663 398.963 123.828 398.963 123.828C398.963 123.828 403.546 122.89 404.748 126.263C402.319 125.505 399.752 125.563 397.352 126.429Z" fill="#4D0E55"/>
<path d="M400.006 133.416C401.042 133.416 401.881 132.231 401.881 130.769C401.881 129.308 401.042 128.123 400.006 128.123C398.97 128.123 398.131 129.308 398.131 130.769C398.131 132.231 398.97 133.416 400.006 133.416Z" fill="#4D0E55"/>
<path d="M400.389 145.257C400.214 145.273 400.04 145.209 399.906 145.079C399.773 144.948 399.69 144.762 399.676 144.562C399.662 144.361 399.718 144.162 399.832 144.009C399.946 143.856 400.108 143.761 400.283 143.745C401.894 143.271 403.327 142.209 404.364 140.72C404.415 140.632 404.482 140.557 404.56 140.5C404.637 140.443 404.725 140.406 404.816 140.39C404.907 140.374 405.001 140.381 405.09 140.408C405.179 140.436 405.262 140.485 405.333 140.552C405.405 140.619 405.463 140.703 405.505 140.797C405.546 140.892 405.57 140.995 405.574 141.101C405.579 141.206 405.564 141.312 405.531 141.41C405.498 141.509 405.447 141.599 405.381 141.673C404.16 143.474 402.442 144.748 400.508 145.288H400.402L400.389 145.257Z" fill="#4D0E55"/>
<path d="M400.389 130.165C400.747 130.165 401.036 129.833 401.036 129.424C401.036 129.014 400.747 128.682 400.389 128.682C400.032 128.682 399.742 129.014 399.742 129.424C399.742 129.833 400.032 130.165 400.389 130.165Z" fill="white"/>
<path d="M384.567 14.5635V46.685C384.567 50.5449 385.905 54.2469 388.288 56.9776C390.67 59.7084 393.902 61.2446 397.272 61.2486H399.425V72.969C399.412 73.5888 399.561 74.199 399.853 74.7209C400.145 75.2427 400.568 75.6522 401.065 75.8964C401.563 76.1407 402.113 76.2084 402.645 76.0909C403.176 75.9735 403.665 75.6762 404.048 75.2374L416.264 61.2486H448.78C452.153 61.2486 455.388 59.7142 457.773 56.983C460.159 54.2518 461.499 50.5475 461.499 46.685V14.5635C461.499 10.7011 460.159 6.99676 457.773 4.26556C455.388 1.53437 452.153 0 448.78 0H397.272C393.902 0.00400818 390.67 1.54015 388.288 4.27091C385.905 7.00167 384.567 10.7037 384.567 14.5635Z" fill="#E9F3FF"/>
<path d="M445.98 11.7204H401.525C399.76 11.7204 398.329 13.3556 398.329 15.3726C398.329 17.3897 399.76 19.0249 401.525 19.0249H445.98C447.745 19.0249 449.176 17.3897 449.176 15.3726C449.176 13.3556 447.745 11.7204 445.98 11.7204Z" fill="#4D0E55"/>
<path d="M445.98 26.5864H401.525C399.76 26.5864 398.329 28.2216 398.329 30.2387C398.329 32.2557 399.76 33.8909 401.525 33.8909H445.98C447.745 33.8909 449.176 32.2557 449.176 30.2387C449.176 28.2216 447.745 26.5864 445.98 26.5864Z" fill="#4D0E55"/>
<path d="M422.207 41.4675H401.525C399.76 41.4675 398.329 43.1027 398.329 45.1198C398.329 47.1368 399.76 48.772 401.525 48.772H422.207C423.972 48.772 425.403 47.1368 425.403 45.1198C425.403 43.1027 423.972 41.4675 422.207 41.4675Z" fill="#4D0E55"/>
<path d="M274.512 56.152V88.2735C274.512 92.1334 275.85 95.8354 278.233 98.5661C280.615 101.297 283.846 102.833 287.217 102.837H289.37V114.633C289.37 115.246 289.529 115.846 289.826 116.356C290.124 116.866 290.546 117.264 291.041 117.499C291.536 117.733 292.081 117.795 292.606 117.675C293.131 117.555 293.614 117.26 293.993 116.826L306.209 102.837H338.725C342.098 102.837 345.333 101.303 347.718 98.5715C350.104 95.8403 351.444 92.136 351.444 88.2735V56.152C351.444 52.2895 350.104 48.5853 347.718 45.8541C345.333 43.1229 342.098 41.5885 338.725 41.5885H287.217C283.846 41.5925 280.615 43.1287 278.233 45.8594C275.85 48.5902 274.512 52.2922 274.512 56.152Z" fill="#D06CC2"/>
<path d="M333.891 78.504C337.05 78.504 339.61 75.5722 339.61 71.9557C339.61 68.3392 337.05 65.4074 333.891 65.4074C330.733 65.4074 328.173 68.3392 328.173 71.9557C328.173 75.5722 330.733 78.504 333.891 78.504Z" fill="white"/>
<path d="M312.971 78.504C316.13 78.504 318.69 75.5722 318.69 71.9557C318.69 68.3392 316.13 65.4074 312.971 65.4074C309.813 65.4074 307.253 68.3392 307.253 71.9557C307.253 75.5722 309.813 78.504 312.971 78.504Z" fill="white"/>
<path d="M292.064 78.504C295.222 78.504 297.783 75.5722 297.783 71.9557C297.783 68.3392 295.222 65.4074 292.064 65.4074C288.906 65.4074 286.345 68.3392 286.345 71.9557C286.345 75.5722 288.906 78.504 292.064 78.504Z" fill="white"/>
<path d="M119.817 124.025C124.471 124.025 128.243 119.705 128.243 114.376C128.243 109.047 124.471 104.727 119.817 104.727C115.163 104.727 111.391 109.047 111.391 114.376C111.391 119.705 115.163 124.025 119.817 124.025Z" fill="#D06CC2"/>
<path d="M126.592 82.0428C128.598 82.0428 130.224 80.1808 130.224 77.884C130.224 75.5871 128.598 73.7251 126.592 73.7251C124.586 73.7251 122.96 75.5871 122.96 77.884C122.96 80.1808 124.586 82.0428 126.592 82.0428Z" fill="#E9F3FF"/>
<path d="M239.183 88.4701C243.195 88.4701 246.447 84.7462 246.447 80.1524C246.447 75.5587 243.195 71.8347 239.183 71.8347C235.171 71.8347 231.919 75.5587 231.919 80.1524C231.919 84.7462 235.171 88.4701 239.183 88.4701Z" fill="#E9F3FF"/>
<path d="M360.028 157.658C364.893 157.658 368.837 153.142 368.837 147.571C368.837 142 364.893 137.484 360.028 137.484C355.163 137.484 351.219 142 351.219 147.571C351.219 153.142 355.163 157.658 360.028 157.658Z" fill="#E9F3FF"/>
<path d="M538.324 346.183C540.505 346.183 542.273 344.158 542.273 341.661C542.273 339.164 540.505 337.139 538.324 337.139C536.143 337.139 534.375 339.164 534.375 341.661C534.375 344.158 536.143 346.183 538.324 346.183Z" fill="#D06CC2"/>
<path d="M480.49 176.577C483.321 176.577 485.615 173.95 485.615 170.71C485.615 167.469 483.321 164.842 480.49 164.842C477.66 164.842 475.366 167.469 475.366 170.71C475.366 173.95 477.66 176.577 480.49 176.577Z" fill="#D06CC2"/>
<path d="M558.003 328.927C560.833 328.927 563.127 326.3 563.127 323.06C563.127 319.819 560.833 317.192 558.003 317.192C555.173 317.192 552.879 319.819 552.879 323.06C552.879 326.3 555.173 328.927 558.003 328.927Z" fill="#E9F3FF"/>
<path d="M504.976 201.515C506.253 201.515 507.287 200.33 507.287 198.869C507.287 197.407 506.253 196.222 504.976 196.222C503.7 196.222 502.665 197.407 502.665 198.869C502.665 200.33 503.7 201.515 504.976 201.515Z" fill="#E9F3FF"/>
<path d="M101.327 82.9048C101.152 82.9048 100.984 82.8252 100.86 82.6834C100.736 82.5416 100.667 82.3492 100.667 82.1487V75.7819C100.667 75.5813 100.736 75.389 100.86 75.2472C100.984 75.1054 101.152 75.0257 101.327 75.0257C101.502 75.0257 101.67 75.1054 101.794 75.2472C101.918 75.389 101.988 75.5813 101.988 75.7819V82.1487C101.988 82.3492 101.918 82.5416 101.794 82.6834C101.67 82.8252 101.502 82.9048 101.327 82.9048Z" fill="#D06CC2"/>
<path d="M110.691 87.2451H105.118C104.943 87.2451 104.775 87.1655 104.651 87.0237C104.527 86.8819 104.458 86.6895 104.458 86.489C104.458 86.2884 104.527 86.0961 104.651 85.9543C104.775 85.8125 104.943 85.7328 105.118 85.7328H110.678C110.765 85.7318 110.851 85.7504 110.931 85.7875C111.012 85.8246 111.085 85.8794 111.147 85.9489C111.209 86.0185 111.258 86.1013 111.292 86.1926C111.326 86.284 111.344 86.3821 111.345 86.4814C111.346 86.5807 111.33 86.6792 111.297 86.7714C111.265 86.8635 111.217 86.9474 111.156 87.0183C111.096 87.0892 111.023 87.1458 110.943 87.1847C110.864 87.2236 110.778 87.2441 110.691 87.2451Z" fill="#D06CC2"/>
<path d="M101.327 97.9523C101.152 97.9523 100.984 97.8726 100.86 97.7308C100.736 97.589 100.667 97.3967 100.667 97.1962V90.8293C100.667 90.6288 100.736 90.4365 100.86 90.2947C100.984 90.1528 101.152 90.0732 101.327 90.0732C101.502 90.0732 101.67 90.1528 101.794 90.2947C101.918 90.4365 101.988 90.6288 101.988 90.8293V97.1659C101.991 97.2677 101.977 97.3693 101.945 97.4646C101.913 97.5598 101.865 97.6468 101.804 97.7203C101.742 97.7937 101.668 97.8521 101.586 97.892C101.504 97.9319 101.416 97.9524 101.327 97.9523Z" fill="#D06CC2"/>
<path d="M97.5499 87.2451H91.9765C91.8014 87.2451 91.6334 87.1655 91.5096 87.0237C91.3857 86.8819 91.3162 86.6895 91.3162 86.489C91.3162 86.2884 91.3857 86.0961 91.5096 85.9543C91.6334 85.8125 91.8014 85.7328 91.9765 85.7328H97.5367C97.6234 85.7318 97.7095 85.7504 97.7899 85.7875C97.8704 85.8246 97.9437 85.8794 98.0056 85.9489C98.0675 86.0185 98.1169 86.1013 98.1509 86.1926C98.1849 86.284 98.2028 86.3821 98.2037 86.4814C98.2045 86.5807 98.1883 86.6792 98.1559 86.7714C98.1236 86.8635 98.0756 86.9474 98.0149 87.0183C97.9542 87.0892 97.8819 87.1458 97.8021 87.1847C97.7223 87.2236 97.6366 87.2441 97.5499 87.2451Z" fill="#D06CC2"/>
<path d="M512.518 176.668C512.343 176.668 512.175 176.588 512.051 176.447C511.927 176.305 511.857 176.112 511.857 175.912V169.545C511.857 169.344 511.927 169.152 512.051 169.01C512.175 168.869 512.343 168.789 512.518 168.789C512.693 168.789 512.861 168.869 512.985 169.01C513.109 169.152 513.178 169.344 513.178 169.545V175.912C513.178 176.112 513.109 176.305 512.985 176.447C512.861 176.588 512.693 176.668 512.518 176.668Z" fill="#D06CC2"/>
<path d="M521.868 181.008H516.308C516.133 181.008 515.965 180.929 515.841 180.787C515.717 180.645 515.648 180.453 515.648 180.252C515.648 180.052 515.717 179.859 515.841 179.718C515.965 179.576 516.133 179.496 516.308 179.496H521.868C522.043 179.496 522.211 179.576 522.335 179.718C522.459 179.859 522.529 180.052 522.529 180.252C522.529 180.453 522.459 180.645 522.335 180.787C522.211 180.929 522.043 181.008 521.868 181.008Z" fill="#D06CC2"/>
<path d="M512.518 191.716C512.343 191.716 512.175 191.636 512.051 191.494C511.927 191.352 511.857 191.16 511.857 190.959V184.593C511.857 184.392 511.927 184.2 512.051 184.058C512.175 183.916 512.343 183.836 512.518 183.836C512.693 183.836 512.861 183.916 512.985 184.058C513.109 184.2 513.178 184.392 513.178 184.593V190.929C513.182 191.031 513.167 191.133 513.136 191.228C513.104 191.323 513.056 191.41 512.994 191.483C512.933 191.557 512.859 191.615 512.777 191.655C512.695 191.695 512.607 191.716 512.518 191.716Z" fill="#D06CC2"/>
<path d="M508.728 181.008H503.101C502.926 181.008 502.758 180.929 502.634 180.787C502.511 180.645 502.441 180.453 502.441 180.252C502.441 180.052 502.511 179.859 502.634 179.718C502.758 179.576 502.926 179.496 503.101 179.496H508.661C508.837 179.486 509.008 179.556 509.138 179.691C509.268 179.826 509.346 180.014 509.355 180.214C509.364 180.415 509.302 180.611 509.185 180.76C509.067 180.909 508.903 180.998 508.728 181.008Z" fill="#D06CC2"/>
<path d="M234.402 166.929C234.227 166.929 234.059 166.849 233.935 166.707C233.811 166.566 233.742 166.373 233.742 166.173V159.806C233.742 159.605 233.811 159.413 233.935 159.271C234.059 159.129 234.227 159.05 234.402 159.05C234.577 159.05 234.745 159.129 234.869 159.271C234.993 159.413 235.063 159.605 235.063 159.806V166.173C235.063 166.373 234.993 166.566 234.869 166.707C234.745 166.849 234.577 166.929 234.402 166.929Z" fill="#D06CC2"/>
<path d="M243.753 171.269H238.193C238.017 171.269 237.849 171.189 237.726 171.048C237.602 170.906 237.532 170.713 237.532 170.513C237.532 170.312 237.602 170.12 237.726 169.978C237.849 169.836 238.017 169.757 238.193 169.757H243.753C243.928 169.757 244.096 169.836 244.22 169.978C244.344 170.12 244.413 170.312 244.413 170.513C244.413 170.713 244.344 170.906 244.22 171.048C244.096 171.189 243.928 171.269 243.753 171.269Z" fill="#D06CC2"/>
<path d="M234.402 181.976C234.227 181.976 234.059 181.897 233.935 181.755C233.811 181.613 233.742 181.421 233.742 181.22V174.853C233.742 174.653 233.811 174.46 233.935 174.319C234.059 174.177 234.227 174.097 234.402 174.097C234.577 174.097 234.745 174.177 234.869 174.319C234.993 174.46 235.063 174.653 235.063 174.853V181.22C235.063 181.421 234.993 181.613 234.869 181.755C234.745 181.897 234.577 181.976 234.402 181.976Z" fill="#D06CC2"/>
<path d="M230.612 171.269H225.052C224.876 171.269 224.708 171.189 224.585 171.048C224.461 170.906 224.391 170.713 224.391 170.513C224.391 170.312 224.461 170.12 224.585 169.978C224.708 169.836 224.876 169.757 225.052 169.757H230.612C230.787 169.757 230.955 169.836 231.079 169.978C231.203 170.12 231.272 170.312 231.272 170.513C231.272 170.713 231.203 170.906 231.079 171.048C230.955 171.189 230.787 171.269 230.612 171.269Z" fill="#D06CC2"/>
</svg>
