<svg width="785" height="145" viewBox="0 0 785 145" fill="none" xmlns="http://www.w3.org/2000/svg">
<g clip-path="url(#clip0_908_411)">
<path d="M35.5991 51.016C42.3246 53.7575 46.9084 63.3308 43.8653 66.5951C43.8653 66.5951 42.9247 64.6469 40.2384 63.3883C37.5521 62.1298 35.8417 59.7577 32.4381 59.1382C30.4855 58.7828 27.5039 58.9109 27.3746 59.1481C27.2454 59.3853 33.0514 64.3947 38.0706 66.2065C43.0898 68.0184 43.5852 78.1329 34.574 83.0675C34.484 81.6854 33.4704 79.9347 32.5978 77.9915C30.4492 73.2065 29.0775 65.3059 25.5912 66.4827C22.0245 67.6867 24.4196 74.0482 25.9573 76.8344C27.5 79.4183 30.6507 83.4374 29.0343 87.4326C27.483 91.267 24.0262 94.4445 20.0083 92.9745C15.9904 91.5045 18.1727 92.282 18.1727 92.282C18.6221 92.4243 19.1953 92.4496 19.7793 92.2344C21.3972 91.6382 19.6865 89.5628 19.6388 87.8509C19.5474 84.5716 21.4407 81.4493 20.0741 80.0894C18.7076 78.7295 17.2289 79.2775 17.0901 80.9246C16.9166 82.9836 19.2068 90.3843 16.1932 92.434C13.1796 94.4837 2.4768 97.8815 2.4768 97.8815C2.4768 97.8815 5.12077 90.7081 3.20017 88.431C1.27958 86.154 1.6918 80.1581 4.47006 76.8172C6.63181 74.2177 8.40705 74.0924 11.8305 73.7519C15.1729 73.4195 20.4246 70.7434 18.7477 68.5992C17.4062 66.8838 16.315 67.0686 15.9371 67.3754C11.811 69.7066 3.54861 74.6918 3.25661 76.1207C3.2549 76.1316 3.25312 76.1424 3.25128 76.1532C3.25258 76.1426 3.25436 76.1318 3.25661 76.1207C3.52218 74.4412 2.2008 72.6478 2.27966 70.3939C2.414 66.5545 4.53364 63.008 5.95767 61.3227C7.7377 59.2162 15.9847 60.3256 16.0993 60.6957C16.2138 61.0657 23.3713 61.2738 21.9824 57.4407C20.4337 56.8019 16.7564 56.0084 14.4372 57.9442C12.1179 59.88 6.00189 59.501 6.00189 59.501C6.65797 57.91 7.32115 56.0362 8.84541 54.2822C12.1457 50.4843 18.3884 47.7914 20.9405 49.4896C22.9398 50.8199 24.505 54.0967 25.0756 55.6636C23.2089 50.3684 27.2898 45.9881 29.5782 44.4526C31.705 44.701 35.15 45.262 31.9152 45.5184C28.9446 45.3068 26.5549 51.5543 25.7314 54.7045C27.3958 52.2197 30.9202 49.1087 35.5991 51.016Z" fill="#F64F4F"/>
<path d="M34.6218 50.6855C41.1773 53.3344 45.5582 62.7972 42.5414 66.0757C42.5414 66.0757 41.6421 64.1501 39.0257 62.9295C36.4092 61.709 34.7609 59.3708 31.4347 58.7935C29.5265 58.4623 26.6052 58.6232 26.4759 58.8604C26.3467 59.0977 31.976 64.0108 36.8709 65.7549C41.7658 67.499 42.1369 77.5458 33.2565 82.5517C33.184 81.1791 32.2112 79.4506 31.3785 77.5291C29.3283 72.7978 28.0741 64.9612 24.6466 66.1701C21.1402 67.4069 23.414 73.7023 24.8885 76.4541C26.3701 79.0047 29.3697 83.007 27.7823 86.9525C26.2486 90.7645 22.8836 93.4895 18.8806 92.5621C18.1539 92.3937 16.7806 92.4639 17.0908 91.8945C17.5293 92.0309 18.0904 92.0496 18.6647 91.8291C20.2558 91.2183 18.6039 89.175 18.5765 87.4741C18.524 84.216 20.4133 81.0915 19.0904 79.7554C17.7674 78.4193 16.3131 78.9805 16.1586 80.6191C15.9655 82.6674 18.1248 89.9968 15.1505 92.0679C12.1762 94.139 1.65656 97.6366 1.65656 97.6366C1.65656 97.6366 4.32669 90.4774 2.47152 88.236C0.616339 85.9946 1.08764 80.031 3.84607 76.6793C5.9924 74.0713 7.73232 73.9267 11.0888 73.5498C14.3657 73.1818 19.5389 70.4629 17.9209 68.3507C16.6266 66.661 15.5558 66.857 15.1823 67.1662C11.1153 69.5295 2.96765 74.5773 2.66559 76.0007C2.66379 76.0115 2.66193 76.0223 2.66 76.033C2.66139 76.0225 2.66326 76.0117 2.66559 76.0007C2.9446 74.3285 1.67078 72.561 1.77343 70.32C1.94828 66.5027 4.06404 62.9541 5.4776 61.2632C7.24455 59.1495 15.3084 60.1591 15.4164 60.5256C15.5244 60.8921 22.5314 61.0182 21.2145 57.2243C19.705 56.6069 16.1128 55.8597 13.8197 57.8098C11.5266 59.7598 5.54145 59.4521 5.54145 59.4521C6.20189 57.8636 6.87247 55.9938 8.38497 54.2333C11.6598 50.4216 17.8037 47.6748 20.2838 49.3338C22.2267 50.6334 23.7226 53.8724 24.2637 55.4233C22.4954 50.1816 26.5412 45.7822 28.7995 44.2303C30.8795 44.4532 34.2469 44.9719 31.0761 45.2632C28.1695 45.0865 25.7588 51.3226 24.9167 54.4627C26.5747 51.9744 30.0613 48.8427 34.6218 50.6855Z" fill="#D9D9D9"/>
<path d="M69.6656 82.963C77.482 86.6241 89.5358 82.907 89.932 77.6183C89.932 77.6183 87.4727 78.3679 84.208 77.0375C80.9433 75.707 77.4932 76.1263 74.208 73.6543C72.3234 72.2361 70.0311 69.5298 70.134 69.2257C70.2369 68.9216 79.2917 69.9515 84.9205 72.8726C90.5493 75.7937 99.7792 68.0708 96.8216 56.2248C95.5424 57.2606 93.1967 57.7873 90.7966 58.5924C84.8866 60.5746 76.8831 65.7474 75.0995 61.7547C73.2747 57.6701 80.7598 54.6318 84.4322 53.7278C87.9319 52.9913 93.9812 52.5013 96.1659 47.8688C98.2626 43.4228 98.2495 37.8428 93.7265 35.5202C89.2035 33.1977 91.6419 34.4761 91.6419 34.4761C92.1285 34.7536 92.6128 35.2337 92.8958 35.917C93.6797 37.8103 90.4885 37.9901 88.9554 39.3288C86.0188 41.8931 84.8194 46.0636 82.5303 45.967C80.2412 45.8704 79.5273 44.1376 80.8535 42.6883C82.5112 40.8767 90.8188 36.909 90.1785 32.6253C89.5381 28.3416 83.8748 16.2579 83.8748 16.2579C83.8748 16.2579 79.7439 24.3502 76.2074 24.5094C72.6709 24.6686 67.7686 29.863 67.092 34.9823C66.5655 38.9656 67.8874 40.6165 70.3506 43.8799C72.7553 47.0659 74.6534 53.8086 71.4293 54.0736C68.8501 54.2855 68.1316 53.1838 68.0947 52.6065C66.803 47.1246 64.4934 35.8916 65.5055 34.4845C65.5135 34.4743 65.5215 34.464 65.5295 34.4537C65.5213 34.4633 65.5133 34.4736 65.5055 34.4845C64.2532 36.0706 61.6221 36.363 59.7179 38.2492C56.4743 41.4621 55.0871 46.1722 54.764 48.7743C54.3601 52.0269 61.9783 58.3324 62.3937 58.134C62.8091 57.9356 68.7619 64.0166 64.2956 65.8947C62.4892 65.0577 58.8314 62.4871 58.6514 58.9014C58.4714 55.3157 53.2092 50.2818 53.2092 50.2818C52.3492 52.1373 51.248 54.2272 50.9457 56.9723C50.291 62.9158 52.9734 70.5373 56.5138 71.3961C59.2873 72.069 63.4103 70.7933 65.2383 70.028C59.1101 72.6678 58.5763 79.7625 59.0808 82.9985C61.0126 84.655 64.28 87.2104 61.8957 84.1795C59.3159 81.7566 62.8434 74.6329 64.9296 71.3739C64.1023 74.8306 64.2279 80.4159 69.6656 82.963Z" fill="#F64F4F"/>
<path d="M68.5887 82.3762C76.187 85.9636 87.9809 82.1585 88.4106 76.8812C88.4106 76.8812 86.0044 77.6488 82.8292 76.3486C79.6539 75.0484 76.2835 75.4946 73.0976 73.0562C71.2699 71.6573 69.0549 68.9771 69.1578 68.673C69.2606 68.3689 78.089 69.3221 83.5585 72.1893C89.0279 75.0565 98.0984 67.2798 95.3086 55.4904C94.0518 56.5339 91.7582 57.0783 89.4094 57.9006C83.6255 59.9256 75.7726 65.1493 74.0645 61.1822C72.317 57.1236 79.6465 54.0328 83.2379 53.1013C86.6593 52.3383 92.5721 51.73 94.7367 47.1629C96.8282 42.7502 96.4941 37.6152 92.4567 34.8682C91.7238 34.3695 90.6778 33.114 90.4308 33.8439C90.9034 34.1167 91.3721 34.5915 91.6427 35.2707C92.3924 37.1523 89.2765 37.3577 87.7695 38.7052C84.8826 41.2863 83.6782 45.4551 81.445 45.3774C79.2118 45.2997 78.5292 43.5775 79.8353 42.1214C81.4678 40.3013 89.6077 36.2768 89.0177 32.0101C88.4277 27.7435 82.9992 15.7393 82.9992 15.7393C82.9992 15.7393 78.9019 23.8429 75.4492 24.0304C71.9965 24.218 67.17 29.438 66.4679 34.5487C65.9217 38.5254 67.1983 40.161 69.5756 43.3953C71.8965 46.5529 73.6939 53.2616 70.5453 53.5521C68.0265 53.7844 67.3342 52.6916 67.303 52.1162C66.087 46.6599 63.9245 35.4767 64.9237 34.0652C64.9316 34.055 64.9395 34.0447 64.9474 34.0343C64.9393 34.044 64.9314 34.0543 64.9237 34.0652C63.6887 35.6572 61.1185 35.9702 59.2448 37.8667C56.0531 41.0972 54.661 45.8056 54.3245 48.4032C53.9038 51.6501 61.2872 57.8761 61.6942 57.6749C62.1012 57.4737 67.8611 63.4894 63.487 65.3988C61.7309 64.5787 58.1822 62.045 58.0358 58.4707C57.8893 54.8964 52.7948 49.9192 52.7948 49.9192C51.9404 51.7766 50.8487 53.8697 50.5313 56.6096C49.844 62.5421 52.3997 70.1207 55.8478 70.9484C58.549 71.5968 62.583 70.2911 64.3733 69.513C58.3712 72.1955 57.7925 79.2749 58.2585 82.4979C60.1303 84.1341 63.2982 86.6558 60.9959 83.6527C58.498 81.2575 61.9986 74.1247 64.0611 70.8577C63.2256 74.3115 63.3027 79.8805 68.5887 82.3762Z" fill="#D9D9D9"/>
<path d="M54.608 25.65C57.9635 19.5828 55.6339 9.72182 51.4165 9.1193C51.4165 9.1193 51.8848 11.1307 50.6426 13.6756C49.4003 16.2205 49.5505 19.0081 47.3922 21.5079C46.1541 22.9419 43.8615 24.6333 43.6233 24.5344C43.3851 24.4356 44.6985 17.234 47.3429 12.8801C49.9874 8.52621 44.2952 0.712679 34.6416 2.44476C35.4029 3.52579 35.6986 5.4342 36.2145 7.40116C37.4847 12.2446 41.1993 18.9379 37.9032 20.1522C34.5312 21.3946 32.4995 15.2319 31.9728 12.2398C31.5711 9.39529 31.5043 4.52058 27.9093 2.52002C24.459 0.599988 19.9861 0.309809 17.8809 3.80968C15.7758 7.30955 16.9317 5.42414 16.9317 5.42414C17.1804 5.04916 17.5912 4.68685 18.1542 4.49689C19.7138 3.97057 19.686 6.53796 20.6763 7.83879C22.5732 10.3306 25.8511 11.5166 25.6503 13.346C25.4496 15.1754 24.0223 15.6542 22.9322 14.5132C21.5696 13.087 18.8372 6.21492 15.3695 6.49731C11.9018 6.7797 1.91204 10.6675 1.91204 10.6675C1.91204 10.6675 8.17507 14.4143 8.11211 17.2573C8.04914 20.1003 11.9481 24.3092 16.0146 25.1273C19.1787 25.7639 20.5731 24.7934 23.3213 22.9951C26.0043 21.2395 31.5106 20.0816 31.5493 22.6798C31.5801 24.7584 30.6585 25.2749 30.1938 25.2733C25.7306 26.0132 16.6033 27.259 15.5301 26.372C15.5224 26.365 15.5146 26.358 15.5067 26.3511C15.514 26.3582 15.5218 26.3652 15.5301 26.372C16.7338 27.4611 16.8264 29.5856 18.2355 31.2134C20.6358 33.9862 24.336 35.3518 26.4041 35.7509C28.9891 36.2499 34.4533 30.4839 34.3166 30.1403C34.18 29.7967 39.3745 25.3534 40.6391 29.0342C39.8709 30.4369 37.6135 33.23 34.7301 33.181C31.8466 33.132 27.5285 37.0783 27.5285 37.0783C28.9693 37.8675 30.5849 38.8627 32.7687 39.2529C37.4969 40.0979 43.7498 38.3587 44.6289 35.5675C45.3176 33.3809 44.5174 30.0078 44.0026 28.5015C45.7881 33.5552 51.4454 34.3653 54.0662 34.1353C55.4979 32.6763 57.7219 30.1953 55.1643 31.943C53.0835 33.88 47.5642 30.669 45.0646 28.8213C47.7904 29.6707 52.2737 29.8709 54.608 25.65Z" fill="#D9D9D9"/>
<path d="M54.0795 26.4815C57.3641 20.5851 54.95 10.9277 50.7435 10.2989C50.7435 10.2989 51.2291 12.2687 50.0159 14.7435C48.8027 17.2183 48.9788 19.9436 46.8528 22.3656C45.6331 23.7551 43.3657 25.3859 43.1275 25.287C42.8893 25.1882 44.129 18.164 46.7217 13.9349C49.3144 9.70579 43.5704 2.01707 33.9713 3.61777C34.7399 4.68129 35.0526 6.54882 35.5851 8.47564C36.8964 13.2203 40.6598 19.7956 37.3883 20.9508C34.0414 22.1327 31.9591 16.0918 31.4061 13.1633C30.9789 10.38 30.81 5.60828 27.2663 3.62735C23.8424 1.71336 19.7089 1.70445 17.2897 4.7922C16.8505 5.35277 15.7879 6.12345 16.3596 6.36069C16.6037 5.99665 17.0095 5.64654 17.5684 5.46627C19.1169 4.96682 19.1135 7.47517 20.1123 8.75562C22.0254 11.2084 25.3017 12.3984 25.1191 14.184C24.9365 15.9696 23.5194 16.4239 22.4228 15.2987C21.052 13.8922 18.2651 7.15146 14.8137 7.39444C11.3624 7.63742 1.44892 11.3413 1.44892 11.3413C1.44892 11.3413 7.72286 15.0618 7.68715 17.8391C7.65144 20.6164 11.575 24.766 15.6332 25.6041C18.7909 26.2562 20.1706 25.3211 22.8909 23.5901C25.5467 21.9001 31.0203 20.8211 31.0834 23.3602C31.1339 25.3915 30.2208 25.8874 29.7579 25.8814C25.3194 26.562 16.2399 27.6925 15.1625 26.8157C15.1547 26.8087 15.1469 26.8018 15.139 26.795C15.1464 26.802 15.1542 26.8089 15.1625 26.8157C16.3718 27.8912 16.4842 29.968 17.9032 31.5719C20.3204 34.304 24.019 35.6735 26.0827 36.0831C28.6623 36.5952 34.0501 31.0132 33.9108 30.6762C33.7714 30.3391 38.9032 26.0469 40.1978 29.6555C39.4459 31.0187 37.224 33.7264 34.3514 33.6512C31.4789 33.5759 27.2153 37.3908 27.2153 37.3908C28.6579 38.1756 30.2766 39.1634 32.4555 39.5654C37.1731 40.4359 43.3848 38.796 44.234 36.0771C44.8992 33.9471 44.0701 30.6436 43.5429 29.1669C45.3695 34.1218 51.0122 34.9672 53.6204 34.7673C55.0326 33.3554 57.2243 30.9523 54.6934 32.6356C52.6391 34.5086 47.1111 31.3186 44.6039 29.4895C47.327 30.3453 51.7944 30.5836 54.0795 26.4815Z" fill="#D9D9D9"/>
</g>
<g clip-path="url(#clip1_908_411)">
<path d="M749.401 55.016C742.675 57.7575 738.092 67.3308 741.135 70.5951C741.135 70.5951 742.075 68.6469 744.762 67.3883C747.448 66.1298 749.158 63.7577 752.562 63.1382C754.515 62.7828 757.496 62.9109 757.625 63.1481C757.755 63.3853 751.949 68.3947 746.929 70.2065C741.91 72.0184 741.415 82.1329 750.426 87.0675C750.516 85.6854 751.53 83.9347 752.402 81.9915C754.551 77.2065 755.922 69.3059 759.409 70.4827C762.976 71.6867 760.58 78.0482 759.043 80.8344C757.5 83.4183 754.349 87.4374 755.966 91.4326C757.517 95.267 760.974 98.4445 764.992 96.9745C769.01 95.5045 766.827 96.282 766.827 96.282C766.378 96.4243 765.805 96.4496 765.221 96.2344C763.603 95.6382 765.314 93.5628 765.361 91.8509C765.453 88.5716 763.559 85.4493 764.926 84.0894C766.292 82.7295 767.771 83.2775 767.91 84.9246C768.083 86.9836 765.793 94.3843 768.807 96.434C771.82 98.4837 782.523 101.881 782.523 101.881C782.523 101.881 779.879 94.7081 781.8 92.431C783.72 90.154 783.308 84.1581 780.53 80.8172C778.368 78.2177 776.593 78.0924 773.169 77.7519C769.827 77.4195 764.575 74.7434 766.252 72.5992C767.594 70.8838 768.685 71.0686 769.063 71.3754C773.189 73.7066 781.451 78.6918 781.743 80.1207C781.745 80.1316 781.747 80.1424 781.749 80.1532C781.747 80.1426 781.746 80.1318 781.743 80.1207C781.478 78.4412 782.799 76.6478 782.72 74.3939C782.586 70.5545 780.466 67.008 779.042 65.3227C777.262 63.2162 769.015 64.3256 768.901 64.6957C768.786 65.0657 761.629 65.2738 763.018 61.4407C764.566 60.8019 768.244 60.0084 770.563 61.9442C772.882 63.88 778.998 63.501 778.998 63.501C778.342 61.91 777.679 60.0362 776.155 58.2822C772.854 54.4843 766.612 51.7914 764.059 53.4896C762.06 54.8199 760.495 58.0967 759.924 59.6636C761.791 54.3684 757.71 49.9881 755.422 48.4526C753.295 48.701 749.85 49.262 753.085 49.5184C756.055 49.3068 758.445 55.5543 759.269 58.7045C757.604 56.2197 754.08 53.1087 749.401 55.016Z" fill="#F64F4F"/>
<path d="M750.378 54.6855C743.823 57.3344 739.442 66.7972 742.459 70.0757C742.459 70.0757 743.358 68.1501 745.974 66.9295C748.591 65.709 750.239 63.3708 753.565 62.7935C755.474 62.4623 758.395 62.6232 758.524 62.8604C758.653 63.0977 753.024 68.0108 748.129 69.7549C743.234 71.499 742.863 81.5458 751.743 86.5517C751.816 85.1791 752.789 83.4506 753.621 81.5291C755.672 76.7978 756.926 68.9612 760.353 70.1701C763.86 71.4069 761.586 77.7023 760.111 80.4541C758.63 83.0047 755.63 87.007 757.218 90.9525C758.751 94.7645 762.116 97.4895 766.119 96.5621C766.846 96.3937 768.219 96.4639 767.909 95.8945C767.471 96.0309 766.91 96.0496 766.335 95.8291C764.744 95.2183 766.396 93.175 766.424 91.4741C766.476 88.216 764.587 85.0915 765.91 83.7554C767.233 82.4193 768.687 82.9805 768.841 84.6191C769.034 86.6674 766.875 93.9968 769.849 96.0679C772.824 98.139 783.343 101.637 783.343 101.637C783.343 101.637 780.673 94.4774 782.528 92.236C784.384 89.9946 783.912 84.031 781.154 80.6793C779.008 78.0713 777.268 77.9267 773.911 77.5498C770.634 77.1818 765.461 74.4629 767.079 72.3507C768.373 70.661 769.444 70.857 769.818 71.1662C773.885 73.5295 782.032 78.5773 782.334 80.0007C782.336 80.0115 782.338 80.0223 782.34 80.033C782.339 80.0225 782.337 80.0117 782.334 80.0007C782.055 78.3285 783.329 76.561 783.227 74.32C783.052 70.5027 780.936 66.9541 779.522 65.2632C777.755 63.1495 769.692 64.1591 769.584 64.5256C769.476 64.8921 762.469 65.0182 763.785 61.2243C765.295 60.6069 768.887 59.8597 771.18 61.8098C773.473 63.7598 779.459 63.4521 779.459 63.4521C778.798 61.8636 778.128 59.9938 776.615 58.2333C773.34 54.4216 767.196 51.6748 764.716 53.3338C762.773 54.6334 761.277 57.8724 760.736 59.4233C762.505 54.1816 758.459 49.7822 756.2 48.2303C754.12 48.4532 750.753 48.9719 753.924 49.2632C756.831 49.0865 759.241 55.3226 760.083 58.4627C758.425 55.9744 754.939 52.8427 750.378 54.6855Z" fill="#D9D9D9"/>
<path d="M715.334 86.963C707.518 90.6241 695.464 86.907 695.068 81.6183C695.068 81.6183 697.527 82.3679 700.792 81.0375C704.057 79.707 707.507 80.1263 710.792 77.6543C712.677 76.2361 714.969 73.5298 714.866 73.2257C714.763 72.9216 705.708 73.9515 700.079 76.8726C694.451 79.7937 685.221 72.0708 688.178 60.2248C689.458 61.2606 691.803 61.7873 694.203 62.5924C700.113 64.5746 708.117 69.7474 709.901 65.7547C711.725 61.6701 704.24 58.6318 700.568 57.7278C697.068 56.9913 691.019 56.5013 688.834 51.8688C686.737 47.4228 686.75 41.8428 691.273 39.5202C695.796 37.1977 693.358 38.4761 693.358 38.4761C692.872 38.7536 692.387 39.2337 692.104 39.917C691.32 41.8103 694.512 41.9901 696.045 43.3288C698.981 45.8931 700.181 50.0636 702.47 49.967C704.759 49.8704 705.473 48.1376 704.147 46.6883C702.489 44.8767 694.181 40.909 694.822 36.6253C695.462 32.3416 701.125 20.2579 701.125 20.2579C701.125 20.2579 705.256 28.3502 708.793 28.5094C712.329 28.6686 717.231 33.863 717.908 38.9823C718.435 42.9656 717.113 44.6165 714.649 47.8799C712.245 51.0659 710.347 57.8086 713.571 58.0736C716.15 58.2855 716.868 57.1838 716.905 56.6065C718.197 51.1246 720.507 39.8916 719.495 38.4845C719.486 38.4743 719.478 38.464 719.471 38.4537C719.479 38.4633 719.487 38.4736 719.495 38.4845C720.747 40.0706 723.378 40.363 725.282 42.2492C728.526 45.4621 729.913 50.1722 730.236 52.7743C730.64 56.0269 723.022 62.3324 722.606 62.134C722.191 61.9356 716.238 68.0166 720.704 69.8947C722.511 69.0577 726.169 66.4871 726.349 62.9014C726.529 59.3157 731.791 54.2818 731.791 54.2818C732.651 56.1373 733.752 58.2272 734.054 60.9723C734.709 66.9158 732.027 74.5373 728.486 75.3961C725.713 76.069 721.59 74.7933 719.762 74.028C725.89 76.6678 726.424 83.7625 725.919 86.9985C723.987 88.655 720.72 91.2104 723.104 88.1795C725.684 85.7566 722.157 78.6329 720.07 75.3739C720.898 78.8306 720.772 84.4159 715.334 86.963Z" fill="#F64F4F"/>
<path d="M716.411 86.3762C708.813 89.9636 697.019 86.1585 696.589 80.8812C696.589 80.8812 698.996 81.6488 702.171 80.3486C705.346 79.0484 708.716 79.4946 711.902 77.0562C713.73 75.6573 715.945 72.9771 715.842 72.673C715.739 72.3689 706.911 73.3221 701.442 76.1893C695.972 79.0565 686.902 71.2798 689.691 59.4904C690.948 60.5339 693.242 61.0783 695.591 61.9006C701.374 63.9256 709.227 69.1493 710.936 65.1822C712.683 61.1236 705.353 58.0328 701.762 57.1013C698.341 56.3383 692.428 55.73 690.263 51.1629C688.172 46.7502 688.506 41.6152 692.543 38.8682C693.276 38.3695 694.322 37.114 694.569 37.8439C694.097 38.1167 693.628 38.5915 693.357 39.2707C692.608 41.1523 695.723 41.3577 697.231 42.7052C700.117 45.2863 701.322 49.4551 703.555 49.3774C705.788 49.2997 706.471 47.5775 705.165 46.1214C703.532 44.3013 695.392 40.2768 695.982 36.0101C696.572 31.7435 702.001 19.7393 702.001 19.7393C702.001 19.7393 706.098 27.8429 709.551 28.0304C713.003 28.218 717.83 33.438 718.532 38.5487C719.078 42.5254 717.802 44.161 715.424 47.3953C713.104 50.5529 711.306 57.2616 714.455 57.5521C716.974 57.7844 717.666 56.6916 717.697 56.1162C718.913 50.6599 721.076 39.4767 720.076 38.0652C720.068 38.055 720.06 38.0447 720.053 38.0343C720.061 38.044 720.069 38.0543 720.076 38.0652C721.311 39.6572 723.881 39.9702 725.755 41.8667C728.947 45.0972 730.339 49.8056 730.676 52.4032C731.096 55.6501 723.713 61.8761 723.306 61.6749C722.899 61.4737 717.139 67.4894 721.513 69.3988C723.269 68.5787 726.818 66.045 726.964 62.4707C727.111 58.8964 732.205 53.9192 732.205 53.9192C733.06 55.7766 734.151 57.8697 734.469 60.6096C735.156 66.5421 732.6 74.1207 729.152 74.9484C726.451 75.5968 722.417 74.2911 720.627 73.513C726.629 76.1955 727.207 83.2749 726.741 86.4979C724.87 88.1341 721.702 90.6558 724.004 87.6527C726.502 85.2575 723.001 78.1247 720.939 74.8577C721.774 78.3115 721.697 83.8805 716.411 86.3762Z" fill="#D9D9D9"/>
<path d="M730.392 29.65C727.036 23.5828 729.366 13.7218 733.583 13.1193C733.583 13.1193 733.115 15.1307 734.357 17.6756C735.6 20.2205 735.45 23.0081 737.608 25.5079C738.846 26.9419 741.138 28.6333 741.377 28.5344C741.615 28.4356 740.302 21.234 737.657 16.8801C735.013 12.5262 740.705 4.71268 750.358 6.44476C749.597 7.52579 749.301 9.4342 748.785 11.4012C747.515 16.2446 743.801 22.9379 747.097 24.1522C750.469 25.3946 752.501 19.2319 753.027 16.2398C753.429 13.3953 753.496 8.52058 757.091 6.52002C760.541 4.59999 765.014 4.30981 767.119 7.80968C769.224 11.3095 768.068 9.42414 768.068 9.42414C767.82 9.04916 767.409 8.68685 766.846 8.49689C765.286 7.97057 765.314 10.538 764.324 11.8388C762.427 14.3306 759.149 15.5166 759.35 17.346C759.55 19.1754 760.978 19.6542 762.068 18.5132C763.43 17.087 766.163 10.2149 769.63 10.4973C773.098 10.7797 783.088 14.6675 783.088 14.6675C783.088 14.6675 776.825 18.4143 776.888 21.2573C776.951 24.1003 773.052 28.3092 768.985 29.1273C765.821 29.7639 764.427 28.7934 761.679 26.9951C758.996 25.2395 753.489 24.0816 753.451 26.6798C753.42 28.7584 754.342 29.2749 754.806 29.2733C759.269 30.0132 768.397 31.259 769.47 30.372C769.478 30.365 769.485 30.358 769.493 30.3511C769.486 30.3582 769.478 30.3652 769.47 30.372C768.266 31.4611 768.174 33.5856 766.765 35.2134C764.364 37.9862 760.664 39.3518 758.596 39.7509C756.011 40.2499 750.547 34.4839 750.683 34.1403C750.82 33.7967 745.626 29.3534 744.361 33.0342C745.129 34.4369 747.386 37.23 750.27 37.181C753.153 37.132 757.472 41.0783 757.472 41.0783C756.031 41.8675 754.415 42.8627 752.231 43.2529C747.503 44.0979 741.25 42.3587 740.371 39.5675C739.682 37.3809 740.483 34.0078 740.997 32.5015C739.212 37.5552 733.555 38.3653 730.934 38.1353C729.502 36.6763 727.278 34.1953 729.836 35.943C731.917 37.88 737.436 34.669 739.935 32.8213C737.21 33.6707 732.726 33.8709 730.392 29.65Z" fill="#D9D9D9"/>
<path d="M730.921 30.4815C727.636 24.5851 730.05 14.9277 734.256 14.2989C734.256 14.2989 733.771 16.2687 734.984 18.7435C736.197 21.2183 736.021 23.9436 738.147 26.3656C739.367 27.7551 741.634 29.3859 741.872 29.287C742.111 29.1882 740.871 22.164 738.278 17.9349C735.686 13.7058 741.43 6.01707 751.029 7.61777C750.26 8.68129 749.947 10.5488 749.415 12.4756C748.104 17.2203 744.34 23.7956 747.612 24.9508C750.959 26.1327 753.041 20.0918 753.594 17.1633C754.021 14.38 754.19 9.60828 757.734 7.62735C761.158 5.71336 765.291 5.70445 767.71 8.7922C768.15 9.35277 769.212 10.1235 768.64 10.3607C768.396 9.99665 767.991 9.64654 767.432 9.46627C765.883 8.96682 765.886 11.4752 764.888 12.7556C762.975 15.2084 759.698 16.3984 759.881 18.184C760.064 19.9696 761.481 20.4239 762.577 19.2987C763.948 17.8922 766.735 11.1515 770.186 11.3944C773.638 11.6374 783.551 15.3413 783.551 15.3413C783.551 15.3413 777.277 19.0618 777.313 21.8391C777.349 24.6164 773.425 28.766 769.367 29.6041C766.209 30.2562 764.829 29.3211 762.109 27.5901C759.453 25.9001 753.98 24.8211 753.917 27.3602C753.866 29.3915 754.779 29.8874 755.242 29.8814C759.681 30.562 768.76 31.6925 769.837 30.8157C769.845 30.8087 769.853 30.8018 769.861 30.795C769.854 30.802 769.846 30.8089 769.837 30.8157C768.628 31.8912 768.516 33.968 767.097 35.5719C764.68 38.304 760.981 39.6735 758.917 40.0831C756.338 40.5952 750.95 35.0132 751.089 34.6762C751.229 34.3391 746.097 30.0469 744.802 33.6555C745.554 35.0187 747.776 37.7264 750.649 37.6512C753.521 37.5759 757.785 41.3908 757.785 41.3908C756.342 42.1756 754.723 43.1634 752.545 43.5654C747.827 44.4359 741.615 42.796 740.766 40.0771C740.101 37.9471 740.93 34.6436 741.457 33.1669C739.631 38.1218 733.988 38.9672 731.38 38.7673C729.967 37.3554 727.776 34.9523 730.307 36.6356C732.361 38.5086 737.889 35.3186 740.396 33.4895C737.673 34.3453 733.206 34.5836 730.921 30.4815Z" fill="#D9D9D9"/>
</g>
<defs>
<clipPath id="clip0_908_411">
<rect width="135" height="141" fill="white"/>
</clipPath>
<clipPath id="clip1_908_411">
<rect width="139" height="141" fill="white" transform="matrix(-1 0 0 1 785 4)"/>
</clipPath>
</defs>
</svg>
