<svg width="216" height="61" viewBox="0 0 216 61" fill="none" xmlns="http://www.w3.org/2000/svg">
<rect y="2" width="216" height="59" rx="8" fill="#631465"/>
<path d="M23.44 46L18.768 37.52H17.456V46H11.984V23.536H21.168C22.9387 23.536 24.4427 23.8453 25.68 24.464C26.9387 25.0827 27.8773 25.936 28.496 27.024C29.1147 28.0907 29.424 29.2853 29.424 30.608C29.424 32.1013 28.9973 33.4347 28.144 34.608C27.312 35.7813 26.0747 36.6133 24.432 37.104L29.616 46H23.44ZM17.456 33.648H20.848C21.8507 33.648 22.5973 33.4027 23.088 32.912C23.6 32.4213 23.856 31.728 23.856 30.832C23.856 29.9787 23.6 29.3067 23.088 28.816C22.5973 28.3253 21.8507 28.08 20.848 28.08H17.456V33.648ZM50.491 28.144V46H45.019V43.568C44.4643 44.3573 43.707 44.9973 42.747 45.488C41.8083 45.9573 40.763 46.192 39.611 46.192C38.2457 46.192 37.0403 45.8933 35.995 45.296C34.9497 44.6773 34.139 43.792 33.563 42.64C32.987 41.488 32.699 40.1333 32.699 38.576V28.144H38.139V37.84C38.139 39.0347 38.4483 39.9627 39.067 40.624C39.6857 41.2853 40.5177 41.616 41.563 41.616C42.6297 41.616 43.4723 41.2853 44.091 40.624C44.7097 39.9627 45.019 39.0347 45.019 37.84V28.144H50.491ZM53.3335 37.04C53.3335 35.2053 53.6748 33.5947 54.3575 32.208C55.0615 30.8213 56.0108 29.7547 57.2055 29.008C58.4002 28.2613 59.7335 27.888 61.2055 27.888C62.4642 27.888 63.5628 28.144 64.5015 28.656C65.4615 29.168 66.1975 29.84 66.7095 30.672V28.144H72.1815V46H66.7095V43.472C66.1762 44.304 65.4295 44.976 64.4695 45.488C63.5308 46 62.4322 46.256 61.1735 46.256C59.7228 46.256 58.4002 45.8827 57.2055 45.136C56.0108 44.368 55.0615 43.2907 54.3575 41.904C53.6748 40.496 53.3335 38.8747 53.3335 37.04ZM66.7095 37.072C66.7095 35.7067 66.3255 34.6293 65.5575 33.84C64.8108 33.0507 63.8935 32.656 62.8055 32.656C61.7175 32.656 60.7895 33.0507 60.0215 33.84C59.2748 34.608 58.9015 35.6747 58.9015 37.04C58.9015 38.4053 59.2748 39.4933 60.0215 40.304C60.7895 41.0933 61.7175 41.488 62.8055 41.488C63.8935 41.488 64.8108 41.0933 65.5575 40.304C66.3255 39.5147 66.7095 38.4373 66.7095 37.072ZM87.0203 27.952C89.1109 27.952 90.7749 28.6347 92.0123 30C93.2709 31.344 93.9003 33.2 93.9003 35.568V46H88.4603V36.304C88.4603 35.1093 88.1509 34.1813 87.5323 33.52C86.9136 32.8587 86.0816 32.528 85.0363 32.528C83.9909 32.528 83.1589 32.8587 82.5403 33.52C81.9216 34.1813 81.6123 35.1093 81.6123 36.304V46H76.1403V28.144H81.6123V30.512C82.1669 29.7227 82.9136 29.104 83.8523 28.656C84.7909 28.1867 85.8469 27.952 87.0203 27.952ZM104.487 27.888C105.745 27.888 106.844 28.144 107.783 28.656C108.743 29.168 109.479 29.84 109.991 30.672V28.144H115.463V45.968C115.463 47.6107 115.132 49.0933 114.471 50.416C113.831 51.76 112.839 52.8267 111.495 53.616C110.172 54.4053 108.519 54.8 106.535 54.8C103.889 54.8 101.745 54.1707 100.103 52.912C98.4601 51.6747 97.5214 49.9893 97.2868 47.856H102.695C102.865 48.5387 103.271 49.072 103.911 49.456C104.551 49.8613 105.34 50.064 106.279 50.064C107.409 50.064 108.305 49.7333 108.967 49.072C109.649 48.432 109.991 47.3973 109.991 45.968V43.44C109.457 44.272 108.721 44.9547 107.783 45.488C106.844 46 105.745 46.256 104.487 46.256C103.015 46.256 101.681 45.8827 100.487 45.136C99.2921 44.368 98.3428 43.2907 97.6388 41.904C96.9561 40.496 96.6148 38.8747 96.6148 37.04C96.6148 35.2053 96.9561 33.5947 97.6388 32.208C98.3428 30.8213 99.2921 29.7547 100.487 29.008C101.681 28.2613 103.015 27.888 104.487 27.888ZM109.991 37.072C109.991 35.7067 109.607 34.6293 108.839 33.84C108.092 33.0507 107.175 32.656 106.087 32.656C104.999 32.656 104.071 33.0507 103.303 33.84C102.556 34.608 102.183 35.6747 102.183 37.04C102.183 38.4053 102.556 39.4933 103.303 40.304C104.071 41.0933 104.999 41.488 106.087 41.488C107.175 41.488 108.092 41.0933 108.839 40.304C109.607 39.5147 109.991 38.4373 109.991 37.072ZM131.579 23.536V36.976C131.579 38.32 131.909 39.3547 132.571 40.08C133.232 40.8053 134.203 41.168 135.483 41.168C136.763 41.168 137.744 40.8053 138.427 40.08C139.109 39.3547 139.451 38.32 139.451 36.976V23.536H144.923V36.944C144.923 38.9493 144.496 40.6453 143.643 42.032C142.789 43.4187 141.637 44.464 140.187 45.168C138.757 45.872 137.157 46.224 135.387 46.224C133.616 46.224 132.027 45.8827 130.619 45.2C129.232 44.496 128.133 43.4507 127.323 42.064C126.512 40.656 126.107 38.9493 126.107 36.944V23.536H131.579ZM151.485 26.288C150.525 26.288 149.736 26.0107 149.117 25.456C148.52 24.88 148.221 24.176 148.221 23.344C148.221 22.4907 148.52 21.7867 149.117 21.232C149.736 20.656 150.525 20.368 151.485 20.368C152.424 20.368 153.192 20.656 153.789 21.232C154.408 21.7867 154.717 22.4907 154.717 23.344C154.717 24.176 154.408 24.88 153.789 25.456C153.192 26.0107 152.424 26.288 151.485 26.288ZM154.237 48.304C154.237 50.5013 153.683 52.08 152.573 53.04C151.464 54.0213 149.917 54.512 147.933 54.512H145.789V49.872H147.101C147.699 49.872 148.125 49.7547 148.381 49.52C148.637 49.2853 148.765 48.9013 148.765 48.368V28.144H154.237V48.304ZM160.924 26.288C159.964 26.288 159.174 26.0107 158.556 25.456C157.958 24.88 157.66 24.176 157.66 23.344C157.66 22.4907 157.958 21.7867 158.556 21.232C159.174 20.656 159.964 20.368 160.924 20.368C161.862 20.368 162.63 20.656 163.228 21.232C163.846 21.7867 164.156 22.4907 164.156 23.344C164.156 24.176 163.846 24.88 163.228 25.456C162.63 26.0107 161.862 26.288 160.924 26.288ZM163.644 28.144V46H158.172V28.144H163.644ZM166.521 37.04C166.521 35.2053 166.862 33.5947 167.545 32.208C168.249 30.8213 169.198 29.7547 170.393 29.008C171.588 28.2613 172.921 27.888 174.393 27.888C175.652 27.888 176.75 28.144 177.689 28.656C178.649 29.168 179.385 29.84 179.897 30.672V28.144H185.369V46H179.897V43.472C179.364 44.304 178.617 44.976 177.657 45.488C176.718 46 175.62 46.256 174.361 46.256C172.91 46.256 171.588 45.8827 170.393 45.136C169.198 44.368 168.249 43.2907 167.545 41.904C166.862 40.496 166.521 38.8747 166.521 37.04ZM179.897 37.072C179.897 35.7067 179.513 34.6293 178.745 33.84C177.998 33.0507 177.081 32.656 175.993 32.656C174.905 32.656 173.977 33.0507 173.209 33.84C172.462 34.608 172.089 35.6747 172.089 37.04C172.089 38.4053 172.462 39.4933 173.209 40.304C173.977 41.0933 174.905 41.488 175.993 41.488C177.081 41.488 177.998 41.0933 178.745 40.304C179.513 39.5147 179.897 38.4373 179.897 37.072ZM200.208 27.952C202.298 27.952 203.962 28.6347 205.2 30C206.458 31.344 207.088 33.2 207.088 35.568V46H201.648V36.304C201.648 35.1093 201.338 34.1813 200.72 33.52C200.101 32.8587 199.269 32.528 198.224 32.528C197.178 32.528 196.346 32.8587 195.728 33.52C195.109 34.1813 194.8 35.1093 194.8 36.304V46H189.328V28.144H194.8V30.512C195.354 29.7227 196.101 29.104 197.04 28.656C197.978 28.1867 199.034 27.952 200.208 27.952Z" fill="white"/>
<path d="M19.9994 14.7858C16.5395 14.7858 13.6 15.6347 11.68 16.9652V19.4401H28.32V16.9652C26.4 15.6347 23.4598 14.7858 19.9994 14.7858V14.7858ZM35.2768 13.5157L19.959 7.56006L4.64768 13.5157L7.2 14.5012V16.017C6.56 16.1288 6.55808 16.4117 6.55808 16.7482C6.55808 16.9469 6.63616 17.1796 6.78464 17.3189L5.90912 18.9001H9.03232L8.16448 17.3179C8.3104 17.1785 8.43008 16.9733 8.43008 16.7746C8.43008 16.4387 7.84 16.1282 7.84 16.0165V14.7545L11.04 15.9673V15.8599C12.96 14.451 16.3334 13.5568 19.9987 13.5568C23.6653 13.5568 27.04 14.451 28.96 15.8599V15.9673L35.2768 13.5157V13.5157Z" fill="white"/>
</svg>
