<svg width="500" height="520" viewBox="0 0 500 520" fill="none" xmlns="http://www.w3.org/2000/svg">
<circle cx="250" cy="250" r="250" fill="#D9D9D9" fill-opacity="0.5"/>
<g filter="url(#filter0_d_908_410)">
<path d="M364.659 331.776H444.15V271.745H364.659V331.776Z" fill="#EBEBEB"/>
<path d="M370.336 326.531H379.917V315.934H370.336V326.531Z" fill="white"/>
<path d="M419.904 271.896H410.873V284.701H419.904V271.896Z" fill="#FAFAFA"/>
<path d="M419.904 318.788H410.873V331.593H419.904V318.788Z" fill="#FAFAFA"/>
<path d="M384.493 332.185C384.35 332.185 384.24 318.982 384.24 302.697C384.24 286.413 384.35 273.209 384.493 273.209C384.636 273.209 384.746 286.413 384.746 302.697C384.746 318.982 384.636 332.185 384.493 332.185Z" fill="#E0E0E0"/>
<path d="M332.24 435.146H469.396V331.572H332.24V435.146Z" fill="#EBEBEB"/>
<path d="M342.042 426.11H358.565V407.823H342.042V426.11Z" fill="white"/>
<path d="M427.55 331.841H411.973V353.941H427.55V331.841Z" fill="#FAFAFA"/>
<path d="M427.55 412.734H411.973V434.834H427.55V412.734Z" fill="#FAFAFA"/>
<path d="M366.474 435.857C366.232 435.857 366.034 413.078 366.034 384.98C366.034 356.881 366.232 334.103 366.474 334.103C366.716 334.103 366.903 356.881 366.903 384.98C366.903 413.078 366.716 435.857 366.474 435.857Z" fill="#E0E0E0"/>
<path d="M465.04 116.152L472.389 130.724L488.813 133.061L476.932 144.413L479.737 160.427L465.04 152.867L450.344 160.427L453.149 144.413L441.268 133.061L457.692 130.724L465.04 116.152Z" fill="#EBEBEB"/>
<path d="M27.5346 304.367L32.1659 313.554L42.5174 315.019L35.026 322.17L36.7971 332.272L27.5346 327.501L18.2721 332.272L20.0432 322.17L12.5518 315.019L22.9033 313.554L27.5346 304.367Z" fill="#EBEBEB"/>
<path d="M33.2769 224.336L43.5624 244.734L66.5537 248.008L49.9208 263.883L53.848 286.306L33.2769 275.719L12.7167 286.306L16.6439 263.883L0 248.008L22.9913 244.734L33.2769 224.336Z" fill="#EBEBEB"/>
<path d="M458.495 181.967L462.928 190.766L472.839 192.177L465.667 199.016L467.361 208.676L458.495 204.12L449.628 208.676L451.322 199.016L444.15 192.177L454.061 190.766L458.495 181.967Z" fill="#EBEBEB"/>
<path d="M313.044 39.5352L317.478 48.3234L327.389 49.7343L320.217 56.5839L321.911 66.2445L313.044 61.6781L304.178 66.2445L305.872 56.5839L298.7 49.7343L308.611 48.3234L313.044 39.5352Z" fill="#EBEBEB"/>
<path d="M414.437 133.6L417.341 139.351L423.832 140.277L419.134 144.757L420.246 151.079L414.437 148.096L408.64 151.079L409.751 144.757L405.054 140.277L411.544 139.351L414.437 133.6Z" fill="#EBEBEB"/>
<path d="M146.792 424.064L152.447 435.265L165.075 437.063L155.934 445.787L158.101 458.108L146.792 452.292L135.495 458.108L137.651 445.787L128.509 437.063L141.149 435.265L146.792 424.064Z" fill="#EBEBEB"/>
<path d="M161.709 412.917L164.041 417.548L169.266 418.291L165.482 421.899L166.373 426.993L161.709 424.581L157.045 426.993L157.936 421.899L154.151 418.291L159.377 417.548L161.709 412.917Z" fill="#EBEBEB"/>
<path d="M370.336 370.009L375.308 379.863L386.418 381.446L378.377 389.115L380.28 399.949L370.336 394.833L360.402 399.949L362.305 389.115L354.264 381.446L365.374 379.863L370.336 370.009Z" fill="#FF725E"/>
<path d="M394.042 361.275L396.385 365.917L401.61 366.66L397.826 370.279L398.717 375.383L394.042 372.971L389.356 375.383L390.258 370.279L386.462 366.66L391.699 365.917L394.042 361.275Z" fill="#FF725E"/>
<path d="M362.976 104.79L366.892 92.8788C363.16 85.5202 362.027 77.1574 363.67 69.1005C365.313 61.0437 369.639 53.748 375.971 48.3565C382.303 42.965 390.284 39.7822 398.661 39.3068C407.039 38.8315 415.341 41.0904 422.267 45.7297C429.193 50.3689 434.351 57.1264 436.934 64.9435C439.517 72.7606 439.378 81.1956 436.539 88.9271C433.7 96.6585 428.322 103.25 421.246 107.668C414.171 112.086 405.799 114.081 397.441 113.342C389.286 112.798 381.57 109.528 375.583 104.079L362.976 104.79Z" fill="#FAFAFA"/>
<path d="M362.976 104.79L363.812 104.725L366.243 104.553L375.583 103.928C380.212 108.12 385.914 111.008 392.084 112.286C393.988 112.7 395.923 112.97 397.87 113.093L400.95 113.212C401.984 113.212 403.051 113.093 404.118 113.04C413.768 112.182 422.711 107.72 429.09 100.579C432.684 96.612 435.353 91.9261 436.911 86.8471C438.507 81.4198 438.83 75.7098 437.857 70.143C437.615 68.7119 437.277 67.298 436.845 65.9104C436.65 65.2076 436.411 64.5171 436.13 63.8426C435.855 63.1533 435.613 62.4641 435.316 61.7856C434.091 59.0464 432.54 56.4582 430.696 54.0743C429.777 52.886 428.781 51.7564 427.715 50.6926C427.197 50.1501 426.646 49.6394 426.064 49.1632C425.503 48.6786 424.964 48.1509 424.37 47.7093L422.566 46.3954L421.664 45.7492L420.696 45.1891L418.793 44.1121C418.144 43.7567 417.462 43.4875 416.802 43.1644C411.746 40.8219 406.218 39.6195 400.625 39.6455C395.031 39.6716 389.515 40.9256 384.482 43.3152C375.761 47.4156 368.989 54.6476 365.572 63.5088C365.385 64.0042 365.209 64.4996 365.033 64.9842C364.834 65.4624 364.676 65.9559 364.56 66.4597C364.307 67.4505 364.065 68.4306 363.823 69.3891C363.489 71.2673 363.261 73.1621 363.141 75.0649C362.895 81.22 364.218 87.3384 366.991 92.8675L364.043 101.677L363.262 103.961C363.086 104.477 362.987 104.747 362.987 104.747C362.987 104.747 363.053 104.499 363.218 103.993L363.922 101.731L366.749 92.8029V92.8891C363.902 87.3497 362.525 81.1977 362.745 75.0002C362.848 73.0761 363.065 71.1595 363.394 69.2599C363.636 68.2906 363.889 67.2998 364.131 66.2982C364.248 65.7889 364.402 65.2886 364.593 64.8011C364.78 64.3057 364.956 63.8103 365.143 63.3041C366.98 58.4728 369.822 54.0676 373.488 50.3672C377.155 46.6669 381.566 43.7521 386.442 41.8073C391.319 39.8625 396.555 38.9302 401.819 39.0692C407.083 39.2083 412.26 40.4157 417.022 42.6151C417.693 42.9275 418.386 43.2075 419.046 43.5737L420.982 44.7045L421.95 45.2753L422.874 45.9323L424.7 47.257C425.305 47.7201 425.855 48.2478 426.427 48.7324C427.014 49.2187 427.572 49.7364 428.1 50.2833C429.181 51.3689 430.191 52.52 431.125 53.7297C433.005 56.1272 434.589 58.7336 435.844 61.4948C436.141 62.1841 436.383 62.8949 436.658 63.5841C436.95 64.2863 437.196 65.0057 437.395 65.7381C437.83 67.1504 438.168 68.5896 438.407 70.0461C439.401 75.6955 439.07 81.4921 437.439 86.9979C435.877 92.1736 433.177 96.9521 429.53 100.999C423.054 108.208 413.995 112.704 404.228 113.557C403.128 113.557 402.028 113.707 401.016 113.707L397.903 113.578C395.937 113.443 393.984 113.163 392.062 112.738C385.869 111.41 380.164 108.454 375.561 104.187H375.649L366.221 104.671L363.823 104.779C363.24 104.79 362.976 104.79 362.976 104.79Z" fill="#263238"/>
<path d="M379.334 75.0007L385.571 69.7019L396.077 80.2672L419.64 61.0537L424.624 67.1387L394.438 91.1987L379.334 75.0007Z" fill="#FF725E"/>
<path d="M297.709 369.545L86.7615 415.576C85.5405 415.849 84.2764 415.883 83.0419 415.676C81.8075 415.469 80.6271 415.025 79.5688 414.369C78.5104 413.713 77.5951 412.859 76.8755 411.855C76.1559 410.852 75.6462 409.719 75.3758 408.521L6.96301 107.772C6.69047 106.58 6.66075 105.348 6.87555 104.145C7.09035 102.942 7.54544 101.792 8.21477 100.762C8.8841 99.7313 9.7545 98.8403 10.7761 98.1397C11.7978 97.4391 12.9505 96.9427 14.1684 96.6789L225.116 50.6483C226.334 50.3814 227.594 50.3522 228.823 50.5624C230.053 50.7725 231.228 51.2179 232.281 51.8731C233.334 52.5284 234.246 53.3805 234.962 54.3808C235.679 55.381 236.187 56.5099 236.458 57.7026L304.915 358.452C305.187 359.644 305.217 360.876 305.002 362.079C304.787 363.282 304.332 364.432 303.663 365.462C302.994 366.493 302.123 367.384 301.102 368.084C300.08 368.785 298.927 369.281 297.709 369.545Z" fill="#E0E0E0"/>
<path d="M297.709 369.545L298.413 369.352C299.097 369.134 299.757 368.848 300.383 368.501C301.408 367.91 302.315 367.14 303.056 366.228C304.066 364.979 304.729 363.495 304.981 361.92C305.14 360.968 305.14 359.997 304.981 359.045C304.805 358.043 304.53 356.988 304.288 355.889C303.782 353.735 303.188 351.28 302.638 348.673C301.442 343.454 300.067 337.448 298.512 330.655C292.319 303.547 283.365 264.323 272.298 215.848C266.798 191.616 260.725 165.068 254.224 136.56C250.982 122.315 247.627 107.596 244.158 92.4035C242.435 84.8071 240.682 77.1066 238.9 69.302C237.998 65.4033 237.107 61.4723 236.194 57.5197C235.698 55.5496 234.54 53.8 232.906 52.5518C231.272 51.3037 229.257 50.6296 227.184 50.6378C226.151 50.6602 225.124 50.8049 224.126 51.0686L221.046 51.7363L214.853 53.0933L202.356 55.8181L176.923 61.3754L124.516 72.8453L14.2456 96.8837C11.9147 97.3895 9.87241 98.7549 8.5429 100.696C7.21339 102.638 6.69886 105.006 7.10618 107.309C8.10724 111.886 9.1853 116.474 10.2084 121.041C12.2911 130.159 14.3556 139.224 16.4017 148.235L28.5024 201.449C36.4448 236.332 44.1012 269.935 51.3947 302.029C58.6881 334.123 65.6074 364.494 72.0978 393.045C72.9045 396.635 73.7076 400.168 74.5069 403.643C74.914 405.388 75.277 407.154 75.706 408.866C76.1681 410.553 77.115 412.074 78.4342 413.25C79.7449 414.408 81.3606 415.184 83.0984 415.49C83.9603 415.627 84.8369 415.653 85.7056 415.565C86.5636 415.458 87.4327 415.253 88.2907 415.059L98.5323 412.83L137.397 404.365L254.686 378.851L286.588 371.936L294.882 370.149L297.709 369.545L294.893 370.192L286.599 372.023L254.697 379.012L137.43 404.677L98.6093 413.174L88.3677 415.414C87.5097 415.598 86.6516 415.813 85.7496 415.931C84.8476 416.021 83.9375 415.992 83.0434 415.845C81.2234 415.536 79.5316 414.724 78.1674 413.504C76.8031 412.285 75.8232 410.71 75.343 408.963C74.903 407.229 74.5399 405.485 74.1329 403.74C73.3335 400.243 72.5268 396.711 71.7128 393.142C65.2224 364.634 58.281 334.177 50.9766 302.126C43.6722 270.075 36.0158 236.429 28.0624 201.546L15.9617 148.342C13.9156 139.339 11.8511 130.267 9.76833 121.127C8.73427 116.56 7.66721 111.994 6.65515 107.374C6.23168 104.961 6.77376 102.481 8.16881 100.45C9.56386 98.418 11.7047 96.9905 14.1466 96.4637L124.428 72.393L176.868 60.9984L202.29 55.4519L214.787 52.7271L220.991 51.3055L224.071 50.6378C225.089 50.3796 226.134 50.2422 227.184 50.2285C229.332 50.2334 231.416 50.9378 233.109 52.2307C234.802 53.5235 236.007 55.3313 236.535 57.369C237.437 61.3323 238.339 65.2525 239.23 69.162C241.027 76.9738 242.794 84.6635 244.532 92.2311C247.972 107.417 251.32 122.136 254.576 136.388C261.055 164.896 267.084 191.444 272.595 215.687C283.596 264.151 292.506 303.407 298.666 330.526C300.196 337.3 301.56 343.332 302.748 348.544C303.331 351.161 303.848 353.563 304.376 355.771C304.618 356.848 304.893 357.925 305.058 358.926C305.223 359.889 305.223 360.872 305.058 361.834C304.807 363.438 304.132 364.949 303.1 366.218C302.349 367.128 301.436 367.898 300.405 368.49C299.771 368.839 299.099 369.117 298.402 369.319L297.709 369.545Z" fill="#263238"/>
<g opacity="0.3">
<path d="M97.4543 404.924L289.657 361.909L283.585 325.033L272.683 304.366L88.8188 375.07L97.4543 404.924Z" fill="black"/>
</g>
<g opacity="0.3">
<path d="M177.704 61.6772L184.975 73.4272L186.383 79.663L181.455 80.74L177.704 61.6772Z" fill="black"/>
</g>
<path d="M17.9087 109.517L84.5944 402.459L293.617 356.859L281.692 304.474L226.931 63.9067L17.9087 109.517Z" fill="white"/>
<path d="M17.9089 109.517L226.921 63.7339H227.097V63.917C245.644 145.327 268.778 246.919 293.815 356.858V357.085H293.595L84.5837 402.674H84.3857V402.469C45.1245 229.483 18.305 111.272 17.8979 109.528C18.305 111.315 45.3005 229.493 84.7927 402.469L84.5397 402.318L293.551 356.686L293.375 356.955C268.371 247.038 245.259 145.445 226.745 64.0139L226.965 64.1539L17.9089 109.517Z" fill="#263238"/>
<path d="M76.7675 74.6613L168.948 54.5548C170.75 54.1616 172.639 54.4856 174.197 55.4555C175.756 56.4254 176.857 57.9617 177.259 59.7265L182.584 83.1266L76.7886 106.203L71.4683 82.8237C71.2658 81.9469 71.2424 81.0396 71.3995 80.154C71.5565 79.2683 71.8909 78.4218 72.3835 77.6632C72.876 76.9046 73.5169 76.2488 74.2693 75.7336C75.0216 75.2184 75.8707 74.854 76.7675 74.6613Z" fill="#263238"/>
<path d="M133.756 50.3901L106.837 56.2597L115.121 78.1657L135.395 73.7393L133.756 50.3901Z" fill="#263238"/>
<path d="M168.947 54.5369C168.947 54.6554 148.365 59.2541 122.921 64.8114C97.4762 70.3687 76.806 74.7951 76.773 74.6766C76.74 74.5581 97.3551 69.9594 122.822 64.4021C148.288 58.8449 168.881 54.4507 168.947 54.5369Z" fill="#455A64"/>
<path d="M78.0822 100.847C77.9612 100.847 76.8941 96.6471 75.7061 91.4129C74.518 86.1788 73.6379 81.9031 73.77 81.8708C73.902 81.8385 74.958 86.0711 76.1461 91.316C77.3341 96.5609 78.2032 100.847 78.0822 100.847Z" fill="#455A64"/>
<path d="M177.539 76.7655C176.655 73.9324 175.921 71.0566 175.339 68.1496C174.611 65.3083 174.031 62.4326 173.601 59.5337C174.483 62.3491 175.217 65.2069 175.801 68.0958C176.531 70.9548 177.111 73.8485 177.539 76.7655Z" fill="#455A64"/>
<path d="M173.348 81.8812C173.348 81.9997 152.215 86.7169 126.1 92.4141C99.9845 98.1114 78.7973 102.646 78.7423 102.516C78.6873 102.387 99.8635 97.6806 126.045 91.9833C152.226 86.2861 173.282 81.7627 173.348 81.8812Z" fill="#455A64"/>
<path d="M117.673 167.093C117.673 167.222 103.428 170.432 85.7716 174.288C68.1156 178.143 53.8698 181.148 53.7928 181.029C53.7158 180.911 68.0936 177.691 85.6946 173.846C103.296 170.001 117.64 166.975 117.673 167.093Z" fill="#263238"/>
<path d="M224.06 155.365C224.06 155.494 186.801 163.733 140.786 173.77C94.77 183.808 57.4229 191.853 57.4009 191.735C57.3789 191.616 94.649 183.366 140.687 173.329C186.724 163.291 224.038 155.246 224.06 155.365Z" fill="#263238"/>
<path d="M226.359 165.466C226.359 165.585 189.089 173.824 143.074 183.872C97.0581 193.921 59.722 201.955 59.689 201.826C59.656 201.696 96.9481 193.468 142.975 183.431C189.001 173.393 226.326 165.316 226.359 165.466Z" fill="#263238"/>
<path d="M228.647 175.504C228.647 175.622 191.388 183.861 145.373 193.899C99.3572 203.936 62.0101 211.992 61.9771 211.863C61.9441 211.734 99.2362 203.505 145.274 193.457C191.311 183.409 228.614 175.385 228.647 175.504Z" fill="#263238"/>
<path d="M230.936 185.574C230.936 185.692 193.677 193.931 147.661 203.969C101.645 214.006 64.2984 222.051 64.2764 221.933C64.2544 221.815 101.524 213.576 147.562 203.527C193.6 193.479 230.914 185.445 230.936 185.574Z" fill="#263238"/>
<path d="M233.235 195.622C233.235 195.751 195.965 203.99 149.949 214.028C103.934 224.065 66.5757 232.121 66.5757 232.003C66.5757 231.884 103.835 223.645 149.861 213.597C195.888 203.549 233.202 195.514 233.235 195.622Z" fill="#263238"/>
<path d="M98.884 266.499C98.8393 266.391 98.8061 266.279 98.785 266.165L98.543 265.206C98.334 264.334 98.037 263.117 97.674 261.598C96.9369 258.486 95.9029 254.113 94.6708 248.879L94.9128 249.03L76.8718 252.993C76.8718 252.993 77.2018 252.487 77.0478 252.724V252.799V252.95L77.1138 253.252L77.2568 253.855L77.5208 255.05C77.7078 255.847 77.8839 256.633 78.0599 257.42C78.4119 258.97 78.7639 260.5 79.0939 261.986C79.765 264.948 80.392 267.748 80.975 270.322L80.733 270.171L93.7687 267.425L97.4759 266.671L98.466 266.488L98.818 266.423C98.818 266.423 98.73 266.423 98.51 266.52L97.575 266.746L93.9447 267.586L80.876 270.634H80.678V270.44L78.7639 262.115C78.4229 260.629 78.0709 259.1 77.6638 257.549C77.4878 256.763 77.3008 255.976 77.1248 255.179C77.0258 254.792 76.9378 254.383 76.8498 253.984L76.7068 253.381L76.6408 253.079V252.929V252.853V252.799C76.4868 253.047 76.8498 252.476 76.8168 252.53L94.8688 248.621H95.0668V248.814L97.905 261.738C98.224 263.246 98.477 264.452 98.664 265.314C98.741 265.702 98.796 266.003 98.851 266.251C98.873 266.332 98.8841 266.415 98.884 266.499Z" fill="#263238"/>
<path d="M232.983 222.956L107.12 250.41L109.459 260.691L235.322 233.237L232.983 222.956Z" fill="#E0E0E0"/>
<path d="M105.859 297.15C105.817 297.038 105.784 296.922 105.76 296.805C105.694 296.558 105.617 296.235 105.518 295.847C105.309 294.974 105.012 293.768 104.649 292.25C103.912 289.126 102.878 284.711 101.646 279.52L101.888 279.67L83.8466 283.634C83.8466 283.698 84.1766 283.128 84.0226 283.375V283.429V283.504V283.655L84.0886 283.957L84.2316 284.56C84.3196 284.969 84.4076 285.368 84.5066 285.766L85.0346 288.125C85.3866 289.686 85.7387 291.205 86.0687 292.691C86.7397 295.653 87.3668 298.453 87.9498 301.027L87.7078 300.876L100.755 298.141L104.451 297.387L105.441 297.193C105.556 297.162 105.674 297.144 105.793 297.139L105.496 297.225L104.55 297.452L100.92 298.302L87.7958 301.264H87.5978V301.07L85.6837 292.745C85.3426 291.259 84.9906 289.729 84.5836 288.179C84.4076 287.403 84.2206 286.606 84.0446 285.82C83.9566 285.422 83.8576 285.023 83.7696 284.614L83.6265 284.011L83.5605 283.709V283.558V283.429L83.7366 283.149L101.778 279.293H101.976V279.477C103.142 284.786 104.176 289.169 104.814 292.4C105.133 293.908 105.386 295.114 105.573 295.976C105.65 296.364 105.705 296.665 105.76 296.913C105.803 296.987 105.836 297.067 105.859 297.15Z" fill="#263238"/>
<path d="M239.952 253.608L114.088 281.062L116.428 291.342L242.291 263.889L239.952 253.608Z" fill="#E0E0E0"/>
<path d="M112.833 327.791C112.833 327.791 112.833 327.661 112.734 327.446C112.635 327.231 112.591 326.875 112.492 326.487C112.283 325.615 111.986 324.409 111.623 322.89C110.886 319.778 109.852 315.351 108.62 310.16L108.862 310.311L90.7769 314.274C90.7769 314.339 91.1069 313.768 90.9529 314.016V314.091V314.167V314.317L91.0189 314.619L91.1619 315.222C91.2499 315.631 91.3379 316.03 91.4369 316.428L91.965 318.787C92.317 320.349 92.669 321.867 92.999 323.353L94.8801 331.689L94.6381 331.549L107.685 328.803L111.381 328.049L112.371 327.855C112.488 327.843 112.606 327.843 112.723 327.855L112.426 327.941L111.48 328.168L107.85 329.018L94.7261 331.98H94.5281V331.786C93.9451 329.223 93.296 326.401 92.614 323.461C92.273 321.975 91.921 320.456 91.5139 318.895C91.3379 318.119 91.1509 317.333 90.9749 316.536C90.8869 316.138 90.7879 315.739 90.6999 315.341L90.5679 314.738L90.4909 314.436V314.274V314.091C90.3369 314.328 90.6999 313.757 90.6669 313.822L108.719 309.913H108.917V310.106L111.755 323.03C112.074 324.538 112.327 325.744 112.514 326.617C112.591 326.994 112.657 327.295 112.701 327.543C112.757 327.619 112.801 327.703 112.833 327.791Z" fill="#263238"/>
<path d="M246.934 284.259L121.071 311.713L123.41 321.994L249.274 294.54L246.934 284.259Z" fill="#E0E0E0"/>
<path d="M81.5474 260.177L83.4395 257.258L89.0608 260.317L96.2992 249.633L99.0933 251.529L89.7648 264.991L81.5474 260.177Z" fill="#FF725E"/>
<path d="M88.2905 289.794L90.1826 286.876L95.8039 289.934L103.031 279.25L105.837 281.146L96.497 294.598L88.2905 289.794Z" fill="#FF725E"/>
<path d="M95.21 320.155L97.1021 317.247L102.712 320.306L109.951 309.622L112.745 311.507L103.416 324.969L95.21 320.155Z" fill="#FF725E"/>
<path d="M152.821 358.248C152.821 358.377 142.216 360.8 129.081 363.633C115.947 366.465 105.276 368.716 105.254 368.598C105.232 368.479 115.848 366.056 128.982 363.213C142.117 360.37 152.788 358.14 152.821 358.248Z" fill="#263238"/>
<path d="M176.515 352.712C173.644 353.578 170.729 354.297 167.781 354.866C164.878 355.573 161.941 356.138 158.98 356.557C161.849 355.694 164.76 354.975 167.704 354.403C172.533 353.359 176.493 352.594 176.515 352.712Z" fill="#263238"/>
<path d="M254.994 328.533C254.994 328.652 245.456 330.849 233.642 333.423C221.827 335.997 212.212 337.989 212.19 337.871C212.168 337.752 221.717 335.566 233.543 332.981C245.368 330.397 254.972 328.415 254.994 328.533Z" fill="#263238"/>
<path d="M244.786 356.88C244.786 356.88 244.885 356.589 244.995 356.029C245.14 355.201 245.095 354.351 244.863 353.541C244.471 352.261 243.963 351.017 243.344 349.826C242.467 348.245 241.953 346.495 241.837 344.699C241.863 343.594 242.125 342.507 242.607 341.507C243.088 340.507 243.778 339.617 244.632 338.894C245.632 338.081 246.829 337.532 248.107 337.3C249.386 337.069 250.704 337.161 251.936 337.57C253.288 337.973 254.495 338.746 255.412 339.799C255.901 340.366 256.19 341.072 256.237 341.813C256.25 342.211 256.131 342.603 255.9 342.93C255.668 343.258 255.335 343.504 254.95 343.633C254.231 343.861 253.495 344.037 252.75 344.161L250.55 344.602C249.076 344.893 247.58 345.152 246.04 345.346C243.057 345.767 240.029 345.785 237.041 345.399C235.691 345.115 234.282 345.338 233.092 346.024C232.147 346.957 231.346 348.02 230.716 349.18C230.333 349.751 229.801 350.212 229.176 350.515C228.539 350.79 227.821 350.821 227.163 350.601C226.031 350.108 224.954 349.502 223.95 348.792C223.484 348.488 222.954 348.293 222.399 348.221C221.88 348.165 221.358 348.291 220.925 348.576C220.164 349.258 219.535 350.068 219.066 350.967C218.566 351.739 217.882 352.381 217.074 352.838C216.266 353.296 215.357 353.556 214.424 353.595C213.013 353.65 211.634 353.172 210.574 352.26C209.907 351.696 209.384 350.988 209.045 350.192C208.926 349.919 208.841 349.634 208.792 349.341C208.792 349.341 208.891 349.632 209.133 350.16C209.489 350.921 210.02 351.592 210.684 352.12C211.718 352.978 213.048 353.417 214.402 353.348C215.292 353.303 216.157 353.047 216.923 352.603C217.69 352.158 218.335 351.538 218.802 350.795C219.286 349.853 219.942 349.006 220.738 348.296C221.239 347.956 221.847 347.799 222.454 347.855C223.056 347.943 223.633 348.152 224.148 348.469C225.136 349.153 226.19 349.741 227.295 350.224C227.86 350.41 228.476 350.383 229.022 350.149C229.581 349.877 230.05 349.455 230.375 348.932C231.029 347.742 231.859 346.653 232.839 345.701C233.448 345.275 234.162 345.015 234.907 344.947C235.638 344.871 236.376 344.871 237.107 344.947C240.063 345.322 243.056 345.304 246.007 344.893C247.525 344.699 249.01 344.43 250.484 344.15L252.684 343.719C253.39 343.591 254.088 343.422 254.774 343.213C255.075 343.119 255.337 342.932 255.52 342.679C255.703 342.427 255.796 342.122 255.786 341.813C255.736 341.168 255.482 340.555 255.06 340.057C254.192 339.046 253.047 338.299 251.76 337.903C250.593 337.516 249.345 337.425 248.132 337.64C246.92 337.854 245.783 338.368 244.83 339.131C244.01 339.814 243.346 340.658 242.879 341.608C242.413 342.557 242.156 343.592 242.123 344.645C242.222 346.401 242.702 348.115 243.531 349.675C244.14 350.883 244.63 352.145 244.995 353.444C245.21 354.277 245.229 355.146 245.05 355.986C244.998 356.293 244.909 356.593 244.786 356.88Z" fill="#263238"/>
<path d="M267.524 343.095C267.338 343.168 267.147 343.225 266.952 343.267L265.28 343.655L259.141 345.044C253.971 346.229 246.821 347.887 238.955 349.837C231.09 351.786 223.994 353.671 218.879 355.049L212.807 356.686L211.146 357.117C210.955 357.176 210.76 357.219 210.562 357.246C210.74 357.152 210.928 357.079 211.124 357.031L212.752 356.525C214.171 356.083 216.228 355.448 218.78 354.748C223.895 353.283 230.969 351.355 238.845 349.363C246.722 347.37 253.872 345.798 259.075 344.71C261.671 344.161 263.783 343.73 265.247 343.45L266.93 343.138C267.126 343.106 267.325 343.091 267.524 343.095Z" fill="#263238"/>
<path d="M177.294 106.778L91.8569 125.414L95.4333 141.13L180.87 122.494L177.294 106.778Z" fill="#E0E0E0"/>
<path d="M258.118 361.814L285.719 504.58L310.943 458.948L358.752 486.422L308.006 347.404L258.118 361.814Z" fill="#FF725E"/>
<g opacity="0.3">
<path d="M267.403 409.825C270.031 410.31 272.739 410.162 275.296 409.395C277.852 408.628 280.18 407.264 282.078 405.42C284.597 402.879 286.269 399.411 289.438 397.709C292.287 396.18 295.796 396.395 298.931 397.246C302.066 398.097 305.014 399.508 308.15 400.305C311.243 401.076 314.463 401.238 317.62 400.779C320.778 400.321 323.811 399.251 326.543 397.634L318.578 375.986L281.616 371.463L264.015 392.195L267.403 409.825Z" fill="black"/>
</g>
<path d="M309.15 453.283C308.996 453.283 304.882 438.485 299.965 420.165C295.047 401.846 291.164 386.94 291.34 386.908C291.516 386.875 295.597 401.684 300.515 420.025C305.432 438.366 309.304 453.24 309.15 453.283Z" fill="#263238"/>
<path d="M262.156 369.234L234.555 512L209.331 466.379L161.522 493.842L212.268 354.824L262.156 369.234Z" fill="#FF725E"/>
<g opacity="0.3">
<path d="M197.087 396.407C197.087 396.407 204.941 402.729 214.303 399.821C223.664 396.913 229.484 396.289 234.555 399.821C239.626 403.354 253.344 414.845 253.344 414.845L256.523 398.378L238.097 373.607L218.868 377.409L205.183 378.712L200.09 388.158L197.087 396.407Z" fill="black"/>
</g>
<path d="M423.985 240.362C423.985 250.604 410.62 259.425 408.661 269.107C406.648 279.08 415.515 292.23 411.632 301.417C407.748 310.603 391.831 313.899 386.187 322.203C380.544 330.506 383.514 346.058 376.287 353.145C369.059 360.231 353.185 357.248 344.682 362.838C336.178 368.427 332.988 383.871 323.451 387.748C314.078 391.55 300.646 382.87 290.449 384.84C280.548 386.757 271.55 399.843 261.088 399.843C250.627 399.843 241.606 386.757 231.717 384.84C221.53 382.87 208.098 391.55 198.715 387.748C189.331 383.947 185.976 368.362 177.495 362.838C169.013 357.313 153.128 360.22 145.879 353.145C138.629 346.069 141.688 330.528 135.978 322.203C130.269 313.878 114.494 310.754 110.545 301.417C106.596 292.079 115.528 279.091 113.515 269.107C111.557 259.414 98.1802 250.604 98.1802 240.362C98.1802 230.12 111.557 221.289 113.515 211.606C115.528 201.634 106.651 188.484 110.545 179.297C114.439 170.11 130.346 166.814 135.978 158.522C141.611 150.229 138.651 134.666 145.879 127.569C153.106 120.472 168.98 123.466 177.495 117.876C186.009 112.286 189.177 96.8424 198.715 92.976C208.252 89.1096 221.519 97.8547 231.717 95.8839C241.617 93.9668 250.627 80.8706 261.088 80.8706C271.55 80.8706 280.559 93.9668 290.449 95.8839C300.635 97.8547 314.067 89.1634 323.451 92.976C332.988 96.8424 336.2 112.362 344.682 117.876C353.163 123.39 369.048 120.493 376.287 127.569C383.525 134.645 380.478 150.186 386.187 158.522C391.897 166.858 407.671 169.959 411.632 179.297C415.592 188.634 406.648 201.623 408.661 211.606C410.62 221.289 423.985 230.088 423.985 240.362Z" fill="#FF725E"/>
<path d="M222.971 150.961C222.971 150.961 222.85 150.821 222.674 150.519C222.498 150.218 222.223 149.733 221.926 149.205C221.277 148.064 220.386 146.384 219.33 144.294C217.207 140.116 214.457 134.235 211.806 127.601C209.155 120.967 207.119 114.806 205.788 110.369C205.128 108.118 204.622 106.298 204.303 104.984C204.16 104.403 204.039 103.907 203.951 103.519C203.894 103.353 203.865 103.178 203.863 103.002C203.949 103.16 204.015 103.326 204.061 103.498L204.512 104.93C204.941 106.255 205.502 108.043 206.173 110.208C207.603 114.655 209.705 120.762 212.334 127.439C214.963 134.117 217.669 139.943 219.693 144.165L222.124 149.151L222.773 150.508C222.853 150.653 222.919 150.804 222.971 150.961Z" fill="#263238"/>
<path d="M237.47 145.565C237.278 145.189 237.133 144.792 237.041 144.381C236.81 143.605 236.502 142.474 236.139 141.074C235.413 138.285 234.511 134.386 233.697 130.057C232.883 125.727 232.311 121.775 231.981 118.91C231.805 117.478 231.695 116.314 231.629 115.507C231.578 115.092 231.578 114.672 231.629 114.257C231.755 114.657 231.84 115.069 231.882 115.485L232.41 118.856C232.85 121.71 233.51 125.641 234.291 129.96C235.072 134.279 235.941 138.177 236.557 140.988C236.854 142.302 237.096 143.422 237.294 144.327C237.395 144.733 237.454 145.148 237.47 145.565Z" fill="#263238"/>
<path d="M263.047 143.077C262.882 143.077 262.475 130.993 262.134 116.098C261.793 101.204 261.639 89.1089 261.793 89.0982C261.947 89.0874 262.365 101.171 262.706 116.088C263.047 131.004 263.201 143.077 263.047 143.077Z" fill="#263238"/>
<path d="M288.788 118.253C288.942 118.253 287.16 124.338 284.817 131.747C282.474 139.157 280.417 145.113 280.307 145.07C280.197 145.027 281.935 138.985 284.278 131.575C286.621 124.165 288.623 118.21 288.788 118.253Z" fill="#263238"/>
<path d="M299.283 149.475C299.304 149.296 299.352 149.122 299.426 148.958L299.921 147.536C300.361 146.308 301.021 144.542 301.901 142.366C303.628 138.058 306.092 132.038 308.908 125.468C311.724 118.899 314.343 112.986 316.268 108.721C317.214 106.653 317.995 104.952 318.589 103.681L319.238 102.324C319.403 102.022 319.491 101.861 319.513 101.872C319.473 102.041 319.417 102.207 319.348 102.367L318.787 103.767L316.642 108.883C314.761 113.255 312.241 119.157 309.436 125.695C306.631 132.232 304.145 138.134 302.275 142.517L300.13 147.622L299.525 149.001C299.464 149.168 299.383 149.327 299.283 149.475Z" fill="#263238"/>
<path d="M312.989 156.497C313.156 156.116 313.367 155.754 313.616 155.42C314.056 154.73 314.716 153.75 315.53 152.555C317.18 150.175 319.557 146.922 322.318 143.454C325.079 139.986 327.73 136.992 329.688 134.838C330.667 133.761 331.481 132.91 332.053 132.329C332.329 132.006 332.643 131.717 332.988 131.467C332.776 131.835 332.517 132.175 332.218 132.48C331.624 133.19 330.876 134.063 330.018 135.097C328.137 137.315 325.552 140.385 322.791 143.853C320.03 147.321 317.621 150.519 315.882 152.846L313.825 155.592C313.58 155.921 313.299 156.224 312.989 156.497Z" fill="#263238"/>
<path d="M333.033 172.544C332.923 172.436 341.635 164.337 352.471 154.461C363.306 144.585 372.195 136.669 372.272 136.777C372.349 136.885 363.68 144.994 352.834 154.87C341.987 164.746 333.143 172.662 333.033 172.544Z" fill="#263238"/>
<path d="M367.992 175.893C366.932 176.55 365.829 177.14 364.692 177.659C362.624 178.736 359.819 180.233 356.717 181.967C353.615 183.701 350.754 185.144 348.631 186.114C347.531 186.598 346.717 186.975 346.101 187.191C345.8 187.344 345.478 187.453 345.144 187.514C346.205 186.857 347.307 186.267 348.444 185.748C350.512 184.671 353.317 183.174 356.42 181.44C359.522 179.706 362.382 178.209 364.505 177.293C365.605 176.809 366.419 176.432 367.035 176.216C367.334 176.058 367.657 175.949 367.992 175.893Z" fill="#263238"/>
<path d="M400.323 189.021C400.378 189.172 390.016 192.877 377.222 197.303C364.428 201.73 353.945 205.187 353.901 205.047C353.857 204.907 364.197 201.191 377.002 196.765C389.807 192.338 400.268 188.881 400.323 189.021Z" fill="#263238"/>
<path d="M410.62 246.609C410.62 246.76 399.344 245.844 385.472 244.552C371.601 243.259 360.358 242.085 360.38 241.924C360.402 241.762 371.645 242.699 385.527 243.992C399.41 245.284 410.631 246.458 410.62 246.609Z" fill="#263238"/>
<path d="M402.336 298.261C402.27 298.401 391.743 293.662 378.828 287.696C365.913 281.729 355.496 276.764 355.562 276.624C355.628 276.484 366.155 281.212 379.07 287.189C391.985 293.167 402.402 298.121 402.336 298.261Z" fill="#263238"/>
<path d="M367.706 347.404C367.585 347.501 360.006 338.874 350.754 328.148C341.503 317.421 334.11 308.622 334.254 308.525C334.397 308.428 341.954 317.044 351.205 327.781C360.457 338.519 367.827 347.296 367.706 347.404Z" fill="#263238"/>
<path d="M338.797 353.941C338.455 353.568 338.149 353.164 337.884 352.735C337.323 351.938 336.531 350.764 335.585 349.31C333.671 346.391 331.108 342.31 328.401 337.732C325.695 333.155 323.385 328.933 321.801 325.886C320.998 324.345 320.349 323.096 319.931 322.224C319.682 321.78 319.476 321.315 319.315 320.834C319.626 321.236 319.898 321.665 320.129 322.116C320.657 323.064 321.339 324.27 322.164 325.702C323.869 328.729 326.245 332.908 328.94 337.485C331.636 342.062 334.144 346.165 335.97 349.127C336.828 350.549 337.554 351.723 338.115 352.649C338.39 353.054 338.619 353.487 338.797 353.941Z" fill="#263238"/>
<path d="M320.844 378.604C320.844 378.604 320.734 378.464 320.558 378.163L319.843 376.849C319.216 375.696 318.369 374.016 317.357 371.927C315.333 367.738 312.725 361.857 310.25 355.201C307.775 348.546 305.905 342.407 304.75 337.97C304.145 335.729 303.65 333.898 303.408 332.638C303.287 332.057 303.188 331.561 303.1 331.174C303.056 331.004 303.03 330.831 303.023 330.657C303.113 330.811 303.176 330.978 303.21 331.152L303.628 332.585C304.013 333.92 304.519 335.697 305.135 337.862C306.433 342.31 308.358 348.427 310.833 355.094C313.309 361.76 315.839 367.608 317.775 371.841L320.085 376.827C320.327 377.366 320.536 377.818 320.712 378.184C320.774 378.318 320.818 378.459 320.844 378.604Z" fill="#263238"/>
<path d="M284.475 361.275C284.237 360.037 284.079 358.785 284.002 357.527C283.749 355.212 283.342 352.013 282.748 348.513C282.154 345.013 281.461 341.868 280.933 339.595C280.587 338.379 280.323 337.141 280.141 335.891C280.305 336.19 280.431 336.509 280.515 336.838C280.735 337.463 281.01 338.368 281.329 339.499C281.956 341.749 282.704 344.884 283.309 348.427C283.836 351.429 284.203 354.456 284.409 357.495C284.486 358.658 284.53 359.649 284.53 360.263C284.559 360.601 284.54 360.942 284.475 361.275Z" fill="#263238"/>
<path d="M260.681 392.282C260.656 392.1 260.656 391.915 260.681 391.733C260.681 391.302 260.681 390.774 260.681 390.15C260.681 388.771 260.681 386.779 260.681 384.323C260.769 379.401 261 372.616 261.396 365.131C261.792 357.646 262.287 350.861 262.694 345.961C262.892 343.505 263.079 341.524 263.222 340.156C263.299 339.531 263.354 339.003 263.398 338.583C263.411 338.397 263.448 338.212 263.508 338.034C263.534 338.22 263.534 338.408 263.508 338.594C263.508 339.014 263.508 339.542 263.431 340.177C263.343 341.631 263.233 343.591 263.09 345.982C262.793 350.969 262.397 357.711 261.99 365.153C261.583 372.595 261.297 379.423 261.11 384.334C261.022 386.725 260.945 388.642 260.89 390.15C260.89 390.785 260.824 391.302 260.802 391.733C260.79 391.921 260.749 392.106 260.681 392.282Z" fill="#263238"/>
<path d="M241.342 338.034C241.335 338.962 241.224 339.887 241.012 340.791C240.726 342.471 240.264 344.787 239.659 347.318C239.054 349.849 238.416 352.132 237.91 353.78C237.691 354.681 237.37 355.555 236.953 356.386C237.051 355.466 237.239 354.557 237.514 353.672L239.098 347.21C239.67 344.787 240.198 342.59 240.616 340.748C240.769 339.823 241.012 338.914 241.342 338.034Z" fill="#263238"/>
<path d="M206.371 321.631C204.93 323.964 203.324 326.196 201.564 328.309C199.95 330.533 198.19 332.652 196.295 334.652C197.733 332.317 199.34 330.086 201.102 327.975C202.709 325.745 204.47 323.626 206.371 321.631Z" fill="#263238"/>
<path d="M188.033 309.527C188.143 309.623 181.323 317.475 172.787 327.049C164.25 336.624 157.221 344.281 157.1 344.206C156.979 344.13 163.81 336.257 172.347 326.683C180.883 317.109 187.912 309.419 188.033 309.527Z" fill="#263238"/>
<path d="M178.848 296.161C176.15 298.708 173.319 301.116 170.366 303.376C165.581 307.232 161.621 310.269 161.566 310.151C164.266 307.609 167.096 305.204 170.047 302.946C172.863 300.541 175.8 298.276 178.848 296.161Z" fill="#263238"/>
<path d="M168.112 276.01C168.178 276.15 158.673 280.781 146.869 286.338C135.066 291.896 125.462 296.301 125.385 296.161C125.308 296.021 134.824 291.4 146.627 285.832C158.431 280.264 168.046 275.87 168.112 276.01Z" fill="#263238"/>
<path d="M163.799 265.962C163.483 266.098 163.15 266.192 162.809 266.242C162.16 266.393 161.225 266.587 160.07 266.791C157.749 267.222 154.514 267.696 150.928 268.051C147.342 268.407 144.075 268.557 141.71 268.59C140.533 268.59 139.576 268.59 138.916 268.59C138.572 268.612 138.226 268.579 137.893 268.493C139.154 268.323 140.425 268.226 141.699 268.202C144.053 268.062 147.298 267.847 150.873 267.491C154.449 267.136 157.672 266.727 160.004 266.414C161.256 266.176 162.525 266.025 163.799 265.962Z" fill="#263238"/>
<path d="M160.312 242.753C159.671 242.805 159.027 242.805 158.387 242.753L153.151 242.494C148.75 242.279 142.634 242.085 135.891 242.117C129.147 242.15 123.031 242.419 118.62 242.677L113.394 242.99C112.755 243.061 112.112 243.083 111.469 243.054C112.094 242.908 112.731 242.814 113.372 242.774C114.604 242.634 116.387 242.462 118.587 242.279C122.987 241.923 129.125 241.6 135.88 241.557C142.634 241.514 148.761 241.783 153.184 242.096C155.384 242.257 157.177 242.408 158.409 242.537C159.048 242.565 159.684 242.637 160.312 242.753Z" fill="#263238"/>
<path d="M162.468 222.376C162.468 222.527 155.307 220.707 146.561 218.316C137.816 215.925 130.764 213.879 130.808 213.728C130.852 213.577 137.97 215.387 146.715 217.778C155.461 220.168 162.512 222.225 162.468 222.376Z" fill="#263238"/>
<path d="M167.077 205.317C166.9 205.306 166.726 205.27 166.56 205.209L165.097 204.778C163.843 204.39 162.028 203.787 159.817 203.001C154.039 200.924 148.377 198.551 142.854 195.893C137.333 193.231 131.96 190.283 126.76 187.062C124.769 185.823 123.174 184.789 122.096 184.046L120.864 183.174C120.589 182.969 120.446 182.861 120.457 182.84C120.623 182.905 120.782 182.989 120.93 183.088L122.228 183.863C123.328 184.552 124.956 185.532 126.969 186.728C131.006 189.119 136.661 192.274 143.107 195.344C149.553 198.413 155.56 200.912 159.96 202.592C162.16 203.421 163.931 204.078 165.174 204.53L166.593 205.058C166.762 205.131 166.924 205.217 167.077 205.317Z" fill="#263238"/>
<path d="M177.429 188.085C177.341 188.203 171.774 184.52 164.998 179.846C158.222 175.172 152.798 171.284 152.897 171.155C152.996 171.025 158.552 174.719 165.339 179.394C172.126 184.068 177.517 187.988 177.429 188.085Z" fill="#263238"/>
<path d="M155.548 135.765C155.548 135.765 155.702 135.851 155.966 136.055L157.067 137.003L161.126 140.514L174.448 152.156L187.824 163.734L191.872 167.256L192.973 168.236C193.105 168.343 193.224 168.466 193.325 168.602C193.325 168.602 193.171 168.527 192.896 168.322L191.795 167.428C190.794 166.642 189.375 165.479 187.626 164.036C184.128 161.149 179.354 157.111 174.129 152.576C168.903 148.042 164.228 143.864 160.928 140.805C159.256 139.276 157.914 138.037 156.99 137.154L155.944 136.142C155.68 135.905 155.526 135.775 155.548 135.765Z" fill="#263238"/>
<path d="M189.859 136.745C189.859 136.745 190.156 136.982 190.607 137.488C191.058 137.994 191.707 138.737 192.467 139.642C193.996 141.516 196.031 144.165 198.143 147.181C200.255 150.196 202.026 153.018 203.247 155.097C203.863 156.174 204.347 156.981 204.655 157.574C204.846 157.868 204.994 158.187 205.095 158.521C204.289 157.494 203.554 156.414 202.895 155.29C201.586 153.266 199.76 150.498 197.659 147.482C195.558 144.467 193.578 141.806 192.158 139.879C191.329 138.88 190.561 137.833 189.859 136.745Z" fill="#263238"/>
<g opacity="0.2">
<path d="M145.89 127.579L193.753 168.602L205.645 159.286L177.879 117.628C177.879 117.628 175.745 119.157 170.179 120.708C164.866 122.205 149.08 122.604 145.89 127.579Z" fill="black"/>
</g>
<g opacity="0.2">
<path d="M199.166 92.8778L222.531 150.141L237.47 145.564L232.487 95.8934C232.487 95.8934 229.924 96.4858 224.214 95.7749C218.681 95.0857 205.271 89.9484 199.166 92.8778Z" fill="black"/>
</g>
<g opacity="0.3">
<path d="M261.474 80.8916L263.047 143.077L277.039 143.734L291.208 96.0018C288.264 95.4295 285.465 94.295 282.969 92.6631C278.129 89.626 268.25 80.3854 261.474 80.8916Z" fill="black"/>
</g>
<g opacity="0.2">
<path d="M322.505 92.6416L299.283 149.97L311.889 155.882L343.846 117.262C341.444 115.276 339.396 112.914 337.785 110.272C334.771 105.501 329.578 94.5479 322.505 92.6416Z" fill="black"/>
</g>
<g opacity="0.2">
<path d="M377.046 128.409L333.792 172.565L343.428 185.285L385.692 157.671C384.3 155.161 383.359 152.436 382.909 149.615C381.897 144.23 381.754 134.451 377.046 128.409Z" fill="black"/>
</g>
<g opacity="0.2">
<path d="M411.192 178.23L352.944 201.698L357.773 216.27L408.453 210.885C408.453 210.885 408.134 209.355 408.805 203.766C409.443 198.349 415.295 186.243 411.192 178.23Z" fill="black"/>
</g>
<g opacity="0.2">
<path d="M424.096 240.362L360.589 242.516L360.061 256.226L408.464 270.098C408.785 268.124 409.431 266.215 410.378 264.444C413.986 257.853 424.096 248.547 424.096 240.362Z" fill="black"/>
</g>
<g opacity="0.2">
<path d="M412.38 299.144L353.912 276.84L348.004 289.322L387.794 320.156C389.885 318.196 392.2 316.476 394.691 315.03C399.531 312.004 411.038 307.103 412.38 299.144Z" fill="black"/>
</g>
<g opacity="0.2">
<path d="M326.388 298.26L311.911 310.107C313.011 311.184 332.295 343.322 344.187 363.16C344.341 363.029 344.503 362.907 344.671 362.794C352.492 357.667 366.419 359.724 374.274 354.651L326.388 298.26Z" fill="black"/>
<path d="M299.788 320.748L278.183 327.963L288.414 385.389C289.078 385.159 289.758 384.976 290.449 384.839C300.635 382.868 314.067 391.549 323.451 387.747C324.735 387.208 325.93 386.482 326.993 385.593L299.788 320.748Z" fill="black"/>
<path d="M260.34 399.821L263.783 324.798L245.082 320.156L231.188 384.775L231.695 384.861C241.375 386.703 250.187 399.175 260.34 399.821Z" fill="black"/>
<path d="M213.368 312.056C213.368 312.056 188.682 344.431 175.768 361.856C176.365 362.151 176.946 362.478 177.506 362.836C185.987 368.394 189.188 383.87 198.726 387.747C199.166 387.919 199.617 388.059 200.068 388.189L234.555 324.28L213.368 312.056Z" fill="black"/>
<path d="M188.033 285.994L135.384 321.416C135.582 321.674 135.802 321.922 135.978 322.191C141.699 330.549 138.651 346.047 145.879 353.133C146.546 353.775 147.284 354.342 148.079 354.824C166.681 334.297 200.079 297.442 201.289 296.16L188.033 285.994Z" fill="black"/>
<path d="M175.966 260.695L113.713 270.539C114.714 280.318 106.838 292.66 110.545 301.406C110.768 301.94 111.037 302.455 111.348 302.946C133.129 292.327 178.639 270.237 180.531 270.119L175.966 260.695Z" fill="black"/>
<path d="M172.566 226.748L113.724 210.13C113.669 210.626 113.603 211.121 113.515 211.606C111.557 221.299 98.1802 230.119 98.1802 240.361C98.1832 241.044 98.2421 241.724 98.3562 242.397H170.179L172.566 226.748Z" fill="black"/>
<path d="M110.787 178.854C132.788 190.389 175.768 213.727 175.768 213.727L186.35 194.051L136.65 157.433C136.43 157.81 136.221 158.198 135.979 158.51C130.379 166.684 115.055 169.872 110.787 178.854Z" fill="black"/>
</g>
<path d="M423.986 240.362L423.92 239.673C423.893 238.997 423.797 238.326 423.634 237.669C422.993 235.087 421.875 232.641 420.333 230.454C418.441 227.481 415.581 224.153 412.633 219.942C410.968 217.702 409.69 215.21 408.849 212.565C408.133 209.477 408.133 206.272 408.849 203.184C409.465 199.899 410.466 196.518 411.335 192.931C412.204 189.345 413.018 185.468 412.204 181.504C411.743 179.498 410.805 177.627 409.465 176.044C408.028 174.432 406.386 173.006 404.58 171.801C400.928 169.259 396.726 167.234 392.711 164.585C390.634 163.274 388.747 161.694 387.1 159.889C385.485 157.93 384.311 155.658 383.657 153.223C382.249 148.322 381.93 143.088 380.863 137.854C380.397 135.189 379.478 132.619 378.146 130.25C376.699 127.866 374.503 126.004 371.887 124.941C369.186 123.878 366.358 123.154 363.471 122.787C360.556 122.313 357.564 121.979 354.572 121.462C351.506 121.029 348.533 120.109 345.771 118.737C343.032 117.125 340.713 114.914 338.995 112.275C337.169 109.712 335.596 106.955 333.924 104.23C332.322 101.442 330.403 98.841 328.203 96.476C325.936 94.0835 322.844 92.5986 319.524 92.308C316.132 92.1852 312.74 92.5738 309.469 93.4604C306.169 94.2466 302.781 95.2051 299.316 95.8405C295.813 96.6487 292.159 96.5821 288.689 95.6467C285.307 94.3477 282.144 92.5578 279.305 90.3371C276.368 88.1831 273.508 86.0292 270.373 84.1121C267.238 82.1951 263.685 80.8058 259.988 81.215H259.295C259.064 81.215 258.844 81.3119 258.624 81.355C258.173 81.4627 257.711 81.5381 257.271 81.6674C256.385 81.9433 255.518 82.2742 254.675 82.6582C252.973 83.4504 251.34 84.3761 249.791 85.426C246.667 87.58 243.707 89.9279 240.495 92.0603C238.896 93.1564 237.203 94.1149 235.435 94.9251C233.623 95.7186 231.683 96.1961 229.704 96.336C225.734 96.3609 221.783 95.8129 217.977 94.7097C214.145 93.6385 210.236 92.8501 206.283 92.3511C204.31 92.161 202.317 92.292 200.387 92.7388C198.464 93.2621 196.691 94.213 195.206 95.5174C192.17 98.113 190.057 101.602 187.945 105.027C185.951 108.614 183.62 112.01 180.982 115.173C179.585 116.739 177.908 118.042 176.032 119.017C174.117 119.904 172.105 120.576 170.036 121.021C165.9 121.914 161.676 122.291 157.507 123.024C153.337 123.756 149.08 124.909 146.066 127.773C144.611 129.291 143.488 131.083 142.766 133.04C142.037 135.014 141.503 137.051 141.171 139.125C140.401 143.282 140.071 147.547 138.971 151.736C138.498 153.863 137.708 155.909 136.627 157.811C135.489 159.694 133.996 161.35 132.227 162.689C128.751 165.425 124.802 167.45 121.018 169.711C119.122 170.828 117.303 172.066 115.572 173.416C113.851 174.763 112.403 176.414 111.304 178.284C110.256 180.189 109.726 182.325 109.764 184.488C109.803 186.662 110.065 188.827 110.545 190.95C111.469 195.258 112.866 199.49 113.614 203.873C114.058 206.123 114.147 208.426 113.878 210.702C113.566 212.972 112.82 215.164 111.678 217.164C109.379 221.095 106.387 224.552 103.736 228.213C102.374 230.018 101.188 231.943 100.193 233.965C99.1036 235.936 98.5328 238.142 98.5328 240.383C98.5328 242.625 99.1036 244.831 100.193 246.802C101.187 248.824 102.373 250.75 103.736 252.553C106.387 256.215 109.379 259.672 111.678 263.603C112.799 265.566 113.544 267.712 113.878 269.936C114.158 272.181 114.083 274.455 113.658 276.678C112.921 281.104 111.524 285.348 110.589 289.656C110.113 291.779 109.851 293.944 109.808 296.118C109.765 298.283 110.291 300.423 111.337 302.332C112.428 304.208 113.872 305.863 115.594 307.211C117.325 308.561 119.144 309.798 121.04 310.916C124.824 313.177 128.74 315.224 132.26 317.938C134.026 319.28 135.518 320.935 136.66 322.816C137.75 324.71 138.54 326.754 139.004 328.88C140.038 333.08 140.39 337.345 141.204 341.502C141.545 343.575 142.083 345.612 142.81 347.587C143.515 349.543 144.619 351.339 146.055 352.864C149.102 355.761 153.392 356.914 157.507 357.646C161.621 358.379 165.9 358.723 170.036 359.649C172.108 360.096 174.123 360.768 176.043 361.653C177.916 362.631 179.593 363.934 180.993 365.497C183.605 368.665 185.914 372.061 187.89 375.643C190.002 379.068 192.115 382.557 195.151 385.153C196.634 386.455 198.403 387.405 200.321 387.931C202.268 388.412 204.283 388.573 206.283 388.405C210.229 387.886 214.13 387.083 217.955 386.003C221.763 384.891 225.719 384.34 229.693 384.366C231.673 384.512 233.612 384.993 235.424 385.788C237.191 386.601 238.884 387.559 240.484 388.653C243.696 390.807 246.645 393.187 249.78 395.276C251.322 396.333 252.953 397.263 254.653 398.055C255.497 398.437 256.364 398.768 257.249 399.046C257.7 399.164 258.151 399.25 258.602 399.358L259.284 399.498H259.966C263.674 399.907 267.238 398.421 270.362 396.601C273.486 394.781 276.357 392.487 279.283 390.376C282.126 388.155 285.293 386.366 288.678 385.066C292.148 384.136 295.801 384.07 299.305 384.872C302.77 385.519 306.114 386.477 309.458 387.263C312.735 388.14 316.128 388.529 319.524 388.416C322.84 388.114 325.926 386.626 328.192 384.237C330.385 381.863 332.304 379.259 333.912 376.472C335.574 373.758 337.147 371.001 338.973 368.427C340.701 365.793 343.023 363.582 345.76 361.965C348.521 360.592 351.494 359.675 354.561 359.251C357.564 358.723 360.545 358.389 363.46 357.926C366.349 357.541 369.177 356.799 371.876 355.718C374.49 354.652 376.684 352.79 378.135 350.409C379.459 348.038 380.374 345.469 380.841 342.805C381.941 337.571 382.227 332.326 383.646 327.426C384.293 324.991 385.468 322.721 387.089 320.77C388.73 318.96 390.618 317.38 392.7 316.074C396.715 313.425 400.917 311.4 404.558 308.859C406.373 307.656 408.019 306.225 409.454 304.604C410.792 303.026 411.727 301.158 412.182 299.155C412.566 297.22 412.621 295.237 412.347 293.285C412.12 291.414 411.774 289.558 411.313 287.728C410.433 284.142 409.443 280.76 408.827 277.475C408.111 274.387 408.111 271.182 408.827 268.094C409.672 265.451 410.95 262.96 412.611 260.717C415.592 256.506 418.463 253.178 420.311 250.206C421.854 248.019 422.973 245.573 423.612 242.99C423.776 242.333 423.872 241.662 423.898 240.987L423.964 240.308C423.964 240.308 423.964 240.534 423.964 240.987C423.942 241.665 423.854 242.339 423.7 243.001C423.073 245.604 421.954 248.07 420.399 250.27C418.518 253.264 415.669 256.603 412.699 260.814C411.049 263.039 409.788 265.518 408.97 268.148C408.254 271.203 408.254 274.377 408.97 277.432C409.586 280.663 410.587 284.077 411.478 287.663C411.957 289.507 412.325 291.377 412.578 293.264C412.852 295.241 412.796 297.249 412.413 299.209C411.954 301.257 411.004 303.169 409.641 304.787C408.191 306.426 406.531 307.875 404.701 309.095C401.027 311.659 396.836 313.694 392.843 316.333C390.804 317.63 388.954 319.191 387.342 320.975C385.754 322.896 384.606 325.129 383.976 327.523C382.579 332.369 382.271 337.603 381.193 342.87C380.728 345.576 379.802 348.186 378.454 350.592C376.968 353.043 374.715 354.962 372.03 356.063C369.303 357.159 366.446 357.912 363.526 358.303C360.6 358.777 357.608 359.111 354.627 359.639C351.6 360.062 348.664 360.968 345.936 362.32C343.275 363.901 341.017 366.056 339.336 368.621C337.532 371.173 335.959 373.919 334.287 376.655C332.668 379.47 330.735 382.1 328.522 384.496C326.183 386.965 322.994 388.499 319.568 388.803C316.125 388.936 312.681 388.547 309.359 387.651C306.004 386.865 302.66 385.917 299.228 385.282C295.801 384.497 292.228 384.559 288.832 385.465C285.498 386.752 282.38 388.52 279.58 390.71C276.665 392.81 273.794 395.072 270.626 396.967C269.801 397.398 269.02 397.904 268.162 398.259C267.733 398.453 267.315 398.658 266.886 398.83L265.555 399.293C263.75 399.9 261.833 400.121 259.933 399.94L259.218 399.886C258.987 399.886 258.756 399.789 258.514 399.746C258.052 399.638 257.579 399.552 257.128 399.423C256.214 399.146 255.321 398.808 254.455 398.41C252.729 397.608 251.073 396.668 249.505 395.599C246.348 393.445 243.388 391.098 240.209 388.976C238.63 387.903 236.963 386.96 235.226 386.154C233.468 385.389 231.589 384.926 229.671 384.786C225.749 384.769 221.846 385.317 218.087 386.413C214.222 387.526 210.276 388.35 206.283 388.879C204.243 389.074 202.184 388.939 200.189 388.48C198.19 387.935 196.346 386.948 194.799 385.594C191.675 382.912 189.54 379.391 187.428 375.955C185.471 372.401 183.18 369.034 180.586 365.896C179.234 364.379 177.608 363.119 175.79 362.18C173.915 361.308 171.944 360.65 169.915 360.22C165.823 359.337 161.61 358.96 157.408 358.217C155.291 357.872 153.21 357.339 151.192 356.623C149.146 355.888 147.274 354.752 145.692 353.284C144.19 351.714 143.04 349.854 142.315 347.824C141.572 345.818 141.023 343.748 140.676 341.642C139.906 337.453 139.576 333.188 138.476 329.052C138.019 326.98 137.248 324.987 136.187 323.139C135.074 321.313 133.618 319.709 131.897 318.411C128.487 315.73 124.549 313.705 120.754 311.432C118.839 310.302 117.002 309.05 115.253 307.685C113.474 306.288 111.981 304.574 110.853 302.633C109.767 300.648 109.221 298.423 109.269 296.172C109.295 293.943 109.561 291.723 110.061 289.548C110.996 285.24 112.393 280.932 113.119 276.624C113.534 274.454 113.605 272.235 113.328 270.044C112.995 267.867 112.249 265.77 111.128 263.862C108.928 259.985 105.892 256.549 103.219 252.855C101.826 251.014 100.607 249.053 99.5774 246.996C98.4585 244.949 97.873 242.662 97.873 240.34C97.873 238.018 98.4585 235.732 99.5774 233.685C100.593 231.633 101.801 229.679 103.186 227.847C105.859 224.153 108.84 220.718 111.084 216.851C112.204 214.939 112.95 212.839 113.284 210.659C113.541 208.466 113.467 206.249 113.064 204.078C112.327 199.77 110.93 195.462 109.995 191.154C109.504 188.982 109.242 186.766 109.214 184.541C109.17 182.289 109.719 180.064 110.809 178.08C111.944 176.147 113.436 174.438 115.209 173.039C116.955 171.671 118.792 170.419 120.71 169.291C124.505 167.019 128.41 164.983 131.853 162.312C133.571 161.015 135.023 159.41 136.132 157.584C137.187 155.731 137.955 153.735 138.41 151.661C139.433 147.525 139.785 143.271 140.61 139.082C140.954 136.976 141.499 134.906 142.238 132.9C142.901 130.846 144.056 128.977 145.606 127.449C147.155 125.92 149.056 124.776 151.148 124.112C153.166 123.396 155.247 122.862 157.364 122.518C161.566 121.774 165.779 121.441 169.871 120.525C171.896 120.082 173.866 119.425 175.746 118.565C177.559 117.618 179.181 116.355 180.531 114.839C183.125 111.701 185.416 108.333 187.373 104.78C189.485 101.344 191.62 97.8222 194.755 95.1513C196.31 93.7779 198.17 92.7785 200.189 92.2326C202.185 91.7783 204.243 91.6437 206.283 91.8341C210.251 92.3535 214.175 93.1599 218.021 94.2466C221.778 95.3509 225.682 95.9026 229.605 95.8836C231.505 95.7353 233.366 95.269 235.105 94.5051C236.848 93.7103 238.515 92.766 240.088 91.6834C243.278 89.5294 246.238 87.1708 249.395 85.0706C250.96 83.9979 252.617 83.0575 254.345 82.2597C255.21 81.865 256.099 81.5233 257.007 81.2366C257.469 81.1073 257.942 81.0319 258.404 80.9242L259.097 80.7734H259.812C261.712 80.5978 263.628 80.818 265.434 81.4196L266.765 81.8827C267.194 82.0551 267.612 82.2597 268.041 82.4535C268.91 82.8197 269.691 83.3151 270.505 83.7459C273.684 85.6414 276.544 87.9031 279.47 90.0033C282.267 92.1916 285.382 93.9594 288.711 95.2482C292.106 96.1591 295.68 96.222 299.107 95.4313C302.539 94.8066 305.883 93.8589 309.238 93.0727C312.561 92.1782 316.003 91.7859 319.447 91.9095C322.871 92.2175 326.06 93.7514 328.401 96.2175C330.617 98.6177 332.553 101.251 334.177 104.069C335.849 106.794 337.411 109.551 339.215 112.092C340.893 114.662 343.151 116.821 345.815 118.403C348.541 119.761 351.477 120.667 354.506 121.085C357.487 121.613 360.479 121.947 363.405 122.421C366.324 122.817 369.181 123.57 371.909 124.661C374.594 125.761 376.85 127.675 378.344 130.121C379.688 132.529 380.613 135.138 381.083 137.843C382.183 143.11 382.469 148.344 383.855 153.19C384.492 155.581 385.639 157.813 387.221 159.738C388.829 161.528 390.68 163.093 392.722 164.391C396.715 167.03 400.917 169.065 404.58 171.628C406.41 172.849 408.07 174.297 409.52 175.936C410.883 177.551 411.837 179.459 412.303 181.504C412.686 183.468 412.742 185.479 412.468 187.46C412.216 189.343 411.848 191.21 411.368 193.05C410.488 196.647 409.476 200.018 408.86 203.292C408.144 206.347 408.144 209.521 408.86 212.576C409.678 215.206 410.939 217.685 412.589 219.91C415.548 224.132 418.397 227.449 420.289 230.454C421.841 232.655 422.96 235.12 423.59 237.723C423.744 238.385 423.832 239.059 423.854 239.737C423.986 240.125 423.986 240.362 423.986 240.362Z" fill="#263238"/>
<path d="M230.485 388.405C230.639 388.405 226.58 404.56 221.42 424.398C216.261 444.236 211.949 460.294 211.795 460.262C211.641 460.23 215.7 444.107 220.859 424.258C226.019 404.409 230.375 388.319 230.485 388.405Z" fill="#263238"/>
<path d="M261.088 338.131C316.241 338.131 360.952 294.358 360.952 240.361C360.952 186.365 316.241 142.592 261.088 142.592C205.935 142.592 161.225 186.365 161.225 240.361C161.225 294.358 205.935 338.131 261.088 338.131Z" fill="white"/>
<path d="M199.595 206.48C198.22 207.826 190.652 221.31 189.958 232.435C189.265 243.56 190.905 306.004 190.905 306.004L191.202 310.151C209.177 330.732 274.52 361.361 333.373 310.043L336.674 271.627L326.96 190.303L293.188 182.215L285.279 169.668L232.564 181.752L227.856 192.629L199.595 206.48Z" fill="#455A64"/>
<path d="M281.659 136.971C283.98 128.516 286.257 120.008 287.061 111.295C287.864 102.582 287.127 93.5788 283.584 85.5444C283.045 84.3274 278.59 76.1961 277.248 76.4008C276.291 76.5408 279.173 84.1874 278.733 85.0167C274.498 93.0618 273.728 102.507 274.949 111.478C276.209 120.191 278.459 128.737 281.659 136.96" fill="#263238"/>
<path d="M280.78 103.584C280.362 81.6458 266.963 63.6062 244.577 64.6294L242.508 64.8448C232.496 65.8782 223.247 70.5637 216.602 77.9692C209.957 85.3747 206.403 94.9576 206.646 104.812C207.131 123.821 207.901 144.822 209.122 154.924C211.641 175.829 233.323 176.884 233.323 176.884L234.324 190.637L243.51 200.406L286.093 174.558L280.78 103.584Z" fill="#FFBF9D"/>
<path d="M233.378 177.045C233.378 177.045 246.942 176.431 260.351 166.114C260.351 166.114 255.863 185.08 234.324 185.392L233.378 177.045Z" fill="#FF9A6C"/>
<path d="M218.956 121.861C219.032 122.647 219.42 123.372 220.038 123.88C220.655 124.388 221.452 124.638 222.256 124.575C222.648 124.565 223.034 124.479 223.391 124.321C223.748 124.164 224.069 123.938 224.335 123.657C224.602 123.376 224.808 123.045 224.942 122.685C225.077 122.325 225.136 121.942 225.117 121.559C225.038 120.774 224.649 120.05 224.032 119.543C223.415 119.036 222.62 118.785 221.816 118.845C221.424 118.853 221.038 118.938 220.68 119.096C220.323 119.253 220.001 119.479 219.734 119.76C219.467 120.041 219.261 120.372 219.127 120.733C218.994 121.094 218.936 121.477 218.956 121.861Z" fill="#263238"/>
<path d="M212.158 113.029C212.576 113.373 214.71 111.467 217.999 111.133C221.288 110.799 223.862 112.21 224.181 111.726C224.335 111.543 223.873 110.875 222.74 110.229C221.215 109.415 219.472 109.08 217.746 109.27C216.037 109.443 214.427 110.14 213.148 111.263C212.213 112.135 211.949 112.867 212.158 113.029Z" fill="#263238"/>
<path d="M247.986 119.448C248.062 120.234 248.45 120.96 249.068 121.468C249.686 121.976 250.483 122.225 251.287 122.162C251.678 122.153 252.064 122.066 252.421 121.909C252.778 121.751 253.099 121.525 253.365 121.244C253.632 120.963 253.838 120.633 253.973 120.273C254.107 119.912 254.166 119.53 254.147 119.147C254.071 118.36 253.683 117.633 253.066 117.123C252.449 116.614 251.652 116.362 250.847 116.422C250.455 116.433 250.069 116.52 249.712 116.679C249.355 116.838 249.033 117.065 248.767 117.347C248.501 117.629 248.295 117.96 248.16 118.32C248.026 118.681 247.967 119.065 247.986 119.448Z" fill="#263238"/>
<path d="M244.489 111.004C244.907 111.36 247.052 109.443 250.33 109.109C253.608 108.775 256.204 110.186 256.512 109.712C256.666 109.518 256.215 108.85 255.082 108.215C253.555 107.397 251.806 107.062 250.077 107.256C248.366 107.422 246.754 108.12 245.479 109.249C244.555 110.11 244.291 110.854 244.489 111.004Z" fill="#263238"/>
<path d="M235.358 136.949C235.358 136.766 233.279 136.626 229.924 136.551C229.077 136.551 228.263 136.475 228.065 135.926C227.899 135.087 228.002 134.217 228.362 133.438L230.166 126.976C232.652 117.714 234.357 110.132 233.983 110.035C233.609 109.938 231.266 117.369 228.78 126.642L227.086 133.158C226.671 134.192 226.64 135.335 226.998 136.389C227.148 136.67 227.362 136.913 227.623 137.099C227.884 137.286 228.186 137.412 228.505 137.466C228.983 137.524 229.467 137.524 229.946 137.466C233.301 137.326 235.369 137.132 235.358 136.949Z" fill="#263238"/>
<path d="M245.27 138.177C244.731 138.177 245.105 141.688 242.322 144.489C239.538 147.289 235.721 147.289 235.721 147.784C235.721 148 236.634 148.376 238.251 148.247C240.334 148.056 242.282 147.152 243.752 145.695C245.155 144.285 245.943 142.397 245.952 140.428C246.007 138.953 245.512 138.134 245.27 138.177Z" fill="#263238"/>
<path d="M243.268 97.9297C243.686 98.7697 246.92 98.0158 250.825 98.0805C254.73 98.1451 257.964 98.8451 258.382 98.0051C258.569 97.6066 257.942 96.8419 256.589 96.1203C254.794 95.2683 252.825 94.8257 250.83 94.8257C248.836 94.8257 246.867 95.2683 245.072 96.1203C243.686 96.7665 243.08 97.5312 243.268 97.9297Z" fill="#263238"/>
<path d="M212.366 102.194C213.015 102.862 215.205 101.871 217.922 101.548C220.639 101.225 223.004 101.548 223.422 100.708C223.62 100.31 223.18 99.6311 222.102 99.028C220.658 98.3384 219.037 98.0839 217.445 98.2967C215.853 98.5095 214.361 99.1801 213.158 100.223C212.3 101.074 212.069 101.861 212.366 102.194Z" fill="#263238"/>
<path d="M280.703 119.276C281.055 119.082 294.937 113.504 296.016 127.892C297.094 142.281 282.188 140.321 282.089 139.911C281.99 139.502 280.703 119.276 280.703 119.276Z" fill="#FFBF9D"/>
<path d="M286.159 134.149C286.225 134.149 286.423 134.3 286.874 134.461C287.501 134.674 288.187 134.639 288.788 134.364C290.295 133.696 291.417 131.198 291.296 128.602C291.245 127.368 290.911 126.16 290.317 125.07C290.145 124.632 289.867 124.241 289.507 123.932C289.147 123.622 288.715 123.403 288.249 123.293C287.951 123.235 287.642 123.282 287.376 123.426C287.111 123.57 286.905 123.801 286.797 124.079C286.621 124.499 286.742 124.779 286.665 124.811C286.588 124.844 286.335 124.585 286.401 123.993C286.459 123.629 286.641 123.294 286.918 123.045C287.3 122.719 287.798 122.553 288.304 122.582C288.915 122.653 289.497 122.877 289.992 123.234C290.488 123.591 290.88 124.068 291.131 124.617C291.854 125.815 292.262 127.169 292.319 128.559C292.44 131.456 291.131 134.278 289.019 135.021C288.634 135.163 288.222 135.218 287.813 135.183C287.403 135.147 287.007 135.022 286.654 134.817C286.214 134.493 286.115 134.17 286.159 134.149Z" fill="#FF9A6C"/>
<path d="M214.578 80.3856C212.125 79.244 218.758 71.2635 224.478 68.3018C233.048 63.8323 246.359 60.569 254.642 62.3137C264.62 64.4677 273.068 68.668 278.557 77.09C284.047 85.5121 286.566 95.5604 286.94 105.544C287.05 108.592 286.94 111.78 285.444 114.451C283.607 117.757 279.8 120.008 280.262 124.381C280.372 125.17 280.32 125.973 280.109 126.743C279.897 127.512 279.53 128.232 279.03 128.861C276.522 131.833 273.068 129.41 271.385 126.869C267.788 121.484 266.985 114.752 266.281 108.312C265.775 103.746 265.28 99.0714 266.281 94.5911C266.831 92.1464 267.843 89.8093 268.261 87.343C268.679 84.8767 268.426 82.1304 266.754 80.2349C266.364 79.8373 265.937 79.4767 265.478 79.1579C263.313 77.5315 260.745 76.5004 258.037 76.171C255.33 75.8415 252.582 76.2257 250.077 77.2839C241.991 80.6657 228.164 85.8352 224.291 83.315C218.736 79.6964 217.284 77.1547 217.284 77.1547L214.578 80.3856Z" fill="#263238"/>
<path d="M199.595 206.479C198.748 207.632 186.724 211.541 182.159 218.983C177.594 226.425 173.083 259.834 173.083 259.834L170.179 281.783C175.9 290.636 183.578 302.364 191.718 310.635L199.595 206.479Z" fill="#455A64"/>
<g opacity="0.3">
<path d="M289.943 238.703C290.268 243.208 291.139 247.658 292.54 251.961C294.113 256.193 296.874 260.178 300.911 262.365C302.594 263.269 304.497 263.872 305.916 265.165C307.335 266.457 308.193 268.547 309.568 270.065C311.289 271.735 313.411 272.954 315.74 273.608C322.293 275.961 329.247 277.058 336.223 276.839C336.443 274.535 336.454 266.069 336.674 263.754L289.943 238.703Z" fill="black"/>
</g>
<path d="M326.96 190.304C326.96 190.304 342.119 194.698 346.563 201.02C351.007 207.342 358.873 231.854 360.49 236.399C362.107 240.944 360.688 251.477 357.663 259.016C354.637 266.555 349.379 273.113 340.304 274.094C331.228 275.074 316.883 269.947 313.649 266.555C310.415 263.162 309.084 255.656 309.084 255.656C313.114 254.964 317.089 253.988 320.976 252.737" fill="#455A64"/>
<path d="M320.976 252.812L320.789 252.887L320.217 253.092C319.711 253.264 318.952 253.512 317.951 253.803C315.058 254.649 312.12 255.34 309.15 255.871L309.271 255.709C309.64 257.559 310.159 259.378 310.822 261.148C311.184 262.151 311.622 263.127 312.131 264.066C312.654 265.071 313.341 265.984 314.166 266.77C315.098 267.552 316.125 268.218 317.225 268.751C318.386 269.348 319.58 269.884 320.8 270.356C323.418 271.381 326.109 272.216 328.852 272.855C331.813 273.566 334.847 273.945 337.895 273.985C338.688 273.992 339.481 273.956 340.271 273.878C341.067 273.789 341.857 273.652 342.636 273.469C344.234 273.117 345.769 272.532 347.19 271.735C350.15 270.059 352.634 267.686 354.418 264.831C356.304 261.866 357.749 258.653 358.708 255.289C359.491 252.704 360.076 250.065 360.457 247.395C360.866 244.809 360.999 242.188 360.853 239.576C360.766 238.319 360.503 237.079 360.072 235.892C359.654 234.686 359.247 233.491 358.851 232.306L356.486 225.381C354.924 220.879 353.384 216.625 351.844 212.672C350.492 208.994 348.863 205.42 346.97 201.978C346.096 200.515 344.928 199.24 343.538 198.23C342.326 197.286 341.039 196.44 339.688 195.699C337.518 194.487 335.273 193.408 332.967 192.468C331.074 191.703 329.578 191.165 328.566 190.81L327.411 190.411C327.274 190.375 327.141 190.325 327.015 190.26C327.154 190.278 327.291 190.31 327.422 190.357L328.599 190.702C329.633 191.025 331.151 191.531 333.066 192.263C335.392 193.162 337.658 194.202 339.853 195.376C341.228 196.117 342.541 196.963 343.78 197.907C345.211 198.935 346.416 200.236 347.322 201.73C349.258 205.191 350.92 208.791 352.295 212.5C353.868 216.442 355.419 220.707 356.992 225.209C357.773 227.46 358.565 229.775 359.379 232.134C359.786 233.308 360.193 234.503 360.6 235.709C361.052 236.937 361.33 238.22 361.425 239.522C361.581 242.173 361.452 244.834 361.04 247.459C360.651 250.158 360.059 252.826 359.269 255.44C358.286 258.861 356.804 262.126 354.869 265.133C353.035 268.064 350.477 270.497 347.432 272.208C345.965 273.025 344.382 273.624 342.735 273.985C341.934 274.172 341.122 274.313 340.304 274.406C339.49 274.406 338.676 274.546 337.884 274.513C334.793 274.458 331.719 274.061 328.72 273.329C325.952 272.679 323.239 271.826 320.602 270.776C319.374 270.29 318.173 269.74 317.005 269.128C315.873 268.573 314.816 267.882 313.858 267.071C313.007 266.246 312.301 265.289 311.768 264.239C311.258 263.285 310.82 262.295 310.459 261.277C309.814 259.475 309.31 257.628 308.952 255.752V255.612H309.095C312.967 254.955 315.938 254.212 317.951 253.673L320.239 253.038L320.822 252.876C320.91 252.812 320.976 252.801 320.976 252.812Z" fill="#263238"/>
<path d="M348.796 244.874C348.686 244.874 348.334 243.043 347.069 240.307C345.408 236.751 343.088 233.527 340.227 230.798C338.642 229.32 336.849 228.073 334.903 227.093L333.572 226.511C333.132 226.317 332.67 226.231 332.252 226.091C331.46 225.847 330.646 225.681 329.82 225.596L329.27 225.52H327.774C327.258 225.513 326.742 225.556 326.234 225.65C325.792 225.737 325.343 225.783 324.892 225.79C325.309 225.621 325.744 225.501 326.19 225.434C326.702 225.292 327.231 225.216 327.763 225.208H328.753H329.292L329.864 225.273C330.717 225.331 331.561 225.475 332.384 225.703C332.845 225.817 333.3 225.953 333.748 226.113L335.134 226.694C337.152 227.67 339.007 228.941 340.634 230.464C343.557 233.23 345.874 236.55 347.443 240.221C347.724 240.846 347.966 241.486 348.169 242.138C348.339 242.629 348.479 243.129 348.587 243.635C348.697 244.041 348.767 244.455 348.796 244.874Z" fill="#263238"/>
<path d="M357.069 231.552C356.444 229.984 355.678 228.474 354.78 227.039C352.501 223.633 349.089 221.102 345.122 219.877C340.469 218.488 335.947 218.919 332.79 219.21L329.017 219.651C328.56 219.732 328.096 219.772 327.631 219.77C328.066 219.603 328.52 219.491 328.984 219.436C329.864 219.263 331.184 219.037 332.746 218.822C336.916 218.108 341.193 218.285 345.287 219.339C347.528 219.998 349.609 221.098 351.403 222.57C352.872 223.792 354.128 225.239 355.121 226.856C355.801 227.917 356.345 229.057 356.738 230.249C356.899 230.669 357.01 231.106 357.069 231.552Z" fill="#263238"/>
<path d="M345.639 215.623C339.709 214.254 333.511 214.492 327.708 216.312C328.47 215.826 329.305 215.463 330.184 215.235C332.265 214.609 334.421 214.247 336.597 214.158C338.773 214.083 340.95 214.278 343.076 214.74C343.971 214.907 344.835 215.205 345.639 215.623Z" fill="#263238"/>
<path d="M321.108 194.008C321.196 194.008 320.976 195.527 320.8 197.961C320.338 204.195 320.888 210.462 322.428 216.528L322.032 216.657C321.581 215.419 321.229 214.407 320.998 213.696C320.854 213.349 320.751 212.988 320.69 212.619C320.914 212.953 321.092 213.315 321.218 213.696C321.515 214.374 321.922 215.365 322.428 216.593L322.032 216.711C321.161 213.731 320.583 210.677 320.305 207.589C320.017 204.395 320.046 201.182 320.393 197.993C320.536 196.776 320.701 195.839 320.833 195.118C320.87 194.737 320.962 194.363 321.108 194.008Z" fill="#263238"/>
<path d="M299.668 166.383C299.668 166.383 291.802 166.383 290.812 175.635C290.053 182.743 290.812 189.636 290.812 192.759C290.812 195.882 289.415 206.943 289.415 206.943C289.415 206.943 284.047 211.606 284.135 217.206C284.223 222.807 288.315 224.552 288.315 224.552C287.629 226.287 287.478 228.181 287.881 230C288.283 231.819 289.222 233.482 290.581 234.783C290.581 234.783 288.304 239.942 290.174 243.399C291.252 245.119 292.934 246.394 294.904 246.985C294.582 247.666 294.412 248.406 294.406 249.157C294.401 249.907 294.56 250.65 294.873 251.335C295.186 252.02 295.645 252.631 296.22 253.127C296.795 253.624 297.471 253.994 298.205 254.212C300.848 255.013 303.616 255.345 306.378 255.192L312.252 255.084L317.423 257.884C317.423 257.884 326.289 254.104 326.509 248.988L326.74 243.873C326.74 243.873 324.199 235.472 323.99 232.78C323.781 230.087 326.036 223.658 324.672 220.771C323.308 217.885 318.545 216.183 318.996 212.155C319.447 208.127 318.545 205.887 316.499 203.658C314.453 201.429 305.421 196.991 305.421 196.991C305.421 196.991 303.1 190.529 303.1 186.103C303.1 181.677 307.621 168.074 299.668 166.383Z" fill="#FFBF9D"/>
<path d="M304.97 198.671C304.294 199.213 303.555 199.676 302.77 200.05C301.384 200.847 299.47 201.902 297.27 203.044C295.069 204.186 293.155 205.198 291.769 205.898C291.02 206.341 290.223 206.703 289.393 206.975C290.067 206.427 290.806 205.961 291.593 205.586C292.979 204.789 294.893 203.733 297.093 202.592C299.294 201.45 301.208 200.438 302.594 199.738C303.341 199.294 304.139 198.936 304.97 198.671Z" fill="#FF9A6C"/>
<path d="M310.14 216.086C310.14 216.086 309.92 216.334 309.447 216.69C308.791 217.194 308.108 217.665 307.401 218.1C305.078 219.558 302.608 220.778 300.031 221.741C297.453 222.72 294.781 223.441 292.055 223.895C290.955 224.056 290.152 224.153 289.569 224.185C289.264 224.241 288.95 224.241 288.645 224.185C288.645 224.099 289.921 223.927 291.945 223.507C294.614 222.958 297.237 222.209 299.789 221.267C302.335 220.302 304.799 219.143 307.159 217.799C308.122 217.179 309.117 216.607 310.14 216.086Z" fill="#FF9A6C"/>
<path d="M316.895 210.54C317.038 210.594 316.741 211.617 315.795 212.403C314.849 213.189 313.837 213.426 313.804 213.286C313.771 213.146 314.585 212.737 315.41 211.983C316.235 211.229 316.741 210.475 316.895 210.54Z" fill="#FF9A6C"/>
<path d="M313.649 231.326C312.593 231.828 311.487 232.225 310.349 232.51C307.643 233.299 304.887 233.914 302.099 234.352C299.311 234.797 296.496 235.056 293.672 235.127C292.502 235.216 291.325 235.18 290.163 235.02C291.319 234.859 292.483 234.765 293.65 234.74C295.85 234.589 298.766 234.309 302.011 233.803C305.256 233.297 308.149 232.64 310.239 232.123C311.359 231.792 312.498 231.526 313.649 231.326Z" fill="#FF9A6C"/>
<path d="M320.844 230.087C321.011 229.526 321.213 228.976 321.449 228.439C321.885 227.124 322.031 225.732 321.878 224.357C321.703 222.983 321.222 221.664 320.47 220.491C320.113 220.023 319.786 219.534 319.491 219.026C319.491 218.972 320.118 219.371 320.811 220.265C321.7 221.446 322.261 222.834 322.439 224.291C322.616 225.749 322.404 227.226 321.823 228.579C321.372 229.559 320.899 230.087 320.844 230.087Z" fill="#FF9A6C"/>
<path d="M314.089 246.921C313.188 247.246 312.25 247.463 311.295 247.567C309.01 247.92 306.7 248.096 304.387 248.094C302.068 248.09 299.754 247.9 297.468 247.524C296.512 247.418 295.574 247.197 294.673 246.867C295.629 246.883 296.581 246.973 297.522 247.136C299.802 247.388 302.093 247.521 304.387 247.534C306.676 247.53 308.964 247.408 311.24 247.168C312.182 247.011 313.134 246.929 314.089 246.921Z" fill="#FF9A6C"/>
<path d="M300.097 186.211C300.097 186.275 299.734 186.566 298.997 186.825C298.027 187.142 296.996 187.245 295.981 187.126C294.965 187.007 293.989 186.668 293.123 186.135C292.462 185.715 292.154 185.349 292.198 185.295C293.415 185.893 294.711 186.321 296.049 186.566C297.408 186.637 298.772 186.517 300.097 186.211Z" fill="#FF9A6C"/>
<path d="M322.472 230.701C322.571 230.966 322.616 231.248 322.604 231.53C322.604 232.296 322.512 233.059 322.329 233.803C322.12 234.74 321.757 235.828 321.405 237.034C320.979 238.296 320.84 239.634 320.998 240.954C321.185 242.322 322.23 243.42 322.395 244.81C322.507 245.984 322.2 247.16 321.526 248.138C321.116 248.786 320.64 249.392 320.107 249.947C319.733 250.345 319.502 250.539 319.469 250.518C319.436 250.496 320.228 249.57 321.174 247.944C321.743 247.027 321.986 245.952 321.867 244.885C321.735 243.711 320.679 242.613 320.426 241.051C320.258 239.648 320.42 238.226 320.899 236.894C321.284 235.677 321.68 234.611 321.933 233.663C322.187 232.69 322.367 231.7 322.472 230.701Z" fill="#FF9A6C"/>
<path d="M325.431 237.464C325.61 237.78 325.737 238.122 325.805 238.477C326.003 239.134 326.267 240.103 326.509 241.309C326.808 242.728 326.984 244.169 327.037 245.617C327.132 247.428 326.793 249.235 326.047 250.894C325.181 252.483 324.034 253.909 322.659 255.105C321.565 256.081 320.399 256.978 319.172 257.787C318.127 258.487 317.247 259.004 316.631 259.338C316.328 259.539 315.998 259.698 315.652 259.812C315.597 259.737 316.917 258.918 318.952 257.464C320.132 256.623 321.256 255.71 322.318 254.729C323.625 253.558 324.719 252.178 325.552 250.647C326.257 249.063 326.592 247.344 326.531 245.617C326.505 244.192 326.373 242.77 326.135 241.363C325.706 238.961 325.343 237.486 325.431 237.464Z" fill="#263238"/>
<path d="M242.432 201.612C241.974 201.348 241.546 201.038 241.156 200.685L237.855 197.982L235.567 196.097C235.176 195.739 234.74 195.432 234.269 195.182C234.041 195.068 233.788 195.008 233.532 195.008C233.276 195.008 233.023 195.068 232.795 195.182C231.849 195.667 231.211 196.851 230.408 197.842C229.605 198.833 228.813 199.996 227.977 201.073C226.657 202.818 225.37 204.487 224.193 206.038L223.478 206.964L223.709 205.823C224.339 202.62 225.256 199.477 226.448 196.431C226.888 195.354 227.284 194.428 227.548 193.836C227.672 193.518 227.838 193.217 228.043 192.942C227.967 193.27 227.86 193.591 227.724 193.9C227.493 194.514 227.152 195.408 226.756 196.55C225.68 199.611 224.838 202.747 224.237 205.93L223.742 205.715L227.515 200.739L229.946 197.508L231.112 195.99C231.482 195.45 231.98 195.007 232.564 194.697C232.87 194.566 233.202 194.505 233.535 194.518C233.869 194.531 234.195 194.618 234.489 194.773C234.989 195.048 235.451 195.385 235.864 195.774L238.064 197.713L241.277 200.545C241.69 200.871 242.076 201.227 242.432 201.612Z" fill="#263238"/>
<path d="M288.876 192.511C288.748 192.653 288.604 192.779 288.447 192.888L287.149 193.879L282.297 197.444L266.116 209.108L265.874 209.28L265.708 209.032C265.576 208.838 265.444 208.623 265.301 208.418L257.183 195.861L257.48 195.958C254.352 197.174 251.334 198.648 248.46 200.363C247.425 200.976 246.622 201.44 246.072 201.838C245.805 202.035 245.517 202.205 245.214 202.344C245.448 202.107 245.706 201.894 245.984 201.709C246.512 201.332 247.293 200.783 248.317 200.126C251.155 198.317 254.16 196.774 257.293 195.516L257.48 195.441L257.59 195.602C259.977 199.232 262.782 203.529 265.786 208.117C265.929 208.321 266.061 208.537 266.193 208.731L265.774 208.655L282.066 197.132L287.017 193.696L288.381 192.791C288.7 192.587 288.865 192.49 288.876 192.511Z" fill="#263238"/>
<path d="M190.145 235.343C190.195 235.591 190.218 235.844 190.211 236.097C190.211 236.657 190.211 237.379 190.266 238.251C190.266 240.2 190.365 242.925 190.42 246.264C190.552 253.027 190.827 262.419 191.19 272.704C191.553 282.989 191.762 292.381 191.784 299.155C191.784 302.547 191.784 305.283 191.784 307.179C191.784 308.072 191.784 308.805 191.729 309.332C191.741 309.589 191.723 309.845 191.674 310.097C191.658 309.843 191.658 309.587 191.674 309.332C191.674 308.783 191.674 308.051 191.608 307.179C191.608 305.218 191.52 302.494 191.454 299.166C191.333 292.391 191.047 283.011 190.695 272.715C190.343 262.419 190.123 253.038 190.101 246.264C190.101 242.882 190.101 240.136 190.101 238.251C190.101 237.346 190.101 236.625 190.101 236.097C190.099 235.845 190.114 235.593 190.145 235.343Z" fill="#263238"/>
<path d="M242.795 332.617C242.758 332.52 242.736 332.419 242.729 332.316C242.729 332.079 242.729 331.777 242.63 331.4C242.542 330.549 242.421 329.375 242.277 327.878C241.969 324.82 241.617 320.339 241.265 314.901C240.913 309.462 240.616 302.871 240.429 295.612C240.242 288.353 240.22 280.351 240.429 271.918C240.638 263.485 241.023 255.548 241.529 248.299C242.035 241.051 242.63 234.525 243.224 229.064C243.818 223.604 244.324 219.178 244.808 216.141C245.028 214.644 245.193 213.48 245.314 212.64C245.38 212.263 245.424 211.962 245.468 211.725C245.473 211.622 245.495 211.52 245.534 211.423C245.551 211.527 245.551 211.632 245.534 211.736C245.534 211.973 245.479 212.274 245.446 212.651C245.347 213.491 245.215 214.665 245.039 216.162C244.665 219.221 244.181 223.636 243.642 229.086C243.103 234.536 242.542 241.073 242.068 248.321C241.595 255.569 241.232 263.55 241.034 271.929C240.836 280.308 240.891 288.288 241.034 295.547C241.177 302.806 241.452 309.333 241.76 314.814C242.068 320.296 242.343 324.744 242.586 327.803C242.685 329.3 242.773 330.485 242.828 331.335C242.828 331.712 242.828 332.014 242.883 332.251C242.863 332.375 242.834 332.498 242.795 332.617Z" fill="#263238"/>
<path d="M210.012 156.335L208.846 157.089L205.414 159.243C203.896 160.201 202.114 161.569 200.024 163.077C198.924 163.852 197.912 164.789 196.724 165.737L194.931 167.212C194.315 167.729 193.732 168.289 193.105 168.882C187.02 174.438 181.676 180.724 177.198 187.589L175.24 190.669C174.547 191.692 174.018 192.823 173.38 193.9C172.742 194.977 172.115 196.14 171.543 197.325C170.971 198.51 170.443 199.727 169.849 200.954C169.574 201.568 169.266 202.171 169.002 202.807C168.738 203.442 168.507 204.089 168.254 204.745C167.759 206.038 167.231 207.341 166.747 208.687C165.933 211.412 164.899 214.169 164.283 217.109C161.147 229.831 160.623 243.035 162.743 255.956C165.501 272.595 172.617 288.25 183.398 301.393C194.179 314.536 208.256 324.719 224.255 330.947C240.254 337.175 257.629 339.237 274.685 336.93C291.741 334.624 307.894 328.028 321.57 317.786C325.022 315.188 328.307 312.383 331.404 309.386L333.604 307.103C334.352 306.349 335.078 305.584 335.805 304.776L337.895 302.418C338.555 301.599 339.204 300.781 339.864 299.973C349.814 287.425 356.453 272.67 359.192 257.012C359.836 253.377 360.273 249.709 360.501 246.027C360.611 244.206 360.611 242.408 360.677 240.642C360.743 238.875 360.545 237.077 360.479 235.321C360.479 234.449 360.402 233.566 360.369 232.693C360.336 231.821 360.171 230.97 360.083 230.109C359.863 228.396 359.654 226.695 359.445 225.014C359.236 223.334 358.785 221.697 358.455 220.06C358.179 218.437 357.812 216.83 357.355 215.246L355.991 210.583C355.777 209.818 355.516 209.066 355.21 208.332C354.924 207.589 354.638 206.846 354.363 206.113C353.779 204.659 353.262 203.173 352.635 201.805C352.008 200.438 351.326 199.048 350.677 197.702C345.893 187.965 339.475 179.082 331.69 171.423C325.792 165.686 319.21 160.663 312.087 156.464L307.885 154.105C307.251 153.741 306.597 153.411 305.927 153.115L304.079 152.253L300.779 150.724C299.788 150.228 298.809 149.948 297.984 149.647L294.156 148.203L292.858 147.687L294.178 148.15L298.017 149.55C298.853 149.873 299.833 150.153 300.834 150.627L304.134 152.134L305.993 152.996C306.666 153.285 307.324 153.608 307.962 153.965L312.175 156.313C319.345 160.486 325.969 165.498 331.899 171.24C339.731 178.894 346.194 187.78 351.018 197.53C351.667 198.897 352.327 200.265 352.998 201.665C353.67 203.065 354.099 204.541 354.737 205.973L355.595 208.192C355.901 208.93 356.162 209.685 356.376 210.454C356.838 212.004 357.3 213.555 357.762 215.138C358.238 216.728 358.624 218.342 358.917 219.974C359.247 221.611 359.643 223.205 359.929 224.939C360.215 226.673 360.347 228.342 360.567 230.066C360.666 230.927 360.809 231.789 360.864 232.661C360.919 233.533 360.941 234.417 360.974 235.3C361.04 237.066 361.139 238.843 361.183 240.685C361.227 242.526 361.128 244.293 361.007 246.07C359.883 265.784 352.658 284.697 340.293 300.296L338.291 302.752L336.179 305.132C335.496 305.94 334.759 306.715 333.978 307.469L331.778 309.774C328.662 312.788 325.355 315.608 321.878 318.217C308.136 328.501 291.907 335.124 274.773 337.44C257.639 339.756 240.184 337.685 224.111 331.431C208.037 325.177 193.893 314.952 183.057 301.753C172.221 288.554 165.063 272.831 162.281 256.118C161.165 249.381 160.796 242.545 161.181 235.731C161.458 229.445 162.383 223.202 163.942 217.099C164.558 214.148 165.603 211.391 166.417 208.644C166.912 207.309 167.451 205.995 167.957 204.692C168.21 204.045 168.463 203.399 168.705 202.753C168.947 202.107 169.288 201.515 169.563 200.89C170.146 199.662 170.663 198.456 171.268 197.26C171.873 196.065 172.522 194.956 173.127 193.825C173.732 192.694 174.304 191.574 174.998 190.54L176.978 187.46C181.479 180.584 186.866 174.304 193.006 168.774C193.633 168.203 194.216 167.622 194.832 167.105L196.636 165.629C197.824 164.692 198.836 163.766 199.936 162.991C202.081 161.483 203.841 160.137 205.37 159.189L208.835 157.035C209.583 156.561 210.012 156.335 210.012 156.335Z" fill="#263238"/>
</g>
<defs>
<filter id="filter0_d_908_410" x="0" y="39.0557" width="496.812" height="480.944" filterUnits="userSpaceOnUse" color-interpolation-filters="sRGB">
<feFlood flood-opacity="0" result="BackgroundImageFix"/>
<feColorMatrix in="SourceAlpha" type="matrix" values="0 0 0 0 0 0 0 0 0 0 0 0 0 0 0 0 0 0 127 0" result="hardAlpha"/>
<feOffset dx="4" dy="4"/>
<feGaussianBlur stdDeviation="2"/>
<feComposite in2="hardAlpha" operator="out"/>
<feColorMatrix type="matrix" values="0 0 0 0 0 0 0 0 0 0 0 0 0 0 0 0 0 0 0.5 0"/>
<feBlend mode="normal" in2="BackgroundImageFix" result="effect1_dropShadow_908_410"/>
<feBlend mode="normal" in="SourceGraphic" in2="effect1_dropShadow_908_410" result="shape"/>
</filter>
</defs>
</svg>
