<svg width="350" height="500" viewBox="0 0 350 500" fill="none" xmlns="http://www.w3.org/2000/svg">
<path d="M266.906 436.469L275.848 500H327.811L339.87 437.383L266.906 436.469Z" fill="white"/>
<path d="M332.607 477.188C332.607 477.363 319.286 477.513 302.872 477.513C286.459 477.513 273.126 477.363 273.126 477.188C273.126 477.012 286.447 476.85 302.872 476.85C319.298 476.85 332.607 477.025 332.607 477.188Z" fill="#FAFAFA"/>
<path d="M332.804 474.057C332.804 474.245 319.402 474.383 302.872 474.383C286.343 474.383 272.929 474.245 272.929 474.057C272.929 473.869 286.331 473.732 302.872 473.732C319.413 473.732 332.804 473.882 332.804 474.057Z" fill="#FAFAFA"/>
<path d="M332.7 470.526C332.7 470.714 319.298 470.864 302.768 470.864C286.239 470.864 272.825 470.714 272.825 470.526C272.825 470.338 286.227 470.2 302.768 470.2C319.309 470.2 332.7 470.35 332.7 470.526Z" fill="#FAFAFA"/>
<path d="M281.837 496.369C281.109 493.753 280.578 491.077 280.25 488.368C279.719 485.701 279.386 482.992 279.254 480.267C279.976 482.893 280.503 485.577 280.829 488.293C281.366 490.951 281.703 493.652 281.837 496.369Z" fill="#FAFAFA"/>
<path d="M285.312 495.693C284.944 493.11 284.731 490.504 284.675 487.892C284.416 485.293 284.3 482.68 284.327 480.066C285.263 485.209 285.594 490.46 285.312 495.693Z" fill="#FAFAFA"/>
<path d="M291.799 495.693C291.085 493.086 290.631 490.404 290.443 487.692C290.052 485.006 289.92 482.283 290.05 479.566C290.523 482.227 290.855 484.915 291.046 487.617C291.431 490.293 291.682 492.989 291.799 495.693Z" fill="#FAFAFA"/>
<path d="M296.316 496.031C295.818 493.357 295.577 490.633 295.598 487.905C295.417 485.178 295.494 482.439 295.83 479.729C296.103 482.436 296.227 485.158 296.2 487.88C296.389 490.592 296.428 493.314 296.316 496.031Z" fill="#FAFAFA"/>
<path d="M304.32 495.693C303.761 490.567 303.602 485.398 303.845 480.243C304.424 485.368 304.587 490.538 304.332 495.693H304.32Z" fill="#FAFAFA"/>
<path d="M310.17 496.031C309.882 493.384 309.801 490.716 309.927 488.055C309.85 485.386 309.97 482.715 310.286 480.066C310.573 482.717 310.654 485.389 310.529 488.055C310.612 490.72 310.492 493.387 310.17 496.031Z" fill="#FAFAFA"/>
<path d="M315.649 495.18C315.6 492.392 315.747 489.605 316.089 486.841C316.242 484.057 316.595 481.29 317.143 478.565C317.199 481.353 317.052 484.141 316.703 486.904C316.557 489.689 316.204 492.456 315.649 495.18Z" fill="#FAFAFA"/>
<path d="M322.726 494.354C322.944 489.569 323.891 484.856 325.529 480.405C325.205 482.76 324.756 485.093 324.186 487.392C323.813 489.739 323.325 492.062 322.726 494.354Z" fill="#FAFAFA"/>
<path d="M317.745 311.11C317.729 311.216 317.706 311.32 317.676 311.423L317.433 312.312L316.448 315.742C315.996 317.232 315.475 319.048 314.919 321.176C314.363 323.305 313.668 325.721 313.042 328.426C312.417 331.13 311.676 334.073 311.027 337.266C310.378 340.459 309.695 343.889 309.023 347.508C307.772 354.745 306.637 362.758 305.838 371.21C305.038 379.661 304.679 387.775 304.679 395.137C304.679 398.818 304.679 402.324 304.772 405.592C304.865 408.86 304.98 411.915 305.143 414.695C305.305 417.475 305.49 419.991 305.652 422.208C305.814 424.424 305.988 426.314 306.15 427.867C306.312 429.42 306.417 430.571 306.498 431.435C306.498 431.811 306.521 432.124 306.567 432.374C306.567 432.575 306.567 432.688 306.567 432.688C306.529 432.588 306.506 432.482 306.498 432.374C306.498 432.137 306.417 431.824 306.359 431.46C306.251 430.584 306.1 429.395 305.907 427.892C305.71 426.352 305.478 424.461 305.305 422.245C305.131 420.029 304.841 417.537 304.702 414.733C304.563 411.928 304.332 408.898 304.251 405.617C304.17 402.337 304.123 398.818 304.1 395.125C304.181 387.75 304.517 379.624 305.258 371.147C306 362.671 307.228 354.645 308.502 347.358C309.197 343.752 309.822 340.308 310.564 337.115C311.305 333.923 311.977 330.968 312.66 328.276C313.344 325.584 314.039 323.167 314.629 321.051C315.22 318.935 315.788 317.107 316.251 315.642L317.409 312.249C317.537 311.898 317.629 311.61 317.711 311.373C317.792 311.135 317.745 311.097 317.745 311.11Z" fill="#455A64"/>
<path d="M308.34 350.438C309.779 345.86 312.645 341.965 316.448 339.419C317.734 338.555 319.367 337.854 320.722 338.568C322.541 339.52 322.68 342.324 322.147 344.365C321.214 347.924 319.125 351.001 316.263 353.03C313.73 355.06 310.557 355.925 307.436 355.434" fill="#455A64"/>
<path d="M305.178 377.008C306.521 371.524 310.575 363.736 314.769 360.33C315.416 359.763 316.16 359.338 316.958 359.078C317.356 358.957 317.776 358.943 318.18 359.04C318.584 359.136 318.96 359.338 319.275 359.629C319.635 360.139 319.871 360.739 319.963 361.373C320.054 362.007 319.996 362.656 319.796 363.26C318.935 367.261 317.06 370.924 314.382 373.839C311.704 376.753 308.329 378.805 304.633 379.763" fill="#455A64"/>
<path d="M304.309 400.397C306.399 395.16 309.741 390.618 313.992 387.238C314.45 386.799 314.983 386.462 315.562 386.247C316.14 386.033 316.753 385.944 317.363 385.986C319.205 386.349 320.039 388.765 319.877 390.781C319.541 394.913 316.61 398.231 313.599 400.798C310.828 402.882 307.818 404.565 304.645 405.806" fill="#455A64"/>
<path d="M304.795 417.2C306.818 413.21 309.63 409.752 313.031 407.071C313.753 406.452 314.597 406.024 315.498 405.819C315.95 405.732 316.414 405.78 316.842 405.956C317.271 406.133 317.647 406.431 317.931 406.82C318.753 408.072 317.931 409.9 317.085 411.165C314.179 415.539 310.062 418.802 305.328 420.481" fill="#455A64"/>
<path d="M304.39 410.375C300.843 405.67 296.904 401.328 292.621 397.404C291.949 396.79 291.104 396.152 290.304 396.452C289.992 396.594 289.725 396.83 289.534 397.132C289.343 397.434 289.236 397.789 289.227 398.155C289.226 398.892 289.381 399.62 289.679 400.284C291.085 403.662 293.178 406.654 295.801 409.039C298.424 411.423 301.51 413.138 304.83 414.057" fill="#455A64"/>
<path d="M304.772 388.502L295.505 376.306C294.689 375.089 293.672 374.045 292.505 373.226C291.937 372.771 291.25 372.521 290.543 372.512C289.835 372.503 289.143 372.736 288.566 373.177C287.988 373.619 287.554 374.246 287.325 374.97C287.097 375.694 287.085 376.477 287.293 377.208C287.632 378.664 288.248 380.029 289.1 381.215C290.904 384.207 293.187 386.827 295.841 388.953C298.552 390.968 301.019 392.283 304.286 391.757" fill="#455A64"/>
<path d="M306.058 363.874C304.257 358.044 301.06 352.833 296.791 348.773C296.123 348.04 295.288 347.509 294.37 347.233C292.517 346.858 290.721 348.485 290.131 350.464C289.834 351.568 289.755 352.727 289.901 353.867C290.047 355.006 290.413 356.099 290.976 357.075C292.099 359.042 293.576 360.745 295.32 362.083C298.435 364.658 301.907 366.686 305.606 368.093" fill="#455A64"/>
<path d="M309.753 341.912C308.849 334.85 305.455 328.965 301.505 323.256C300.683 322.003 299.525 320.751 298.146 320.989C297.712 321.092 297.308 321.309 296.97 321.621C296.633 321.934 296.372 322.332 296.212 322.78C295.907 323.684 295.784 324.649 295.853 325.609C296.022 329.891 297.355 334.024 299.685 337.491C302.015 340.959 305.239 343.607 308.954 345.105" fill="#455A64"/>
<path d="M312.336 330.706C311.906 327.082 311.794 323.422 312 319.775C312.214 316.108 313.378 312.58 315.359 309.595C316.204 308.308 317.369 307.305 318.718 306.703C319.393 306.412 320.126 306.314 320.846 306.417C321.566 306.52 322.249 306.821 322.831 307.292C323.324 307.79 323.708 308.402 323.952 309.083C324.197 309.764 324.297 310.495 324.244 311.223C324.134 312.674 323.78 314.091 323.201 315.405C320.734 321.816 316.633 328.903 312.336 330.706Z" fill="#455A64"/>
<path d="M272.049 339.119C272.076 339.419 272.076 339.721 272.049 340.021C272.049 340.672 272.049 341.506 272.049 342.525C272.049 343.639 272.049 345.029 272.049 346.582C272.049 348.134 272.049 349.962 272.223 351.953C272.385 355.922 272.744 360.643 273.3 365.864C273.856 371.085 274.887 376.857 276.045 382.792C277.203 388.727 278.536 394.386 279.926 399.395C281.316 404.403 282.787 408.898 284.119 412.604C284.744 414.482 285.405 416.135 285.949 417.613C286.493 419.09 286.98 420.33 287.397 421.369C287.814 422.408 288.092 423.122 288.324 423.723C288.449 423.99 288.546 424.271 288.613 424.562C288.463 424.31 288.331 424.047 288.219 423.773C287.953 423.197 287.605 422.421 287.188 421.469C286.771 420.518 286.204 419.228 285.636 417.713C285.069 416.198 284.374 414.62 283.713 412.705C282.335 408.948 280.852 404.528 279.393 399.495C277.933 394.462 276.566 388.852 275.396 382.892C274.227 376.932 273.45 371.185 272.883 365.951C272.315 360.718 272.037 355.935 271.933 351.978C271.84 349.987 271.864 348.222 271.84 346.607C271.817 344.991 271.84 343.652 271.84 342.537C271.84 341.423 271.91 340.622 271.933 339.971C271.945 339.683 271.983 339.398 272.049 339.119Z" fill="#263238"/>
<path d="M273.497 368.092C273.556 364.646 274.724 361.331 276.798 358.714C277.098 358.229 277.503 357.831 277.977 357.554C278.451 357.277 278.981 357.129 279.52 357.124C280.945 357.349 281.594 359.19 281.64 360.742C281.706 363.386 280.883 365.966 279.323 368.004C278.007 369.979 276.02 371.307 273.798 371.698" fill="#263238"/>
<path d="M276.636 386.874C276.462 382.83 277.667 376.582 279.845 373.301C280.166 372.758 280.588 372.294 281.084 371.937C281.331 371.76 281.614 371.651 281.909 371.621C282.204 371.59 282.502 371.638 282.775 371.761C283.123 372.025 283.405 372.378 283.595 372.789C283.785 373.2 283.878 373.656 283.864 374.115C284.076 377.04 283.529 379.972 282.285 382.579C281.041 385.187 279.149 387.368 276.821 388.877" fill="#263238"/>
<path d="M280.679 403.026C281.075 398.995 282.454 395.15 284.675 391.883C284.892 391.469 285.184 391.108 285.535 390.822C285.885 390.536 286.287 390.33 286.714 390.217C288.034 390.029 289.03 391.469 289.366 392.897C289.968 395.789 288.636 398.719 287.049 401.173C285.575 403.23 283.857 405.069 281.941 406.645" fill="#263238"/>
<path d="M284.385 414.421C284.966 411.249 286.188 408.256 287.965 405.656C288.342 405.079 288.838 404.604 289.412 404.266C289.702 404.102 290.027 404.026 290.354 404.046C290.68 404.065 290.995 404.181 291.266 404.379C292.088 405.08 291.903 406.47 291.555 407.534C290.446 411.188 288.292 414.366 285.405 416.612" fill="#263238"/>
<path d="M282.74 409.799C279.385 407.429 275.837 405.392 272.142 403.714C271.876 403.536 271.573 403.434 271.262 403.417C270.95 403.399 270.639 403.467 270.358 403.614C270.171 403.782 270.034 404.006 269.964 404.257C269.894 404.509 269.894 404.777 269.964 405.029C270.111 405.529 270.36 405.987 270.694 406.369C272.325 408.342 274.347 409.894 276.609 410.908C278.871 411.923 281.315 412.374 283.76 412.228" fill="#263238"/>
<path d="M278.64 394.825L269.918 388.677C269.122 388.035 268.222 387.56 267.265 387.275C266.783 387.143 266.276 387.155 265.801 387.312C265.325 387.469 264.898 387.763 264.566 388.164C264.296 388.613 264.147 389.135 264.136 389.67C264.126 390.206 264.255 390.734 264.508 391.194C265.023 392.114 265.714 392.904 266.535 393.51C268.356 395.13 270.431 396.381 272.663 397.204C274.91 397.943 276.856 398.268 278.976 397.204" fill="#263238"/>
<path d="M274.62 377.759C272.222 374.21 268.997 371.41 265.273 369.646C264.67 369.302 263.996 369.133 263.315 369.158C262.658 369.325 262.075 369.733 261.665 370.313C261.256 370.893 261.044 371.609 261.068 372.338C261.089 373.16 261.268 373.968 261.593 374.712C261.918 375.455 262.382 376.118 262.956 376.658C264.116 377.719 265.458 378.523 266.906 379.024C269.539 380.053 272.308 380.624 275.107 380.714" fill="#263238"/>
<path d="M272.755 361.945C270.74 357.35 267.253 354.132 263.489 351.165C263.135 350.789 262.696 350.521 262.216 350.387C261.737 350.253 261.233 350.258 260.755 350.401C260.476 350.569 260.241 350.811 260.073 351.105C259.905 351.398 259.808 351.734 259.794 352.079C259.765 352.763 259.872 353.446 260.106 354.082C261.072 356.947 262.793 359.444 265.058 361.262C267.323 363.08 270.031 364.14 272.848 364.312" fill="#263238"/>
<path d="M272.292 353.706C271.273 351.345 270.467 348.883 269.883 346.356C269.299 343.81 269.388 341.138 270.138 338.643C270.461 337.57 271.054 336.616 271.852 335.888C272.254 335.535 272.734 335.298 273.245 335.202C273.756 335.105 274.281 335.152 274.771 335.338C275.207 335.559 275.592 335.885 275.895 336.291C276.198 336.696 276.412 337.171 276.52 337.679C276.721 338.695 276.76 339.741 276.636 340.772C276.242 345.705 274.852 351.49 272.292 353.706Z" fill="#263238"/>
<path d="M337.738 338.505C337.793 338.798 337.82 339.096 337.819 339.394C337.819 340.045 337.819 340.897 337.901 341.961C337.982 343.025 337.97 344.465 337.901 346.018C337.831 347.57 337.901 349.411 337.808 351.402C337.704 355.383 337.391 360.166 336.87 365.375C336.348 370.584 335.491 376.343 334.344 382.316C333.198 388.288 331.785 393.873 330.36 398.918C328.935 403.964 327.418 408.434 326.028 412.128C325.379 413.994 324.684 415.634 324.116 417.136C323.549 418.639 322.958 419.841 322.564 420.893L321.522 423.197C321.416 423.473 321.284 423.738 321.128 423.985C321.195 423.695 321.292 423.414 321.417 423.146L322.379 420.68C322.796 419.666 323.294 418.414 323.827 416.924C324.36 415.434 324.985 413.806 325.657 411.915C326.989 408.159 328.425 403.727 329.85 398.706C331.275 393.685 332.619 388.075 333.777 382.14C334.935 376.206 335.746 370.484 336.337 365.262C336.928 360.041 337.252 355.321 337.414 351.352C337.541 349.361 337.541 347.595 337.599 345.98C337.657 344.365 337.599 343.038 337.599 341.923C337.599 340.809 337.599 340.008 337.599 339.357C337.62 339.069 337.667 338.783 337.738 338.505Z" fill="#455A64"/>
<path d="M336.279 367.467C336.219 364.018 335.052 360.698 332.978 358.076C332.674 357.592 332.264 357.196 331.786 356.923C331.307 356.65 330.773 356.509 330.232 356.511C328.819 356.737 328.17 358.577 328.112 360.13C328.046 362.774 328.87 365.354 330.429 367.392C331.748 369.363 333.734 370.691 335.954 371.086" fill="#455A64"/>
<path d="M333.151 386.285C333.325 382.241 332.132 375.993 329.943 372.7C329.618 372.164 329.196 371.704 328.703 371.348C328.457 371.168 328.174 371.058 327.878 371.027C327.583 370.996 327.285 371.047 327.012 371.173C326.663 371.435 326.381 371.788 326.193 372.2C326.004 372.611 325.916 373.068 325.935 373.527C325.724 376.45 326.27 379.379 327.512 381.986C328.754 384.594 330.642 386.776 332.966 388.289" fill="#455A64"/>
<path d="M329.085 402.412C328.72 398.341 327.352 394.45 325.124 391.144C324.903 390.733 324.609 390.373 324.26 390.085C323.91 389.797 323.511 389.586 323.085 389.466C321.753 389.291 320.769 390.718 320.421 392.145C319.819 395.038 321.151 397.98 322.738 400.434C324.216 402.488 325.933 404.327 327.846 405.906" fill="#455A64"/>
<path d="M325.414 413.743C324.824 410.573 323.599 407.581 321.823 404.979C321.445 404.402 320.95 403.926 320.375 403.589C320.088 403.425 319.764 403.348 319.44 403.368C319.115 403.388 318.802 403.503 318.533 403.702C317.711 404.403 317.885 405.793 318.244 406.857C319.344 410.512 321.495 413.692 324.383 415.935" fill="#455A64"/>
<path d="M327.012 409.186C330.368 406.816 333.915 404.779 337.611 403.101C337.877 402.924 338.179 402.822 338.49 402.802C338.801 402.782 339.112 402.846 339.395 402.988C339.579 403.158 339.714 403.382 339.784 403.633C339.854 403.884 339.856 404.151 339.789 404.403C339.645 404.908 339.395 405.371 339.059 405.755C337.427 407.728 335.405 409.279 333.143 410.294C330.882 411.308 328.438 411.76 325.993 411.615" fill="#455A64"/>
<path d="M331.147 394.211L339.87 388.126C340.665 387.484 341.565 387.008 342.522 386.724C343.004 386.591 343.511 386.604 343.987 386.761C344.462 386.917 344.889 387.212 345.221 387.613C345.492 388.061 345.641 388.583 345.651 389.119C345.661 389.654 345.532 390.182 345.279 390.643C344.753 391.54 344.053 392.305 343.229 392.884C341.419 394.535 339.341 395.808 337.101 396.64C334.854 397.379 332.908 397.704 330.8 396.64" fill="#455A64"/>
<path d="M335.178 377.145C337.569 373.59 340.791 370.785 344.515 369.019C345.12 368.685 345.793 368.521 346.472 368.543C347.129 368.711 347.712 369.119 348.122 369.699C348.532 370.279 348.743 370.994 348.719 371.724C348.699 372.544 348.52 373.35 348.195 374.092C347.87 374.834 347.405 375.494 346.831 376.031C345.672 377.097 344.33 377.905 342.881 378.41C340.248 379.439 337.48 380.009 334.68 380.1" fill="#455A64"/>
<path d="M337.032 361.331C339.047 356.723 342.534 353.518 346.298 350.538C346.655 350.164 347.096 349.898 347.578 349.766C348.06 349.634 348.565 349.641 349.044 349.787C349.318 349.956 349.549 350.198 349.715 350.488C349.881 350.779 349.977 351.111 349.993 351.452C350.029 352.141 349.922 352.829 349.681 353.468C348.711 356.343 346.981 358.846 344.705 360.665C342.429 362.484 339.708 363.539 336.881 363.698" fill="#455A64"/>
<path d="M337.507 353.068C338.519 350.701 339.321 348.236 339.905 345.706C340.488 343.164 340.4 340.496 339.65 338.005C339.327 336.933 338.733 335.979 337.935 335.251C337.534 334.895 337.054 334.657 336.543 334.56C336.031 334.464 335.506 334.512 335.016 334.7C334.582 334.922 334.199 335.249 333.898 335.654C333.597 336.06 333.385 336.534 333.279 337.041C333.068 338.056 333.025 339.103 333.151 340.134C333.557 345.067 334.935 350.852 337.507 353.068Z" fill="#455A64"/>
<path d="M260.987 423.886V435.768C260.985 436.384 261.096 436.993 261.313 437.562C261.531 438.131 261.85 438.648 262.252 439.083C262.655 439.518 263.133 439.863 263.659 440.098C264.186 440.333 264.75 440.453 265.319 440.451H340.611C341.179 440.451 341.742 440.33 342.267 440.094C342.792 439.859 343.269 439.514 343.67 439.079C344.072 438.644 344.39 438.127 344.606 437.559C344.823 436.991 344.933 436.383 344.932 435.768V423.886H260.987Z" fill="white"/>
<g opacity="0.4">
<path d="M267.462 440.451L268.087 444.233L337.518 449.592L339.279 440.451H267.462Z" fill="black"/>
</g>
<path d="M231.928 263.704L219.418 186.638C212.989 126.412 211.889 52.9896 203.004 34.1206C186.614 -0.725049 140.153 0.00116274 140.153 0.00116274C78.4597 0.727375 71.3822 52.6516 68.7296 99.605C68.2779 107.568 66.2624 121.83 63.5518 138.42C57.042 172.902 48.2733 208.537 27.3305 233.403C19.3213 243.164 14.4456 255.461 13.4305 268.462C12.4343 281.258 19.8013 295.92 31.6396 296.984C28.8802 300.335 26.8652 304.322 25.7485 308.642C24.6318 312.962 24.4427 317.501 25.1959 321.912C25.949 326.323 27.6244 330.49 30.0942 334.094C32.564 337.699 35.7629 340.646 39.4468 342.711C49.7908 348.508 62.2429 346.605 73.6642 344.138C85.0854 341.672 96.831 338.504 105.275 329.939C113.72 321.375 117.415 308.729 120.021 296.521C123.157 281.811 125.214 266.856 126.172 251.797L231.928 263.704Z" fill="#263238"/>
<path d="M149.744 18.0306L145.609 14.4246L105.518 36.1734C102.633 36.5967 100 38.1796 98.1455 40.6067C96.2908 43.0338 95.35 46.127 95.5104 49.2702L112.978 198.757C113.685 208.674 110.198 213.607 116.337 221.007L158.408 270.314C173.131 288.081 168.729 246.462 177.648 224.651C178.274 223.123 174.671 217.977 174.822 216.913C175 215.815 175.119 214.707 175.181 213.595C175.529 201.737 174.822 191.533 174.822 191.533C174.567 178.574 174.417 173.252 174.428 173.377C174.44 173.503 199.587 167.956 203.757 132.058C205.842 114.216 203.352 90.1635 200.583 66.524C196.749 33.7819 174.162 15.8269 149.744 18.0306Z" fill="#FFBF9D"/>
<path d="M153.625 96.1489C153.669 97.3419 153.282 98.5067 152.544 99.3954C151.806 100.284 150.777 100.826 149.675 100.907C149.138 100.971 148.595 100.918 148.078 100.753C147.56 100.587 147.079 100.311 146.661 99.9411C146.244 99.5715 145.899 99.1154 145.646 98.5996C145.394 98.0839 145.239 97.5189 145.192 96.9378C145.147 95.7468 145.533 94.5838 146.268 93.6955C147.004 92.8072 148.03 92.2635 149.13 92.1798C149.668 92.1123 150.213 92.1622 150.732 92.3265C151.252 92.4909 151.735 92.7663 152.154 93.1365C152.573 93.5066 152.92 93.964 153.172 94.4815C153.425 94.999 153.579 95.566 153.625 96.1489Z" fill="#263238"/>
<path d="M194.352 93.52C194.397 94.713 194.009 95.8778 193.271 96.7664C192.533 97.655 191.504 98.1974 190.402 98.2779C189.865 98.3436 189.322 98.2924 188.803 98.1273C188.285 97.9621 187.803 97.6864 187.385 97.3164C186.967 96.9464 186.622 96.4896 186.37 95.973C186.119 95.4565 185.965 94.8906 185.919 94.3088C185.874 93.1178 186.26 91.9548 186.996 91.0665C187.731 90.1782 188.757 89.6346 189.857 89.5509C190.394 89.4869 190.938 89.5393 191.456 89.705C191.974 89.8706 192.457 90.1463 192.875 90.5159C193.294 90.8854 193.64 91.3414 193.893 91.8572C194.147 92.3731 194.303 92.9383 194.352 93.52Z" fill="#263238"/>
<path d="M196.97 76.2406C196.46 76.8541 193.182 74.4125 188.618 74.5753C184.054 74.7381 180.799 77.3299 180.289 76.7414C180.046 76.4785 180.544 75.3892 181.969 74.2372C183.888 72.6794 186.207 71.8044 188.606 71.7331C190.978 71.6445 193.314 72.3723 195.278 73.8115C196.715 74.9885 197.178 76.0027 196.97 76.2406Z" fill="#263238"/>
<path d="M150.972 80.8857C150.416 81.4492 147.381 78.6445 142.863 78.3064C138.346 77.9683 134.836 80.172 134.373 79.5585C134.153 79.2705 134.755 78.3064 136.284 77.2046C138.349 75.8865 140.739 75.2875 143.13 75.4892C145.495 75.6597 147.747 76.6424 149.559 78.2939C150.844 79.5334 151.25 80.6478 150.972 80.8857Z" fill="#263238"/>
<path d="M169.54 115.168C169.54 114.893 172.332 114.267 176.895 113.465C178.054 113.303 179.154 113.015 179.316 112.213C179.479 111.412 179.038 109.947 178.436 108.457L174.706 99.0037C169.528 85.5437 165.741 74.4627 166.239 74.2374C166.737 74.012 171.359 84.7549 176.536 98.2149L180.116 107.731C180.602 109.133 181.401 110.736 180.869 112.639C180.712 113.089 180.463 113.494 180.14 113.824C179.817 114.154 179.428 114.399 179.004 114.542C178.369 114.758 177.711 114.88 177.046 114.905C172.436 115.331 169.575 115.444 169.54 115.168Z" fill="#263238"/>
<path d="M174.428 173.316C158.894 174.11 143.46 170.231 129.844 162.109C129.844 162.109 141.694 186.425 174.625 181.93L174.428 173.316Z" fill="#FF9A6C"/>
<path d="M167.976 127.1C167.072 125.953 165.914 125.072 164.609 124.54C163.304 124.008 161.896 123.842 160.516 124.058C159.515 124.192 158.548 124.542 157.675 125.089C156.801 125.635 156.038 126.366 155.431 127.238C154.846 128.08 154.514 129.096 154.481 130.149C154.447 131.202 154.715 132.24 155.246 133.123C156.532 134.951 159.115 135.289 161.269 134.55C163.393 133.647 165.33 132.298 166.968 130.581C167.474 130.176 167.902 129.671 168.231 129.091C168.39 128.812 168.469 128.489 168.459 128.161C168.449 127.834 168.349 127.517 168.173 127.251" fill="#FF9A6C"/>
<path d="M156.242 119.037C156.984 118.962 157.146 124.308 161.49 127.952C165.833 131.595 171.081 130.832 171.139 131.57C171.22 131.908 169.98 132.66 167.779 132.822C164.884 132.969 162.033 132.007 159.729 130.105C157.522 128.266 156.06 125.573 155.652 122.593C155.397 120.364 155.906 119.024 156.242 119.037Z" fill="#263238"/>
<path d="M153.868 61.3913C153.323 62.6434 148.829 61.7169 143.443 62.0048C138.056 62.2928 133.643 63.5449 133.018 62.2928C132.74 61.6918 133.574 60.5023 135.334 59.3379C137.757 57.9251 140.445 57.1287 143.195 57.0094C145.945 56.89 148.684 57.4509 151.204 58.6492C153.161 59.6509 154.099 60.7778 153.868 61.3913Z" fill="#263238"/>
<path d="M194.711 55.2811C193.935 56.4205 190.772 55.3687 186.996 55.4439C183.22 55.519 180.046 56.4455 179.282 55.2936C178.934 54.7427 179.409 53.6033 180.776 52.5014C182.614 51.1702 184.777 50.4595 186.99 50.4595C189.203 50.4595 191.366 51.1702 193.205 52.5014C194.572 53.5782 195.047 54.7176 194.711 55.2811Z" fill="#263238"/>
<path d="M101.094 111.525C101.094 111.525 124.921 117.272 133.33 54.1289C136.215 32.5303 153.08 13.7489 153.08 13.7489L145.528 12.0085C145.528 12.0085 100.781 30.0386 100.063 30.7899C99.3447 31.5412 90.4486 57.4219 90.4486 57.4219L101.094 111.525Z" fill="#263238"/>
<path d="M106.642 108.707C106.55 106.053 103.526 99.88 101.082 99.5544C94.5724 98.6905 82.9079 99.6671 83.3249 117.459C83.9041 141.787 106.376 136.141 106.399 135.439C106.422 134.738 106.932 117.873 106.642 108.707Z" fill="#FFBF9D"/>
<path d="M99.3099 126.412C99.2056 126.337 98.9276 126.725 98.2674 127.075C97.3448 127.534 96.2927 127.583 95.3368 127.213C92.939 126.337 90.8424 122.317 90.6339 117.935C90.5233 115.851 90.8479 113.767 91.5838 111.837C91.7764 111.07 92.1385 110.365 92.6389 109.783C93.1393 109.201 93.763 108.759 94.4565 108.494C94.9009 108.362 95.3741 108.399 95.7961 108.6C96.2181 108.801 96.5632 109.152 96.7731 109.596C97.0975 110.272 96.9585 110.761 97.0859 110.848C97.2133 110.936 97.5492 110.423 97.3523 109.433C97.2145 108.831 96.8868 108.3 96.4256 107.931C96.1151 107.686 95.7628 107.51 95.389 107.413C95.0152 107.317 94.6274 107.301 94.248 107.367C92.5104 107.543 90.993 109.321 90.2401 111.249C89.3501 113.389 88.9527 115.73 89.0818 118.073C89.3482 122.969 91.7807 127.489 95.0588 128.415C95.6669 128.586 96.3026 128.609 96.9198 128.481C97.5369 128.353 98.12 128.078 98.6265 127.676C99.2867 127 99.391 126.462 99.3099 126.412Z" fill="#FF9A6C"/>
<path d="M115.944 98.2644C117.062 97.9916 118.164 97.6488 119.245 97.2377C122.152 95.9893 124.753 94.0309 126.844 91.5156C128.29 89.7991 129.55 87.9086 130.597 85.8812C131.77 83.5309 132.724 81.0605 133.446 78.5064C135.033 73.1099 135.832 66.912 136.921 60.4638C138.01 54.0155 139.238 47.9429 140.732 42.4212C142.004 37.5666 143.607 32.8207 145.528 28.2225C146.83 25.1265 148.328 22.1311 150.011 19.2575C150.601 18.2308 151.169 17.492 151.458 16.9662C151.618 16.6973 151.796 16.4419 151.991 16.2024C151.875 16.4995 151.727 16.781 151.551 17.0413C151.262 17.5797 150.763 18.2934 150.207 19.3952C148.609 22.3045 147.174 25.315 145.91 28.4103C144.065 33.0135 142.516 37.7494 141.277 42.5839C139.84 48.043 138.612 54.1407 137.524 60.5765C136.435 67.0122 135.612 73.2351 133.979 78.6817C133.24 81.2884 132.254 83.8059 131.037 86.1942C129.96 88.251 128.657 90.1597 127.156 91.8787C125.005 94.4092 122.324 96.3455 119.338 97.5257C118.243 97.9377 117.101 98.1862 115.944 98.2644Z" fill="#263238"/>
<path d="M57.2042 297.923L101.372 413.829L87.4716 468.583H262.705C262.705 468.583 251.122 411.4 250.438 398.541C249.755 385.682 250.438 312.322 244.774 287.105C239.11 261.888 222.893 207.96 222.893 207.96L175.17 199.809C153.289 212.505 136.122 210.377 112.619 195.652L69.3784 218.628L57.2042 297.923Z" fill="white"/>
<g opacity="0.3">
<path d="M251.62 406.956L117.253 421.355C126.936 421.129 134.396 429.994 142.794 435.24C158.327 444.957 177.672 442.239 195.394 439.222L239.411 431.709C243.118 431.083 247.068 430.332 249.836 427.54C254.724 422.594 253.381 413.98 251.62 406.956Z" fill="black"/>
</g>
<path d="M148.991 395.011L126.519 371.521C125.439 370.397 124.148 369.537 122.732 369.001C121.317 368.465 119.811 368.266 118.318 368.416C111.889 369.067 101.001 370.294 98.7653 371.234C95.5451 372.586 92.4987 374.514 91.6068 376.242C89.9417 380.724 88.5676 385.326 87.4947 390.015C87.5005 391.671 87.6205 393.324 87.8538 394.961C87.9171 395.512 88.103 396.039 88.3957 396.496C88.6883 396.953 89.079 397.327 89.5343 397.585C89.9895 397.844 90.4959 397.979 91.0101 397.98C91.5244 397.981 92.0311 397.847 92.4871 397.59C93.371 397.098 94.1094 396.347 94.6185 395.424C96.0432 392.519 95.8695 391.367 95.8695 391.367C95.8695 391.367 95.1513 401.81 103.028 401.997C103.028 401.997 99.4024 410.887 109.526 414.518C109.526 414.518 109.156 420.315 117.635 421.092C123.032 421.553 128.454 421.553 133.851 421.092C133.851 421.092 149.338 433.112 160.25 433.888C171.162 434.664 195.591 429.506 195.591 429.506L198.533 380.862L148.991 395.011Z" fill="#FFBF9D"/>
<path d="M118.492 380.111C117.349 380.758 116.16 381.307 114.936 381.751C112.619 382.665 109.527 383.879 105.959 384.906C104.187 385.457 102.403 385.758 100.92 386.158C99.6199 386.62 98.5255 387.588 97.8505 388.875C97.3563 389.744 96.8148 390.58 96.2288 391.379C95.7887 391.943 95.4759 392.193 95.4527 392.156C95.6292 391.832 95.8266 391.523 96.0435 391.229C96.4257 390.641 96.8775 389.714 97.4914 388.587C97.837 387.958 98.249 387.374 98.7193 386.847C99.2931 386.261 99.9881 385.832 100.746 385.595C102.333 385.081 104.024 384.793 105.797 384.242C109.341 383.228 112.504 382.076 114.797 381.275C116.001 380.79 117.236 380.401 118.492 380.111Z" fill="#FF9A6C"/>
<path d="M121.388 395.023C120.601 395.542 119.761 395.962 118.886 396.275C117.311 396.964 115.098 397.853 112.642 398.779C110.187 399.706 107.928 400.394 106.283 400.883C105.409 401.204 104.503 401.414 103.584 401.509C104.405 401.057 105.267 400.696 106.156 400.432L112.446 398.166L118.735 395.887C119.588 395.497 120.478 395.208 121.388 395.023Z" fill="#FF9A6C"/>
<path d="M126.948 408.884C126.948 409.084 123.033 409.522 118.353 410.9C113.673 412.277 110.048 414.017 109.978 413.83C110.688 413.274 111.469 412.831 112.295 412.515C116.14 410.705 120.211 409.52 124.376 408.996C125.225 408.83 126.09 408.792 126.948 408.884Z" fill="#FF9A6C"/>
<path d="M179.096 432.611L278.714 413.917C278.714 413.917 266.98 361.241 249.465 361.241C246.906 361.241 160.215 396.3 160.215 396.3L179.096 432.611Z" fill="#FFBF9D"/>
<path d="M221.723 207.91C221.723 207.91 236.202 211.253 246.512 234.029C256.705 256.566 296.123 355.694 297.664 372.335C299.205 388.975 286.718 411.362 275.841 414.455L242.249 361.241L243.28 353.478L215.179 252.172L221.723 207.91Z" fill="white"/>
<path d="M161.617 409.047C160.789 408.343 160.014 407.568 159.3 406.73L153.845 400.933C151.725 398.654 149.837 396.551 148.505 394.998C147.741 394.198 147.057 393.312 146.466 392.356C147.299 393.054 148.075 393.829 148.783 394.673L154.238 400.47C156.358 402.749 158.246 404.84 159.567 406.405C160.338 407.201 161.026 408.087 161.617 409.047Z" fill="#FF9A6C"/>
<path d="M229.032 245.611C229.106 245.677 229.173 245.752 229.229 245.836L229.774 246.525C230.237 247.163 230.932 248.027 231.789 249.279C234.165 252.731 236.251 256.406 238.021 260.26C240.657 265.98 242.723 271.986 244.183 278.177C245.963 285.76 247.041 293.515 247.404 301.329C248.157 317.969 246.245 332.969 244.832 343.699C244.079 349.083 243.396 353.416 242.921 356.408L242.342 359.851C242.272 360.214 242.226 360.515 242.18 360.753C242.164 360.856 242.137 360.957 242.098 361.053C242.086 360.949 242.086 360.844 242.098 360.74L242.203 359.839C242.307 358.987 242.469 357.835 242.666 356.371C243.071 353.303 243.662 348.971 244.38 343.637C245.724 332.894 247.531 317.919 246.778 301.354C246.416 293.586 245.357 285.874 243.616 278.328C242.188 272.169 240.177 266.186 237.616 260.473C235.892 256.616 233.874 252.922 231.581 249.429C230.805 248.177 230.086 247.263 229.658 246.612L229.16 245.874C229.079 245.711 229.021 245.623 229.032 245.611Z" fill="#263238"/>
<path d="M279.42 357.222C278.952 357.16 278.492 357.034 278.053 356.846L274.358 355.594C270.355 354.174 266.23 353.192 262.045 352.664C257.84 352.178 253.588 352.704 249.593 354.205C247.973 354.911 246.405 355.748 244.902 356.709C245.238 356.323 245.629 355.998 246.06 355.745C247.144 354.943 248.31 354.279 249.535 353.766C253.519 352.125 257.806 351.524 262.045 352.013C266.291 352.542 270.466 353.601 274.486 355.169C276.026 355.745 277.266 356.245 278.111 356.609C278.569 356.754 279.009 356.96 279.42 357.222Z" fill="#263238"/>
<path d="M275.389 333.646C274.954 333.888 274.496 334.077 274.022 334.209C273.13 334.522 271.845 335.011 270.281 335.662C262.119 339.083 254.72 344.337 248.574 351.075C247.415 352.327 246.477 353.441 245.851 354.205C245.554 354.623 245.211 355.001 244.832 355.332C245.075 354.885 245.358 354.466 245.678 354.08C246.49 352.935 247.356 351.836 248.272 350.787C254.305 343.779 261.81 338.445 270.153 335.236C271.752 334.622 273.061 334.197 273.976 333.984C274.436 333.824 274.909 333.711 275.389 333.646Z" fill="#263238"/>
<g opacity="0.3">
<path d="M241.056 269.062C249.037 291.543 251.266 315.934 247.508 339.668L265.52 332.393C260.584 339.755 254.183 345.826 246.79 350.16C251.655 348.645 256.635 347.105 261.686 347.468C266.736 347.831 271.96 350.448 274.231 355.344C268.335 354.18 262.334 353.015 256.381 353.766C250.427 354.518 244.427 357.523 241.218 362.957C245.669 342.182 247.377 320.831 246.291 299.538" fill="black"/>
</g>
<path d="M124.098 214.734C115.677 195.389 106.272 175.218 107.719 153.907C98.3833 157.163 92.4757 169.058 95.1283 179.262L88.2941 198.832C90.516 214.668 95.8887 229.794 104.042 243.168C112.195 256.542 122.934 267.845 135.52 276.299C140.327 255.564 132.508 234.066 124.098 214.734Z" fill="#263238"/>
<path d="M71.4169 217.2C71.4169 217.2 37.9757 238.298 46.6285 277.1C56.3933 320.836 146.443 386.17 146.443 386.17C142.215 359.137 145.516 333.282 159.184 309.054L112.619 262.363" fill="white"/>
<path d="M112.619 262.363L113.476 263.165L115.932 265.581L125.315 274.884L159.405 308.866L159.544 309.004L159.439 309.192C153.441 319.79 149.211 331.444 146.941 343.624C144.496 357.661 144.441 372.062 146.779 386.12L146.894 386.859L146.315 386.433C136.828 379.434 127.214 371.796 117.565 363.683C98.7191 347.731 81.4598 331.441 67.6756 314.626C65.9265 312.547 64.328 310.381 62.6947 308.29C61.0614 306.199 59.5093 304.121 58.1772 301.867C55.3304 297.715 52.7971 293.323 50.6017 288.732C46.5663 280.474 44.6769 271.189 45.1343 261.863C45.5361 254.185 47.5737 246.712 51.0882 240.026C53.7262 234.996 56.9968 230.387 60.8066 226.328C63.2029 223.759 65.7823 221.398 68.5212 219.266C69.4594 218.553 70.2008 218.014 70.6988 217.689C71.1969 217.363 71.4749 217.2 71.4749 217.2L70.7336 217.739C70.2471 218.102 69.5753 218.64 68.5907 219.379C65.8873 221.542 63.3429 223.928 60.9804 226.516C57.1846 230.588 53.9366 235.216 51.3314 240.264C47.8821 246.914 45.9001 254.336 45.5397 261.95C45.1166 271.187 47.0096 280.375 51.0187 288.545C53.2135 293.105 55.7429 297.468 58.5826 301.591C59.9726 303.77 61.5827 305.823 63.1117 307.99C64.6407 310.156 66.3435 312.222 68.0926 314.25C81.8652 331.003 99.1129 347.255 117.901 363.194C127.539 371.295 137.141 378.933 146.616 385.932L146.153 386.245C143.822 372.113 143.897 357.64 146.373 343.536C148.673 331.296 152.951 319.589 159.011 308.954V309.267L125.071 275.122L115.805 265.719L113.395 263.215C112.851 262.664 112.619 262.363 112.619 262.363Z" fill="#263238"/>
<path d="M146.443 384.731C146.443 384.731 167.524 403.312 189.104 392.243C192.579 390.478 196.9 385.833 199.529 378.082C213.279 337.377 214.889 229.897 214.889 229.897L177.231 227.143L159.231 309.067C146.269 329.163 142.192 354.455 146.443 384.731Z" fill="#FFBF9D"/>
<path d="M204.533 358.85C204.525 359.11 204.498 359.37 204.452 359.626C204.383 360.127 204.29 360.878 204.116 361.83C203.804 363.733 203.282 366.487 202.425 369.843C201.456 373.782 200.108 377.6 198.406 381.237C196.389 385.813 193.258 389.708 189.348 392.506C185.282 394.997 180.676 396.272 176.004 396.199C172.22 396.207 168.456 395.603 164.837 394.409C162.395 393.636 160.026 392.617 157.76 391.366C156.949 390.953 156.37 390.528 155.953 390.277C155.737 390.162 155.535 390.019 155.35 389.851C155.35 389.851 156.254 390.315 157.864 391.103C160.151 392.256 162.522 393.202 164.953 393.933C168.542 395.044 172.259 395.592 175.992 395.561C180.574 395.601 185.084 394.335 189.07 391.892C192.883 389.177 195.948 385.401 197.942 380.962C199.654 377.361 201.031 373.586 202.055 369.693C202.958 366.375 203.537 363.645 203.92 361.754L204.371 359.576C204.397 359.327 204.452 359.083 204.533 358.85Z" fill="#FF9A6C"/>
<path d="M158.003 309.643C155.957 310.052 153.946 310.647 151.991 311.421C147.358 313.513 143.215 316.695 139.863 320.736C136.549 324.819 133.63 329.258 131.153 333.983L128.836 338.253C128.572 338.794 128.266 339.309 127.921 339.793C128.11 339.216 128.347 338.659 128.628 338.128C129.114 337.089 129.844 335.624 130.782 333.758C133.17 328.924 136.07 324.407 139.423 320.298C142.821 316.176 147.077 312.987 151.841 310.995C153.286 310.409 154.785 309.99 156.312 309.743C156.726 309.675 157.144 309.634 157.563 309.618C157.71 309.596 157.859 309.604 158.003 309.643Z" fill="#263238"/>
<path d="M178.575 216.474C177.741 213.482 173.05 185.736 171.15 179.287C168.451 170.147 146.582 153.87 146.582 153.87C146.582 153.87 150.057 145.331 159.324 149.763C170.351 155.022 175.807 163.874 178.575 162.071C181.344 160.268 198.672 141.211 203.398 141.812C208.124 142.413 209.19 147.647 207.487 149.751C206.21 151.518 205.049 153.38 204.012 155.322C204.012 155.322 214.009 152.067 212.121 163.899C212.121 163.899 223.507 156.224 222.395 172.438C222.395 172.438 229.89 169.133 231.558 174.842C233.226 180.552 228.28 187.15 225.766 191.658C223.252 196.165 215.156 222.284 215.156 222.284L214.217 238.261L175.17 236.508L178.575 216.474Z" fill="#FFBF9D"/>
<path d="M214.646 239.814C214.646 239.814 214.646 239.426 214.646 238.674C214.646 237.923 214.646 236.771 214.646 235.306C214.704 232.314 214.785 227.944 214.889 222.31C216.928 215.761 219.522 207.284 223.078 197.368C223.923 194.735 225.042 192.214 226.414 189.855C227.949 187.444 229.294 184.897 230.434 182.243C231.002 180.863 231.351 179.39 231.465 177.885C231.604 176.366 231.266 174.839 230.503 173.553C230.302 173.25 230.064 172.976 229.797 172.739C229.51 172.519 229.199 172.338 228.87 172.201C228.191 171.917 227.467 171.777 226.739 171.788C225.233 171.817 223.743 172.13 222.337 172.714L221.955 172.877V172.426C222.067 170.891 222.04 169.348 221.874 167.819C221.757 166.274 221.189 164.81 220.252 163.637C219.727 163.113 219.092 162.735 218.402 162.534C217.712 162.334 216.988 162.317 216.291 162.485C214.804 162.762 213.378 163.335 212.086 164.175L211.588 164.488L211.657 163.862L211.866 162.034C211.866 161.42 211.866 160.782 211.866 160.181C211.784 158.949 211.356 157.774 210.638 156.813C209.82 155.913 208.722 155.373 207.557 155.298C206.351 155.178 205.135 155.293 203.966 155.636L203.271 155.849L203.63 155.172C204.325 153.92 205.043 152.668 205.831 151.479C206.225 150.878 206.642 150.227 207.082 149.701C207.502 149.186 207.765 148.543 207.835 147.86C207.902 147.16 207.833 146.452 207.634 145.782C207.434 145.111 207.108 144.493 206.676 143.966C205.781 142.895 204.534 142.244 203.201 142.151C202.539 142.168 201.89 142.348 201.302 142.677C200.666 142.991 200.051 143.351 199.46 143.753C198.26 144.565 197.101 145.442 195.985 146.383C193.668 148.261 191.491 150.289 189.29 152.368L184.17 157.376C182.455 159.004 180.834 160.682 179.015 162.197C178.766 162.42 178.471 162.577 178.155 162.656C177.84 162.734 177.511 162.731 177.197 162.647C176.621 162.465 176.083 162.168 175.61 161.771C174.718 161.037 173.863 160.251 173.05 159.417C171.416 157.802 169.772 156.249 168.034 154.847C166.32 153.451 164.512 152.195 162.625 151.091C160.826 149.975 158.869 149.189 156.833 148.762C154.839 148.359 152.778 148.653 150.949 149.601C149.199 150.596 147.769 152.142 146.848 154.033L146.755 153.657C152.623 157.973 158.186 162.753 163.401 167.956C165.831 170.341 168.004 173.017 169.876 175.932C170.337 176.644 170.725 177.408 171.034 178.211C171.173 178.599 171.359 178.987 171.474 179.388L171.787 180.64C172.169 182.243 172.505 183.82 172.83 185.373C175.355 197.794 177.069 208.424 178.772 216.462V216.475C177.614 222.923 176.756 227.931 176.154 231.337L175.459 235.181C175.297 236.045 175.193 236.433 175.193 236.433C175.193 236.433 175.193 235.995 175.378 235.118C175.563 234.242 175.725 232.952 176.003 231.262L178.436 216.475C176.664 208.399 174.961 197.806 172.332 185.398C171.613 182.343 171.173 178.975 169.447 176.183C167.599 173.304 165.45 170.665 163.042 168.319C157.829 163.159 152.278 158.414 146.431 154.121L146.223 153.97L146.327 153.745C147.273 151.678 148.823 150.005 150.736 148.985C152.65 147.964 154.821 147.653 156.914 148.098C159.027 148.53 161.058 149.338 162.926 150.49C164.846 151.587 166.686 152.843 168.428 154.246C170.182 155.688 171.868 157.226 173.478 158.854C174.301 159.642 175.123 160.469 175.992 161.157C176.861 161.846 177.892 162.41 178.702 161.583C180.44 160.131 182.096 158.428 183.799 156.8L188.931 151.854C191.131 149.763 193.355 147.723 195.649 145.832C196.807 144.893 197.966 143.979 199.205 143.165C199.819 142.754 200.458 142.385 201.116 142.063C201.792 141.692 202.536 141.491 203.294 141.475C204.791 141.583 206.19 142.314 207.198 143.516C207.688 144.11 208.056 144.81 208.278 145.57C208.499 146.33 208.569 147.132 208.483 147.923C208.408 148.734 208.1 149.5 207.603 150.114C207.174 150.665 206.769 151.253 206.387 151.854C205.611 153.031 204.881 154.258 204.209 155.498L203.873 155.035C205.114 154.672 206.404 154.549 207.684 154.672C208.998 154.763 210.235 155.374 211.159 156.387C211.96 157.458 212.437 158.769 212.526 160.143C212.526 160.794 212.526 161.395 212.526 162.084L212.317 163.987L211.889 163.674C213.241 162.783 214.739 162.184 216.302 161.909C217.068 161.752 217.853 161.752 218.619 161.909C219.407 162.103 220.126 162.537 220.692 163.161C221.705 164.425 222.321 166.003 222.453 167.668C222.624 169.243 222.651 170.833 222.534 172.414L222.163 172.126C223.642 171.506 225.211 171.18 226.797 171.162C227.59 171.151 228.377 171.308 229.113 171.625C229.484 171.775 229.834 171.977 230.156 172.226C230.465 172.497 230.741 172.808 230.978 173.152C231.797 174.554 232.163 176.21 232.021 177.86C231.895 179.422 231.527 180.95 230.932 182.38C229.783 185.063 228.419 187.631 226.855 190.056C225.498 192.365 224.383 194.83 223.53 197.405C219.962 207.259 217.298 215.749 215.213 222.272C215.051 227.906 214.924 232.289 214.843 235.256C214.843 236.721 214.75 237.835 214.727 238.624C214.704 239.413 214.646 239.814 214.646 239.814Z" fill="#FF9A6C"/>
<path d="M203.92 155.661C202.401 157.387 200.788 159.013 199.089 160.531C197.525 162.213 195.874 163.798 194.143 165.277C195.45 163.339 196.975 161.585 198.684 160.055C200.259 158.368 202.017 156.892 203.92 155.661Z" fill="#FF9A6C"/>
<path d="M212.827 163.299C211.653 166.781 209.503 169.779 206.676 171.876C206.561 171.726 208.205 170.073 209.897 167.706C211.588 165.34 212.665 163.211 212.827 163.299Z" fill="#FF9A6C"/>
<path d="M222.14 171.887C221.607 173.216 220.901 174.455 220.044 175.569C219.338 176.806 218.468 177.924 217.46 178.887C218.671 176.315 220.233 173.955 222.094 171.887H222.14Z" fill="#FF9A6C"/>
<path d="M173.693 450.686H0V466.763H173.693V450.686Z" fill="white"/>
<path d="M163.627 450.686H160.673V466.763H163.627V450.686Z" fill="white"/>
<path d="M157.395 450.686H154.441V466.763H157.395V450.686Z" fill="white"/>
<path d="M19.0543 450.686H16.1005V466.763H19.0543V450.686Z" fill="white"/>
<path d="M12.8222 450.686H9.86837V466.763H12.8222V450.686Z" fill="white"/>
<path d="M138.433 463.082C138.624 463.074 138.813 463.049 139 463.007C139.555 462.876 140.06 462.566 140.448 462.118C140.733 461.794 140.947 461.404 141.074 460.979C141.211 460.458 141.243 459.911 141.166 459.376C141.086 458.75 140.817 458.169 140.402 457.723C139.937 457.21 139.315 456.899 138.653 456.847H114.617H35.2826C34.8167 456.849 34.3591 456.98 33.9535 457.227C33.5478 457.475 33.2078 457.831 32.9659 458.262C32.73 458.686 32.5985 459.169 32.5837 459.664C32.5509 460.164 32.6263 460.666 32.8038 461.129C32.9841 461.581 33.2681 461.976 33.6289 462.276C33.9897 462.576 34.4153 462.772 34.8656 462.844C35.3325 462.87 35.8003 462.87 36.2672 462.844H69.8591H105.524H129.571H136.105H137.807H136.105H129.571H105.524H69.8591H36.2672C35.7889 462.875 35.3093 462.875 34.8309 462.844C34.3273 462.775 33.849 462.565 33.4429 462.236C33.0368 461.907 32.7168 461.469 32.5142 460.966C32.3296 460.465 32.2505 459.927 32.2825 459.389C32.2906 458.84 32.4346 458.304 32.6995 457.836C32.9641 457.368 33.335 456.981 33.7769 456.711C34.2189 456.442 34.7173 456.299 35.2247 456.296H114.559H138.607C139.292 456.36 139.934 456.689 140.414 457.222C140.834 457.686 141.106 458.283 141.19 458.925C141.259 459.471 141.22 460.026 141.074 460.553C140.944 460.99 140.722 461.389 140.425 461.717C140.03 462.167 139.516 462.473 138.954 462.594C138.808 462.608 138.66 462.608 138.514 462.594C138.546 462.675 138.555 462.764 138.541 462.851C138.527 462.938 138.489 463.018 138.433 463.082Z" fill="white"/>
<path d="M169.777 466.575H8.50163V489.589H169.777V466.575Z" fill="#455A64"/>
<path d="M169.777 469.418H8.50163V485.745H169.777V469.418Z" fill="#EBEBEB"/>
<path d="M168.376 469.869C168.376 469.944 132.838 470.007 89.0064 470.007C45.1748 470.007 9.63701 470.007 9.63701 469.869C9.63701 469.731 45.1633 469.731 89.0064 469.731C132.85 469.731 168.376 469.794 168.376 469.869Z" fill="#263238"/>
<path d="M168.376 474.739C168.376 474.814 132.838 474.877 89.0064 474.877C45.1748 474.877 9.63701 474.814 9.63701 474.739C9.63701 474.664 45.1633 474.601 89.0064 474.601C132.85 474.601 168.376 474.664 168.376 474.739Z" fill="#263238"/>
<path d="M168.376 479.622C168.376 479.697 132.838 479.759 89.0064 479.759C45.1748 479.759 9.63701 479.697 9.63701 479.622C9.63701 479.547 45.1633 479.471 89.0064 479.471C132.85 479.471 168.376 479.534 168.376 479.622Z" fill="#263238"/>
<path d="M168.376 484.493C168.376 484.568 132.838 484.63 89.0064 484.63C45.1748 484.63 9.63701 484.63 9.63701 484.493C9.63701 484.355 45.1633 484.367 88.9601 484.367C132.757 484.367 168.376 484.367 168.376 484.493Z" fill="#263238"/>
<path d="M16.1585 448.721H38.2713L38.2713 403.445H16.1585L16.1585 448.721Z" fill="#FAFAFA"/>
<path d="M38.2827 450.937H156.908V401.842H38.2827V450.937Z" fill="#455A64"/>
<path d="M14.4324 450.949H41.0743V447.756H14.4324C14.2383 447.756 14.0461 447.798 13.8668 447.879C13.6876 447.959 13.5249 448.078 13.3881 448.226C13.2514 448.375 13.1432 448.552 13.07 448.747C12.9967 448.941 12.9599 449.149 12.9614 449.359C12.9614 449.781 13.1164 450.185 13.3922 450.483C13.6681 450.782 14.0423 450.949 14.4324 450.949Z" fill="#455A64"/>
<path d="M41.1205 405.035H14.247C14.0797 405.035 13.9141 405 13.7595 404.931C13.6049 404.861 13.4644 404.76 13.3461 404.632C13.2278 404.504 13.1339 404.352 13.0699 404.185C13.0058 404.018 12.9729 403.839 12.9729 403.658V403.232C12.9729 403.052 13.0058 402.872 13.0699 402.705C13.1339 402.538 13.2278 402.386 13.3461 402.259C13.4644 402.131 13.6049 402.029 13.7595 401.96C13.9141 401.891 14.0797 401.855 14.247 401.855H41.1205V405.035Z" fill="#455A64"/>
<path d="M16.1698 409.517C16.1698 409.593 21.116 409.655 27.2204 409.655C33.3249 409.655 38.2709 409.593 38.2709 409.517C38.2709 409.442 33.3249 409.38 27.2204 409.38C21.116 409.38 16.1698 409.442 16.1698 409.517Z" fill="#E0E0E0"/>
<path d="M16.1698 415.315C16.1698 415.39 21.116 415.452 27.2204 415.452C33.3249 415.452 38.2709 415.452 38.2709 415.315C38.2709 415.177 33.3249 415.177 27.2204 415.177C21.116 415.177 16.1698 415.239 16.1698 415.315Z" fill="#E0E0E0"/>
<path d="M16.1698 421.125C16.1698 421.2 21.116 421.263 27.2204 421.263C33.3249 421.263 38.2709 421.2 38.2709 421.125C38.2709 421.05 33.3249 420.987 27.2204 420.987C21.116 420.987 16.1698 421.05 16.1698 421.125Z" fill="#E0E0E0"/>
<path d="M16.1698 426.935C16.1698 427.01 21.116 427.072 27.2204 427.072C33.3249 427.072 38.2709 427.01 38.2709 426.935C38.2709 426.86 33.3596 426.772 27.2204 426.772C21.0812 426.772 16.1698 426.86 16.1698 426.935Z" fill="#E0E0E0"/>
<path d="M16.1698 432.744C16.1698 432.82 21.116 432.882 27.2204 432.882C33.3249 432.882 38.2709 432.82 38.2709 432.744C38.2709 432.669 33.3249 432.607 27.2204 432.607C21.116 432.607 16.1698 432.669 16.1698 432.744Z" fill="#E0E0E0"/>
<path d="M16.1698 438.554C16.1698 438.629 21.116 438.691 27.2204 438.691C33.3249 438.691 38.2709 438.691 38.2709 438.554C38.2709 438.416 33.3249 438.416 27.2204 438.416C21.116 438.416 16.1698 438.478 16.1698 438.554Z" fill="#E0E0E0"/>
<path d="M16.1698 444.363C16.1698 444.438 21.116 444.488 27.2204 444.488C33.3249 444.488 38.2709 444.488 38.2709 444.363C38.2709 444.238 33.3249 444.225 27.2204 444.225C21.116 444.225 16.1698 444.3 16.1698 444.363Z" fill="#E0E0E0"/>
<path d="M142.151 422.239H55.3449V430.528H142.151V422.239Z" fill="white"/>
</svg>
