<svg width="339" height="321" viewBox="0 0 339 321" fill="none" xmlns="http://www.w3.org/2000/svg">
<path d="M169.5 321C263.112 321 339 279.929 339 229.266C339 178.603 263.112 137.532 169.5 137.532C75.8877 137.532 0 178.603 0 229.266C0 279.929 75.8877 321 169.5 321Z" fill="#F5F5F5"/>
<path d="M196.099 293.509C216.344 293.509 232.756 284.628 232.756 273.672C232.756 262.717 216.344 253.836 196.099 253.836C175.855 253.836 159.443 262.717 159.443 273.672C159.443 284.628 175.855 293.509 196.099 293.509Z" fill="#E0E0E0"/>
<path d="M177.049 206.5L79.0031 259.573C76.2433 261.095 71.4299 260.882 68.2399 259.154L33.4341 240.314C30.2522 238.595 29.9032 235.985 32.6224 234.494L130.668 181.421C133.428 179.899 138.241 180.112 141.431 181.84L176.237 200.679C179.46 202.399 179.809 205.009 177.049 206.5Z" fill="#E0E0E0"/>
<path d="M282.619 225.028L290.346 229.236C290.346 229.236 286.45 217.579 288.609 205.846C289.131 203.083 290.196 200.436 291.75 198.039C292.359 196.852 297.018 189.54 292.919 186.161C288.82 182.783 279.201 189.502 279.632 207.565C279.838 213.481 280.842 219.348 282.619 225.028Z" fill="#BA68C8"/>
<path opacity="0.5" d="M282.619 225.028L290.346 229.236C290.346 229.236 286.45 217.579 288.609 205.846C289.131 203.083 290.196 200.436 291.75 198.039C292.359 196.852 297.018 189.54 292.919 186.161C288.82 182.783 279.201 189.502 279.632 207.565C279.838 213.481 280.842 219.348 282.619 225.028Z" fill="black"/>
<path d="M286.215 227.318C286.142 227.318 286.071 227.296 286.012 227.257C285.952 227.217 285.907 227.162 285.882 227.098C285.882 227.022 282.936 219.42 283.09 207.231C283.244 195.041 290.119 188.421 290.192 188.36C290.224 188.33 290.262 188.306 290.304 188.289C290.346 188.273 290.39 188.264 290.436 188.264C290.481 188.264 290.526 188.273 290.568 188.289C290.61 188.306 290.648 188.33 290.679 188.36C290.712 188.391 290.738 188.427 290.755 188.467C290.773 188.507 290.782 188.549 290.782 188.592C290.782 188.636 290.773 188.678 290.755 188.718C290.738 188.758 290.712 188.794 290.679 188.824C290.614 188.885 283.942 195.254 283.788 207.238C283.634 219.222 286.515 226.801 286.54 226.877C286.556 226.917 286.564 226.96 286.563 227.002C286.562 227.045 286.552 227.088 286.533 227.127C286.514 227.166 286.487 227.201 286.453 227.23C286.419 227.259 286.38 227.281 286.337 227.295L286.215 227.318Z" fill="white"/>
<path d="M288.609 228.315L301.369 235.376C301.369 235.376 307.214 234.57 306.775 229.411C306.337 224.252 303.959 223.042 306.913 220.775C309.868 218.507 310.631 218.363 310.485 216.141C310.339 213.919 308.756 212.953 308.001 212.078C307.246 211.203 305.168 209.346 306.637 206.675C308.107 204.004 310.095 201.41 307.141 200.177C305.371 199.416 302.4 200.367 300.436 202.323C298.472 204.278 296.84 205.694 294.981 206.127C293.122 206.561 289.226 206.614 289.356 209.628C289.486 212.641 290.322 213.683 289.543 215.015C288.074 217.533 281.799 218.895 288.609 228.315Z" fill="#BA68C8"/>
<path opacity="0.2" d="M288.609 228.315L301.369 235.376C301.369 235.376 307.214 234.57 306.775 229.411C306.337 224.252 303.959 223.042 306.913 220.775C309.868 218.507 310.631 218.363 310.485 216.141C310.339 213.919 308.756 212.953 308.001 212.078C307.246 211.203 305.168 209.346 306.637 206.675C308.107 204.004 310.095 201.41 307.141 200.177C305.371 199.416 302.4 200.367 300.436 202.323C298.472 204.278 296.84 205.694 294.981 206.127C293.122 206.561 289.226 206.614 289.356 209.628C289.486 212.641 290.322 213.683 289.543 215.015C288.074 217.533 281.799 218.895 288.609 228.315Z" fill="black"/>
<path d="M293.804 231.511C293.716 231.511 293.63 231.48 293.566 231.423C293.501 231.367 293.461 231.289 293.455 231.206C293.455 231.031 292.059 213.196 305.273 201.486C305.341 201.426 305.432 201.394 305.524 201.397C305.617 201.4 305.705 201.437 305.769 201.501C305.832 201.565 305.866 201.649 305.863 201.736C305.86 201.823 305.82 201.906 305.752 201.965C292.765 213.455 294.145 230.978 294.161 231.153C294.168 231.241 294.138 231.327 294.077 231.394C294.016 231.461 293.93 231.503 293.837 231.511H293.804Z" fill="white"/>
<path d="M296.125 216.224C296.037 216.225 295.952 216.193 295.887 216.137C295.822 216.08 295.783 216.003 295.776 215.92C295.678 214.551 295.283 213.215 294.616 211.993C293.949 210.771 293.023 209.689 291.896 208.813C291.859 208.788 291.828 208.756 291.804 208.719C291.779 208.682 291.763 208.641 291.756 208.598C291.749 208.555 291.751 208.512 291.762 208.47C291.773 208.427 291.792 208.388 291.819 208.353C291.847 208.318 291.881 208.288 291.92 208.266C291.96 208.243 292.003 208.228 292.049 208.221C292.095 208.215 292.141 208.216 292.186 208.227C292.231 208.237 292.273 208.255 292.31 208.281C293.528 209.21 294.526 210.367 295.243 211.676C295.959 212.986 296.379 214.42 296.474 215.89C296.481 215.975 296.452 216.06 296.393 216.125C296.333 216.191 296.249 216.232 296.158 216.24L296.125 216.224Z" fill="white"/>
<path d="M295.152 219.268C295.065 219.269 294.98 219.239 294.916 219.184C294.852 219.122 294.816 219.039 294.816 218.952C294.816 218.866 294.852 218.783 294.916 218.72C295.054 218.576 298.382 215.205 306.077 216.194C306.168 216.209 306.25 216.256 306.306 216.325C306.361 216.394 306.387 216.481 306.377 216.567C306.363 216.653 306.314 216.731 306.24 216.783C306.165 216.836 306.072 216.859 305.98 216.848C298.674 215.912 295.468 219.131 295.428 219.131C295.397 219.174 295.356 219.209 295.308 219.233C295.26 219.257 295.206 219.269 295.152 219.268Z" fill="white"/>
<path d="M48.6537 214.786L44.8468 222.357C44.8468 222.357 40.9912 210.685 32.1112 202.171C30.0157 200.17 27.5375 198.557 24.8058 197.415C23.5964 196.761 15.3332 193.215 16.6888 188.284C18.0443 183.354 30.0007 183.719 40.5853 198.838C43.9812 203.814 46.6922 209.173 48.6537 214.786Z" fill="#BA68C8"/>
<path opacity="0.5" d="M48.6537 214.786L44.8468 222.357C44.8468 222.357 40.9912 210.685 32.1112 202.171C30.0157 200.17 27.5375 198.557 24.8058 197.415C23.5964 196.761 15.3332 193.215 16.6888 188.284C18.0443 183.354 30.0007 183.719 40.5853 198.838C43.9812 203.814 46.6922 209.173 48.6537 214.786Z" fill="black"/>
<path d="M46.8841 218.636C46.8068 218.636 46.7318 218.612 46.6703 218.568C46.6089 218.524 46.5642 218.463 46.5432 218.393C46.5432 218.317 44.3516 210.609 36.9245 200.755C29.4974 190.902 20.2034 189.273 20.1466 189.258C20.1012 189.251 20.0578 189.235 20.0189 189.212C19.98 189.189 19.9464 189.159 19.92 189.123C19.8936 189.088 19.8749 189.048 19.8651 189.006C19.8552 188.964 19.8543 188.92 19.8625 188.878C19.8802 188.793 19.9325 188.718 20.0081 188.668C20.0838 188.618 20.1771 188.598 20.2683 188.611C20.3657 188.611 30.0088 190.362 37.5414 200.375C45.074 210.388 47.2818 218.149 47.2818 218.226C47.3042 218.31 47.2905 218.4 47.2435 218.475C47.1965 218.551 47.1199 218.606 47.0302 218.629L46.8841 218.636Z" fill="white"/>
<path d="M45.7153 220.683L39.4652 233.261C39.4652 233.261 34.1648 235.703 31.4131 231.222C28.6614 226.74 29.8709 224.48 26.0721 224.183C22.2733 223.887 21.5428 224.183 20.3171 222.274C19.0914 220.364 19.8139 218.72 19.9031 217.602C19.9924 216.483 20.5931 213.843 17.7602 212.42C14.9274 210.997 11.7212 209.932 13.4176 207.345C14.4241 205.823 17.4275 204.978 20.2359 205.549C23.0444 206.12 25.2279 206.409 27.038 205.793C28.8481 205.176 32.0706 203.137 33.7914 205.686C35.5122 208.235 35.4148 209.536 36.9002 210.251C39.6276 211.515 45.6179 209.293 45.7153 220.683Z" fill="#BA68C8"/>
<path opacity="0.2" d="M45.7153 220.683L39.4652 233.261C39.4652 233.261 34.1648 235.703 31.4131 231.222C28.6614 226.74 29.8709 224.48 26.0721 224.183C22.2733 223.887 21.5428 224.183 20.3171 222.274C19.0914 220.364 19.8139 218.72 19.9031 217.602C19.9924 216.483 20.5931 213.843 17.7602 212.42C14.9274 210.997 11.7212 209.932 13.4176 207.345C14.4241 205.823 17.4275 204.978 20.2359 205.549C23.0444 206.12 25.2279 206.409 27.038 205.793C28.8481 205.176 32.0706 203.137 33.7914 205.686C35.5122 208.235 35.4148 209.536 36.9002 210.251C39.6276 211.515 45.6179 209.293 45.7153 220.683Z" fill="black"/>
<path d="M43.1663 226.131C43.1048 226.131 43.0444 226.116 42.9915 226.086C42.9387 226.057 42.8953 226.015 42.866 225.964C42.7686 225.812 33.2798 210.662 15.6496 208.098C15.6035 208.092 15.5592 208.077 15.5194 208.054C15.4796 208.031 15.4451 208.001 15.4178 207.966C15.3906 207.93 15.3712 207.89 15.3608 207.847C15.3504 207.805 15.3493 207.761 15.3574 207.718C15.3632 207.675 15.3784 207.633 15.4018 207.596C15.4252 207.559 15.4565 207.526 15.4936 207.501C15.5308 207.475 15.5732 207.457 15.6181 207.447C15.6631 207.437 15.7097 207.436 15.7551 207.444C33.7262 210.061 43.353 225.485 43.4748 225.637C43.5041 225.687 43.519 225.744 43.5181 225.802C43.5171 225.859 43.5003 225.916 43.4693 225.965C43.4383 226.015 43.3941 226.057 43.341 226.086C43.2879 226.115 43.2278 226.13 43.1663 226.131Z" fill="white"/>
<path d="M32.038 214.763C31.9755 214.763 31.9141 214.748 31.8599 214.718C31.8058 214.689 31.7609 214.647 31.7296 214.596C30.9235 213.336 30.4042 211.933 30.2045 210.475C30.0047 209.018 30.1288 207.538 30.5689 206.127C30.5843 206.087 30.6081 206.05 30.6389 206.018C30.6697 205.986 30.7069 205.96 30.7484 205.942C30.7898 205.923 30.8347 205.913 30.8805 205.911C30.9263 205.909 30.9721 205.915 31.0153 205.929C31.0585 205.944 31.0982 205.966 31.1321 205.995C31.1661 206.024 31.1937 206.059 31.2133 206.098C31.2329 206.137 31.2441 206.179 31.2464 206.222C31.2486 206.265 31.2418 206.307 31.2263 206.348C30.8295 207.669 30.722 209.052 30.9103 210.413C31.0986 211.775 31.5789 213.086 32.3221 214.269C32.3453 214.306 32.3603 214.348 32.3663 214.391C32.3723 214.433 32.3692 214.477 32.3571 214.519C32.345 214.56 32.3243 214.6 32.296 214.634C32.2677 214.668 32.2324 214.696 32.1923 214.718C32.1459 214.745 32.0928 214.761 32.038 214.763Z" fill="white"/>
<path d="M24.2539 220.546C24.2052 220.546 24.1571 220.536 24.1125 220.518C24.0679 220.499 24.0276 220.473 23.9941 220.44C23.9615 220.409 23.9356 220.373 23.9179 220.333C23.9002 220.294 23.8911 220.251 23.8911 220.208C23.8911 220.165 23.9002 220.122 23.9179 220.082C23.9356 220.042 23.9615 220.006 23.9941 219.976C29.7247 215.068 34.5463 216.072 34.7086 216.118C34.7535 216.128 34.7958 216.146 34.8332 216.171C34.8706 216.196 34.9022 216.228 34.9264 216.265C34.9505 216.302 34.9667 216.343 34.9739 216.385C34.9811 216.428 34.9792 216.472 34.9684 216.514C34.9589 216.556 34.9403 216.596 34.9136 216.632C34.8869 216.668 34.8528 216.698 34.8133 216.721C34.7738 216.743 34.7297 216.758 34.6838 216.765C34.6379 216.771 34.5911 216.768 34.5463 216.757C34.4976 216.757 29.9033 215.806 24.4649 220.463C24.4057 220.511 24.3318 220.54 24.2539 220.546Z" fill="white"/>
<path d="M45.8047 61.5111C45.8056 59.2956 46.4277 57.1193 47.6087 55.2002C48.7897 53.2811 50.4882 51.6868 52.5337 50.577L138.185 4.22317C138.756 3.91433 139.394 3.72942 140.052 3.68203C140.709 3.63463 141.37 3.72596 141.985 3.94929C142.6 4.17262 143.154 4.52229 143.606 4.9726C144.058 5.42291 144.397 5.96242 144.597 6.55151C144.367 5.60773 143.937 4.71705 143.332 3.93266C142.726 3.14827 141.959 2.48625 141.074 1.98613L140.766 1.81873C138.634 0.630015 136.201 0.00180311 133.72 0.00018434C132.928 -0.00685335 132.148 0.187742 131.464 0.56325L45.8128 46.94C43.7641 48.047 42.0627 49.6405 40.8799 51.56C39.6972 53.4796 39.0749 55.6573 39.0757 57.8741V231.503C39.0767 232.229 39.281 232.941 39.6682 233.569C40.0554 234.197 40.6119 234.719 41.2819 235.082C41.9519 235.445 42.7119 235.636 43.4857 235.637C44.2596 235.638 45.0201 235.448 45.6911 235.087L45.8047 235.026V61.5111Z" fill="#37474F"/>
<path d="M138.071 192.37L52.4201 238.724C51.7501 239.088 50.9898 239.279 50.2157 239.28C49.4416 239.28 48.681 239.09 48.0104 238.727C47.3398 238.365 46.7829 237.843 46.3957 237.215C46.0085 236.586 45.8046 235.874 45.8047 235.148V61.5111C45.8055 59.2956 46.4277 57.1192 47.6087 55.2002C48.7897 53.2811 50.4881 51.6868 52.5337 50.577L138.185 4.22315C138.856 3.86178 139.616 3.67205 140.39 3.67298C141.164 3.6739 141.924 3.86544 142.594 4.22841C143.264 4.59138 143.82 5.11303 144.208 5.74109C144.595 6.36915 144.799 7.08157 144.8 7.80698V181.436C144.801 183.652 144.179 185.829 142.998 187.748C141.817 189.668 140.118 191.262 138.071 192.37Z" fill="#455A64"/>
<path d="M45.8047 235.148V61.5111C45.8056 59.6195 46.2606 57.7523 47.1359 56.0479L40.5124 52.2434C39.5691 54.0023 39.0771 55.9434 39.0757 57.9121V232.995C39.0758 233.683 39.2667 234.36 39.6295 234.959C39.9923 235.558 40.5147 236.058 41.1455 236.411L44.5628 238.313C45.7456 238.976 47.0975 239.325 48.4752 239.325H50.1798C49.5999 239.32 49.0268 239.208 48.4931 238.996C47.9593 238.783 47.4755 238.474 47.0693 238.086C46.663 237.698 46.3422 237.239 46.1252 236.735C45.9083 236.231 45.7994 235.692 45.8047 235.148Z" fill="#263238"/>
<path d="M135.124 20.9172V166.895C135.123 168.853 134.572 170.775 133.528 172.47C132.484 174.164 130.982 175.572 129.175 176.551L53.5401 217.48C52.9699 217.79 52.3242 217.958 51.665 217.967C51.8832 218.44 52.2058 218.865 52.6115 219.212C53.0173 219.56 53.4969 219.824 54.0191 219.986C54.5412 220.147 55.0939 220.204 55.6409 220.151C56.1879 220.098 56.7168 219.937 57.1927 219.679L132.827 178.743C134.635 177.764 136.135 176.356 137.178 174.661C138.221 172.966 138.77 171.044 138.769 169.087V24.5543C138.771 23.6268 138.394 22.7336 137.717 22.0575C137.04 21.3814 136.112 20.9735 135.124 20.9172Z" fill="#37474F"/>
<path d="M51.6652 217.929C52.3244 217.92 52.9701 217.752 53.5402 217.442L129.175 176.513C130.977 175.537 132.474 174.136 133.518 172.448C134.562 170.761 135.116 168.846 135.125 166.895V20.9172C134.365 20.9232 133.617 21.087 132.933 21.3966L57.2984 62.3253C55.4896 63.3033 53.9874 64.7106 52.943 66.4057C51.8985 68.1007 51.3487 70.0236 51.3486 71.9811V216.475C51.3478 216.983 51.4584 217.486 51.6733 217.952L51.6652 217.929Z" fill="#BA68C8"/>
<g opacity="0.5">
<path d="M51.6652 217.929C52.3244 217.92 52.9701 217.752 53.5402 217.442L129.175 176.513C130.977 175.537 132.474 174.136 133.518 172.448C134.562 170.761 135.116 168.846 135.125 166.895V20.9172C134.365 20.9232 133.617 21.087 132.933 21.3966L57.2984 62.3253C55.4896 63.3033 53.9874 64.7106 52.943 66.4057C51.8985 68.1007 51.3487 70.0236 51.3486 71.9811V216.475C51.3478 216.983 51.4584 217.486 51.6733 217.952L51.6652 217.929Z" fill="white"/>
</g>
<path d="M83.3135 40.9365C83.2877 41.3792 83.1516 41.81 82.9162 42.1946C82.6808 42.5791 82.3526 42.9065 81.9579 43.1507C81.203 43.554 80.5942 43.2268 80.5942 42.3898C80.6203 41.9463 80.7573 41.5148 80.9942 41.1302C81.2311 40.7455 81.5612 40.4185 81.9579 40.1756C82.7047 39.8256 83.3135 40.1224 83.3135 40.9365Z" fill="#263238"/>
<path d="M88.3865 38.1972C88.3592 38.6404 88.2216 39.0715 87.9849 39.456C87.7481 39.8404 87.4186 40.1676 87.0228 40.4114C86.268 40.8147 85.6592 40.4875 85.6592 39.6505C85.6852 39.207 85.8222 38.7755 86.0591 38.3909C86.296 38.0062 86.6262 37.6792 87.0228 37.4363C87.7696 37.0559 88.3865 37.383 88.3865 38.1972Z" fill="#263238"/>
<path d="M108.833 28.6024L92.3882 37.5429C91.7307 37.8929 91.2031 37.5429 91.2031 36.7059C91.21 36.291 91.3208 35.8833 91.5267 35.5159C91.7326 35.1484 92.0277 34.8315 92.3882 34.5906L108.858 25.6805C109.507 25.3229 110.035 25.6805 110.035 26.5099C110.022 26.9222 109.906 27.3259 109.698 27.6891C109.489 28.0523 109.193 28.365 108.833 28.6024Z" fill="#263238"/>
<path d="M106.049 197.849C107.031 197.849 107.672 198.83 107.672 200.345C107.672 202.719 106.09 205.587 104.207 206.607L96.3249 210.875C95.9727 211.081 95.5704 211.199 95.156 211.218C94.1738 211.218 93.5326 210.236 93.5326 208.722C93.5326 206.34 95.156 203.472 96.9986 202.46L104.88 198.191C105.235 197.984 105.64 197.866 106.057 197.849M106.057 197.217C105.522 197.232 105 197.382 104.547 197.651L96.6658 201.912C94.5635 203.046 92.8589 206.097 92.8589 208.76C92.8589 210.716 93.8086 211.887 95.156 211.887C95.6917 211.872 96.2131 211.723 96.6658 211.454L104.547 207.193C106.642 206.059 108.346 203.008 108.346 200.345C108.346 198.389 107.405 197.217 106.057 197.217Z" fill="#263238"/>
<path d="M62.5093 82.2152V245.808C62.5093 248.776 63.67 250.762 65.4395 251.416H65.4882L73.0371 255.289L72.9884 249.004L72.1767 79.377L64.2139 75.5725C63.1453 77.6469 62.564 79.9121 62.5093 82.2152Z" fill="#E6E6E6"/>
<path d="M73.4511 255.92L65.2854 251.728C63.2643 250.967 62.1035 248.738 62.1035 245.77V82.1771C62.1466 79.8043 62.7364 77.4683 63.8324 75.3291L64.011 74.9714L72.5664 79.0727V79.3009L73.3781 248.928L73.4511 255.92ZM65.6994 251.074L72.6313 254.635V248.989L71.8196 79.5901L64.4575 76.0595C63.5261 77.9886 63.0234 80.0753 62.9802 82.1923V245.785C62.9802 248.464 63.9785 250.427 65.6588 251.043L65.7562 251.089L65.6994 251.074Z" fill="#E6E6E6"/>
<path d="M64.1978 75.5878L72.1606 79.3923L157.389 32.909L163.071 29.8046L155.206 25.6501L154.987 25.5283C153.729 24.8207 152.089 24.8664 150.279 25.8479L69.6118 69.5006C67.2024 70.9807 65.3176 73.0998 64.1978 75.5878Z" fill="#E0E0E0"/>
<path d="M72.1604 79.765C72.0951 79.7644 72.031 79.7487 71.9737 79.7194L64.0109 75.9149C63.9641 75.8938 63.9223 75.8642 63.8879 75.8278C63.8535 75.7914 63.8272 75.7489 63.8106 75.7028C63.794 75.6568 63.7873 75.608 63.791 75.5595C63.7948 75.511 63.8088 75.4637 63.8323 75.4203C64.9926 72.8697 66.933 70.6985 69.4087 69.181L150.092 25.5131C151.959 24.5087 153.777 24.3945 155.206 25.2011H155.271L155.433 25.2924L163.29 29.4393C163.352 29.4743 163.403 29.5234 163.438 29.582C163.474 29.6406 163.493 29.7067 163.493 29.7741C163.495 29.8408 163.476 29.9066 163.441 29.9642C163.405 30.0219 163.353 30.0693 163.29 30.1013L72.3795 79.689C72.3156 79.7332 72.2396 79.7595 72.1604 79.765ZM64.7333 75.3899L72.1523 78.9509L162.251 29.8045L154.776 25.8478L154.719 25.8022C153.558 25.1783 152.056 25.3076 150.482 26.1598L69.7983 69.8277C67.5807 71.1933 65.8239 73.1226 64.7333 75.3899Z" fill="#E0E0E0"/>
<path d="M70.3179 86.3241V249.156C70.3179 251.72 71.1945 253.562 72.5825 254.429L73.0452 254.665C74.2546 255.198 75.7725 255.083 77.4203 254.186L116.423 233.094L158.136 209.582C160.272 208.329 162.041 206.597 163.283 204.541C164.525 202.486 165.199 200.172 165.247 197.811V34.9787C165.247 32.4982 164.435 30.7024 163.12 29.797C162.898 29.641 162.655 29.5131 162.398 29.4165C161.694 29.1833 160.941 29.1086 160.201 29.1984C159.461 29.2883 158.753 29.5403 158.136 29.9339L77.4528 74.3399C75.1764 75.4567 73.3353 77.2198 72.1929 79.3771C71.0217 81.5322 70.381 83.9061 70.3179 86.3241Z" fill="#FAFAFA"/>
<path d="M158.136 209.582C141.537 218.865 98.3461 243.023 76.9658 255.099C76.328 255.457 75.6004 255.649 74.8571 255.658C74.1138 255.666 73.3815 255.49 72.7347 255.146C72.0879 254.803 71.5498 254.305 71.1751 253.703C70.8005 253.101 70.6027 252.417 70.6021 251.72V84.2772C70.602 82.3711 71.1339 80.4982 72.1449 78.8443C73.1558 77.1905 74.6108 75.8134 76.3651 74.8497L158.493 29.7133C159.131 29.3644 159.856 29.1792 160.595 29.1764C161.334 29.1736 162.06 29.3533 162.701 29.6973C163.342 30.0414 163.875 30.5376 164.246 31.1362C164.618 31.7348 164.814 32.4145 164.817 33.1069V198.496C164.817 200.727 164.203 202.92 163.032 204.863C161.862 206.805 160.175 208.431 158.136 209.582Z" fill="#FAFAFA"/>
<path d="M157.9 209.247C144.865 216.521 131.834 223.816 118.809 231.13L95.6753 244.104L85.1231 250.039L80.5045 252.641C79.084 253.44 77.5743 254.581 75.9996 255.091C73.394 255.943 71.0482 253.988 70.9832 251.576C70.9832 251.188 70.9832 250.815 70.9832 250.412V96.8929C70.9832 92.8068 70.9832 88.7132 70.9832 84.6272C70.9534 82.6926 71.4748 80.7856 72.4936 79.103C73.5124 77.4203 74.9916 76.023 76.7788 75.0551C78.662 74.0127 80.5532 72.9855 82.4607 71.9506L108.971 57.3262L140.424 40.0462C146.391 36.7743 152.34 33.4721 158.282 30.2154C160.133 29.211 162.462 29.3099 163.753 31.1285C164.209 31.8545 164.424 32.6917 164.37 33.5329V197.856C164.451 200.126 163.894 202.375 162.754 204.379C161.614 206.382 159.932 208.069 157.876 209.27C157.43 209.529 157.836 210.19 158.282 209.932C160.444 208.677 162.219 206.915 163.432 204.82C164.645 202.724 165.254 200.369 165.198 197.986V45.2355C165.198 41.2636 165.238 37.2841 165.198 33.3047C165.218 32.508 165.008 31.721 164.588 31.0282C164.167 30.3354 163.554 29.7627 162.813 29.3718C162.073 28.9808 161.232 28.7862 160.383 28.8088C159.533 28.8314 158.706 29.0704 157.99 29.5002C156.009 30.573 154.045 31.6687 152.081 32.7492L124.856 47.7617L93.1184 65.2015C87.5176 68.2831 81.8357 71.3419 76.2593 74.4464C74.382 75.4819 72.8297 76.9638 71.7593 78.7421C70.6889 80.5204 70.1384 82.5322 70.1634 84.5739C70.1634 85.9435 70.1634 87.3132 70.1634 88.6828V250.929C70.1634 251.188 70.1634 251.454 70.1634 251.69C70.1722 252.37 70.3504 253.039 70.684 253.644C71.0175 254.248 71.4972 254.771 72.0846 255.171C72.672 255.571 73.351 255.837 74.0673 255.947C74.7837 256.057 75.5176 256.009 76.2106 255.806C77.7447 255.327 79.1896 254.246 80.5695 253.47L85.2773 250.815L95.8295 244.895C111.176 236.272 126.536 227.663 141.91 219.07L158.331 209.886C158.753 209.658 158.347 208.996 157.9 209.247Z" fill="#EBEBEB"/>
<path d="M76.3325 74.8269L158.493 29.7133C159.131 29.3644 159.856 29.1792 160.595 29.1764C161.333 29.1736 162.06 29.3533 162.701 29.6973C163.342 30.0414 163.875 30.5376 164.246 31.1362C164.618 31.7348 164.814 32.4145 164.816 33.1069V40.3735L70.5938 91.3536V84.262C70.5898 82.3568 71.1173 80.4838 72.124 78.8287C73.1307 77.1737 74.5815 75.7941 76.3325 74.8269Z" fill="#EBEBEB"/>
<path d="M132.779 114.437C141.11 100.91 141.11 86.2883 132.779 81.7792C124.447 77.2701 110.939 84.5808 102.608 98.1082C94.2765 111.635 94.2764 126.257 102.608 130.766C110.939 135.275 124.447 127.964 132.779 114.437Z" fill="#BA68C8"/>
<path opacity="0.5" d="M132.779 114.437C141.11 100.91 141.11 86.2883 132.779 81.7792C124.447 77.2701 110.939 84.5808 102.608 98.1082C94.2765 111.635 94.2764 126.257 102.608 130.766C110.939 135.275 124.447 127.964 132.779 114.437Z" fill="white"/>
<path d="M113.866 106.358C113.74 106.358 113.616 106.335 113.499 106.29C113.383 106.245 113.278 106.179 113.189 106.095C113.1 106.012 113.029 105.913 112.981 105.804C112.933 105.695 112.908 105.578 112.908 105.461V99.5484C112.978 98.1457 113.405 96.7791 114.154 95.5626C114.902 94.3462 115.95 93.3152 117.21 92.5558C117.72 92.1618 118.346 91.9231 119.005 91.8716C119.664 91.8201 120.323 91.9583 120.896 92.2676C121.469 92.577 121.927 93.0427 122.21 93.6027C122.492 94.1627 122.586 94.7903 122.478 95.4015V101.321C122.478 101.559 122.377 101.788 122.198 101.956C122.018 102.125 121.774 102.219 121.52 102.219C121.266 102.219 121.023 102.125 120.843 101.956C120.663 101.788 120.563 101.559 120.563 101.321V95.3711C120.689 95.0737 120.697 94.7434 120.584 94.4413C120.471 94.1392 120.245 93.8857 119.947 93.7278C119.65 93.57 119.302 93.5184 118.967 93.5827C118.633 93.647 118.334 93.8228 118.127 94.0776C117.161 94.6824 116.357 95.4879 115.777 96.4314C115.197 97.375 114.857 98.4312 114.783 99.518V105.43C114.792 105.667 114.701 105.898 114.529 106.071C114.357 106.245 114.119 106.349 113.866 106.358Z" fill="#37474F"/>
<path d="M125.424 97.5092C125.2 97.422 124.956 97.3895 124.715 97.4148C124.473 97.4401 124.243 97.5223 124.045 97.6537L111.285 104.563C110.725 104.892 110.262 105.347 109.937 105.887C109.427 106.663 109.146 107.554 109.125 108.466V118.822C109.097 119.112 109.139 119.405 109.249 119.678C109.358 119.951 109.533 120.197 109.759 120.397C109.828 120.448 109.904 120.489 109.986 120.519C110.202 120.594 110.434 120.62 110.663 120.593C110.892 120.567 111.111 120.489 111.301 120.367L124.045 113.45C124.709 113.005 125.253 112.42 125.633 111.742C126.012 111.064 126.216 110.312 126.228 109.547V99.1755C126.273 98.8552 126.221 98.5295 126.079 98.235C125.937 97.9406 125.711 97.6892 125.424 97.5092Z" fill="#BA68C8"/>
<path d="M119.175 108.306L120.408 111.624L116.082 113.96L117.162 109.866L117.316 109.288C116.585 109.288 116.082 108.778 116.082 107.85C116.088 107.472 116.156 107.097 116.285 106.739C116.622 105.75 117.313 104.901 118.241 104.334C119.434 103.688 120.408 104.213 120.408 105.506C120.349 106.544 119.914 107.532 119.175 108.306Z" fill="#455A64"/>
<path d="M117.129 109.828L117.283 109.25C116.553 109.25 116.049 108.74 116.049 107.812C116.055 107.434 116.123 107.059 116.252 106.701L119.174 108.306L120.408 111.624L117.129 109.828Z" fill="#37474F"/>
<path d="M149.208 144.571L86.2194 178.636C83.6138 180.044 81.5034 178.545 81.5034 175.296V166.355C81.5034 163.099 83.6138 159.317 86.2194 157.909L149.208 123.844C151.813 122.436 153.924 123.928 153.924 127.184V136.125C153.883 139.381 151.773 143.155 149.208 144.571Z" fill="#BA68C8"/>
<path d="M97.5423 157.103H96.3247V166.561H97.5423V157.103Z" fill="#FAFAFA"/>
<path d="M101.531 159.805L92.7529 164.534L93.3617 165.527L102.14 160.798L101.531 159.805Z" fill="#FAFAFA"/>
<path d="M94.1434 159.676L93.5347 160.664L99.7136 164.008L100.322 163.02L94.1434 159.676Z" fill="#FAFAFA"/>
<path d="M100.361 156.006L94.1797 166.088L95.239 166.659L101.42 156.577L100.361 156.006Z" fill="#FAFAFA"/>
<path d="M118.298 146.511H117.08V155.969H118.298V146.511Z" fill="#FAFAFA"/>
<path d="M121.747 148.398L113.009 153.127L113.618 154.115L122.356 149.386L121.747 148.398Z" fill="#FAFAFA"/>
<path d="M114.907 149.081L114.298 150.069L120.477 153.414L121.086 152.425L114.907 149.081Z" fill="#FAFAFA"/>
<path d="M121.072 145.33L114.891 155.412L115.95 155.983L122.131 145.901L121.072 145.33Z" fill="#FAFAFA"/>
<path d="M139.053 135.912H137.835V145.37H139.053V135.912Z" fill="#FAFAFA"/>
<path d="M143.209 138.523L134.431 143.252L135.04 144.245L143.818 139.516L143.209 138.523Z" fill="#FAFAFA"/>
<path d="M135.663 138.482L135.054 139.471L141.233 142.815L141.842 141.826L135.663 138.482Z" fill="#FAFAFA"/>
<path d="M141.009 135.329L134.828 145.365L135.882 145.935L142.063 135.899L141.009 135.329Z" fill="#FAFAFA"/>
<path d="M151.034 156.882C151.846 156.882 152.26 158.061 152.26 159.233V168.174C152.26 170.89 150.466 174.154 148.355 175.303L85.4077 209.369C85.0882 209.56 84.7225 209.672 84.3444 209.696C83.5327 209.696 83.1268 208.517 83.1268 207.345V198.404C83.1268 195.688 84.9126 192.424 87.0311 191.275L150.019 157.209C150.336 157.018 150.699 156.906 151.075 156.882M151.075 155.36C150.414 155.383 149.77 155.567 149.208 155.893L86.2194 189.958C83.6138 191.366 81.5034 195.148 81.5034 198.404V207.345C81.5034 209.764 82.6723 211.218 84.3444 211.218C85.0082 211.196 85.6545 211.013 86.2194 210.685L149.208 176.62C151.813 175.212 153.924 171.43 153.924 168.174V159.233C153.924 156.814 152.747 155.36 151.075 155.36Z" fill="#BA68C8"/>
<path d="M119.665 180.692V182.013L116.303 183.825V182.503L119.665 180.692ZM117.066 180.572L118.615 179.738V185.651C118.615 185.814 118.636 185.929 118.68 185.996C118.724 186.061 118.784 186.09 118.862 186.084C118.942 186.077 119.034 186.045 119.138 185.989C119.211 185.95 119.284 185.904 119.356 185.851C119.429 185.795 119.485 185.752 119.524 185.723L119.767 186.901C119.69 186.97 119.581 187.061 119.44 187.172C119.299 187.287 119.128 187.402 118.927 187.519C118.554 187.736 118.227 187.856 117.946 187.878C117.667 187.899 117.45 187.815 117.295 187.626C117.14 187.437 117.064 187.134 117.066 186.717V180.572ZM123.159 185.276C122.585 185.586 122.09 185.72 121.676 185.679C121.264 185.634 120.946 185.428 120.723 185.06C120.5 184.691 120.389 184.171 120.389 183.502C120.389 182.85 120.5 182.217 120.723 181.604C120.946 180.991 121.26 180.438 121.665 179.945C122.072 179.45 122.549 179.055 123.097 178.76C123.466 178.562 123.809 178.444 124.126 178.408C124.446 178.368 124.725 178.417 124.962 178.556C125.202 178.694 125.389 178.93 125.522 179.262C125.655 179.593 125.722 180.027 125.722 180.567V181.05L121.007 183.59V182.5L124.264 180.745C124.264 180.492 124.216 180.294 124.119 180.151C124.022 180.007 123.887 179.927 123.715 179.91C123.546 179.888 123.348 179.938 123.123 180.06C122.888 180.186 122.679 180.36 122.497 180.582C122.318 180.8 122.177 181.04 122.076 181.301C121.974 181.559 121.922 181.815 121.919 182.066V183.103C121.919 183.417 121.97 183.661 122.072 183.834C122.176 184.007 122.323 184.104 122.512 184.126C122.701 184.148 122.925 184.089 123.184 183.949C123.357 183.857 123.514 183.744 123.657 183.612C123.8 183.48 123.922 183.331 124.024 183.166C124.126 183.002 124.204 182.825 124.257 182.636L125.689 181.972C125.617 182.402 125.467 182.824 125.242 183.237C125.019 183.646 124.731 184.027 124.377 184.381C124.025 184.73 123.619 185.028 123.159 185.276ZM116.695 202.635V196.292L118.197 195.483V196.59L118.255 196.558C118.357 196.11 118.527 195.72 118.767 195.39C119.007 195.057 119.284 194.806 119.596 194.638C119.674 194.596 119.757 194.557 119.847 194.519C119.937 194.482 120.016 194.455 120.083 194.437V195.998C120.011 196.013 119.91 196.045 119.782 196.095C119.653 196.145 119.536 196.198 119.429 196.256C119.201 196.379 118.998 196.545 118.818 196.754C118.641 196.96 118.501 197.19 118.397 197.444C118.295 197.697 118.244 197.953 118.244 198.212V201.8L116.695 202.635Z" fill="#BA68C8"/>
<path d="M243.682 55.2794C243.719 55.8815 243.908 56.4666 244.234 56.9866C244.56 57.5065 245.014 57.9463 245.557 58.2698C246.596 58.8176 247.432 58.3687 247.432 57.273C247.394 56.6709 247.205 56.0858 246.879 55.5659C246.553 55.0459 246.1 54.6061 245.557 54.2826C244.526 53.7348 243.682 54.1761 243.682 55.2794Z" fill="#455A64"/>
<path d="M218.543 62.3634C216.893 62.3118 215.285 61.861 213.876 61.0546L207.926 57.8969C207.877 57.874 207.833 57.8419 207.797 57.8026C207.761 57.7632 207.734 57.7175 207.718 57.6681C207.702 57.6186 207.696 57.5667 207.702 57.5152C207.708 57.4638 207.725 57.414 207.752 57.369C207.779 57.3239 207.816 57.2845 207.859 57.2531C207.903 57.2218 207.954 57.1991 208.007 57.1866C208.061 57.1741 208.116 57.1719 208.171 57.1802C208.225 57.1885 208.277 57.2071 208.324 57.2349L214.274 60.3926C216.847 61.7546 219.225 61.9753 220.986 61.0166C222.748 60.0579 223.665 58.0871 223.665 55.4164C223.665 52.4717 224.761 50.2499 226.741 49.1618C228.722 48.0737 231.441 48.2792 234.266 49.7781L243.885 54.8837C243.977 54.9347 244.044 55.017 244.073 55.1134C244.101 55.2098 244.089 55.3129 244.039 55.4012C243.986 55.4888 243.898 55.5533 243.795 55.5804C243.691 55.6075 243.58 55.595 243.487 55.5457L233.868 50.4781C231.303 49.1161 228.917 48.8955 227.155 49.8618C225.394 50.8282 224.477 52.7913 224.477 55.4544C224.477 58.4067 223.381 60.6285 221.4 61.709C220.527 62.1611 219.541 62.387 218.543 62.3634Z" fill="#455A64"/>
<path d="M205.467 56.1925C205.495 56.6791 205.648 57.1521 205.912 57.5719C206.176 57.9916 206.544 58.3458 206.985 58.6045C207.796 59.0535 208.503 58.6882 208.503 57.798C208.474 57.3114 208.321 56.8383 208.057 56.4186C207.793 55.9988 207.425 55.6447 206.985 55.3859C206.149 54.937 205.467 55.3022 205.467 56.1925Z" fill="#455A64"/>
<path d="M301.475 48.1042L261.702 26.9969C261.284 26.7094 260.779 26.5544 260.261 26.5544C259.743 26.5544 259.238 26.7094 258.82 26.9969L255.378 29.2187L257.724 31.9351V71.2202C257.724 73.9671 259.51 77.1552 261.702 78.3498L300.477 98.8941L300.655 101.816L304.275 99.4876C304.693 99.1229 305.015 98.6732 305.218 98.1732C305.421 97.6732 305.498 97.1363 305.444 96.6038V55.2338C305.461 52.4869 303.675 49.2988 301.475 48.1042Z" fill="#BA68C8"/>
<path opacity="0.3" d="M301.475 48.1042L261.702 26.9969C261.284 26.7094 260.779 26.5544 260.261 26.5544C259.743 26.5544 259.238 26.7094 258.82 26.9969L255.378 29.2187L257.724 31.9351V71.2202C257.724 73.9671 259.51 77.1552 261.702 78.3498L300.477 98.8941L300.655 101.816L304.275 99.4876C304.693 99.1229 305.015 98.6732 305.218 98.1732C305.421 97.6732 305.498 97.1363 305.444 96.6038V55.2338C305.461 52.4869 303.675 49.2988 301.475 48.1042Z" fill="black"/>
<path d="M298.098 101.633L258.325 80.5259C256.125 79.3389 254.347 76.1432 254.347 73.3963V32.0035C254.347 29.2491 256.125 27.986 258.325 29.1806L298.098 50.2879C300.298 51.4749 302.075 54.6706 302.075 57.4175V98.8179C302.075 101.565 300.298 102.828 298.098 101.633Z" fill="#BA68C8"/>
<path d="M289.746 65.8102C289.656 65.8114 289.568 65.7844 289.496 65.7334C289.424 65.6824 289.372 65.6103 289.348 65.5286C288.501 62.593 287.19 59.7925 285.46 57.2196C285.402 57.1348 285.382 57.032 285.405 56.9335C285.428 56.8351 285.492 56.7492 285.582 56.6946C285.627 56.667 285.677 56.6482 285.73 56.6394C285.783 56.6306 285.837 56.6319 285.89 56.6433C285.942 56.6547 285.991 56.6759 286.035 56.7056C286.078 56.7354 286.115 56.773 286.142 56.8164C287.918 59.4521 289.264 62.322 290.136 65.3308C290.161 65.4286 290.146 65.5318 290.093 65.6194C290.04 65.7071 289.954 65.7726 289.851 65.8026L289.746 65.8102Z" fill="white"/>
<path d="M290.655 73.5486C290.547 73.5408 290.446 73.4933 290.374 73.4164C290.303 73.3396 290.267 73.2394 290.274 73.1377C290.274 72.7344 290.322 72.3083 290.322 71.8746C290.318 70.5737 290.196 69.2755 289.957 67.994C289.939 67.8931 289.964 67.7896 290.027 67.7061C290.09 67.6226 290.186 67.5661 290.294 67.5489C290.401 67.5318 290.512 67.5554 290.601 67.6146C290.69 67.6738 290.75 67.7638 290.769 67.8647C291.017 69.1888 291.145 70.5303 291.15 71.8746C291.15 72.3235 291.15 72.7649 291.102 73.191C291.097 73.242 291.083 73.2917 291.058 73.3374C291.033 73.383 290.999 73.4236 290.958 73.4568C290.916 73.4901 290.868 73.5153 290.816 73.531C290.764 73.5468 290.709 73.5528 290.655 73.5486Z" fill="white"/>
<path d="M265.825 60.9176C265.725 60.9179 265.628 60.8828 265.554 60.8193C265.481 60.7559 265.435 60.6687 265.427 60.5752C265.362 59.9132 265.33 59.2512 265.33 58.6121C265.33 54.9217 266.393 51.8781 268.325 50.0291C268.362 49.9937 268.406 49.9656 268.455 49.9463C268.504 49.9271 268.556 49.9172 268.609 49.9172C268.662 49.9172 268.714 49.9271 268.763 49.9463C268.812 49.9656 268.856 49.9937 268.893 50.0291C268.931 50.0645 268.961 50.1066 268.982 50.1529C269.002 50.1993 269.013 50.249 269.013 50.2993C269.013 50.3495 269.002 50.3992 268.982 50.4456C268.961 50.4919 268.931 50.534 268.893 50.5694C267.115 52.2738 266.133 55.1348 266.133 58.6197C266.133 59.236 266.133 59.8752 266.222 60.5143C266.228 60.5639 266.223 60.614 266.208 60.6618C266.192 60.7095 266.167 60.7538 266.132 60.7921C266.098 60.8304 266.056 60.862 266.009 60.8848C265.962 60.9077 265.91 60.9214 265.857 60.9252L265.825 60.9176Z" fill="white"/>
<path d="M283.78 54.762C283.72 54.7627 283.66 54.7507 283.605 54.727C283.55 54.7033 283.502 54.6685 283.463 54.6251C281.96 52.8299 280.113 51.3127 278.017 50.151C275.322 48.7205 272.789 48.4466 270.712 49.3901C270.615 49.4318 270.504 49.436 270.404 49.4018C270.303 49.3676 270.222 49.2978 270.176 49.2075C270.153 49.1621 270.139 49.1128 270.136 49.0625C270.133 49.0121 270.141 48.9618 270.16 48.9144C270.178 48.867 270.206 48.8234 270.242 48.7862C270.278 48.749 270.322 48.7189 270.371 48.6977C272.708 47.6857 275.492 47.9368 278.431 49.527C280.614 50.7382 282.541 52.3169 284.113 54.1837C284.18 54.2616 284.212 54.3613 284.201 54.461C284.191 54.5607 284.138 54.6525 284.056 54.7164C283.973 54.7618 283.875 54.778 283.78 54.762Z" fill="white"/>
<path d="M268.626 61.2144C268.521 61.2145 268.42 61.1765 268.344 61.1084C268.269 61.0403 268.224 60.9474 268.22 60.8492C268.22 60.6133 268.22 60.3774 268.22 60.1415C268.22 57.4404 268.926 55.2338 270.265 53.7652C270.299 53.7267 270.34 53.6948 270.388 53.6716C270.435 53.6483 270.486 53.6342 270.539 53.6299C270.592 53.6256 270.645 53.6314 270.696 53.6468C270.746 53.6622 270.793 53.6869 270.833 53.7196C270.915 53.7858 270.966 53.8794 270.975 53.9804C270.984 54.0813 270.951 54.1816 270.882 54.2598C269.673 55.5914 269.031 57.623 269.031 60.1415C269.031 60.3622 269.031 60.5905 269.031 60.8111C269.034 60.8611 269.025 60.911 269.007 60.9579C268.988 61.0049 268.96 61.0479 268.924 61.0847C268.888 61.1214 268.844 61.1511 268.796 61.1721C268.748 61.1931 268.695 61.2048 268.642 61.2068L268.626 61.2144Z" fill="white"/>
<path d="M271.775 53.3772C271.685 53.378 271.598 53.3512 271.527 53.301C271.455 53.2507 271.404 53.1798 271.38 53.0992C271.356 53.0186 271.361 52.9328 271.394 52.8552C271.427 52.7775 271.487 52.7123 271.564 52.6696C272.604 52.0899 273.821 51.8541 275.021 52C275.128 52.0096 275.226 52.0582 275.294 52.1351C275.362 52.212 275.396 52.3111 275.387 52.4109C275.374 52.5112 275.321 52.603 275.238 52.667C275.154 52.7309 275.048 52.7618 274.94 52.7533C273.918 52.639 272.884 52.8479 272.002 53.3468C271.93 53.375 271.852 53.3855 271.775 53.3772Z" fill="white"/>
<path d="M289.746 78.4411C289.664 78.4413 289.585 78.419 289.517 78.377C289.449 78.3351 289.396 78.2753 289.364 78.2053L288.893 77.102C287.95 74.9684 287.451 72.6851 287.424 70.3756C287.424 63.9232 283.203 56.4588 278.017 53.7043C277.97 53.6799 277.929 53.647 277.897 53.6075C277.864 53.5681 277.84 53.5229 277.827 53.4746C277.813 53.4264 277.81 53.376 277.817 53.3266C277.825 53.2772 277.843 53.2297 277.87 53.1869C277.896 53.1428 277.93 53.1039 277.972 53.0725C278.014 53.0412 278.062 53.0181 278.114 53.0046C278.165 52.9911 278.219 52.9875 278.272 52.994C278.325 53.0005 278.376 53.0169 278.422 53.0424C283.828 55.9186 288.236 63.6949 288.236 70.3452C288.256 72.5664 288.736 74.7627 289.648 76.8128L290.119 77.9161C290.14 77.962 290.151 78.0114 290.152 78.0613C290.152 78.1113 290.142 78.1608 290.121 78.2069C290.101 78.253 290.071 78.2948 290.033 78.3299C289.995 78.3649 289.949 78.3924 289.9 78.4107C289.851 78.431 289.799 78.4414 289.746 78.4411Z" fill="white"/>
<path d="M271.109 74.0659C271.025 74.0658 270.944 74.0417 270.876 73.9968C270.808 73.9519 270.756 73.8883 270.727 73.8148C269.416 70.2194 268.569 66.4898 268.203 62.7057C268.199 62.6551 268.205 62.6042 268.222 62.5559C268.239 62.5077 268.266 62.4631 268.301 62.4248C268.337 62.3866 268.38 62.3553 268.429 62.333C268.478 62.3107 268.53 62.2977 268.585 62.2948C268.691 62.2924 268.795 62.328 268.875 62.3943C268.954 62.4607 269.004 62.5529 269.015 62.6524C269.361 66.3649 270.178 70.0253 271.45 73.5561C271.469 73.603 271.478 73.653 271.476 73.7032C271.474 73.7534 271.461 73.8027 271.439 73.8482C271.416 73.8937 271.384 73.9344 271.344 73.9679C271.304 74.0013 271.257 74.0269 271.206 74.043C271.175 74.0546 271.142 74.0623 271.109 74.0659Z" fill="white"/>
<path d="M287.359 81.0053C287.277 81.007 287.195 80.9844 287.127 80.9408C287.059 80.8971 287.007 80.8346 286.978 80.7619L285.89 78.0226C284.794 75.3491 284.203 72.5166 284.145 69.6527V66.6624C284.145 63.109 281.426 58.7795 278.082 57.0066C276.523 56.1773 275.078 56.0327 274.023 56.611C272.968 57.1892 272.4 58.3839 272.4 60.0046V62.6525C272.489 66.9539 273.407 71.2048 275.111 75.1997L276.45 78.4715C276.47 78.5185 276.479 78.5686 276.478 78.619C276.477 78.6693 276.465 78.719 276.443 78.765C276.421 78.811 276.389 78.8525 276.35 78.887C276.311 78.9215 276.265 78.9484 276.215 78.9661C276.115 79.0008 276.004 78.9971 275.907 78.9558C275.809 78.9145 275.733 78.8389 275.695 78.7455L274.356 75.4736C272.626 71.3894 271.697 67.0461 271.612 62.6525V60.0122C271.612 58.1099 272.318 56.6718 273.617 55.9642C274.916 55.2566 276.661 55.3859 278.487 56.3523C282.051 58.2469 284.981 62.8732 284.981 66.67V69.6604C285.037 72.4337 285.611 75.1764 286.678 77.7639L287.757 80.4955C287.777 80.5419 287.786 80.5915 287.784 80.6413C287.783 80.6912 287.771 80.7402 287.749 80.7856C287.727 80.831 287.696 80.8719 287.657 80.9057C287.618 80.9395 287.572 80.9656 287.522 80.9825L287.359 81.0053Z" fill="white"/>
<path d="M283.78 82.0934C283.693 82.0939 283.608 82.0683 283.538 82.0204C283.468 81.9724 283.416 81.9047 283.39 81.8271L282.822 80.0314C281.787 76.8795 281.24 73.6047 281.199 70.3071V65.6961C281.136 64.6516 280.808 63.6362 280.244 62.7338C279.679 61.8314 278.894 61.068 277.952 60.5067C277.658 60.3051 277.313 60.1792 276.951 60.1418C276.59 60.1044 276.224 60.1568 275.89 60.2937C275.605 60.4877 275.38 60.749 275.237 61.051C275.095 61.353 275.04 61.685 275.078 62.0133C275.078 67.157 276.75 73.0844 279.778 78.7074L280.923 80.8303C280.947 80.8753 280.961 80.9242 280.965 80.9744C280.969 81.0245 280.962 81.0749 280.945 81.1226C280.928 81.1703 280.901 81.2144 280.866 81.2523C280.831 81.2903 280.788 81.3214 280.74 81.3439C280.692 81.3664 280.64 81.3798 280.586 81.3834C280.533 81.3869 280.479 81.3806 280.428 81.3647C280.377 81.3488 280.33 81.3237 280.29 81.2907C280.249 81.2578 280.216 81.2177 280.192 81.1727L279.056 79.0498C275.963 73.3203 274.267 67.2711 274.267 62.0133C274.221 61.5519 274.308 61.0874 274.52 60.6684C274.731 60.2495 275.059 59.8914 275.468 59.6317C275.923 59.426 276.428 59.3373 276.931 59.3747C277.435 59.4121 277.919 59.5744 278.333 59.8448C279.397 60.4766 280.286 61.3369 280.925 62.3543C281.565 63.3718 281.937 64.5172 282.01 65.6961V70.3223C282.047 73.5476 282.58 76.751 283.593 79.8335L284.161 81.6216C284.177 81.6696 284.183 81.7201 284.178 81.7701C284.172 81.8201 284.156 81.8686 284.131 81.9127C284.105 81.9567 284.07 81.9955 284.028 82.0265C283.986 82.0576 283.937 82.0803 283.885 82.0934C283.851 82.0998 283.815 82.0998 283.78 82.0934Z" fill="white"/>
<path d="M279.226 74.066C279.134 74.065 279.045 74.0353 278.973 73.9816C278.901 73.9278 278.85 73.8531 278.829 73.7692L278.455 72.1409C278.098 70.5752 277.919 68.9787 277.919 67.3777V63.0938C277.919 62.9929 277.962 62.8962 278.038 62.8248C278.114 62.7535 278.218 62.7134 278.325 62.7134C278.433 62.7134 278.536 62.7535 278.612 62.8248C278.688 62.8962 278.731 62.9929 278.731 63.0938V67.3777C278.736 68.9122 278.91 70.4421 279.251 71.9431L279.624 73.5714C279.636 73.6199 279.637 73.6701 279.628 73.7192C279.619 73.7682 279.6 73.815 279.571 73.8568C279.542 73.8987 279.505 73.9347 279.461 73.9628C279.417 73.9908 279.368 74.0104 279.316 74.0203L279.226 74.066Z" fill="white"/>
<path d="M266.71 65.8104C266.609 65.8092 266.513 65.7738 266.438 65.7108C266.363 65.6478 266.316 65.5615 266.304 65.468L266.068 63.2461C266.059 63.1455 266.092 63.0456 266.16 62.9674C266.229 62.8893 266.327 62.8392 266.434 62.8276C266.487 62.8213 266.542 62.8253 266.593 62.8392C266.645 62.8532 266.694 62.877 266.735 62.909C266.777 62.941 266.811 62.9807 266.836 63.0256C266.861 63.0704 266.876 63.1196 266.88 63.17L267.115 65.3919C267.121 65.4419 267.116 65.4924 267.101 65.5406C267.085 65.5888 267.06 65.6336 267.026 65.6725C266.992 65.7114 266.95 65.7437 266.903 65.7673C266.855 65.791 266.804 65.8056 266.75 65.8104H266.71Z" fill="white"/>
<path d="M301.475 118.609L261.702 97.4939C261.284 97.2065 260.779 97.0515 260.261 97.0515C259.743 97.0515 259.238 97.2065 258.82 97.4939L255.378 99.7158L257.724 102.432V141.717C257.724 144.464 259.51 147.652 261.702 148.847L300.477 169.391L300.655 172.313L304.275 169.992C304.693 169.626 305.015 169.175 305.218 168.674C305.421 168.173 305.498 167.634 305.444 167.101V125.708C305.461 122.984 303.675 119.796 301.475 118.609Z" fill="#BA68C8"/>
<path opacity="0.3" d="M301.475 118.609L261.702 97.4939C261.284 97.2065 260.779 97.0515 260.261 97.0515C259.743 97.0515 259.238 97.2065 258.82 97.4939L255.378 99.7158L257.724 102.432V141.717C257.724 144.464 259.51 147.652 261.702 148.847L300.477 169.391L300.655 172.313L304.275 169.992C304.693 169.626 305.015 169.175 305.218 168.674C305.421 168.173 305.498 167.634 305.444 167.101V125.708C305.461 122.984 303.675 119.796 301.475 118.609Z" fill="black"/>
<path d="M298.098 172.13L258.325 151.023C256.125 149.836 254.347 146.648 254.347 143.894V102.501C254.347 99.7539 256.125 98.4908 258.325 99.6778L298.098 120.785C300.298 121.98 302.075 125.168 302.075 127.915V169.315C302.075 172.062 300.298 173.325 298.098 172.13Z" fill="#BA68C8"/>
<path d="M263.211 114.051C263.103 114.051 263 114.011 262.924 113.94C262.848 113.868 262.805 113.772 262.805 113.671V111.106C262.803 110.852 262.873 110.601 263.009 110.38C263.144 110.16 263.34 109.977 263.576 109.851C263.821 109.713 264.102 109.64 264.388 109.64C264.674 109.64 264.955 109.713 265.2 109.851L268.065 111.373C268.16 111.422 268.23 111.505 268.259 111.603C268.289 111.7 268.276 111.805 268.223 111.894C268.171 111.983 268.082 112.048 267.978 112.076C267.874 112.104 267.762 112.092 267.667 112.042L264.794 110.521C264.67 110.454 264.531 110.419 264.388 110.419C264.246 110.419 264.106 110.454 263.982 110.521C263.87 110.58 263.777 110.666 263.712 110.77C263.648 110.875 263.615 110.993 263.617 111.114V113.678C263.615 113.778 263.571 113.873 263.495 113.942C263.419 114.012 263.317 114.051 263.211 114.051Z" fill="white"/>
<path d="M267.821 149.334C267.754 149.333 267.687 149.318 267.627 149.288L264.948 147.865C264.308 147.52 263.776 147.022 263.407 146.422C263.038 145.822 262.844 145.142 262.846 144.449V142.083C262.846 141.982 262.888 141.885 262.965 141.814C263.041 141.742 263.144 141.702 263.252 141.702C263.359 141.702 263.462 141.742 263.539 141.814C263.615 141.885 263.657 141.982 263.657 142.083V144.449C263.66 145.01 263.821 145.561 264.125 146.045C264.429 146.529 264.864 146.929 265.386 147.203L268.065 148.626C268.141 148.669 268.2 148.733 268.234 148.81C268.267 148.887 268.273 148.972 268.25 149.052C268.227 149.132 268.176 149.203 268.106 149.254C268.036 149.305 267.951 149.333 267.862 149.334H267.821Z" fill="white"/>
<path d="M292.067 162.048C291.782 162.054 291.502 161.985 291.256 161.851L288.39 160.329C288.297 160.279 288.228 160.197 288.199 160.1C288.17 160.003 288.183 159.899 288.236 159.811C288.29 159.725 288.378 159.662 288.481 159.635C288.584 159.608 288.694 159.62 288.788 159.667L291.661 161.189C291.785 161.255 291.925 161.291 292.067 161.291C292.21 161.291 292.35 161.255 292.473 161.189C292.585 161.13 292.679 161.044 292.743 160.939C292.807 160.835 292.84 160.716 292.838 160.595V158.031C292.838 157.93 292.881 157.833 292.957 157.762C293.033 157.691 293.137 157.651 293.244 157.651C293.352 157.651 293.455 157.691 293.531 157.762C293.607 157.833 293.65 157.93 293.65 158.031V160.595C293.652 160.849 293.581 161.098 293.446 161.317C293.31 161.537 293.114 161.718 292.879 161.843C292.633 161.98 292.353 162.051 292.067 162.048Z" fill="white"/>
<path d="M293.228 129.992C293.12 129.992 293.017 129.952 292.941 129.88C292.865 129.809 292.822 129.712 292.822 129.611V127.245C292.82 126.685 292.659 126.135 292.355 125.652C292.051 125.169 291.616 124.771 291.093 124.498L288.415 123.075C288.321 123.024 288.252 122.941 288.223 122.842C288.194 122.744 288.208 122.639 288.26 122.55C288.287 122.507 288.322 122.469 288.364 122.438C288.406 122.407 288.454 122.385 288.506 122.372C288.557 122.36 288.611 122.357 288.663 122.364C288.716 122.371 288.767 122.388 288.812 122.413L291.491 123.836C292.138 124.176 292.677 124.671 293.053 125.27C293.429 125.869 293.63 126.55 293.634 127.245V129.611C293.634 129.712 293.591 129.809 293.515 129.88C293.439 129.952 293.336 129.992 293.228 129.992Z" fill="white"/>
<path d="M266.807 126.849C266.897 131.17 267.557 135.464 268.771 139.632C271.856 150.544 284.023 157.247 287.367 149.859C288.938 146.224 289.709 142.329 289.632 138.407C289.632 131.712 284.518 123.57 278.219 120.222C271.774 116.806 266.718 119.979 266.807 126.849Z" fill="white"/>
<path d="M277.814 132.944V140.112L274.494 137.784L277.814 132.944Z" fill="#E0E0E0"/>
<path d="M271.637 128.66C271.658 129.012 271.768 129.353 271.957 129.657C272.146 129.961 272.409 130.219 272.724 130.41C273.333 130.73 273.82 130.471 273.82 129.824C273.799 129.473 273.688 129.132 273.498 128.829C273.307 128.526 273.042 128.27 272.724 128.082C272.124 127.762 271.637 128.021 271.637 128.66Z" fill="#E0E0E0"/>
<path d="M281.799 134.124C281.822 134.474 281.934 134.815 282.124 135.118C282.315 135.421 282.579 135.677 282.895 135.866C283.504 136.186 283.991 135.927 283.991 135.288C283.97 134.935 283.859 134.593 283.669 134.289C283.478 133.984 283.213 133.727 282.895 133.538C282.327 133.218 281.799 133.477 281.799 134.124Z" fill="#E0E0E0"/>
<path d="M276.718 143.62L280.427 143.034C280.427 143.034 279.64 146.747 276.718 143.62Z" fill="#E0E0E0"/>
<path d="M243.682 121.789C243.72 122.39 243.91 122.974 244.236 123.492C244.562 124.011 245.015 124.449 245.557 124.772C246.596 125.328 247.432 124.879 247.432 123.783C247.394 123.181 247.205 122.596 246.879 122.076C246.553 121.556 246.1 121.116 245.557 120.793C244.526 120.237 243.682 120.686 243.682 121.789Z" fill="#455A64"/>
<path d="M243.755 122.619C243.685 122.618 243.615 122.603 243.552 122.573L233.941 117.437C228.316 114.454 223.738 107.157 223.738 101.184C223.738 95.4471 219.347 88.4545 213.949 85.5859L207.926 82.3902C207.833 82.3406 207.764 82.2583 207.735 82.1613C207.706 82.0643 207.72 81.9606 207.772 81.8727C207.798 81.8286 207.832 81.7897 207.874 81.7583C207.916 81.727 207.964 81.7039 208.015 81.6904C208.067 81.6769 208.121 81.6733 208.174 81.6798C208.227 81.6863 208.278 81.7027 208.324 81.7282L214.347 84.9239C219.972 87.9143 224.55 95.2037 224.55 101.184C224.55 106.914 228.941 113.907 234.339 116.775L243.958 121.888C244.051 121.938 244.12 122.02 244.149 122.117C244.178 122.214 244.165 122.318 244.112 122.406C244.078 122.468 244.027 122.52 243.964 122.557C243.901 122.595 243.829 122.616 243.755 122.619Z" fill="#455A64"/>
<path d="M205.467 80.564C205.498 81.051 205.652 81.5242 205.916 81.9448C206.179 82.3654 206.546 82.7214 206.985 82.9837C207.796 83.425 208.503 83.0674 208.503 82.1771C208.471 81.6901 208.318 81.2169 208.054 80.7964C207.79 80.3758 207.424 80.0198 206.985 79.7575C206.149 79.3162 205.467 79.6738 205.467 80.564Z" fill="#455A64"/>
<path d="M216.887 150.308C216.887 150.308 222.805 149.935 226.157 157.643C228.243 162.437 230.784 169.817 232.407 174.763C232.9 176.257 232.912 177.853 232.441 179.353C231.97 180.852 231.038 182.189 229.761 183.194L219.444 191.313L215.767 185.02C217.911 182.338 220.269 179.812 222.821 177.464L215.767 157.643L216.887 150.308Z" fill="#FFA8A7"/>
<path d="M219.615 173.85C219.615 173.85 229.014 175.014 231.36 168.219C231.36 168.219 227.302 158.274 225.483 154.972C223.665 151.67 219.866 149.265 216.887 150.308C213.909 151.35 219.615 173.85 219.615 173.85Z" fill="#BA68C8"/>
<path opacity="0.4" d="M219.615 173.85C219.615 173.85 229.014 175.014 231.36 168.219C231.36 168.219 227.302 158.274 225.483 154.972C223.665 151.67 219.866 149.265 216.887 150.308C213.909 151.35 219.615 173.85 219.615 173.85Z" fill="white"/>
<path d="M213.332 263.073C213.332 263.073 208.868 259.489 207.131 259.322C205.394 259.154 202.39 261.939 204.931 266.771C205.637 268.118 208.511 269.571 210.305 272.15C212.098 274.73 213.706 276.67 216.457 276.313C219.209 275.955 219.566 274.509 219.387 272.828C219.155 271.289 218.827 269.765 218.405 268.262L213.332 263.073Z" fill="#37474F"/>
<path d="M216.579 275.544C213.746 275.909 212.082 273.908 210.231 271.253C208.38 268.597 205.426 267.09 204.695 265.706C204.403 265.151 204.164 264.573 203.981 263.978C204.116 264.952 204.429 265.897 204.906 266.771C205.612 268.118 208.486 269.571 210.28 272.15C212.074 274.73 213.681 276.67 216.432 276.313C218.543 276.046 219.241 275.126 219.371 273.954C219.014 274.745 218.243 275.339 216.579 275.544Z" fill="#263238"/>
<path d="M210.962 267.684C210.89 267.685 210.82 267.667 210.759 267.631C210.709 267.606 210.664 267.572 210.628 267.531C210.592 267.49 210.565 267.443 210.548 267.392C210.531 267.341 210.526 267.287 210.531 267.234C210.537 267.181 210.554 267.13 210.581 267.083C211.489 265.574 212.998 264.463 214.777 263.994C214.887 263.978 214.998 264.002 215.09 264.06C215.181 264.118 215.246 264.207 215.27 264.308C215.295 264.409 215.278 264.516 215.223 264.605C215.167 264.695 215.078 264.762 214.972 264.793C213.441 265.212 212.141 266.168 211.344 267.463C211.307 267.529 211.252 267.584 211.185 267.623C211.118 267.662 211.041 267.683 210.962 267.684Z" fill="#EBEBEB"/>
<path d="M209.274 266.238C209.203 266.238 209.134 266.222 209.071 266.193C209.02 266.168 208.976 266.134 208.94 266.093C208.903 266.052 208.876 266.005 208.86 265.954C208.843 265.903 208.837 265.849 208.843 265.796C208.848 265.743 208.865 265.692 208.892 265.645C209.342 264.896 209.944 264.237 210.666 263.707C211.387 263.177 212.213 262.786 213.097 262.556C213.155 262.527 213.219 262.512 213.285 262.51C213.351 262.509 213.416 262.521 213.476 262.547C213.535 262.573 213.588 262.611 213.629 262.659C213.671 262.707 213.7 262.763 213.715 262.823C213.729 262.883 213.729 262.945 213.714 263.005C213.699 263.065 213.67 263.121 213.628 263.169C213.586 263.216 213.534 263.255 213.474 263.28C213.414 263.306 213.349 263.318 213.283 263.316C211.752 263.74 210.454 264.699 209.655 265.995C209.624 266.066 209.571 266.126 209.503 266.17C209.435 266.213 209.356 266.237 209.274 266.238Z" fill="#EBEBEB"/>
<path d="M207.383 264.8C207.312 264.8 207.243 264.784 207.18 264.754C207.077 264.703 207.001 264.615 206.968 264.511C206.934 264.407 206.946 264.295 207.001 264.199C207.912 262.691 209.424 261.583 211.206 261.117C211.261 261.105 211.319 261.103 211.375 261.112C211.431 261.12 211.485 261.139 211.533 261.168C211.582 261.196 211.623 261.233 211.656 261.277C211.689 261.32 211.713 261.37 211.725 261.422C211.749 261.528 211.728 261.638 211.666 261.729C211.603 261.821 211.505 261.885 211.392 261.909C209.861 262.332 208.562 263.291 207.764 264.587C207.728 264.652 207.673 264.707 207.606 264.744C207.538 264.782 207.461 264.801 207.383 264.8Z" fill="#EBEBEB"/>
<path d="M189.574 274.829C189.574 274.829 183.591 273.01 181.806 273.512C180.02 274.015 178.275 277.926 182.902 281.722C184.184 282.773 187.658 283.107 190.564 284.964C193.47 286.82 195.905 288.106 198.47 286.699C201.035 285.291 200.824 283.655 200.361 281.92C199.785 279.683 199.314 278.055 199.314 278.055L189.574 274.829Z" fill="#37474F"/>
<path d="M198.275 285.885C195.637 287.338 193.113 286.006 190.158 284.089C187.203 282.171 183.583 281.806 182.26 280.749C181.725 280.312 181.233 279.831 180.791 279.31C181.351 280.224 182.076 281.04 182.934 281.722C184.216 282.773 187.69 283.107 190.596 284.964C193.502 286.821 195.937 288.106 198.502 286.699C200.459 285.626 200.751 284.416 200.369 283.237C200.345 284.157 199.793 285.048 198.275 285.885Z" fill="#263238"/>
<path d="M188.169 280.01H188.129C188.014 279.999 187.908 279.945 187.835 279.861C187.762 279.777 187.728 279.669 187.739 279.562C187.974 277.73 188.976 276.06 190.523 274.92C190.569 274.889 190.621 274.867 190.676 274.855C190.731 274.842 190.788 274.841 190.844 274.849C190.899 274.858 190.953 274.876 191.001 274.904C191.049 274.932 191.091 274.968 191.124 275.011C191.191 275.099 191.218 275.209 191.2 275.315C191.182 275.422 191.119 275.518 191.026 275.582C189.688 276.593 188.817 278.048 188.591 279.645C188.581 279.744 188.533 279.836 188.455 279.904C188.377 279.971 188.275 280.009 188.169 280.01Z" fill="#EBEBEB"/>
<path d="M190.604 280.764C190.491 280.752 190.387 280.7 190.314 280.617C190.241 280.535 190.206 280.429 190.215 280.322C190.453 278.489 191.454 276.819 192.999 275.673C193.094 275.611 193.211 275.587 193.325 275.605C193.439 275.624 193.541 275.684 193.608 275.772C193.64 275.816 193.664 275.865 193.676 275.917C193.688 275.968 193.69 276.022 193.68 276.074C193.67 276.127 193.649 276.177 193.619 276.221C193.588 276.266 193.549 276.305 193.502 276.335C192.161 277.344 191.288 278.8 191.067 280.399C191.057 280.504 191.002 280.602 190.916 280.67C190.829 280.739 190.717 280.772 190.604 280.764Z" fill="#EBEBEB"/>
<path d="M185.864 279.227H185.824C185.71 279.215 185.606 279.163 185.533 279.08C185.46 278.998 185.425 278.892 185.434 278.786C185.668 276.951 186.67 275.279 188.218 274.136C188.312 274.074 188.428 274.049 188.542 274.067C188.655 274.084 188.756 274.144 188.823 274.232C188.89 274.319 188.916 274.428 188.897 274.535C188.878 274.641 188.815 274.736 188.721 274.798C187.38 275.807 186.508 277.263 186.286 278.862C186.276 278.961 186.228 279.053 186.15 279.12C186.072 279.187 185.97 279.225 185.864 279.227Z" fill="#EBEBEB"/>
<path d="M218.689 264.138C219.225 258.584 220.386 249.879 220.873 245.808C221.529 240.663 221.37 235.456 220.402 230.354C220.153 229.152 220.09 227.921 220.215 226.702C221.392 215.639 222.155 197.704 221.506 193.763L204.939 197.05C204.939 197.05 206.968 222.213 207.861 230.583C208.754 238.952 212.082 264.214 212.082 264.214C213.071 264.807 214.224 265.116 215.398 265.103C216.572 265.089 217.716 264.754 218.689 264.138Z" fill="#455A64"/>
<path d="M216.303 269.853C216.76 269.752 217.188 269.557 217.553 269.28C217.919 269.003 218.213 268.653 218.413 268.255C218.413 267.38 218.519 265.919 218.689 264.138C217.716 264.754 216.572 265.089 215.398 265.103C214.224 265.116 213.071 264.808 212.082 264.214L212.666 268.886C213.153 269.297 213.734 269.598 214.365 269.765C214.995 269.933 215.658 269.963 216.303 269.853Z" fill="#FFA8A7"/>
<path d="M200.053 273.908C200.726 265.493 202.033 249.202 202.204 246.638C202.331 243.809 202.14 240.975 201.636 238.184C201.342 236.675 201.342 235.128 201.636 233.619L208.941 195.741L188.916 195.467L187.609 235.148C187.595 235.656 187.617 236.164 187.674 236.67L191.919 273.657C191.919 273.657 196.059 276.921 200.053 273.908Z" fill="#455A64"/>
<path d="M196.708 280.848C197.331 280.78 197.926 280.568 198.439 280.23C198.952 279.893 199.367 279.441 199.647 278.915L200.053 273.908C196.059 276.952 191.936 273.672 191.936 273.672L192.569 279.212C192.569 279.212 193.494 281.129 196.708 280.848Z" fill="#FFA8A7"/>
<path d="M198.169 152.834L193.445 154.356L188.364 176.886L188.615 196.86C188.615 196.86 192.244 199.576 206.416 199.576C214.371 199.576 219.558 196.761 221.506 193.77L220.231 181.703C220.231 181.703 221.506 169.81 221.506 163.928C221.506 158.046 221.79 153.23 216.887 150.316L212.52 150.658L198.169 152.834Z" fill="#BA68C8"/>
<path opacity="0.2" d="M198.169 152.834L193.445 154.356L188.364 176.886L188.615 196.86C188.615 196.86 192.244 199.576 206.416 199.576C214.371 199.576 219.558 196.761 221.506 193.77L220.231 181.703C220.231 181.703 221.506 169.81 221.506 163.928C221.506 158.046 221.79 153.23 216.887 150.316L212.52 150.658L198.169 152.834Z" fill="white"/>
<path d="M193.039 133.469L190.677 137.86C190.643 137.923 190.624 137.993 190.621 138.064C190.619 138.136 190.633 138.206 190.662 138.272C190.691 138.338 190.735 138.397 190.791 138.445C190.847 138.494 190.913 138.53 190.986 138.552L193.786 139.435L193.039 133.469Z" fill="#F28F8F"/>
<path d="M196.286 126.111C196.286 126.111 192.699 127.922 192.699 138.286C192.699 144 193.121 147.645 196.286 147.416C199.452 147.188 208.576 146.07 208.576 146.07V126.111H196.286Z" fill="#FFA8A7"/>
<path d="M196.286 147.455C197.398 147.371 199.249 147.181 201.157 146.968V145.91C199.416 146.606 197.597 147.117 195.734 147.432C195.918 147.452 196.102 147.46 196.286 147.455Z" fill="#F28F8F"/>
<path d="M200.669 145.469V151.989H210.191V142.828L200.669 145.469Z" fill="#FFA8A7"/>
<path d="M200.669 149.509C200.669 149.509 204.095 150.65 206.838 150.201C209.582 149.752 210.191 148.185 210.191 148.185C210.191 148.185 211.084 148.117 212.52 150.65C211.961 151.597 211.161 152.399 210.191 152.986C209.221 153.573 208.111 153.926 206.96 154.013C203.975 154.193 200.982 153.791 198.169 152.834C198.169 152.834 199.533 149.182 200.669 149.509Z" fill="#BA68C8"/>
<path opacity="0.4" d="M200.669 149.509C200.669 149.509 204.095 150.65 206.838 150.201C209.582 149.752 210.191 148.185 210.191 148.185C210.191 148.185 211.084 148.117 212.52 150.65C211.961 151.597 211.161 152.399 210.191 152.986C209.221 153.573 208.111 153.926 206.96 154.013C203.975 154.193 200.982 153.791 198.169 152.834C198.169 152.834 199.533 149.182 200.669 149.509Z" fill="white"/>
<path d="M179.427 168.866L176.87 172.549C176.87 172.549 170.661 169.954 166.318 168.379C163.79 167.499 161.436 166.228 159.354 164.62C159.509 163.035 159.78 161.461 160.166 159.91C160.669 158.313 160.839 156.981 159.354 157.689C157.868 158.396 156.838 161.143 156.748 161.493C156.748 161.493 148.022 153.268 146.935 153.45C145.847 153.633 146.123 154.866 148.445 157.399L150.79 159.941C150.79 159.941 145.441 162.825 146.31 165.975C147.178 169.125 154.232 170.54 154.232 170.54C154.232 170.54 174.874 185.408 179.443 182.715C184.013 180.021 190.483 172.328 190.483 172.328L179.427 168.866Z" fill="#FFA8A7"/>
<path d="M195.32 153.77C195.32 153.77 199.135 156.707 196.651 162.779C194.168 168.851 187.828 176.186 187.828 176.186C187.828 176.186 181.189 174.246 178.624 169.216L187 156.928C187.594 156.053 188.4 155.321 189.352 154.792C190.304 154.264 191.375 153.953 192.479 153.884C193.275 153.838 194.216 153.8 195.32 153.77Z" fill="#BA68C8"/>
<path opacity="0.4" d="M195.32 153.77C195.32 153.77 199.135 156.707 196.651 162.779C194.168 168.851 187.828 176.186 187.828 176.186C187.828 176.186 181.189 174.246 178.624 169.216L187 156.928C187.594 156.053 188.4 155.321 189.352 154.792C190.304 154.264 191.375 153.953 192.479 153.884C193.275 153.838 194.216 153.8 195.32 153.77Z" fill="white"/>
<path d="M194.947 119.994C194.947 119.994 191.181 119.522 190.223 121.949C189.622 123.471 191.538 124.643 191.538 124.643C191.538 124.643 189.103 126.781 192.731 127.443C192.669 127.808 192.704 128.182 192.833 128.531C192.962 128.88 193.182 129.194 193.472 129.444C193.762 129.695 194.114 129.874 194.496 129.965C194.878 130.057 195.279 130.058 195.661 129.969C195.661 129.969 195.239 132.252 198.413 133.081C198.413 133.081 196.79 137.084 199.825 137.137H202.642L201.506 140.226C201.506 140.226 203.616 144.989 210.191 144.989C210.912 143.542 211.725 142.137 212.626 140.782C213.438 139.83 217.496 134.953 217.496 131.088C217.496 127.222 215.913 124.932 213.714 124.422C213.017 123.002 211.93 121.781 210.564 120.884C208.348 119.484 203.689 118.236 201.059 119.956C201.059 119.956 198.73 117.087 197.114 117.087C195.499 117.087 194.947 118.647 194.947 119.994Z" fill="#263238"/>
<path d="M199.826 137.137C199.826 137.137 199.55 133.081 203.194 133.081C206.839 133.081 205.978 140.226 201.506 140.226L199.826 137.137Z" fill="#FFA8A7"/>
</svg>
